<svg id="编组_2" data-name="编组 2" xmlns="http://www.w3.org/2000/svg" width="102" height="33" viewBox="0 0 102 33">
  <text id="Download_for_Android" data-name="Download for Android" transform="translate(35)" fill="#fff" font-size="10" font-family="SegoeUI, Segoe UI"><tspan x="0" y="11">Download for</tspan><tspan font-size="14"><tspan x="0" y="29">Android</tspan></tspan></text>
  <g id="android" transform="translate(0 3)">
    <g id="编组">
      <rect id="矩形" width="24.278" height="24.278" opacity="0"/>
      <path id="形状" d="M11.28,22.772V19.459H9.27v3.313a1.5,1.5,0,1,1-2.994,0l-.013-3.313H5.181a1.6,1.6,0,0,1-1.6-1.606V8.133h13.4v9.72a1.6,1.6,0,0,1-1.589,1.606h-1.1v3.313a1.5,1.5,0,1,1-3.007,0ZM0,15.621V9.345a1.5,1.5,0,0,1,2.992,0v6.277a1.5,1.5,0,1,1-2.992,0Zm18.306,1.3a1.5,1.5,0,0,1-.748-1.3V9.345a1.5,1.5,0,0,1,2.992,0v6.277a1.5,1.5,0,0,1-2.244,1.3ZM3.518,7.609A6.087,6.087,0,0,1,6.963,2.224L5.926.313A.213.213,0,0,1,6,.021a.23.23,0,0,1,.293.088L7.34,2.035a7.326,7.326,0,0,1,5.869,0L14.259.108a.233.233,0,0,1,.292-.089.214.214,0,0,1,.1.131.217.217,0,0,1-.024.162l-1.038,1.91a6.1,6.1,0,0,1,3.431,5.387Z" transform="translate(1.864 0)" fill="#fff"/>
    </g>
  </g>
</svg>
