<svg id="邮箱" xmlns="http://www.w3.org/2000/svg" xmlns:xlink="http://www.w3.org/1999/xlink" width="16" height="16" viewBox="0 0 16 16">
  <defs>
    <linearGradient id="linear-gradient" x1="-0.619" y1="-0.891" x2="0.956" y2="1" gradientUnits="objectBoundingBox">
      <stop offset="0" stop-color="#f8d68f"/>
      <stop offset="1" stop-color="#8c754b"/>
    </linearGradient>
  </defs>
  <rect id="矩形" width="16" height="16" opacity="0"/>
  <path id="形状" d="M11.229,10.72H1.872A1.874,1.874,0,0,1,0,8.848V3.126L6.17,6.687a.6.6,0,0,0,.3.079.6.6,0,0,0,.354-.115l.016-.009.008-.005L13.1,3.027V8.848A1.874,1.874,0,0,1,11.229,10.72ZM6.465,5.481h0L.005,1.751A1.873,1.873,0,0,1,1.872,0h9.357a1.867,1.867,0,0,1,1.859,1.657L6.465,5.481Z" transform="translate(1.42 2.653)" fill="url(#linear-gradient)"/>
</svg>
