<?xml version="1.0" encoding="UTF-8"?>
<svg width="20px" height="20px" viewBox="0 0 20 20" version="1.1" xmlns="http://www.w3.org/2000/svg" xmlns:xlink="http://www.w3.org/1999/xlink">
    <!-- Generator: Sketch 60.1 (88133) - https://sketch.com -->
    <title>002-linkedin@2x</title>
    <desc>Created with Sketch.</desc>
    <g id="3.0" stroke="none" stroke-width="1" fill="none" fill-rule="evenodd">
        <g id="002-linkedin">
            <path d="M10.8347287,9.03760702 L10.8347287,8.98800702 C10.8245287,9.00440702 10.8105287,9.02120702 10.8015287,9.03760702 L10.8347287,9.03760702 Z" id="Fill-1" fill="#000000"></path>
            <path d="M0,20 L19.9561404,20 L19.9561404,0.0438596491 L0,0.0438596491 L0,20 Z M3.24631579,16.622807 L6.20707602,16.622807 L6.20707602,7.71520468 L3.24631579,7.71520468 L3.24631579,16.622807 Z M4.72678363,6.49947368 L4.7071345,6.49947368 C3.71391813,6.49947368 3.07017544,5.81508772 3.07017544,4.95976608 C3.07017544,4.08578947 3.7328655,3.42105263 4.74619883,3.42105263 C5.75953216,3.42105263 6.38251462,4.08578947 6.40192982,4.95976608 C6.40192982,5.81508772 5.75953216,6.49947368 4.72678363,6.49947368 Z M16.8859649,16.622807 L13.924269,16.622807 L13.924269,11.857193 C13.924269,10.6601754 13.4964327,9.84327485 12.4246199,9.84327485 C11.6059064,9.84327485 11.1195906,10.3933918 10.9052632,10.9263158 C10.8273684,11.1166082 10.807076,11.3811111 10.807076,11.6481871 L10.807076,16.6230409 L7.84491228,16.6230409 C7.84491228,16.6230409 7.88444444,8.55081871 7.84491228,7.71520468 L10.807076,7.71520468 L10.807076,8.97754386 C11.2006433,8.37192982 11.9028655,7.50614035 13.4760819,7.50614035 C15.4251462,7.50614035 16.8859649,8.77900585 16.8859649,11.5147368 L16.8859649,16.622807 Z" id="Fill-2" fill="#FFFFFF"></path>
        </g>
    </g>
</svg>