<svg width="294" height="217" viewBox="0 0 294 217" fill="none" xmlns="http://www.w3.org/2000/svg">
<circle opacity="0.3" cx="205.592" cy="109.592" r="53.2383" transform="rotate(88.524 205.592 109.592)" fill="#C7BA9A"/>
<circle opacity="0.2" cx="157.73" cy="61.3868" r="46.5918" transform="rotate(88.524 157.73 61.3868)" fill="#05004D"/>
<path d="M160.532 157.943H253.514V112.644" stroke="#1E1A5F" stroke-width="6" stroke-linecap="round" stroke-linejoin="round" stroke-dasharray="16 16"/>
<path d="M186.758 26.8149H93.7763V72.1136" stroke="#1E1A5F" stroke-width="6" stroke-linecap="round" stroke-linejoin="round" stroke-dasharray="16 16"/>
<path d="M145.393 80.0605H3.12691C1.40028 80.0605 0 81.4608 0 83.1875V170.215C0 171.941 1.40028 173.342 3.12691 173.342H65.392C67.1187 173.342 68.5189 174.742 68.5189 176.469C68.5189 178.195 67.1187 179.595 65.392 179.595H40.2569C38.5302 179.595 37.13 180.996 37.13 182.722V186.892C37.13 188.618 38.5302 190.019 40.2569 190.019H90.677V179.595H83.927C82.2004 179.595 80.8001 178.195 80.8001 176.469C80.8001 174.742 82.2004 173.342 83.927 173.342H90.677V165.604H7.38603V87.7646H139.339V165.604H137.223V173.342H145.393C147.12 173.342 148.52 171.941 148.52 170.215V83.1875C148.52 81.4608 147.12 80.0605 145.393 80.0605Z" fill="#05004D"/>
<path d="M125.393 137.977H102.797C97.8115 137.977 93.7705 142.018 93.7705 147.003V195.061C93.7705 200.046 97.8115 204.087 102.797 204.087H125.393C130.378 204.087 134.419 200.046 134.419 195.061V147.003C134.419 142.018 130.378 137.977 125.393 137.977ZM130.454 194.441C130.454 196.696 128.628 198.522 126.373 198.522H101.235C98.9804 198.522 97.1538 196.696 97.1538 194.441V146.156C97.1538 143.901 98.9804 142.075 101.235 142.075H126.373C128.628 142.075 130.454 143.901 130.454 146.156V194.441Z" fill="#05004D"/>
<path d="M74.2601 95.4541C71.2963 95.4541 68.3991 96.333 65.9348 97.9796C63.4705 99.6262 61.5498 101.967 60.4156 104.705C59.2814 107.443 58.9846 110.456 59.5628 113.363C60.1411 116.27 61.5683 118.94 63.664 121.035C65.7597 123.131 68.4298 124.558 71.3366 125.137C74.2435 125.715 77.2565 125.418 79.9947 124.284C82.7329 123.15 85.0732 121.229 86.7198 118.765C88.3664 116.3 89.2453 113.403 89.2453 110.439C89.241 106.466 87.6608 102.657 84.8514 99.848C82.0421 97.0386 78.2331 95.4584 74.2601 95.4541V95.4541ZM74.2601 124.488C72.3692 124.489 70.4978 124.106 68.7586 123.364C67.0194 122.622 65.4484 121.536 64.1404 120.17C64.637 117.855 65.9124 115.78 67.754 114.291C69.5956 112.802 71.892 111.99 74.2601 111.989C73.2382 111.989 72.2392 111.686 71.3894 111.119C70.5397 110.551 69.8773 109.744 69.4861 108.8C69.0949 107.856 68.9925 106.817 69.1917 105.814C69.3909 104.812 69.8828 103.891 70.6053 103.169C71.3277 102.446 72.2483 101.953 73.2505 101.754C74.2528 101.554 75.2917 101.656 76.236 102.047C77.1803 102.438 77.9875 103.1 78.5556 103.949C79.1237 104.799 79.4272 105.797 79.4277 106.819C79.428 107.498 79.2945 108.17 79.035 108.798C78.7754 109.425 78.3948 109.995 77.9149 110.475C77.4351 110.955 76.8653 111.336 76.2382 111.596C75.6111 111.856 74.9389 111.989 74.2601 111.989C76.6282 111.99 78.9246 112.802 80.7662 114.291C82.6078 115.78 83.8832 117.855 84.3798 120.17C83.0718 121.536 81.5008 122.622 79.7616 123.364C78.0224 124.106 76.151 124.489 74.2601 124.488Z" fill="#1E1A5F"/>
<path d="M114.221 150.399C112.903 150.399 111.616 150.79 110.52 151.522C109.425 152.254 108.572 153.294 108.068 154.511C107.563 155.728 107.432 157.067 107.689 158.359C107.946 159.651 108.58 160.837 109.511 161.769C110.443 162.7 111.629 163.335 112.921 163.592C114.213 163.849 115.552 163.717 116.769 163.213C117.986 162.709 119.026 161.855 119.758 160.76C120.49 159.664 120.881 158.377 120.881 157.06C120.879 155.294 120.176 153.601 118.928 152.352C117.679 151.104 115.986 150.401 114.221 150.399V150.399ZM114.221 163.303C113.38 163.304 112.548 163.134 111.776 162.804C111.003 162.474 110.304 161.991 109.723 161.384C109.944 160.355 110.511 159.433 111.329 158.771C112.148 158.11 113.168 157.749 114.221 157.748C113.766 157.748 113.322 157.614 112.945 157.361C112.567 157.109 112.273 156.75 112.099 156.331C111.925 155.911 111.879 155.45 111.968 155.004C112.057 154.559 112.275 154.149 112.596 153.828C112.917 153.507 113.326 153.288 113.772 153.199C114.217 153.111 114.679 153.156 115.099 153.33C115.519 153.503 115.877 153.797 116.13 154.175C116.382 154.553 116.517 154.996 116.517 155.451C116.517 155.752 116.458 156.051 116.343 156.33C116.227 156.609 116.058 156.862 115.845 157.075C115.632 157.289 115.378 157.458 115.1 157.573C114.821 157.689 114.522 157.748 114.221 157.748C115.273 157.749 116.294 158.11 117.112 158.771C117.931 159.433 118.498 160.355 118.718 161.384C118.137 161.991 117.439 162.474 116.666 162.804C115.893 163.134 115.061 163.304 114.221 163.303Z" fill="#05004D"/>
<rect x="54.2798" y="128.754" width="38.2955" height="6.66008" rx="3.33004" fill="#1E1A5F"/>
<rect x="104.23" y="167.049" width="19.9802" height="3.33004" rx="1.66502" fill="#1E1A5F"/>
<rect x="104.23" y="172.045" width="19.9802" height="3.33004" rx="1.66502" fill="#1E1A5F"/>
<rect x="54.2798" y="138.745" width="38.2955" height="6.66008" rx="3.33004" fill="#1E1A5F"/>
<path d="M267.533 14.636C265.931 13.6549 264.008 13.275 262.132 13.5693C260.256 13.8635 258.559 14.8112 257.368 16.2302C256.177 17.6492 255.576 19.4395 255.68 21.2571C255.784 23.0748 256.585 24.7916 257.931 26.0779L266.154 33.9516C266.334 34.1244 266.547 34.2614 266.783 34.3548C267.018 34.4482 267.271 34.4961 267.525 34.4958L267.533 34.4945L267.54 34.4958C267.795 34.4961 268.047 34.4482 268.283 34.3548C268.518 34.2614 268.732 34.1244 268.912 33.9516L277.135 26.0779C278.48 24.7916 279.282 23.0748 279.386 21.2572C279.489 19.4395 278.888 17.6492 277.697 16.2302C276.507 14.8112 274.81 13.8636 272.934 13.5693C271.058 13.275 269.134 13.6549 267.533 14.636H267.533ZM274.392 23.4515L267.533 30.0193L260.674 23.4515C260.316 23.1107 260.033 22.7059 259.839 22.26C259.645 21.8142 259.545 21.3362 259.545 20.8533C259.544 20.3704 259.643 19.8921 259.836 19.4459C260.028 18.9996 260.311 18.5941 260.667 18.2526C261.024 17.9111 261.447 17.6403 261.913 17.4556C262.379 17.271 262.879 17.1761 263.383 17.1765C263.887 17.1769 264.387 17.2725 264.852 17.4578C265.318 17.6432 265.741 17.9147 266.097 18.2567L266.161 18.3184C266.431 18.5783 266.778 18.7523 267.155 18.817C267.532 18.8816 267.921 18.8337 268.268 18.6798C268.53 18.5878 268.769 18.4436 268.969 18.2567C269.325 17.9147 269.748 17.6432 270.213 17.4578C270.679 17.2725 271.178 17.1769 271.683 17.1765C272.187 17.1761 272.686 17.271 273.152 17.4556C273.618 17.6403 274.042 17.9111 274.398 18.2526C274.755 18.5941 275.038 18.9996 275.23 19.4459C275.423 19.8921 275.522 20.3704 275.521 20.8533C275.521 21.3362 275.421 21.8142 275.227 22.26C275.033 22.7059 274.75 23.1107 274.392 23.4515Z" fill="#05004D"/>
<path d="M282.187 0.299805H252.878C249.746 0.302937 246.744 1.49563 244.529 3.61617C242.314 5.73671 241.069 8.61187 241.066 11.6107V25.4846H223.414C220.282 25.4877 217.28 26.6804 215.065 28.8009C212.85 30.9215 211.605 33.7966 211.602 36.7955V60.2082C211.605 63.0644 212.736 65.8139 214.767 67.9057C216.798 69.9975 219.58 71.2771 222.554 71.4883V82.1426C222.554 82.4912 222.657 82.8327 222.85 83.1281C223.043 83.4235 223.319 83.661 223.647 83.8133C223.974 83.9656 224.34 84.0266 224.702 83.9894C225.063 83.9521 225.407 83.8182 225.693 83.6028L241.747 71.5173H252.723C255.855 71.5143 258.857 70.3219 261.072 68.2017C263.287 66.0816 264.532 63.2068 264.536 60.2082V46.8477L279.908 58.418C280.194 58.6335 280.538 58.7676 280.9 58.8049C281.262 58.8421 281.628 58.7811 281.955 58.6288C282.283 58.4765 282.559 58.239 282.752 57.9435C282.945 57.648 283.047 57.3064 283.047 56.9579V46.3053C286.022 46.0938 288.804 44.8137 290.835 42.7216C292.866 40.6295 293.996 37.8798 294 35.0234V11.6107C293.997 8.61184 292.751 5.73665 290.536 3.61611C288.322 1.49557 285.319 0.302892 282.187 0.299805ZM260.656 60.2082C260.654 62.2219 259.817 64.1524 258.33 65.5761C256.843 66.9998 254.826 67.8006 252.723 67.8026H241.077C240.642 67.8026 240.22 67.9425 239.878 68.1999L226.434 78.3191V69.66C226.434 69.416 226.384 69.1744 226.287 68.949C226.189 68.7236 226.046 68.5188 225.866 68.3463C225.686 68.1738 225.472 68.037 225.237 67.9437C225.001 67.8504 224.749 67.8025 224.494 67.8026H223.414C221.311 67.8006 219.295 66.9999 217.808 65.5761C216.32 64.1524 215.484 62.2219 215.481 60.2082V36.7955C215.484 34.7816 216.32 32.8509 217.808 31.4269C219.295 30.0028 221.311 29.2017 223.414 29.1993H241.066V35.0234C241.069 38.0223 242.314 40.8975 244.529 43.018C246.744 45.1385 249.746 46.3312 252.878 46.3344H260.656V60.2082ZM290.12 35.0234C290.118 37.0373 289.281 38.968 287.794 40.3921C286.307 41.8161 284.29 42.6172 282.187 42.6197H281.107C280.853 42.6195 280.6 42.6675 280.365 42.7608C280.129 42.8541 279.915 42.9909 279.735 43.1634C279.555 43.3359 279.412 43.5407 279.315 43.7661C279.217 43.9915 279.167 44.2331 279.168 44.477V53.1361L265.724 43.0169C265.382 42.7595 264.959 42.6196 264.525 42.6197H252.878C250.775 42.6172 248.759 41.8161 247.271 40.3921C245.784 38.968 244.948 37.0373 244.945 35.0234V11.6107C244.948 9.59685 245.784 7.66613 247.271 6.24209C248.759 4.81804 250.775 4.01694 252.878 4.01449H282.187C284.29 4.01693 286.307 4.81804 287.794 6.24208C289.281 7.66613 290.118 9.59685 290.12 11.6107V35.0234Z" fill="#05004D"/>
<path d="M228.417 48.2789C228.063 48.6352 227.862 49.106 227.854 49.5976C227.856 49.9649 227.971 50.3236 228.184 50.6287C228.398 50.9338 228.701 51.1717 229.055 51.3125C229.41 51.4534 229.799 51.4909 230.176 51.4204C230.552 51.3499 230.899 51.1745 231.171 50.9163C231.343 50.7358 231.481 50.5284 231.579 50.3032C231.678 50.08 231.731 49.8403 231.734 49.5976C231.736 49.2287 231.624 48.8675 231.411 48.5601C231.198 48.2527 230.894 48.0129 230.538 47.8715C230.182 47.73 229.791 47.6932 229.413 47.7658C229.035 47.8383 228.688 48.017 228.417 48.2789L228.417 48.2789Z" fill="#05004D"/>
<path d="M239.145 48.056C239.046 47.9822 238.934 47.9257 238.815 47.8891C238.698 47.8351 238.574 47.7978 238.446 47.7785C238.197 47.7223 237.938 47.7223 237.69 47.7785C237.562 47.7978 237.437 47.8351 237.321 47.8891C237.201 47.9257 237.09 47.9822 236.991 48.056C236.894 48.1303 236.779 48.2048 236.701 48.2791C236.333 48.6283 236.124 49.102 236.118 49.5978C236.119 49.8437 236.171 50.087 236.271 50.3134C236.371 50.5398 236.517 50.7449 236.701 50.9165C236.878 51.0897 237.088 51.2283 237.321 51.3246C237.802 51.4988 238.334 51.4988 238.815 51.3246C239.047 51.2282 239.258 51.0897 239.435 50.9165C239.618 50.7449 239.765 50.5398 239.865 50.3134C239.965 50.087 240.017 49.8437 240.018 49.5978C240.012 49.102 239.802 48.6283 239.435 48.2791C239.357 48.2048 239.241 48.1304 239.145 48.056Z" fill="#05004D"/>
<path d="M247.426 48.0557C247.318 47.9851 247.201 47.9289 247.078 47.8888C246.968 47.835 246.85 47.7977 246.729 47.7782C246.414 47.7176 246.089 47.7316 245.781 47.8189C245.474 47.9061 245.193 48.064 244.964 48.2788C244.792 48.4593 244.654 48.6667 244.556 48.8919C244.457 49.1151 244.404 49.3548 244.401 49.5975C244.405 50.0899 244.606 50.5621 244.963 50.9162C245.235 51.1781 245.581 51.3568 245.959 51.4293C246.337 51.5019 246.729 51.4651 247.085 51.3236C247.44 51.1821 247.744 50.9424 247.957 50.635C248.17 50.3276 248.283 49.9664 248.28 49.5975C248.272 49.1058 248.072 48.6351 247.718 48.2787C247.621 48.2044 247.525 48.1301 247.426 48.0557Z" fill="#05004D"/>
</svg>
