<svg width="237" height="187" viewBox="0 0 237 187" fill="none" xmlns="http://www.w3.org/2000/svg">
<path d="M26.9996 144.678C12.0873 144.678 0 156.641 0 171.401H54C53.9972 156.641 41.9106 144.678 26.9996 144.678Z" fill="#1E1A5F"/>
<path d="M27.0006 143.438C36.6099 143.438 44.3966 135.732 44.3994 126.221C44.3966 116.708 36.6099 109 27.0006 109C17.3906 109 9.60107 116.708 9.60107 126.221C9.60107 135.732 17.3906 143.438 27.0006 143.438Z" fill="#1E1A5F"/>
<ellipse opacity="0.3" rx="45.0998" ry="45.242" transform="matrix(0.0258398 0.999666 -0.99967 0.0256775 173.392 117.246)" fill="#C7BA9A"/>
<ellipse opacity="0.2" rx="64.3225" ry="64.5254" transform="matrix(0.0258398 0.999666 -0.99967 0.0256775 97.1663 65.9579)" fill="#05004D"/>
<path d="M136 35H27V78" stroke="#1E1A5F" stroke-width="6" stroke-linecap="round" stroke-linejoin="round" stroke-dasharray="16 16"/>
<path d="M102 145H220V74.5" stroke="#1E1A5F" stroke-width="6" stroke-linecap="round" stroke-linejoin="round" stroke-dasharray="16 16"/>
<path d="M171.628 25.9746C170.716 26.9476 170.156 28.2529 170.156 29.6867V59.1148C170.156 60.5584 170.724 61.8714 171.647 62.8466L192.664 45.1011L171.628 25.9746Z" fill="#1E1A5F"/>
<path d="M232.327 25.1055C231.478 24.5613 230.469 24.2441 229.386 24.2441H175.615C174.532 24.2441 173.523 24.5614 172.673 25.1056L202.5 52.2254L232.327 25.1055Z" fill="#1E1A5F"/>
<path d="M202.954 53.6313C202.825 53.7482 202.662 53.8067 202.5 53.8067C202.337 53.8067 202.174 53.7482 202.046 53.6313L193.668 46.0137L172.703 63.7149C173.546 64.2471 174.544 64.5567 175.614 64.5567H229.385C230.455 64.5567 231.453 64.2471 232.296 63.7149L211.332 46.0137L202.954 53.6313Z" fill="#1E1A5F"/>
<path d="M212.336 45.1012L233.353 62.8466C234.277 61.8716 234.844 60.5584 234.844 59.115V29.6869C234.844 28.2529 234.284 26.9478 233.372 25.9746L212.336 45.1012Z" fill="#1E1A5F"/>
<g clip-path="url(#clip0)">
<path d="M108.717 95.3283H99.6645V84.8733C99.6645 81.6943 96.2921 79.1104 92.1652 79.1104H55.8221C51.6508 79.1104 48.2783 81.6943 48.2783 84.8733V108.061C48.2783 111.24 51.6509 113.824 55.8221 113.824H57.708V122.29C57.6636 123.752 60.1708 124.568 61.5021 123.497L74.1046 113.824H75.9018V117.071C75.9018 119.655 78.653 121.763 82.0256 121.763H95.0274L104.124 128.733C105.456 129.804 107.985 129.005 107.918 127.543V121.763H108.717C112.09 121.763 114.841 119.655 114.841 117.071V100.02C114.841 97.4363 112.09 95.3283 108.717 95.3283ZM85.3315 109.047C85.3315 108.146 86.2855 107.415 87.4614 107.415C88.6596 107.415 89.6136 108.146 89.6136 109.047C89.6136 109.948 88.6596 110.679 87.4614 110.679C86.2855 110.679 85.3315 109.948 85.3315 109.047ZM93.8071 109.047C93.8071 108.146 94.7611 107.415 95.937 107.415C97.113 107.415 98.0892 108.146 98.0892 109.047C98.0892 109.948 97.113 110.679 95.937 110.679C94.7611 110.679 93.8071 109.948 93.8071 109.047ZM102.283 109.047C102.283 108.146 103.237 107.415 104.413 107.415C105.589 107.415 106.565 108.146 106.565 109.047C106.565 109.948 105.589 110.679 104.413 110.679C103.237 110.679 102.283 109.948 102.283 109.047ZM75.9018 100.02V110.424H73.1948C72.5958 110.424 72.0412 110.611 71.6196 110.934L62.1455 118.193V112.124C62.1455 111.189 61.147 110.424 59.9267 110.424H55.8221C54.1136 110.424 52.7158 109.37 52.7158 108.061V84.8733C52.7158 83.5643 54.1136 82.5104 55.8221 82.5104H92.1652C93.8514 82.5104 95.227 83.5644 95.227 84.8733V95.3283H82.0255C78.653 95.3283 75.9018 97.4363 75.9018 100.02Z" fill="#05004D"/>
</g>
<g clip-path="url(#clip1)">
<path d="M164 57C154.059 57 146 65.0595 146 75C146 84.9405 154.059 93 164 93C173.941 93 182 84.9405 182 75C182 65.0595 173.941 57 164 57ZM164 88.5C156.555 88.5 150.5 82.4452 150.5 75C150.5 67.5548 156.555 61.5 164 61.5C171.445 61.5 177.5 67.5548 177.5 75C177.5 82.4452 171.445 88.5 164 88.5Z" fill="#05004D"/>
<path d="M161.75 81.7148L154.984 74.9491L158.166 71.7676L161.75 75.3518L169.834 67.2676L173.016 70.4491L161.75 81.7148Z" fill="#05004D"/>
</g>
<defs>
<clipPath id="clip0">
<rect width="71" height="68" fill="white" transform="translate(46 77)"/>
</clipPath>
<clipPath id="clip1">
<rect width="36" height="45" fill="white" transform="translate(146 57)"/>
</clipPath>
</defs>
</svg>
