<svg width="21" height="25" viewBox="0 0 21 25" fill="none" xmlns="http://www.w3.org/2000/svg">
<path fill-rule="evenodd" clip-rule="evenodd" d="M17.0171 7.6082H3.51821C3.51821 5.28795 4.90608 3.27326 6.96361 2.22379L5.92556 0.313336C5.89626 0.2649 5.88747 0.206782 5.90113 0.151846C5.9148 0.0969102 5.9498 0.0496865 5.99838 0.0206273C6.09976 -0.0236359 6.23255 0.00492103 6.29109 0.109154L7.34056 2.03532C8.23296 1.6398 9.22532 1.42134 10.2748 1.42134C11.3242 1.42134 12.3166 1.6398 13.209 2.03389L14.2585 0.107726C14.317 0.00492106 14.4498 -0.0236359 14.5512 0.0191995C14.5998 0.0482587 14.6348 0.0954823 14.6484 0.150418C14.6621 0.205354 14.6533 0.263472 14.624 0.311908L13.586 2.22237C15.6306 3.27326 17.0171 5.28795 17.0171 7.6082ZM0 9.34446C0.00628411 8.51925 0.678286 7.85427 1.50352 7.85665C2.32311 7.85665 2.99134 8.52916 2.99134 9.34446V15.6213C2.99134 16.4523 2.33453 17.1234 1.50352 17.1234C0.672516 17.1234 0 16.4537 0 15.6213V9.34446ZM16.9742 8.13365H3.57675V17.853C3.57561 18.2791 3.74429 18.6881 4.04547 18.9896C4.34666 19.291 4.75553 19.4601 5.18165 19.4593H6.26253L6.27538 22.7719C6.27379 23.5966 6.93854 24.2677 7.7632 24.274C8.59563 24.274 9.26958 23.6029 9.26958 22.7719V19.4593H11.28V22.7719C11.28 23.6023 11.9531 24.2755 12.7835 24.2755C13.6139 24.2755 14.287 23.6023 14.287 22.7719V19.4593H15.385C16.2671 19.4538 16.9782 18.7351 16.9742 17.853V8.13365ZM7.59776 4.20033C7.70407 4.30717 7.76358 4.45187 7.7632 4.60259C7.76358 4.75317 7.70402 4.89772 7.59768 5.00434C7.49133 5.11095 7.34693 5.17087 7.19634 5.17087C6.88793 5.17087 6.64091 4.90815 6.64091 4.60259C6.63929 4.29282 6.88664 4.03911 7.19634 4.03288C7.34706 4.03325 7.49146 4.09349 7.59776 4.20033ZM13.9087 4.60259C13.9103 4.29282 13.6629 4.03911 13.3532 4.03288C13.039 4.03288 12.7842 4.28762 12.7842 4.60187C12.7842 4.91612 13.039 5.17087 13.3532 5.17087C13.663 5.16617 13.911 4.91243 13.9087 4.60259ZM17.9932 8.29158C18.2723 8.01239 18.6512 7.85589 19.046 7.85665C19.4431 7.85322 19.8252 8.00837 20.1074 8.28768C20.3897 8.56699 20.5488 8.94737 20.5496 9.34446V15.6213C20.5496 16.1556 20.2645 16.6494 19.8017 16.9166C19.339 17.1837 18.7688 17.1837 18.3061 16.9166C17.8433 16.6494 17.5582 16.1556 17.5582 15.6213V9.34446C17.5575 8.94964 17.714 8.57076 17.9932 8.29158Z" fill="#C7BA9A"/>
</svg>
