<svg width="25" height="25" viewBox="0 0 25 25" fill="none" xmlns="http://www.w3.org/2000/svg">
<rect opacity="0.01" width="24.2783" height="24.2783" fill="black"/>
<path fill-rule="evenodd" clip-rule="evenodd" d="M18.8815 7.6082H5.38259C5.38259 5.28795 6.77046 3.27326 8.82799 2.22379L7.78994 0.313336C7.76064 0.2649 7.75185 0.206782 7.76551 0.151846C7.77918 0.0969102 7.81418 0.0496865 7.86276 0.0206273C7.96414 -0.0236359 8.09693 0.00492103 8.15547 0.109154L9.20494 2.03532C10.0973 1.6398 11.0897 1.42134 12.1392 1.42134C13.1886 1.42134 14.181 1.6398 15.0734 2.03389L16.1229 0.107726C16.1814 0.00492106 16.3142 -0.0236359 16.4156 0.0191995C16.4641 0.0482587 16.4991 0.0954823 16.5128 0.150418C16.5265 0.205354 16.5177 0.263472 16.4884 0.311908L15.4503 2.22237C17.495 3.27326 18.8815 5.28795 18.8815 7.6082ZM1.86438 9.34446C1.87066 8.51925 2.54267 7.85427 3.3679 7.85665C4.18749 7.85665 4.85572 8.52916 4.85572 9.34446V15.6213C4.85572 16.4523 4.19891 17.1234 3.3679 17.1234C2.5369 17.1234 1.86438 16.4537 1.86438 15.6213V9.34446ZM18.8386 8.13365H5.44113V17.853C5.43999 18.2791 5.60867 18.6881 5.90985 18.9896C6.21104 19.291 6.61991 19.4601 7.04603 19.4593H8.12691L8.13976 22.7719C8.13817 23.5966 8.80292 24.2677 9.62758 24.274C10.46 24.274 11.134 23.6029 11.134 22.7719V19.4593H13.1444V22.7719C13.1444 23.6023 13.8175 24.2755 14.6479 24.2755C15.4783 24.2755 16.1514 23.6023 16.1514 22.7719V19.4593H17.2494C18.1315 19.4538 18.8426 18.7351 18.8386 17.853V8.13365ZM9.46214 4.20033C9.56845 4.30717 9.62796 4.45187 9.62758 4.60259C9.62796 4.75317 9.5684 4.89772 9.46206 5.00434C9.35571 5.11095 9.21131 5.17087 9.06072 5.17087C8.75231 5.17087 8.50529 4.90815 8.50529 4.60259C8.50367 4.29282 8.75102 4.03911 9.06072 4.03288C9.21144 4.03325 9.35584 4.09349 9.46214 4.20033ZM15.773 4.60259C15.7747 4.29282 15.5273 4.03911 15.2176 4.03288C14.9033 4.03288 14.6486 4.28762 14.6486 4.60187C14.6486 4.91612 14.9033 5.17087 15.2176 5.17087C15.5274 5.16617 15.7754 4.91243 15.773 4.60259ZM19.8575 8.29158C20.1367 8.01239 20.5156 7.85589 20.9104 7.85665C21.3075 7.85322 21.6895 8.00837 21.9718 8.28768C22.254 8.56699 22.4132 8.94737 22.4139 9.34446V15.6213C22.4139 16.1556 22.1289 16.6494 21.6661 16.9166C21.2033 17.1837 20.6332 17.1837 20.1704 16.9166C19.7077 16.6494 19.4226 16.1556 19.4226 15.6213V9.34446C19.4218 8.94964 19.5784 8.57076 19.8575 8.29158Z" fill="white"/>
</svg>
