<svg width="25" height="25" viewBox="0 0 25 25" fill="none" xmlns="http://www.w3.org/2000/svg">
<rect opacity="0.01" width="24.9781" height="24.9781" fill="black"/>
<path fill-rule="evenodd" clip-rule="evenodd" d="M16.8258 0.036508C16.9342 0.199135 17.2595 2.15066 15.8501 3.93955C14.2238 6.0537 12.1096 6.21632 11.947 6.0537C11.7844 5.89107 11.7844 3.93955 13.0854 2.15066C14.549 0.199135 16.6632 -0.126119 16.8258 0.036508ZM22.1383 8.4931C21.6504 8.81835 19.211 10.4446 19.3736 13.0466C19.5363 17.4376 22.7888 18.2507 23.1683 18.1965C20.241 24.7016 17.6389 25.1894 15.8501 24.5389C14.3864 23.5632 11.7844 23.7258 10.9712 24.2137C9.34498 25.0268 8.36922 25.3521 6.90558 24.3763C5.44194 23.4005 1.5389 18.2507 1.80994 12.7214C2.1352 7.19208 6.36349 5.89107 7.82713 5.89107C8.74289 5.89107 9.57341 6.18939 10.3841 6.4806C11.1572 6.75826 11.9122 7.02946 12.7059 7.02946C13.3278 7.02946 13.8753 6.80655 14.4906 6.55606C15.1626 6.28247 15.9155 5.97597 16.9342 5.89107C20.0241 5.72844 22.1383 8.33047 22.1383 8.33047V8.4931Z" fill="#C7BA9A"/>
</svg>
