<svg width="19" height="19" viewBox="0 0 19 19" fill="none" xmlns="http://www.w3.org/2000/svg">
<path d="M5.66522 0.299805C2.70665 0.299805 0.300049 2.70864 0.300049 5.66797V13.3346C0.300049 16.2932 2.70888 18.6998 5.66821 18.6998H13.3349C16.2934 18.6998 18.7 16.291 18.7 13.3316V5.66497C18.7 2.70641 16.2912 0.299805 13.3319 0.299805H5.66522ZM14.8667 3.36647C15.2899 3.36647 15.6334 3.70994 15.6334 4.13314C15.6334 4.55634 15.2899 4.8998 14.8667 4.8998C14.4435 4.8998 14.1 4.55634 14.1 4.13314C14.1 3.70994 14.4435 3.36647 14.8667 3.36647ZM9.50005 4.8998C12.0369 4.8998 14.1 6.9629 14.1 9.4998C14.1 12.0367 12.0369 14.0998 9.50005 14.0998C6.96315 14.0998 4.90005 12.0367 4.90005 9.4998C4.90005 6.9629 6.96315 4.8998 9.50005 4.8998ZM9.50005 6.43314C8.68672 6.43314 7.9067 6.75623 7.33159 7.33134C6.75648 7.90645 6.43338 8.68647 6.43338 9.4998C6.43338 10.3131 6.75648 11.0932 7.33159 11.6683C7.9067 12.2434 8.68672 12.5665 9.50005 12.5665C10.3134 12.5665 11.0934 12.2434 11.6685 11.6683C12.2436 11.0932 12.5667 10.3131 12.5667 9.4998C12.5667 8.68647 12.2436 7.90645 11.6685 7.33134C11.0934 6.75623 10.3134 6.43314 9.50005 6.43314Z" fill="white"/>
</svg>
