<svg xmlns="http://www.w3.org/2000/svg" xmlns:xlink="http://www.w3.org/1999/xlink" width="30.188" height="31.854" viewBox="0 0 30.188 31.854">
  <defs>
    <linearGradient id="linear-gradient" x1="-0.619" y1="-0.891" x2="0.956" y2="1" gradientUnits="objectBoundingBox">
      <stop offset="0" stop-color="#f8d68f"/>
      <stop offset="1" stop-color="#8c754b"/>
    </linearGradient>
    <filter id="形状" x="0" y="1.721" width="30.188" height="30.134" filterUnits="userSpaceOnUse">
      <feOffset dy="2" input="SourceAlpha"/>
      <feGaussianBlur stdDeviation="3.5" result="blur"/>
      <feFlood flood-color="#522aa4" flood-opacity="0.2"/>
      <feComposite operator="in" in2="blur"/>
      <feComposite in="SourceGraphic"/>
    </filter>
  </defs>
  <g id="jiantou" transform="translate(0.306)">
    <circle id="椭圆形备份" cx="14.787" cy="14.787" r="14.787" transform="translate(0 0)" fill="url(#linear-gradient)"/>
    <g id="箭头" transform="translate(20.905 8.67)">
      <rect id="矩形" width="12.235" height="12.235" transform="translate(-12.235)" opacity="0"/>
      <g transform="matrix(1, 0, 0, 1, -21.21, -8.67)" filter="url(#形状)">
        <path id="形状-2" data-name="形状" d="M-8.548,9.134A.635.635,0,0,0-8.1,8.947l3.928-3.928a.636.636,0,0,0,.187-.453.635.635,0,0,0-.187-.452L-8.1.187A.635.635,0,0,0-8.548,0,.637.637,0,0,0-9,.187a.641.641,0,0,0,0,.9l3.475,3.475L-9,8.042a.641.641,0,0,0,0,.9A.637.637,0,0,0-8.548,9.134Zm3.981,0a.637.637,0,0,0,.453-.187L-.187,5.019A.636.636,0,0,0,0,4.567a.635.635,0,0,0-.187-.452L-4.115.187A.637.637,0,0,0-4.567,0a.635.635,0,0,0-.452.187.641.641,0,0,0,0,.9l3.475,3.475L-5.019,8.042a.641.641,0,0,0,0,.9A.635.635,0,0,0-4.567,9.134Z" transform="translate(19.69 10.22)" fill="#fff"/>
      </g>
    </g>
  </g>
</svg>
