<svg xmlns="http://www.w3.org/2000/svg" xmlns:xlink="http://www.w3.org/1999/xlink" width="14.983" height="14.949" viewBox="0 0 14.983 14.949">
  <defs>
    <clipPath id="clip-path">
      <path id="Clip_2" data-name="Clip 2" d="M0,0H14.983V14.949H0Z" transform="translate(0.002 0.015)" fill="none"/>
    </clipPath>
  </defs>
  <g id="canada" transform="translate(-0.002 -0.015)">
    <g id="Group_5" data-name="Group 5">
      <path id="Clip_2-2" data-name="Clip 2" d="M0,0H14.983V14.949H0Z" transform="translate(0.002 0.015)" fill="none"/>
      <g id="Group_5-2" data-name="Group 5" clip-path="url(#clip-path)">
        <g id="Fill_1" data-name="Fill 1" transform="translate(0 0.015)" fill="none" stroke-miterlimit="10">
          <path d="M14.985,7.474A7.493,7.493,0,1,1,7.493,0,7.484,7.484,0,0,1,14.985,7.474Z" stroke="none"/>
          <path d="M 7.492719650268555 0.9999990463256836 C 3.912619590759277 0.9999990463256836 1 3.904438972473145 1 7.474489212036133 C 1 11.04453945159912 3.912619590759277 13.94897937774658 7.492719650268555 13.94897937774658 C 11.07281970977783 13.94897937774658 13.98543930053711 11.04453945159912 13.98543930053711 7.474489212036133 C 13.98543930053711 3.904438972473145 11.07281970977783 0.9999990463256836 7.492719650268555 0.9999990463256836 M 7.492719650268555 -9.5367431640625e-07 C 11.63070964813232 -9.5367431640625e-07 14.98543930053711 3.346388816833496 14.98543930053711 7.474489212036133 C 14.98543930053711 11.60240936279297 11.63070964813232 14.94897937774658 7.492719650268555 14.94897937774658 C 3.354549407958984 14.94897937774658 0 11.60240936279297 0 7.474489212036133 C 0 3.346388816833496 3.354549407958984 -9.5367431640625e-07 7.492719650268555 -9.5367431640625e-07 Z" stroke="none" fill="#fff"/>
        </g>
        <path id="Fill_3" data-name="Fill 3" d="M4.235,6.733A7.474,7.474,0,0,0,0,0V13.466A7.473,7.473,0,0,0,4.235,6.733Z" transform="translate(10.75 0.756)" fill="#fff"/>
        <path id="Fill_4" data-name="Fill 4" d="M0,6.733a7.473,7.473,0,0,0,4.235,6.733V0A7.474,7.474,0,0,0,0,6.733Z" transform="translate(0 0.756)" fill="#fff"/>
      </g>
    </g>
    <path id="Fill_6" data-name="Fill 6" d="M3.909,3.25l1.3-.65-.652-.325v-.65l-1.3.65.652-1.3H3.258L2.606,0,1.955.975H1.3l.652,1.3-1.3-.65v.65L0,2.6l1.3.65L.977,3.9h1.3v.975h.652V3.9h1.3Z" transform="translate(4.887 5.214)" fill="#fff"/>
  </g>
</svg>
