<?xml version="1.0" encoding="UTF-8"?>
<svg width="20px" height="20px" viewBox="0 0 20 20" version="1.1" xmlns="http://www.w3.org/2000/svg" xmlns:xlink="http://www.w3.org/1999/xlink">
    <!-- Generator: Sketch 60.1 (88133) - https://sketch.com -->
    <title>Group 4@2x</title>
    <desc>Created with Sketch.</desc>
    <g id="3.0" stroke="none" stroke-width="1" fill="none" fill-rule="evenodd">
        <g id="Group-4" fill="#FFFFFF">
            <path d="M20,0 L20,20 L0,20 L0,0 L20,0 Z M7.24412308,4.5128 L3.34884103,4.5128 L3.34884103,4.73854359 L4.60340513,6.24982564 C4.72648205,6.3608 4.78945641,6.52387692 4.77273846,6.6888 L4.77273846,6.6888 L4.77273846,12.6272615 C4.80925128,12.8414154 4.7417641,13.0602872 4.59089231,13.2166974 L4.59089231,13.2166974 L3.17950769,14.9286974 L3.17950769,15.154441 L7.18135385,15.154441 L7.18135385,14.9286974 L5.77007179,13.2166974 C5.61807179,13.0605949 5.54627692,12.843159 5.57561026,12.6272615 L5.57561026,12.6272615 L5.57561026,7.49146667 L9.08832821,15.154441 L9.49602051,15.154441 L12.5131487,7.49146667 L12.5131487,13.5992615 C12.5131487,13.7623385 12.5131487,13.7936205 12.4064821,13.9002872 L12.4064821,13.9002872 L11.3213538,14.9537231 L11.3213538,15.1794667 L16.5903795,15.1794667 L16.5903795,14.9537231 L15.5427897,13.9253128 C15.4502769,13.8548513 15.4044308,13.7389538 15.4236103,13.6242872 L15.4236103,13.6242872 L15.4236103,6.06797949 C15.4044308,5.95331282 15.4502769,5.83751795 15.5427897,5.76695385 L15.5427897,5.76695385 L16.6154051,4.73854359 L16.6154051,4.5128 L12.9020718,4.5128 L10.2549949,11.1159795 L7.24412308,4.5128 Z" id="Combined-Shape"></path>
        </g>
    </g>
</svg>