<svg id="电话" xmlns="http://www.w3.org/2000/svg" xmlns:xlink="http://www.w3.org/1999/xlink" width="16" height="16" viewBox="0 0 16 16">
  <defs>
    <linearGradient id="linear-gradient" x1="-0.619" y1="-0.891" x2="0.956" y2="1" gradientUnits="objectBoundingBox">
      <stop offset="0" stop-color="#f8d68f"/>
      <stop offset="1" stop-color="#8c754b"/>
    </linearGradient>
  </defs>
  <rect id="矩形" width="16" height="16" opacity="0"/>
  <path id="路径" d="M8.245,9.493l-.686.5a1.437,1.437,0,0,1-1.511-.411,13.475,13.475,0,0,1-2.7-3.367,1.013,1.013,0,0,1,.411-1.373A9.113,9.113,0,0,0,4.879,3.793c.046-.161.641-.8-.641-2.518S2.659-.1,1.973.428A4.874,4.874,0,0,0,.118,3.175C-.088,4.366-.225,5.83,1.516,8.44s4.372,4.6,5.836,4.922,2.5.525,3.959-.664,1.719-1.3,1.054-2.152a8.5,8.5,0,0,0-2.343-1.905A1.108,1.108,0,0,0,9,8.89c-.494.364-.753.6-.753.6" transform="translate(1.588 1.176)" fill="url(#linear-gradient)"/>
</svg>
