<?xml version="1.0" encoding="UTF-8"?>
<svg width="20px" height="20px" viewBox="0 0 20 20" version="1.1" xmlns="http://www.w3.org/2000/svg" xmlns:xlink="http://www.w3.org/1999/xlink">
    <!-- Generator: Sketch 60.1 (88133) - https://sketch.com -->
    <title>socialicon-twitter@2x</title>
    <desc>Created with Sketch.</desc>
    <g id="3.0" stroke="none" stroke-width="1" fill="none" fill-rule="evenodd">
        <g id="socialicon-twitter" fill="#FFFFFF">
            <path d="M0,20 L20,20 L20,0 L0,0 L0,20 Z M15.5054652,7.17626374 C15.5109744,7.29805128 15.5137289,7.42054212 15.5137289,7.54373626 C15.5137289,11.297641 12.6565861,15.6261392 7.43132601,15.6261392 C5.82716484,15.6261392 4.33400733,15.1559267 3.07692308,14.3498315 C3.29922344,14.3761465 3.52515751,14.3896264 3.75454945,14.3896264 C5.08542125,14.3896264 6.31021245,13.9356484 7.28252015,13.1735092 C6.03938462,13.150652 4.99035897,12.3294359 4.62886447,11.2007619 C4.80240293,11.2339927 4.980337,11.2518095 5.16325275,11.2518095 C5.42241758,11.2518095 5.67331868,11.2170549 5.91185348,11.1522344 C4.6123956,10.8910183 3.63299634,9.74312088 3.63299634,8.36676923 C3.63299634,8.35487179 3.63299634,8.34297436 3.63323077,8.33101832 C4.01623443,8.54370696 4.45421245,8.67147253 4.91985348,8.68635897 C4.15771429,8.17699634 3.65638095,7.30748718 3.65638095,6.32187546 C3.65638095,5.80126007 3.79645421,5.31340659 4.04096703,4.89377289 C5.44205128,6.6123956 7.5352381,7.74335531 9.89608791,7.86197802 C9.84750183,7.65386081 9.82235897,7.4370696 9.82235897,7.2145348 C9.82235897,5.6458315 11.0943297,4.37386081 12.6629744,4.37386081 C13.4800879,4.37386081 14.2184322,4.71888645 14.7364689,5.27085714 C15.3834432,5.14356044 15.9915018,4.90707692 16.5405421,4.58150916 C16.3283223,5.24495238 15.877978,5.80149451 15.2914286,6.15314286 C15.8660806,6.08445421 16.4134799,5.93178022 16.9230769,5.70578755 C16.542359,6.27539927 16.0606593,6.77585348 15.5054652,7.17626374 Z" id="004-twitter"></path>
        </g>
    </g>
</svg>