<svg xmlns="http://www.w3.org/2000/svg" xmlns:xlink="http://www.w3.org/1999/xlink" width="14.557" height="15.175" viewBox="0 0 14.557 15.175">
  <defs>
    <clipPath id="clip-path">
      <path id="Clip_2" data-name="Clip 2" d="M0,0H14.557V15.175H0Z" transform="translate(0)" fill="none"/>
    </clipPath>
    <linearGradient id="linear-gradient" x1="-0.619" y1="-0.891" x2="0.956" y2="1" gradientUnits="objectBoundingBox">
      <stop offset="0" stop-color="#f8d68f"/>
      <stop offset="1" stop-color="#8c754b"/>
    </linearGradient>
  </defs>
  <g id="编组" transform="translate(0)">
    <path id="Clip_2-2" data-name="Clip 2" d="M0,0H14.557V15.175H0Z" transform="translate(0)" fill="none"/>
    <g id="编组-2" data-name="编组" clip-path="url(#clip-path)">
      <path id="Fill_1" data-name="Fill 1" d="M4.809,15.175h0a15.712,15.712,0,0,1-3.455-.248C.43,14.7,0,14.29,0,13.641A5.4,5.4,0,0,1,2.131,9.8a7.885,7.885,0,0,1,10.294,0,5.4,5.4,0,0,1,2.131,3.845c0,1.522-3.212,1.522-7.278,1.522-.447,0-.884,0-1.306.006C5.565,15.172,5.183,15.175,4.809,15.175Zm2.469-7.9a3.639,3.639,0,1,1,3.64-3.639A3.643,3.643,0,0,1,7.278,7.278Z" transform="translate(0 0)" fill="url(#linear-gradient)"/>
    </g>
  </g>
</svg>
