<svg width="226" height="35" viewBox="0 0 226 35" fill="none" xmlns="http://www.w3.org/2000/svg">
<g clip-path="url(#clip0_2507_506)">
<path d="M26.1031 13.5036C29.7016 13.5036 32.6188 10.4807 32.6188 6.7518C32.6188 3.02289 29.7016 0 26.1031 0C22.5046 0 19.5875 3.02289 19.5875 6.7518C19.5875 10.4807 22.5046 13.5036 26.1031 13.5036Z" fill="#C9BA96"/>
<path d="M8.87335 2.05388C7.30325 -0.177382 4.28448 -0.66668 2.1317 0.96095C-0.0210722 2.58858 -0.493283 5.71689 1.07766 7.94816L13.3045 25.3107C14.8755 27.5419 17.8934 28.0312 20.0504 26.4036C22.204 24.7768 22.6762 21.6485 21.1053 19.4181L8.87335 2.05388Z" fill="#C9BA96"/>
<path d="M55.9906 20.1856L49.3814 1.95046L43.7056 1.974L52.7594 25.0097C53.2788 26.4313 54.5883 27.3679 56.048 27.3637C57.5076 27.3595 58.8129 26.4078 59.3197 24.9802L68.1669 1.8605L62.5274 1.8832L55.9906 20.1856Z" fill="white"/>
<path d="M74.3806 9.269L69.4199 9.28799L69.4881 27.0043L74.4488 26.9853L74.3806 9.269Z" fill="white"/>
<path d="M71.8478 0.99792C70.1697 1.00465 68.8543 2.3044 68.8602 4.04216C68.8669 5.74461 70.1925 6.99644 71.8705 6.98972C73.5123 6.98299 74.8278 5.72023 74.8218 4.01862C74.8143 2.28001 73.4895 0.991195 71.8478 0.99792Z" fill="white"/>
<path d="M76.499 16.8926L76.5302 26.9812L81.4917 26.9618L81.4563 17.1036C81.4563 17.1036 81.2455 12.4275 87.4374 13.8021L87.4188 9.27314C81.0794 7.7279 76.499 10.6948 76.499 16.8926Z" fill="white"/>
<path d="M116.925 8.72494C111.642 8.7468 107.543 12.6452 107.565 18.0081C107.586 23.4089 111.715 27.3872 116.997 27.3653C122.243 27.3443 126.379 23.3341 126.357 17.9342C126.337 12.5712 122.172 8.70392 116.925 8.72494ZM116.978 22.7792C114.372 22.7901 112.463 20.6514 112.454 17.9871C112.443 15.3607 114.336 13.3195 116.943 13.3094C119.512 13.2993 121.457 15.3271 121.467 17.9527C121.476 20.6169 119.548 22.7691 116.978 22.7834V22.7792Z" fill="white"/>
<path d="M101.418 9.33199V10.266C100.184 9.34123 98.4997 8.64932 96.3714 8.64932C91.6602 8.64932 87.8547 12.4191 87.875 17.745C87.8927 22.369 91.7268 26.3843 96.438 26.3649C98.3648 26.3574 99.9694 25.8327 101.287 24.9399L101.294 26.1421C101.304 28.9165 99.5967 30.4037 97.3841 30.4121C95.0281 30.4214 93.5954 29.2066 93.3754 27.3587L88.3775 27.3788C88.7519 31.8893 92.4402 35.0184 97.4001 34.9983C102.576 34.9772 106.24 31.6354 106.219 26.0866L106.152 9.31349L101.418 9.33199ZM97.3858 22.068C94.3788 22.068 92.8028 20.0612 92.8028 17.5223C92.8028 15.0119 94.4893 12.9765 97.3858 12.9765C100.012 12.9765 101.969 15.0119 101.969 17.5223C101.969 20.0326 100.097 22.0697 97.3858 22.0697V22.068Z" fill="white"/>
<path d="M157.153 1.87814L152.463 1.89748L149.22 7.07126L145.96 1.92354L141.269 1.94288L146.668 10.3475L141.229 18.6152L145.742 18.5967L149.266 13.4363L152.829 18.5681L157.344 18.5496L151.796 10.3265L157.153 1.87814Z" fill="white"/>
<path d="M142.911 11.6902H138.948C138.434 13.876 137.063 15.037 134.959 15.0446C132.337 15.0446 130.499 13.0782 130.49 10.2618C130.48 7.44537 132.311 5.45287 134.967 5.44194C137.037 5.44194 138.411 6.5912 138.938 8.76445L138.947 8.8006H142.91L142.883 8.63246C142.201 4.349 139.094 1.58136 134.967 1.58136H134.93C132.648 1.59061 130.54 2.46664 128.995 4.04803C127.426 5.65464 126.568 7.86825 126.577 10.2811C126.595 15.2027 130.203 18.9144 134.96 18.9144H134.996C139.143 18.8976 142.243 16.1048 142.895 11.7994L142.911 11.6902Z" fill="white"/>
<path fill-rule="evenodd" clip-rule="evenodd" d="M216.327 1.75H166.202C161.831 1.75 158.288 5.27575 158.288 9.62498C158.288 13.9742 161.831 17.5 166.202 17.5H216.327C220.698 17.5 224.241 13.9742 224.241 9.62498C224.241 5.27575 220.698 1.75 216.327 1.75ZM166.202 0.875C161.346 0.875 157.409 4.7925 157.409 9.62498C157.409 14.4575 161.346 18.375 166.202 18.375H216.327C221.184 18.375 225.121 14.4575 225.121 9.62498C225.121 4.7925 221.184 0.875 216.327 0.875H166.202Z" fill="white"/>
<path d="M165.682 14.875H168.003L169.861 8.05698L171.69 14.875H174.053L176.825 5.07498H174.532L172.857 12.201L171.127 5.07498H168.552L166.835 12.215L165.161 5.07498H162.882L165.682 14.875Z" fill="white"/>
<path d="M177.902 14.875H184.825V12.971H180.125V10.661H183.727V8.75697H180.125V6.96498H184.67V5.07498H177.902V14.875Z" fill="white"/>
<path d="M192.618 14.875H194.912L191.183 5.07498H189.087L185.358 14.875H187.666L188.383 12.859H191.901L192.618 14.875ZM189.059 11.011L190.142 7.97298L191.225 11.011H189.059Z" fill="white"/>
<path d="M195.778 14.875H202.419V12.971H198.002V5.07498H195.778V14.875Z" fill="white"/>
<path d="M204.349 14.875H206.572V6.96498H209.457V5.07498H201.451V6.96498H204.349V14.875Z" fill="white"/>
<path d="M216.45 5.07498V8.88297H212.539V5.07498H210.316V14.875H212.539V10.773H216.45V14.875H218.687V5.07498H216.45Z" fill="white"/>
</g>
<defs>
<clipPath id="clip0_2507_506">
<rect width="226" height="35" fill="white"/>
</clipPath>
</defs>
</svg>
