<svg width="220" height="40" viewBox="0 0 220 40" fill="none" xmlns="http://www.w3.org/2000/svg">
<g clip-path="url(#clip0)">
<path d="M29.6837 15.4327C33.7758 15.4327 37.0931 11.978 37.0931 7.71636C37.0931 3.45473 33.7758 0 29.6837 0C25.5916 0 22.2743 3.45473 22.2743 7.71636C22.2743 11.978 25.5916 15.4327 29.6837 15.4327Z" fill="#C9BA96"/>
<path d="M10.0905 2.34731C8.30502 -0.20271 4.87216 -0.761909 2.42409 1.09824C-0.0239724 2.9584 -0.560955 6.53362 1.22547 9.08364L15.1295 28.9265C16.9159 31.4766 20.3478 32.0358 22.8007 30.1756C25.2497 28.3164 25.7867 24.7412 24.0003 22.1921L10.0905 2.34731Z" fill="#C9BA96"/>
<path d="M63.6708 23.0693L56.1549 2.22909L49.7006 2.25599L59.9963 28.5825C60.587 30.2073 62.0761 31.2776 63.736 31.2728C65.3958 31.268 66.8802 30.1804 67.4565 28.5489L77.5173 2.12628L71.1042 2.15222L63.6708 23.0693Z" fill="white"/>
<path d="M84.5832 10.5932L78.942 10.6149L79.0196 30.8621L84.6608 30.8404L84.5832 10.5932Z" fill="white"/>
<path d="M81.703 1.14047C79.7948 1.14816 78.2989 2.63359 78.3056 4.61961C78.3133 6.56528 79.8207 7.99594 81.7289 7.98825C83.5958 7.98057 85.0917 6.53741 85.085 4.59271C85.0764 2.60573 83.57 1.13279 81.703 1.14047Z" fill="white"/>
<path d="M86.9922 19.3058L87.0276 30.8357L92.6698 30.8136L92.6295 19.547C92.6295 19.547 92.3898 14.2029 99.431 15.7738L99.4099 10.5979C92.2009 8.83189 86.9922 12.2226 86.9922 19.3058Z" fill="white"/>
<path d="M132.964 9.97141C126.956 9.99639 122.295 14.4517 122.32 20.5808C122.343 26.7531 127.039 31.2997 133.045 31.2748C139.011 31.2507 143.714 26.6676 143.689 20.4963C143.666 14.3672 138.93 9.94739 132.964 9.97141ZM133.024 26.0335C130.06 26.046 127.889 23.6016 127.879 20.5568C127.867 17.5552 130.02 15.2223 132.984 15.2108C135.906 15.1992 138.117 17.5167 138.128 20.5174C138.139 23.5622 135.946 26.022 133.024 26.0383V26.0335Z" fill="white"/>
<path d="M115.329 10.6651V11.7326C113.926 10.6757 112.011 9.88495 109.59 9.88495C104.233 9.88495 99.9056 14.1933 99.9286 20.2801C99.9488 25.5646 104.309 30.1535 109.666 30.1314C111.857 30.1228 113.682 29.5232 115.18 28.5028L115.189 29.8768C115.2 33.0475 113.258 34.7472 110.742 34.7568C108.063 34.7674 106.434 33.379 106.184 31.2671L100.5 31.2902C100.926 36.445 105.12 40.0211 110.76 39.9981C116.646 39.9741 120.812 36.1548 120.788 29.8134L120.713 10.644L115.329 10.6651ZM110.744 25.2206C107.325 25.2206 105.532 22.9272 105.532 20.0255C105.532 17.1565 107.45 14.8303 110.744 14.8303C113.73 14.8303 115.956 17.1565 115.956 20.0255C115.956 22.8945 113.827 25.2226 110.744 25.2226V25.2206Z" fill="white"/>
<path d="M178.71 2.14645L173.376 2.16855L169.689 8.08146L165.981 2.19834L160.647 2.22044L166.786 11.8258L160.601 21.2745L165.733 21.2534L169.74 15.3558L173.793 21.2207L178.927 21.1996L172.617 11.8018L178.71 2.14645Z" fill="white"/>
<path d="M162.514 13.3602H158.007C157.423 15.8583 155.864 17.1852 153.471 17.1939C150.49 17.1939 148.399 14.9465 148.389 11.7278C148.378 8.50902 150.46 6.23187 153.48 6.21938C155.834 6.21938 157.396 7.53282 157.996 10.0165L158.006 10.0579H162.513L162.482 9.8657C161.707 4.97031 158.173 1.80728 153.48 1.80728H153.438C150.843 1.81785 148.446 2.81903 146.689 4.62633C144.905 6.46247 143.929 8.99231 143.939 11.7499C143.96 17.3745 148.063 21.6166 153.472 21.6166H153.513C158.229 21.5973 161.755 18.4055 162.496 13.4851L162.514 13.3602Z" fill="white"/>
<path d="M210.129 1.43066H189.155C183.712 1.43066 179.284 6.04261 179.284 11.7115C179.284 17.3803 183.712 21.9923 189.155 21.9923H210.129C215.572 21.9923 220 17.3803 220 11.7115C220 6.04261 215.572 1.43066 210.129 1.43066ZM210.129 21.2399H189.155C184.109 21.2399 180.004 16.9652 180.004 11.7105C180.004 6.45577 184.108 2.18107 189.155 2.18107H210.129C215.175 2.18107 219.281 6.45577 219.281 11.7105C219.281 16.9652 215.177 21.2399 210.129 21.2399Z" fill="white"/>
<path d="M187.848 17.1795H189.878V10.9533L193.634 17.1795H195.802V7.49438H193.772V13.7205L190.016 7.49438H187.848V17.1795Z" fill="white"/>
<path d="M197.543 17.1795H199.725V13.1256H203.37V11.2439H199.725V9.36222H204.254V7.49438H197.543V17.1795Z" fill="white"/>
<path d="M207.64 17.1795H209.822V9.36222H212.653V7.49438H204.796V9.36222H207.64V17.1795Z" fill="white"/>
</g>
<defs>
<clipPath id="clip0">
<rect width="220" height="40" fill="white"/>
</clipPath>
</defs>
</svg>
