<svg id="Layer_1" data-name="Layer 1" xmlns="http://www.w3.org/2000/svg" viewBox="0 0 2294.3 416.31"><defs><style>.cls-1{fill:#c9ba96;}.cls-2{fill:#fff;}</style></defs><title>VirgoOTC_logo_</title><ellipse class="cls-1" cx="309.56" cy="80.31" rx="77.27" ry="80.31"/><path class="cls-1" d="M105.23,24.43C86.61-2.11,50.81-7.93,25.28,11.43S-5.85,68,12.78,94.54l145,206.52c18.63,26.54,54.42,32.36,80,13h0c25.54-19.35,31.14-56.56,12.51-83.09Z"/><path class="cls-2" d="M664,240.1,585.62,23.2l-67.31.28,107.37,274c6.16,16.91,21.69,28.05,39,28s32.79-11.37,38.8-28.35l104.92-275-66.88.27Z"/><rect class="cls-2" x="823.65" y="110.42" width="58.83" height="210.73" transform="translate(-0.81 3.22) rotate(-0.22)"/><path class="cls-2" d="M852.05,11.87c-19.9.08-35.5,15.54-35.43,36.21.08,20.25,15.8,35.14,35.7,35.06,19.47-.08,35.07-15.1,35-35.34C887.23,27.12,871.52,11.79,852.05,11.87Z"/><path class="cls-2" d="M907.21,200.93l.37,120,58.84-.23L966,203.44s-2.5-55.62,70.93-39.27l-.22-53.87C961.53,91.92,907.21,127.21,907.21,200.93Z"/><path class="cls-2" d="M1386.63,103.78c-62.65.26-111.26,46.63-111,110.42.24,64.24,49.21,111.56,111.85,111.3,62.22-.25,111.26-47.95,111-112.18C1498.24,149.53,1448.85,103.53,1386.63,103.78Zm.63,167.17c-30.91.13-53.55-25.31-53.66-57-.12-31.24,22.33-55.52,53.24-55.64,30.47-.12,53.53,24,53.65,55.23C1440.6,245.23,1417.73,270.83,1387.26,271Z"/><path class="cls-2" d="M1202.73,111l0,11.11c-14.64-11-34.61-19.23-59.85-19.23-55.87,0-101,44.84-100.76,108.19.21,55,45.68,102.76,101.55,102.53,22.85-.09,41.88-6.33,57.5-16.95l.09,14.3c.12,33-20.13,50.69-46.37,50.79-27.94.11-44.93-14.34-47.54-36.32l-59.27.24c4.44,53.65,48.18,90.87,107,90.63,61.38-.25,104.83-40,104.58-106l-.79-199.51Zm-47.82,151.49c-35.66,0-54.35-23.87-54.35-54.07,0-29.86,20-54.07,54.35-54.07,31.14,0,54.35,24.21,54.35,54.07S1187.06,262.51,1154.91,262.51Z"/><polygon class="cls-2" points="1863.7 22.34 1808.07 22.57 1769.62 84.11 1730.96 22.88 1675.33 23.11 1739.35 123.08 1674.85 221.42 1728.37 221.2 1770.16 159.82 1812.42 220.86 1865.96 220.64 1800.16 122.83 1863.7 22.34"/><path class="cls-2" d="M1694.8,139.05h-47v0c-6.09,26-22.35,39.81-47.31,39.9-31.09,0-52.89-23.39-53-56.89s21.6-57.2,53.1-57.33c24.55,0,40.84,13.67,47.09,39.52l.11.43h47l-.32-2c-8.09-50.95-44.94-83.87-93.88-83.87h-.44c-27.06.11-52.06,10.53-70.38,29.34-18.61,19.11-28.79,45.44-28.68,74.14.22,58.54,43,102.69,99.41,102.69h.43c49.18-.2,85.95-33.42,93.68-84.63Z"/><path class="cls-2" d="M2191.36,14.89H1972.63c-56.76,0-102.94,48-102.94,107s46.18,107,102.94,107h218.73c56.76,0,102.94-48,102.94-107S2248.12,14.89,2191.36,14.89Zm0,206.17H1972.63c-52.62,0-95.43-44.49-95.43-99.18S1920,22.7,1972.63,22.7h218.73c52.62,0,95.44,44.49,95.44,99.18S2244,221.06,2191.36,221.06Z"/><path class="cls-2" d="M1991.7,67.37c-30,0-52,23-52,54.51s22,54.51,52,54.51,51.86-23,51.86-54.51S2021.59,67.37,1991.7,67.37Zm0,91c-18.6,0-31.94-15.37-31.94-36.54s13.34-36.7,31.94-36.7,31.79,15.54,31.79,36.7S2010.31,158.42,1991.7,158.42Z"/><polygon class="cls-2" points="2044.86 86.4 2075.77 86.4 2075.77 175.17 2095.7 175.17 2095.7 86.4 2126.6 86.4 2126.6 68.59 2044.86 68.59 2044.86 86.4"/><path class="cls-2" d="M2178.75,85.18c13.18,0,23.14,8.38,25.78,21.93l19.77-4.26c-3.51-21.48-21-35.48-45.55-35.48-26.67,0-51,18.42-51,54.51s23.88,54.51,51,54.51c23.58,0,40.28-12.64,45.26-33.5l-20.07-4.56c-2.64,12.48-11.86,20.09-25.19,20.09-17.44,0-30.77-12.64-30.77-36.54S2161.45,85.18,2178.75,85.18Z"/></svg>