<svg xmlns="http://www.w3.org/2000/svg" xmlns:xlink="http://www.w3.org/1999/xlink" width="102" height="102" viewBox="0 0 102 102">
  <defs>
    <linearGradient id="linear-gradient" x1="0.907" x2="0.057" y2="1.203" gradientUnits="objectBoundingBox">
      <stop offset="0" stop-color="#f8d68f"/>
      <stop offset="1" stop-color="#8c754b"/>
    </linearGradient>
  </defs>
  <g id="猪" transform="translate(-0.779 -0.779)">
    <g id="Group_5" data-name="Group 5" transform="translate(23.518 25.779)">
      <g id="Dollar-3">
        <path id="Combined_Shape" data-name="Combined Shape" d="M21.973,51.319H18.55a5.842,5.842,0,0,1-5.705-5.751V39.85c-2.406-1.878-5.709-4.939-6.6-9.8-.033,0-.07,0-.12,0s-.087,0-.12,0a1.909,1.909,0,0,1-.422,0C2.545,29.328.663,28.017.146,26.257c-.5-1.706.294-3.571,2.362-5.543a1.769,1.769,0,0,1,2.377.04,1.581,1.581,0,0,1,.042,2.269c-1.25,1.192-1.586,2-1.483,2.363s.836.921,2.589,1.394A14.848,14.848,0,0,1,7.865,20.1a15.784,15.784,0,0,1,2.541-3.4,11.572,11.572,0,0,0,21-6.707,11.815,11.815,0,0,0-.067-1.252l8.169-3.56a1.778,1.778,0,0,1,1.832.254,1.588,1.588,0,0,1,.518,1.7l-1.415,4.51a20.954,20.954,0,0,1,6.79,3.685,15.058,15.058,0,0,1,4.221,5.606A5.528,5.528,0,0,1,56.2,26.224v3.268a5.567,5.567,0,0,1-5.351,5.446,16.344,16.344,0,0,1-4.918,4.912v5.674a5.843,5.843,0,0,1-5.7,5.751H36.806A5.783,5.783,0,0,1,31.352,47.3a4.435,4.435,0,0,1-.653.043c-.2,0-.4-.01-.6-.019l-.034,0-.027,0-.032,0-.035,0c-.193-.009-.391-.017-.585-.017H27.427A5.812,5.812,0,0,1,21.973,51.319ZM41.94,21.944a1.636,1.636,0,1,0,1.712,1.634A1.675,1.675,0,0,0,41.94,21.944Zm-22.1-1.957A9.993,9.993,0,1,1,29.83,9.994,10,10,0,0,1,19.836,19.986Zm-3.5-7.43a.82.82,0,0,0-.84.8,4.178,4.178,0,0,0,3.36,4.209v.313a.841.841,0,0,0,1.679,0v-.366c1.095-.2,3.64-.968,3.64-3.881,0-2.273-2.232-3.6-3.64-3.907V5.511a2.632,2.632,0,0,1,1,.595c.329.312.342.495.342,1.216a.841.841,0,0,0,1.679,0,2.725,2.725,0,0,0-.834-2.335,4.191,4.191,0,0,0-2.183-1.11V3.558a.841.841,0,0,0-1.679,0v.43a3.813,3.813,0,0,0-3.08,3.806c0,2.353,2.357,3.118,3.08,3.3v4.831a2.657,2.657,0,0,1-1.68-2.569A.82.82,0,0,0,16.337,12.556Zm4.2,3.328h0v-4.5c.729.268,1.959,1.046,1.959,2.251a2.253,2.253,0,0,1-1.958,2.251Zm-1.679-6.5h0a1.778,1.778,0,0,1-1.4-1.592,2.151,2.151,0,0,1,1.4-2.124V9.385Z" transform="translate(0 0.681)" fill="url(#linear-gradient)"/>
      </g>
    </g>
    <g id="椭圆形" transform="translate(0.779 0.779)" fill="none" stroke="#707070" stroke-miterlimit="10" stroke-width="1">
      <circle cx="51" cy="51" r="51" stroke="none"/>
      <circle cx="51" cy="51" r="50.5" fill="none"/>
    </g>
  </g>
</svg>
