<?xml version="1.0" encoding="UTF-8"?>
<svg width="20px" height="20px" viewBox="0 0 20 20" version="1.1" xmlns="http://www.w3.org/2000/svg" xmlns:xlink="http://www.w3.org/1999/xlink">
    <!-- Generator: Sketch 60.1 (88133) - https://sketch.com -->
    <title>socialicon-facebook备份@2x</title>
    <desc>Created with Sketch.</desc>
    <defs>
        <polygon id="path-1" points="0 3.00132903e-05 13.8645194 3.00132903e-05 13.8645194 9.99320512 0 9.99320512"></polygon>
    </defs>
    <g id="3.0" stroke="none" stroke-width="1" fill="none" fill-rule="evenodd">
        <g id="socialicon-facebook备份">
            <polygon id="005-facebook" fill="#FFFFFF" points="-6.82121026e-13 20 20 20 20 0 -6.82121026e-13 0"></polygon>
            <g id="编组" transform="translate(2.896132, 4.978090)">
                <mask id="mask-2" fill="white">
                    <use xlink:href="#path-1"></use>
                </mask>
                <g id="Clip-2"></g>
                <path d="M5.49721424,6.84060911 L5.49721424,2.84684062 L9.24252271,4.85092805 L5.49721424,6.84060911 Z M13.723707,2.15618479 C13.723707,2.15618479 13.588047,1.17655099 13.1714125,0.746310476 C12.6431786,0.180860087 12.0529172,0.177658669 11.7823974,0.144894161 C9.84353884,3.00132903e-05 6.93224969,3.00132903e-05 6.93224969,3.00132903e-05 L6.92704738,3.00132903e-05 C6.92704738,3.00132903e-05 4.01615841,3.00132903e-05 2.07689968,0.144043784 C1.80637989,0.177658669 1.21651869,0.180109755 0.688284781,0.746310476 C0.270899958,1.17655099 0.138441304,2.15618479 0.138441304,2.15618479 C0.138441304,2.15618479 -2.00088602e-05,3.30544369 -2.00088602e-05,4.45680353 L-2.00088602e-05,5.53323018 C-2.00088602e-05,6.68173876 0.138491326,7.8342491 0.138491326,7.8342491 C0.138491326,7.8342491 0.274101376,8.81348272 0.688284781,9.24367322 C1.21651869,9.80992396 1.90962561,9.79031528 2.21816223,9.85154239 C3.32865397,9.95964025 6.93224969,9.99320512 6.93224969,9.99320512 C6.93224969,9.99320512 9.84593991,9.98805284 11.7847985,9.84639011 C12.0557184,9.8131754 12.64638,9.81032414 13.1738135,9.24412341 C13.5907982,8.8138829 13.7260581,7.8342491 13.7260581,7.8342491 C13.7260581,7.8342491 13.8645194,6.68574053 13.8645194,5.53408056 L13.8645194,4.45720371 C13.8617181,3.30784476 13.723707,2.15653494 13.723707,2.15653494 L13.723707,2.15618479 Z" id="Fill-1" fill="#2D2C2B" mask="url(#mask-2)"></path>
            </g>
        </g>
    </g>
</svg>