<svg width="21" height="15" viewBox="0 0 21 15" fill="none" xmlns="http://www.w3.org/2000/svg">
<path d="M19.6533 2.66965C19.47 1.65801 18.5967 0.921289 17.5833 0.691289C16.0667 0.369648 13.26 0.139648 10.2233 0.139648C7.18836 0.139648 4.33672 0.369648 2.81836 0.691289C1.80672 0.921289 0.931646 1.61129 0.748364 2.66965C0.563286 3.81965 0.380005 5.42965 0.380005 7.49965C0.380005 9.56965 0.563286 11.1796 0.793286 12.3296C0.978364 13.3413 1.85165 14.078 2.86329 14.308C4.47329 14.6296 7.23329 14.8596 10.27 14.8596C13.3067 14.8596 16.0667 14.6296 17.6767 14.308C18.6884 14.078 19.5616 13.388 19.7467 12.3296C19.93 11.1796 20.16 9.52293 20.2067 7.49965C20.1133 5.42965 19.8833 3.81965 19.6533 2.66965ZM7.74001 10.7196V4.27965L13.3516 7.49965L7.74001 10.7196Z" fill="white"/>
</svg>
