<svg width="315" height="383" viewBox="0 0 315 383" fill="none" xmlns="http://www.w3.org/2000/svg">
<g opacity="0.2">
<ellipse rx="12.0978" ry="12.1111" transform="matrix(-0.755128 -0.655578 -0.655578 0.755128 297.19 209.685)" fill="#6B47ED"/>
<ellipse rx="12.0978" ry="12.1111" transform="matrix(-0.755128 -0.655578 -0.655578 0.755128 164.076 94.1194)" fill="#6B47ED"/>
<ellipse rx="12.0978" ry="12.1111" transform="matrix(-0.755128 -0.655578 -0.655578 0.755128 252.824 171.168)" fill="#6B47ED"/>
<ellipse rx="12.0978" ry="12.1111" transform="matrix(-0.755128 -0.655578 -0.655578 0.755128 119.706 55.5992)" fill="#6B47ED"/>
<ellipse rx="12.0978" ry="12.1111" transform="matrix(-0.755128 -0.655578 -0.655578 0.755128 208.449 132.643)" fill="#6B47ED"/>
<ellipse rx="12.0978" ry="12.1111" transform="matrix(-0.755128 -0.655578 -0.655578 0.755128 75.334 17.0765)" fill="#6B47ED"/>
<ellipse rx="12.0978" ry="12.1111" transform="matrix(-0.755128 -0.655578 -0.655578 0.755128 258.624 254.115)" fill="#6B47ED"/>
<ellipse rx="12.0978" ry="12.1111" transform="matrix(-0.755128 -0.655578 -0.655578 0.755128 125.515 138.542)" fill="#6B47ED"/>
<ellipse rx="12.0978" ry="12.1111" transform="matrix(-0.755128 -0.655578 -0.655578 0.755128 214.263 215.591)" fill="#6B47ED"/>
<ellipse rx="12.0978" ry="12.1111" transform="matrix(-0.755128 -0.655578 -0.655578 0.755128 81.1456 100.022)" fill="#6B47ED"/>
<ellipse rx="12.0978" ry="12.1111" transform="matrix(-0.755128 -0.655578 -0.655578 0.755128 169.888 177.065)" fill="#6B47ED"/>
<ellipse rx="12.0978" ry="12.1111" transform="matrix(-0.755128 -0.655578 -0.655578 0.755128 36.7731 61.4996)" fill="#6B47ED"/>
<ellipse rx="12.0978" ry="12.1111" transform="matrix(-0.755128 -0.655578 -0.655578 0.755128 220.064 298.53)" fill="#6B47ED"/>
<ellipse rx="12.0978" ry="12.1111" transform="matrix(-0.755128 -0.655578 -0.655578 0.755128 86.9478 182.966)" fill="#6B47ED"/>
<ellipse rx="12.0978" ry="12.1111" transform="matrix(-0.755128 -0.655578 -0.655578 0.755128 175.696 260.014)" fill="#6B47ED"/>
<ellipse rx="12.0978" ry="12.1111" transform="matrix(-0.755128 -0.655578 -0.655578 0.755128 42.5786 144.446)" fill="#6B47ED"/>
<ellipse rx="12.0978" ry="12.1111" transform="matrix(-0.755128 -0.655578 -0.655578 0.755128 131.321 221.489)" fill="#6B47ED"/>
<ellipse rx="12.0978" ry="12.1111" transform="matrix(-0.755128 -0.655578 -0.655578 0.755128 -1.79381 105.923)" fill="#6B47ED"/>
<ellipse rx="12.0978" ry="12.1111" transform="matrix(-0.755128 -0.655578 -0.655578 0.755128 181.499 342.951)" fill="#6B47ED"/>
<ellipse rx="12.0978" ry="12.1111" transform="matrix(-0.755128 -0.655578 -0.655578 0.755128 48.3854 227.384)" fill="#6B47ED"/>
<ellipse rx="12.0978" ry="12.1111" transform="matrix(-0.755128 -0.655578 -0.655578 0.755128 137.134 304.432)" fill="#6B47ED"/>
<ellipse rx="12.0978" ry="12.1111" transform="matrix(-0.755128 -0.655578 -0.655578 0.755128 4.01625 188.864)" fill="#6B47ED"/>
<ellipse rx="12.0978" ry="12.1111" transform="matrix(-0.755128 -0.655578 -0.655578 0.755128 92.7583 265.907)" fill="#6B47ED"/>
<ellipse rx="12.0978" ry="12.1111" transform="matrix(-0.755128 -0.655578 -0.655578 0.755128 142.935 387.371)" fill="#6B47ED"/>
<ellipse rx="12.0978" ry="12.1111" transform="matrix(-0.755128 -0.655578 -0.655578 0.755128 9.81984 271.805)" fill="#6B47ED"/>
<ellipse rx="12.0978" ry="12.1111" transform="matrix(-0.755128 -0.655578 -0.655578 0.755128 98.5684 348.854)" fill="#6B47ED"/>
<ellipse rx="12.0978" ry="12.1111" transform="matrix(-0.755128 -0.655578 -0.655578 0.755128 54.1927 310.328)" fill="#6B47ED"/>
</g>
</svg>
