<svg width="140" height="99" viewBox="0 0 140 99" fill="none" xmlns="http://www.w3.org/2000/svg">
<g opacity="0.5">
<circle cx="37.7873" cy="26.2466" r="18.8936" fill="#C7BA9A"/>
<circle cx="18.8936" cy="45.1402" r="18.8936" fill="#C7BA9A"/>
<circle cx="37.7873" cy="47.6597" r="18.8936" fill="#C7BA9A"/>
<circle cx="56.6808" cy="45.1402" r="18.8936" fill="#C7BA9A"/>
</g>
<circle cx="100.275" cy="73.8855" r="23.5889" transform="rotate(88.524 100.275 73.8855)" fill="#C7BA9A"/>
<line x1="100.584" y1="70.2427" x2="124.087" y2="70.2427" stroke="#05004D" stroke-width="5" stroke-linecap="round"/>
<line x1="109.805" y1="61.021" x2="127.44" y2="61.021" stroke="#05004D" stroke-width="5" stroke-linecap="round"/>
<line x1="91.3623" y1="79.4639" x2="134.147" y2="79.4639" stroke="#05004D" stroke-width="5" stroke-linecap="round"/>
<line x1="113.997" y1="87.8472" x2="137.5" y2="87.8472" stroke="#05004D" stroke-width="5" stroke-linecap="round"/>
<path d="M31.0752 26.3494C31.0752 24.8914 43.2214 4 64.1128 4C85.49 4 96.6645 21.4905 98.122 23.9197" stroke="#05004D" stroke-width="7" stroke-linecap="round" stroke-linejoin="round"/>
<path d="M100.065 28.2927L103.952 11.7739" stroke="#05004D" stroke-width="7" stroke-linecap="round" stroke-linejoin="round"/>
<path d="M99.2711 28.0888L82.5748 25.054" stroke="#05004D" stroke-width="7" stroke-linecap="round" stroke-linejoin="round"/>
<path d="M46.6222 71.5326C47.5939 71.5326 67.5136 82.2212 83.5465 72.5043C99.5795 62.7874 99.2556 49.0217 100.065 42.8677" stroke="#05004D" stroke-width="7" stroke-linecap="round" stroke-linejoin="round"/>
<path d="M63.8321 22.2646C61.4555 22.2646 59.4446 24.1877 59.4446 26.6603V44.884C59.4446 46.8071 60.7243 48.547 62.6438 49.0965L75.9892 52.8511C76.3548 52.9427 76.8119 53.0342 77.1775 53.0342C79.097 53.0342 80.8338 51.7522 81.3822 49.8291C82.0221 47.5397 80.651 45.1587 78.3658 44.4261L68.1282 41.5872V26.6603C68.1282 24.2793 66.2087 22.2646 63.8321 22.2646Z" fill="#05004D"/>
<path d="M46.3735 59.0792H39.0609L48.2016 42.7785C49.1157 41.2217 47.9274 39.207 46.0992 39.207H30.8343C29.8288 39.207 28.9148 39.8481 28.6405 40.7638L18.5858 67.6874C18.0373 69.2442 19.1342 70.8926 20.7795 70.8926H26.0811L20.4139 88.5668C19.7741 90.6731 22.3335 92.1383 23.796 90.49L48.1102 63.017C49.4813 61.5517 48.3844 59.0792 46.3735 59.0792Z" fill="#05004D"/>
</svg>
