<svg width="119" height="96" viewBox="0 0 119 96" fill="none" xmlns="http://www.w3.org/2000/svg">
<path d="M31.4479 29.5248C30.9791 28.8397 30.4555 28.3592 29.5036 28.0852C30.1957 27.7531 30.7187 27.3273 31.072 26.8074C31.4252 26.2878 31.6021 25.6381 31.6021 24.8584C31.6021 24.1371 31.4832 23.5302 31.2455 23.0398C31.0066 22.549 30.6723 22.1555 30.2393 21.8594C29.807 21.5636 29.2874 21.3506 28.6814 21.2205C28.1269 21.1015 27.515 21.0398 26.8515 21.0296V19.2534H22.7975V21.0259H19.4015V36.4866H22.7975V38.1356H26.8518V36.4866H26.8866C27.5781 36.4866 28.0658 36.4002 28.7219 36.2268C29.3785 36.054 29.9624 35.7862 30.4736 35.4264C30.9862 35.0649 31.3935 34.5991 31.6969 34.0293C31.9992 33.4584 32.1509 32.7841 32.1509 32.0047C32.1512 31.0377 31.9163 30.2104 31.4479 29.5248ZM22.7975 23.6676H25.9777C26.2806 23.6676 26.5733 23.6931 26.8535 23.7438C27.1354 23.7945 27.3842 23.8844 27.601 24.0141C27.8172 24.1442 27.9891 24.3249 28.1195 24.5555C28.2495 24.7865 28.3143 25.0825 28.3143 25.4435C28.3143 26.0929 28.1195 26.562 27.7301 26.8505C27.3409 27.1397 26.8433 27.284 26.2381 27.284H22.7975V23.6676ZM28.1682 33.4315C27.7564 33.7384 27.2279 33.8908 26.586 33.8908H22.7975V30.058H26.3106C26.6319 30.058 26.9415 30.0863 27.2393 30.1393C27.5384 30.1928 27.802 30.2886 28.0309 30.426C28.2599 30.5637 28.4433 30.755 28.5803 31C28.7179 31.2437 28.7875 31.5579 28.7875 31.9404C28.7878 32.63 28.5806 33.1261 28.1682 33.4315Z" fill="#05004D"/>
<path d="M88.256 37.288H86C86.1067 38.5467 86.496 39.5013 87.168 40.152C87.84 40.8027 88.7733 41.1707 89.968 41.256V42.616H90.912V41.256C91.712 41.2027 92.368 41.0427 92.88 40.776C93.392 40.5093 93.7973 40.2053 94.096 39.864C94.4053 39.5227 94.6187 39.176 94.736 38.824C94.8533 38.4613 94.912 38.1627 94.912 37.928C94.912 37.6613 94.8907 37.3573 94.848 37.016C94.816 36.6747 94.6987 36.3333 94.496 35.992C94.2933 35.6507 93.9787 35.3253 93.552 35.016C93.1253 34.696 92.5173 34.4293 91.728 34.216C91.5787 34.1733 91.4347 34.136 91.296 34.104C91.168 34.072 91.04 34.04 90.912 34.008V31.176C91.2747 31.176 91.584 31.3253 91.84 31.624C92.096 31.9227 92.2293 32.2853 92.24 32.712H94.512C94.48 32.1573 94.3627 31.6773 94.16 31.272C93.9573 30.8667 93.696 30.5307 93.376 30.264C93.056 29.9867 92.6827 29.7733 92.256 29.624C91.84 29.464 91.392 29.3573 90.912 29.304V28.072H89.968V29.304C89.488 29.336 89.024 29.432 88.576 29.592C88.128 29.7413 87.7333 29.96 87.392 30.248C87.0507 30.5253 86.7733 30.872 86.56 31.288C86.3573 31.704 86.256 32.184 86.256 32.728C86.256 33.2613 86.3467 33.7093 86.528 34.072C86.7093 34.424 86.9493 34.7227 87.248 34.968C87.5573 35.2027 87.904 35.3947 88.288 35.544C88.672 35.6827 89.0613 35.8053 89.456 35.912C89.5627 35.9333 89.6587 35.96 89.744 35.992C89.84 36.0133 89.9147 36.0347 89.968 36.056V39.4C89.4773 39.304 89.0667 39.08 88.736 38.728C88.4053 38.376 88.2453 37.896 88.256 37.288ZM90.912 39.4V36.328C91.5413 36.4987 91.984 36.6907 92.24 36.904C92.5067 37.1067 92.64 37.416 92.64 37.832C92.64 38.088 92.5867 38.312 92.48 38.504C92.3733 38.6853 92.2347 38.84 92.064 38.968C91.904 39.096 91.7173 39.1973 91.504 39.272C91.3013 39.336 91.104 39.3787 90.912 39.4ZM89.968 31.176V33.784C89.456 33.6667 89.088 33.512 88.864 33.32C88.64 33.128 88.528 32.856 88.528 32.504C88.528 32.28 88.5653 32.088 88.64 31.928C88.7253 31.7573 88.8373 31.6187 88.976 31.512C89.1147 31.3947 89.2693 31.3093 89.44 31.256C89.6107 31.2027 89.7867 31.176 89.968 31.176Z" fill="#05004D"/>
<circle cx="40.3741" cy="57.5374" r="19.8077" transform="rotate(88.524 40.3741 57.5374)" fill="#C7BA9A"/>
<circle opacity="0.3" cx="82.3763" cy="36.3881" r="35.4858" transform="rotate(88.524 82.3763 36.3881)" fill="#C7BA9A"/>
<path d="M51.001 31.1582V25.375L46.3104 23.3146C46.0432 22.1206 45.6761 20.9509 45.2129 19.8178L47.7975 15.3798C46.8527 13.7012 45.7242 12.1318 44.4328 10.7001L39.4696 11.8315C38.5621 11.0369 37.5886 10.3202 36.5597 9.68906L36.085 4.52603C34.3599 3.72125 32.5481 3.11491 30.685 2.71875L27.3025 6.6251H23.6987L20.3163 2.71875C18.4532 3.11484 16.6415 3.72113 14.9165 4.52588L14.4418 9.68891C13.4129 10.3201 12.4394 11.0367 11.5319 11.8311L6.56866 10.6997C5.27718 12.1314 4.14869 13.7008 3.20378 15.3794L5.78839 19.8174C5.32516 20.9506 4.95804 22.1203 4.69085 23.3143L0 25.3748V31.1581L4.69072 33.2185C4.95797 34.4125 5.3251 35.5821 5.78826 36.7152L3.20352 41.1534C4.14837 42.832 5.27681 44.4014 6.56827 45.8331L11.5315 44.7017C12.439 45.4962 13.4125 46.2129 14.4414 46.8441L14.916 52.0072C16.6412 52.812 18.4529 53.4183 20.3161 53.8145L23.6986 49.9081H27.3024L30.6847 53.8145C32.5478 53.4182 34.3595 52.8119 36.0846 52.0072L36.5593 46.8444C37.5881 46.2132 38.5616 45.4966 39.4692 44.7022L44.4324 45.8336C45.7239 44.4019 46.8523 42.8324 47.7973 41.1538L45.2127 36.7156C45.6759 35.5825 46.043 34.4128 46.3102 33.2187L51.001 31.1582ZM25.5005 41.0405C22.9623 41.0405 20.4811 40.2913 18.3707 38.8877C16.2602 37.4841 14.6153 35.4891 13.644 33.155C12.6727 30.8208 12.4185 28.2524 12.9137 25.7745C13.4089 23.2966 14.6311 21.0205 16.4259 19.2341C18.2207 17.4476 20.5074 16.231 22.9968 15.7381C25.4863 15.2452 28.0667 15.4982 30.4117 16.465C32.7567 17.4319 34.761 19.0691 36.1711 21.1698C37.5813 23.2704 38.3339 25.7402 38.3339 28.2666C38.3339 31.6545 36.9818 34.9036 34.5751 37.2991C32.1684 39.6947 28.9042 41.0405 25.5005 41.0405Z" fill="#05004D"/>
<path d="M105.7 22.47L101.676 23.4211C100.94 22.7531 100.151 22.1506 99.3169 21.62L98.932 17.2792C97.5335 16.6025 96.0647 16.0928 94.5542 15.7598L91.812 19.0439H88.8903L86.1482 15.7598C84.6377 16.0927 83.1689 16.6024 81.7704 17.2791L81.3856 21.6198C80.5515 22.1506 79.7623 22.753 79.0264 23.4209L75.0028 22.4696C73.9557 23.6733 73.0408 24.9928 72.2748 26.4041L74.3702 30.1353C73.9946 31.0879 73.697 32.0714 73.4804 33.0753L69.6775 34.8076V39.6699L73.4802 41.4021C73.697 42.4059 73.9947 43.3893 74.3702 44.342L72.2748 48.0731C73.0408 49.4844 73.9556 50.8039 75.0026 52.0076L79.0263 51.0564C79.7621 51.7244 80.5512 52.3269 81.3854 52.8576L81.7703 57.1983C83.1688 57.875 84.6375 58.3848 86.148 58.7179L88.8903 55.4336H91.8118L94.554 58.7179C96.0645 58.3848 97.5332 57.875 98.9318 57.1985L99.3166 52.8578C100.151 52.3271 100.94 51.7246 101.676 51.0568L105.699 52.0078C106.746 50.8042 107.661 49.4847 108.427 48.0735L106.332 44.3422C106.708 43.3896 107.005 42.4062 107.222 41.4024L111.025 39.6699V34.8077L107.222 33.0756C107.005 32.0717 106.708 31.0883 106.332 30.1357L108.427 26.4044C107.662 24.9931 106.747 23.6736 105.7 22.47ZM90.3511 45.8305C88.7049 45.8305 87.0956 45.3266 85.7268 44.3825C84.3581 43.4384 83.2913 42.0966 82.6613 40.5267C82.0313 38.9568 81.8665 37.2293 82.1876 35.5627C82.5088 33.8961 83.3015 32.3652 84.4656 31.1636C85.6296 29.9621 87.1127 29.1438 88.7273 28.8123C90.3418 28.4808 92.0154 28.6509 93.5363 29.3012C95.0572 29.9515 96.3571 31.0527 97.2717 32.4656C98.1863 33.8785 98.6745 35.5396 98.6745 37.2388C98.6745 39.5175 97.7975 41.7028 96.2366 43.314C94.6757 44.9253 92.5586 45.8305 90.3511 45.8305Z" fill="#05004D"/>
<path d="M78.6214 95.8804L79.1357 93.4288C79.8946 93.2903 80.6406 93.0889 81.3662 92.8266L83.0459 94.7051C84.2707 94.1762 85.4264 93.4994 86.4872 92.6896L85.7103 90.3197C86.2995 89.8189 86.8468 89.2706 87.3466 88.6802L89.7122 89.4587C90.5206 88.3959 91.1962 87.238 91.7241 86.0109L89.8494 84.328C90.1111 83.601 90.3122 82.8535 90.4505 82.0932L92.8975 81.5779V77.5731L90.4505 77.0578C90.3123 76.2975 90.1112 75.5501 89.8494 74.8231L91.7243 73.1403C91.1965 71.9133 90.5209 70.7555 89.7126 69.6927L87.3471 70.471C86.8473 69.8807 86.2999 69.3324 85.7107 68.8316L86.4877 66.4617C85.4268 65.6518 84.2711 64.9749 83.0462 64.446L81.3664 66.3243C80.6408 66.062 79.8947 65.8606 79.1359 65.722L78.6215 63.2705H74.6241L74.1098 65.722C73.3509 65.8605 72.6048 66.062 71.8793 66.3242L70.1995 64.4458C68.9748 64.9746 67.8191 65.6515 66.7583 66.4612L67.5352 68.8312C66.9459 69.3319 66.3987 69.8803 65.8989 70.4706L63.5333 69.6922C62.7249 70.755 62.0493 71.9128 61.5214 73.1399L63.3962 74.8228C63.1344 75.5498 62.9333 76.2973 62.7951 77.0576L60.348 77.5729V81.5778L62.795 82.093C62.9332 82.8533 63.1343 83.6008 63.3961 84.3277L61.5211 86.0106C62.049 87.2376 62.7246 88.3954 63.5328 89.4582L65.8984 88.6799C66.3982 89.2702 66.9455 89.8185 67.5348 90.3192L66.7578 92.6892C67.8187 93.4991 68.9744 94.176 70.1992 94.7049L71.879 92.8265C72.6046 93.0888 73.3507 93.2903 74.1096 93.4288L74.624 95.8804H78.6214ZM67.2465 79.5754C67.2465 77.7176 67.7964 75.9014 68.8267 74.3566C69.857 72.8118 71.3213 71.6078 73.0346 70.8968C74.7479 70.1859 76.6331 69.9998 78.452 70.3623C80.2708 70.7247 81.9414 71.6194 83.2527 72.9331C84.564 74.2469 85.457 75.9206 85.8188 77.7428C86.1806 79.565 85.9949 81.4538 85.2853 83.1702C84.5756 84.8867 83.3738 86.3538 81.8319 87.386C80.29 88.4182 78.4772 88.9691 76.6227 88.9691C74.136 88.9691 71.7511 87.9794 69.9927 86.2177C68.2344 84.4561 67.2465 82.0668 67.2465 79.5754Z" fill="#05004D"/>
<path d="M64.9023 38.4785H55.5261V40.8269H64.9023V38.4785Z" fill="#05004D"/>
<path d="M56.6981 79.5756L44.9778 74.8788V78.4014H30.9134V58.4399H28.5693V79.5756C28.5692 79.7299 28.5995 79.8826 28.6584 80.0251C28.7172 80.1676 28.8036 80.2971 28.9124 80.4061C29.0213 80.5152 29.1505 80.6017 29.2927 80.6606C29.435 80.7196 29.5874 80.7499 29.7414 80.7498H44.9778V84.2725L56.6981 79.5756Z" fill="#05004D"/>
<path d="M80.4101 75.3008L75.3717 81.3588L72.7632 78.7455L71.106 80.4058L74.6221 83.9285C74.7307 84.0377 74.8599 84.1243 75.0021 84.1833C75.1443 84.2424 75.2968 84.2727 75.4507 84.2725C75.4679 84.2725 75.4862 84.2725 75.5033 84.2713C75.6661 84.264 75.8256 84.2228 75.9716 84.1504C76.1176 84.0779 76.247 83.9758 76.3514 83.8505L82.2116 76.8052L80.4101 75.3008Z" fill="#05004D"/>
</svg>
