<svg width="240" height="240" viewBox="0 0 240 240" fill="none" xmlns="http://www.w3.org/2000/svg">
<path d="M88 225H176V182" stroke="#05004D" stroke-width="6" stroke-linecap="round" stroke-linejoin="round" stroke-dasharray="16 16"/>
<path d="M112 105H24V148" stroke="#05004D" stroke-width="6" stroke-linecap="round" stroke-linejoin="round" stroke-dasharray="16 16"/>
<path d="M30 179.305C24.0666 179.305 18.2664 181.068 13.3329 184.37C8.39943 187.673 4.55426 192.367 2.28363 197.859C0.0129984 203.351 -0.581101 209.394 0.576455 215.224C1.73401 221.055 4.59123 226.41 8.78681 230.613C12.9824 234.817 18.3279 237.679 24.1473 238.839C29.9667 239.999 35.9987 239.403 41.4805 237.129C46.9623 234.854 51.6476 231.001 54.9441 226.059C58.2405 221.116 60 215.305 60 209.361C59.9913 201.392 56.8278 193.753 51.2036 188.118C45.5794 182.483 37.9538 179.314 30 179.305V179.305ZM30 237.538C26.2145 237.539 22.4679 236.773 18.9861 235.284C15.5042 233.796 12.3592 231.617 9.74064 228.878C10.7347 224.234 13.2881 220.072 16.975 217.086C20.6618 214.1 25.2591 212.47 30 212.47C27.9541 212.47 25.9541 211.862 24.2529 210.723C22.5518 209.585 21.2258 207.966 20.4426 206.073C19.6595 204.179 19.4543 202.095 19.8531 200.085C20.2519 198.075 21.2368 196.228 22.6831 194.778C24.1295 193.328 25.9724 192.341 27.9789 191.94C29.9853 191.54 32.0653 191.745 33.9557 192.528C35.8462 193.312 37.4622 194.64 38.5995 196.344C39.7369 198.047 40.3444 200.051 40.3453 202.101C40.3459 203.462 40.0788 204.81 39.5592 206.068C39.0395 207.326 38.2776 208.469 37.3169 209.432C36.3562 210.395 35.2155 211.159 33.9601 211.68C32.7046 212.201 31.359 212.47 30 212.47C34.7409 212.47 39.3382 214.1 43.025 217.086C46.7119 220.072 49.2653 224.234 50.2594 228.878C47.6408 231.617 44.4958 233.796 41.0139 235.284C37.5321 236.773 33.7855 237.539 30 237.538Z" fill="#05004D"/>
<path d="M217.263 121.104H213.277V120.844C213.277 114.603 208.599 109.547 202.823 109.547C202.678 109.547 202.563 109.547 202.418 109.576L157.077 115.961C151.416 116.077 146.853 121.104 146.853 127.258V131.563V168.43C146.853 174.208 151.532 178.889 157.308 178.889H167.069H217.263C223.039 178.889 227.717 174.208 227.717 168.43V152.885V135.55V131.563C227.717 125.784 223.039 121.104 217.263 121.104ZM202.996 115.325C205.508 115.441 207.501 117.868 207.501 120.844V121.104H167.069H162.015L202.996 115.325ZM157.308 173.11C154.737 173.11 152.629 171.001 152.629 168.43V131.563C152.629 128.991 154.737 126.882 157.308 126.882H164.181V173.11H157.308ZM217.263 173.11H169.957V126.882H210.389H217.263C219.833 126.882 221.941 128.991 221.941 131.563V132.661H201.725C195.343 132.661 190.173 137.833 190.173 144.218C190.173 150.603 195.343 155.775 201.725 155.775H221.941V168.43C221.941 171.001 219.833 173.11 217.263 173.11ZM221.941 149.996H201.725C198.548 149.996 195.949 147.396 195.949 144.218C195.949 141.04 198.548 138.439 201.725 138.439H221.941V149.996ZM201.725 141.329H207.501V147.107H201.725V141.329Z" fill="#05004D"/>
<path d="M209.445 67.1951C209.048 66.639 208.604 66.2489 207.797 66.0265C208.384 65.7569 208.827 65.4112 209.127 64.9892C209.426 64.5674 209.576 64.04 209.576 63.407C209.576 62.8214 209.475 62.3288 209.274 61.9307C209.071 61.5323 208.788 61.2128 208.421 60.9725C208.054 60.7324 207.614 60.5594 207.1 60.4538C206.63 60.3572 206.111 60.3071 205.548 60.2988V58.8569H202.111V60.2958H199.231V72.8467H202.111V74.1853H205.548V72.8467H205.578C206.164 72.8467 206.578 72.7765 207.134 72.6358C207.691 72.4955 208.186 72.2781 208.619 71.986C209.054 71.6925 209.399 71.3144 209.657 70.8519C209.913 70.3884 210.042 69.841 210.042 69.2083C210.042 68.4233 209.843 67.7517 209.445 67.1951ZM202.111 62.4403H204.807C205.064 62.4403 205.312 62.461 205.55 62.5022C205.789 62.5434 206 62.6163 206.184 62.7216C206.367 62.8272 206.513 62.9739 206.623 63.1612C206.733 63.3486 206.788 63.589 206.788 63.882C206.788 64.4091 206.623 64.79 206.293 65.0242C205.963 65.259 205.541 65.3761 205.028 65.3761H202.111V62.4403ZM206.665 70.3666C206.315 70.6157 205.867 70.7394 205.323 70.7394H202.111V67.628H205.089C205.362 67.628 205.624 67.651 205.877 67.694C206.131 67.7375 206.354 67.8152 206.548 67.9268C206.742 68.0385 206.898 68.1938 207.014 68.3927C207.131 68.5905 207.19 68.8456 207.19 69.1561C207.19 69.7159 207.014 70.1186 206.665 70.3666Z" fill="#C7BA9A"/>
<path d="M192.3 66.5572C192.301 60.3642 197.537 55.345 204 55.3447C210.462 55.345 215.699 60.3642 215.7 66.5572C215.699 72.7502 210.462 77.7693 204 77.7697C197.537 77.7686 192.301 72.7502 192.3 66.5572ZM197.239 60.0774C195.507 61.7392 194.438 64.0235 194.438 66.5572C194.438 69.0909 195.507 71.3753 197.239 73.0368C198.972 74.6967 201.356 75.72 204 75.7204C206.644 75.72 209.027 74.6967 210.761 73.0368C212.493 71.375 213.561 69.0909 213.562 66.5572C213.561 64.0235 212.493 61.7392 210.761 60.0774C209.027 58.4178 206.644 57.3943 204 57.3938C201.356 57.3943 198.972 58.4175 197.239 60.0774Z" fill="#C7BA9A"/>
<path d="M176.714 51.4977C176.151 50.6997 175.522 50.14 174.379 49.8209C175.21 49.4342 175.839 48.9382 176.263 48.3326C176.687 47.7274 176.9 46.9707 176.9 46.0626C176.9 45.2224 176.757 44.5155 176.471 43.9443C176.184 43.3727 175.783 42.9144 175.263 42.5695C174.743 42.225 174.119 41.9768 173.391 41.8254C172.725 41.6868 171.99 41.6148 171.193 41.6029V39.5342H166.323V41.5987H162.244V59.6064H166.323V61.527H171.194V59.6064H171.235C172.066 59.6064 172.652 59.5058 173.44 59.3038C174.229 59.1025 174.93 58.7907 175.544 58.3716C176.16 57.9505 176.649 57.408 177.014 56.7443C177.377 56.0794 177.559 55.294 177.559 54.3862C177.559 53.2599 177.277 52.2963 176.714 51.4977ZM166.323 44.6756H170.144C170.507 44.6756 170.859 44.7053 171.196 44.7643C171.534 44.8234 171.833 44.928 172.093 45.0792C172.353 45.2306 172.56 45.4412 172.716 45.7098C172.872 45.9787 172.95 46.3236 172.95 46.744C172.95 47.5004 172.716 48.0469 172.249 48.3828C171.781 48.7197 171.183 48.8877 170.456 48.8877H166.323V44.6756ZM172.775 56.048C172.28 56.4054 171.645 56.583 170.874 56.583H166.323V52.1187H170.543C170.929 52.1187 171.301 52.1517 171.659 52.2134C172.018 52.2758 172.335 52.3873 172.61 52.5474C172.885 52.7078 173.105 52.9305 173.27 53.216C173.435 53.4998 173.519 53.8657 173.519 54.3112C173.519 55.1145 173.27 55.6923 172.775 56.048Z" fill="#C7BA9A"/>
<path d="M152.425 50.5821C152.426 41.6965 159.845 34.495 169 34.4946C178.154 34.495 185.574 41.6965 185.575 50.5821C185.574 59.4677 178.154 66.669 169 66.6696C159.845 66.668 152.426 59.4677 152.425 50.5821ZM159.421 41.285C156.968 43.6693 155.454 46.9468 155.454 50.5821C155.454 54.2174 156.968 57.495 159.421 59.8789C161.877 62.2605 165.255 63.7287 169 63.7293C172.745 63.7287 176.122 62.2605 178.578 59.8789C181.032 57.4946 182.545 54.2174 182.546 50.5821C182.545 46.9468 181.032 43.6693 178.578 41.285C176.122 38.9038 172.745 37.4353 169 37.4346C165.255 37.4353 161.877 38.9034 159.421 41.285Z" fill="#C7BA9A"/>
<path d="M185.525 21.1044C185.526 9.79547 194.691 0.629815 206 0.629395C217.308 0.629815 226.473 9.79547 226.475 21.1044C226.473 32.4133 217.308 41.5786 206 41.5794C194.691 41.5773 185.526 32.4133 185.525 21.1044ZM194.168 9.27173C191.137 12.3062 189.267 16.4777 189.266 21.1044C189.267 25.7311 191.137 29.9025 194.168 32.9366C197.201 35.9678 201.374 37.8363 206 37.8372C210.626 37.8363 214.797 35.9678 217.832 32.9366C220.863 29.9021 222.732 25.7311 222.733 21.1044C222.732 16.4777 220.863 12.3062 217.832 9.27173C214.797 6.24101 210.626 4.37201 206 4.37117C201.374 4.37201 197.201 6.24059 194.168 9.27173Z" fill="#05004D"/>
<path d="M215.34 26.656C215.34 16.36 202.38 19.564 202.38 15.568C202.38 14.164 203.604 13.336 205.584 13.336C207.96 13.336 209.652 14.812 210.156 17.08L215.232 14.956C214.512 11.788 211.74 9.484 208.068 8.764V5.2H203.532V8.692C199.608 9.376 196.692 12.04 196.692 15.604C196.692 24.856 209.616 22.048 209.616 26.8C209.616 28.384 208.14 29.464 205.872 29.464C203.388 29.464 201.192 27.592 200.868 24.784L195.9 26.26C196.296 30.22 199.464 33.28 203.532 34.072V37.672L208.068 37.708V34.108C212.496 33.352 215.34 30.544 215.34 26.656Z" fill="#05004D"/>
<path d="M167 87.6562C167.001 80.6658 172.477 75.0003 179.235 75C185.992 75.0003 191.468 80.6658 191.469 87.6562C191.468 94.6467 185.992 100.312 179.235 100.312C172.477 100.311 167.001 94.6467 167 87.6562ZM172.164 80.3421C170.354 82.2178 169.236 84.7963 169.236 87.6562C169.236 90.5162 170.354 93.0947 172.164 94.9701C173.977 96.8438 176.47 97.9988 179.235 97.9993C181.999 97.9988 184.491 96.8438 186.304 94.9701C188.115 93.0944 189.232 90.5162 189.233 87.6562C189.232 84.7963 188.115 82.2178 186.304 80.3421C184.491 78.4687 181.999 77.3134 179.235 77.3129C176.47 77.3134 173.977 78.4685 172.164 80.3421Z" fill="#05004D"/>
<path d="M181.143 93.343C179.883 93.343 178.785 92.803 178.191 91.651H181.233L181.719 89.923H177.723C177.705 89.743 177.705 89.545 177.705 89.347C177.705 89.131 177.723 88.915 177.741 88.717H182.151L182.673 86.989H178.227C178.821 85.855 179.919 85.333 181.143 85.333C182.601 85.333 183.753 86.287 184.041 87.799L186.867 87.205C186.507 84.595 184.311 82.903 181.143 82.903C178.515 82.903 176.085 84.289 175.203 86.989H173.529V88.717H174.861C174.843 88.915 174.843 89.131 174.843 89.347C174.843 89.545 174.843 89.743 174.861 89.923H173.529V91.651H175.167C176.031 94.387 178.443 95.791 181.143 95.791C184.131 95.791 186.237 94.297 186.831 91.795L183.951 91.147C183.681 92.497 182.619 93.343 181.143 93.343Z" fill="#05004D"/>
<path d="M126 84L139 106" stroke="#05004D" stroke-width="5" stroke-linecap="round" stroke-linejoin="round"/>
<path d="M237 82L224 105" stroke="#05004D" stroke-width="5" stroke-linecap="round" stroke-linejoin="round"/>
<ellipse opacity="0.3" rx="33.2332" ry="33.3381" transform="matrix(0.0258398 0.999666 -0.99967 0.0256775 93.8099 194.149)" fill="#C7BA9A"/>
<ellipse opacity="0.2" rx="50.2019" ry="50.3602" transform="matrix(0.0258398 0.999666 -0.99967 0.0256775 133.761 146.655)" fill="#05004D"/>
</svg>
