<svg width="294" height="196" viewBox="0 0 294 196" fill="none" xmlns="http://www.w3.org/2000/svg">
<ellipse opacity="0.3" rx="59.1352" ry="59.3218" transform="matrix(0.0258398 0.999666 -0.99967 0.0256775 151.83 80.7637)" fill="#C7BA9A"/>
<ellipse opacity="0.2" rx="37.8755" ry="37.995" transform="matrix(0.0258398 0.999666 -0.99967 0.0256775 198.211 138.588)" fill="#05004D"/>
<path d="M257.765 105.998L221.53 117.406V139.568C221.53 158.831 230.986 176.972 246.81 188.1L257.765 195.767L268.72 188.1C284.543 177.066 294 158.925 294 139.568V117.406L257.765 105.998ZM288.944 139.568C288.944 157.241 280.33 173.793 265.817 183.892L257.765 189.502L249.713 183.892C235.2 173.793 226.586 157.148 226.586 139.568V121.053L257.765 111.235L288.944 121.053V139.568Z" fill="#05004D"/>
<path d="M247.184 134.613V139.662H243.252V163.133H272.278V139.662H268.345V134.613C268.345 128.815 263.57 124.046 257.765 124.046C251.96 124.046 247.184 128.815 247.184 134.613ZM260.199 157.429H255.33L256.173 151.164C255.33 150.603 254.769 149.668 254.769 148.639C254.769 146.956 256.079 145.647 257.765 145.647C259.45 145.647 260.761 146.956 260.761 148.639C260.761 149.668 260.199 150.603 259.357 151.164L260.199 157.429ZM251.585 134.613C251.585 131.153 254.394 128.441 257.765 128.441C261.229 128.441 263.944 131.247 263.944 134.613V139.662H251.585V134.613Z" fill="#C7BA9A"/>
<path d="M51.9117 20C51.9117 10.335 59.7468 2.5 69.4117 2.5H112.971L123.533 12.8175L134.084 23.1254L135.143 99.5032C135.279 109.262 127.405 117.246 117.645 117.246H69.4118C59.7468 117.246 51.9117 109.411 51.9117 99.7459V20Z" stroke="#05004D" stroke-width="5"/>
<path d="M112.635 2.70068L113.087 22.9585H134.763" stroke="#05004D" stroke-width="5" stroke-linecap="round" stroke-linejoin="round"/>
<path fill-rule="evenodd" clip-rule="evenodd" d="M87.3456 21.7191C84.7175 21.7191 82.3658 24.0009 82.3658 27.0964C82.3658 30.192 84.7175 32.4738 87.3456 32.4738C89.9737 32.4738 92.3253 30.192 92.3253 27.0964C92.3253 24.0009 89.9737 21.7191 87.3456 21.7191ZM76.5073 27.0964C76.5073 20.9951 81.2377 15.8213 87.3456 15.8213C93.4535 15.8213 98.1839 20.9951 98.1839 27.0964C98.1839 33.1978 93.4535 38.3716 87.3456 38.3716C81.2377 38.3716 76.5073 33.1978 76.5073 27.0964Z" fill="#C7BA9A"/>
<path fill-rule="evenodd" clip-rule="evenodd" d="M122.411 78.0621C122.411 79.4393 121.295 80.5558 119.918 80.5558H74.9642C73.5869 80.5558 72.4705 79.4393 72.4705 78.0621C72.4705 76.6848 73.5869 75.5684 74.9642 75.5684H119.918C121.295 75.5684 122.411 76.6848 122.411 78.0621Z" fill="#05004D"/>
<path fill-rule="evenodd" clip-rule="evenodd" d="M122.251 103.234C122.251 104.611 121.135 105.728 119.758 105.728H74.8041C73.4268 105.728 72.3103 104.611 72.3103 103.234C72.3103 101.857 73.4268 100.74 74.8041 100.74H119.758C121.135 100.74 122.251 101.857 122.251 103.234Z" fill="#05004D"/>
<path fill-rule="evenodd" clip-rule="evenodd" d="M122.251 90.7647C122.251 92.1419 121.135 93.2584 119.758 93.2584H74.804C73.4268 93.2584 72.3103 92.1419 72.3103 90.7647C72.3103 89.3875 73.4268 88.271 74.804 88.271H119.758C121.135 88.271 122.251 89.3875 122.251 90.7647Z" fill="#05004D"/>
<path d="M65.5543 128.747C65.5543 125.588 62.9881 123.022 59.8209 123.022C56.6548 123.022 54.0886 125.589 54.0886 128.747C54.0886 131.912 56.6548 134.472 59.8209 134.472C62.987 134.472 65.5543 131.912 65.5543 128.747Z" fill="white"/>
<path d="M19.9409 123.021C16.7738 123.021 14.2076 125.588 14.2076 128.746C14.2076 131.911 16.7738 134.471 19.9409 134.471C23.107 134.471 25.6732 131.911 25.6732 128.746C25.6732 125.588 23.107 123.021 19.9409 123.021Z" fill="white"/>
<path d="M39.8801 123.021C36.714 123.021 34.1478 125.588 34.1478 128.746C34.1478 131.911 36.714 134.471 39.8801 134.471C43.0473 134.471 45.6135 131.911 45.6135 128.746C45.6135 125.588 43.0473 123.021 39.8801 123.021Z" fill="white"/>
<path d="M82.5921 136.876C82.198 138.198 81.7005 139.475 81.1192 140.711C88.5302 140.937 94.5046 146.996 94.5046 154.457C94.5046 160.384 90.7189 165.635 85.0797 167.521L84.6359 167.673L78.2054 174.129L72.3139 168.248H61.082C54.2708 168.248 48.6316 163.286 47.5135 156.79H43.5261C44.6867 165.483 52.0718 172.23 61.083 172.23H70.6641L78.2158 179.768L86.807 171.138C93.8209 168.583 98.495 161.936 98.495 154.457C98.493 145.3 91.506 137.834 82.5921 136.876Z" fill="#05004D"/>
<path d="M79.761 128.987C79.761 115.86 69.0659 105.176 55.9184 105.176H23.8425C10.6951 105.176 0 115.86 0 128.987C0 139.228 6.53909 148.298 16.2712 151.558L16.7149 151.709L27.9199 162.95L38.072 152.807H55.9184C69.0659 152.807 79.761 142.126 79.761 128.987ZM19.941 134.471C16.7739 134.471 14.2077 131.912 14.2077 128.747C14.2077 125.588 16.7739 123.022 19.941 123.022C23.1071 123.022 25.6733 125.589 25.6733 128.747C25.6733 131.912 23.1071 134.471 19.941 134.471ZM39.88 134.471C36.7139 134.471 34.1477 131.912 34.1477 128.747C34.1477 125.588 36.7139 123.022 39.88 123.022C43.0471 123.022 45.6133 125.589 45.6133 128.747C45.6133 131.912 43.0471 134.471 39.88 134.471ZM54.0887 128.747C54.0887 125.588 56.6549 123.022 59.821 123.022C62.9881 123.022 65.5543 125.589 65.5543 128.747C65.5543 131.912 62.9881 134.471 59.821 134.471C56.6549 134.471 54.0887 131.912 54.0887 128.747Z" fill="#05004D"/>
<path d="M154.823 43.5098H251.176V90.3031" stroke="#05004D" stroke-width="6" stroke-linecap="round" stroke-linejoin="round" stroke-dasharray="16 16"/>
<path d="M116.118 144.485H217.412" stroke="#05004D" stroke-width="6" stroke-linecap="round" stroke-linejoin="round" stroke-dasharray="16 16"/>
<path d="M108.797 57H65.2028C66.666 46.2689 75.8674 38 87 38C98.1326 38 107.334 46.2689 108.797 57Z" stroke="#C7BA9A" stroke-width="6"/>
</svg>
