<svg width="101" height="99" viewBox="0 0 101 99" fill="none" xmlns="http://www.w3.org/2000/svg">
<ellipse opacity="0.3" cx="71.7958" cy="58.4352" rx="28.0492" ry="27.5542" transform="rotate(88.524 71.7958 58.4352)" fill="#C7BA9A"/>
<circle cx="46.2975" cy="23.8179" r="20.3127" transform="rotate(88.524 46.2975 23.8179)" fill="#C7BA9A"/>
<path d="M87.8439 27.2735C87.0944 27.2735 86.4861 26.6626 86.4861 25.9098V6.81837C86.4861 4.56286 84.6586 2.72735 82.4129 2.72735H41.6801C40.9307 2.72735 40.3224 2.11642 40.3224 1.36367C40.3224 0.610926 40.9307 0 41.6801 0H82.4129C86.1549 0 89.2017 3.05736 89.2017 6.81837V25.9098C89.2017 26.6626 88.5934 27.2735 87.8439 27.2735Z" fill="#05004D"/>
<path d="M87.8436 57.2744C87.0941 57.2744 86.4858 56.6634 86.4858 55.9107V36.8192C86.4858 36.0665 87.0941 35.4556 87.8436 35.4556C88.5931 35.4556 89.2014 36.0665 89.2014 36.8192V55.9107C89.2014 56.6634 88.5931 57.2744 87.8436 57.2744Z" fill="#05004D"/>
<path d="M93.2745 65.4564H52.5418C48.7998 65.4564 45.753 62.399 45.753 58.638V12.991H36.2487C35.4993 12.991 34.891 10.2985 34.891 9.54572V6.81837C34.891 3.05736 37.9378 0 41.6798 0C45.4217 0 48.4685 3.05736 48.4685 6.81837V58.638C48.4685 60.8935 50.2961 62.729 52.5418 62.729C54.7875 62.729 56.6151 60.8935 56.6151 58.638V55.9106C56.6151 55.1579 57.2233 54.547 57.9728 54.547H98.7055C99.455 54.547 100.063 55.1579 100.063 55.9106V58.638C100.063 62.399 97.0164 65.4564 93.2745 65.4564ZM57.9701 62.729H93.2745C95.5202 62.729 97.3477 60.8935 97.3477 58.638V57.2743H59.3306V58.638C59.3306 60.1735 58.8228 61.589 57.9701 62.729ZM37.6065 8.18204H45.753V6.81837C45.753 4.56285 43.9255 2.72735 41.6798 2.72735C39.434 2.72735 37.6065 4.56285 37.6065 6.81837V8.18204Z" fill="#05004D"/>
<path d="M74.2666 46.3648C73.9136 46.3648 73.566 46.2257 73.3053 45.9666C72.9415 45.6012 72.8138 45.0611 72.9768 44.5702L75.6923 36.3882C75.7574 36.1891 75.8715 36.0036 76.0208 35.8564L91.1897 20.6214C93.1503 18.6468 96.5664 18.655 98.5243 20.6214C100.561 22.6697 100.561 25.9725 98.5406 28.0043L83.3717 43.2393C83.2224 43.3893 83.0405 43.5038 82.8422 43.5693L74.6957 46.2966C74.5545 46.3403 74.4105 46.3648 74.2666 46.3648ZM78.1688 37.5582L76.4146 42.8438L81.68 41.0819L96.6207 26.0761C97.5847 25.1106 97.5847 23.5315 96.6207 22.566C95.6567 21.5978 94.0437 21.6115 93.1096 22.5497L78.1688 37.5582ZM82.4132 42.2738H82.4403H82.4132Z" fill="#05004D"/>
<path d="M82.4122 43.638C82.0646 43.638 81.717 43.5044 81.4508 43.2398L76.0196 37.7851C75.49 37.2533 75.49 36.3887 76.0196 35.8569C76.5491 35.325 77.41 35.325 77.9395 35.8569L83.3708 41.3116C83.9003 41.8434 83.9003 42.708 83.3708 43.2398C83.1074 43.5044 82.7598 43.638 82.4122 43.638Z" fill="#05004D"/>
<line x1="60.8564" y1="10.1118" x2="73.6332" y2="10.1118" stroke="#05004D" stroke-width="5" stroke-linecap="round"/>
<line x1="56.0704" y1="35.4097" x2="70.8983" y2="35.4097" stroke="#05004D" stroke-width="5" stroke-linecap="round"/>
<line x1="56.0704" y1="18.3164" x2="79.103" y2="18.3164" stroke="#05004D" stroke-width="5" stroke-linecap="round"/>
<line x1="56.0704" y1="27.2051" x2="79.103" y2="27.2051" stroke="#05004D" stroke-width="5" stroke-linecap="round"/>
<path d="M46.2516 54.623C45.1517 43.1948 37.7459 33.2576 34.9613 30.7989C34.6718 30.5136 34.276 30.409 33.8808 30.3763C33.5219 30.3793 33.1279 30.4904 32.8075 30.8168C30.064 33.3212 22.7876 43.3441 21.9128 54.7526L19.9459 55.6681C16.5128 57.279 14.4606 60.8926 14.8149 64.6661L15.605 73.3634C15.6869 74.5856 17.0213 75.3298 18.1297 74.7812L23.9586 72.0354C24.6256 74.5475 25.324 76.5199 25.8379 77.8824C26.242 78.994 27.3248 79.7043 28.5453 79.6942L40.0686 79.6348C41.2173 79.6252 42.2883 78.897 42.7095 77.7426C43.2007 76.3719 43.8664 74.3882 44.4917 71.8654L50.3297 74.5505C51.4469 75.0807 52.7327 74.2788 52.8306 73.0911L53.4408 64.4182C53.7326 60.6393 51.6208 57.0602 48.1616 55.5063L46.2516 54.623ZM39.0573 52.8843C39.0799 55.6175 36.8728 57.8657 34.109 57.9245C31.3808 57.9471 29.1367 55.7358 29.0779 52.9669C29.0552 50.2337 31.2624 47.9855 34.0262 47.9266C36.7905 47.9397 39.0346 50.151 39.0573 52.8843Z" fill="#05004D"/>
<path d="M39.0961 83.5989L39.1028 88.742C39.1111 89.7489 39.9798 90.6049 40.9849 90.5966C41.99 90.5883 42.8444 89.718 42.8361 88.711L42.7932 83.5323C42.7849 82.5253 41.9162 81.6693 40.9111 81.6776C39.8703 81.7222 39.0516 82.5562 39.0961 83.5989Z" fill="#05004D"/>
<path d="M34.3064 81.804C33.3013 81.8123 32.4469 82.6826 32.4553 83.6896L32.5594 91.925C32.5677 92.932 33.4364 93.788 34.4415 93.7796C35.4466 93.7713 36.301 92.9011 36.2927 91.8941L36.1524 83.623C36.1797 82.5798 35.3472 81.7594 34.3064 81.804Z" fill="#05004D"/>
<path d="M29.6191 83.6773C29.6108 82.6703 28.7421 81.8143 27.737 81.8226C26.7319 81.8309 25.8775 82.7012 25.8858 83.7082L25.9287 88.8869C25.9371 89.8939 26.8057 90.7499 27.8109 90.7416C28.816 90.7333 29.6704 89.863 29.662 88.856L29.6191 83.6773Z" fill="#05004D"/>
</svg>
