<svg width="284" height="219" viewBox="0 0 284 219" fill="none" xmlns="http://www.w3.org/2000/svg">
<circle opacity="0.3" cx="189.829" cy="102.385" r="57.2462" transform="rotate(88.524 189.829 102.385)" fill="#C7BA9A"/>
<circle opacity="0.2" cx="157.73" cy="58.3868" r="46.5918" transform="rotate(88.524 157.73 58.3868)" fill="#05004D"/>
<path d="M160.532 154.943H253.514V109.644" stroke="#05004D" stroke-width="6" stroke-linecap="round" stroke-linejoin="round" stroke-dasharray="16 16"/>
<path d="M186.758 23.8149H93.7763V69.1136" stroke="#05004D" stroke-width="6" stroke-linecap="round" stroke-linejoin="round" stroke-dasharray="16 16"/>
<path d="M248.745 0.0986328L213.778 11.1424V32.5963C213.778 51.244 222.904 68.8055 238.174 79.5777L248.745 87.0005L259.317 79.5777C274.587 68.896 283.713 51.3345 283.713 32.5963V11.1424L248.745 0.0986328ZM278.834 32.5963C278.834 49.7051 270.521 65.7277 256.516 75.5041L248.745 80.9355L240.975 75.5041C226.97 65.7277 218.657 49.6146 218.657 32.5963V14.6728L248.745 5.16789L278.834 14.6728V32.5963Z" fill="#05004D"/>
<path d="M238.535 27.8003V32.6886H234.74V55.4097H262.751V32.6886H258.956V27.8003C258.956 22.1879 254.348 17.5713 248.746 17.5713C243.144 17.5713 238.535 22.1879 238.535 27.8003ZM251.095 49.8878H246.396L247.209 43.8228C246.396 43.2797 245.854 42.3744 245.854 41.3787C245.854 39.7493 247.119 38.482 248.746 38.482C250.372 38.482 251.637 39.7493 251.637 41.3787C251.637 42.3744 251.095 43.2797 250.282 43.8228L251.095 49.8878ZM242.782 27.8003C242.782 24.451 245.493 21.8259 248.746 21.8259C252.089 21.8259 254.709 24.5415 254.709 27.8003V32.6886H242.782V27.8003Z" fill="#C7BA9A"/>
<path d="M145.393 81.3096H3.12691C1.40028 81.3096 0 82.7125 0 84.4423V171.631C0 173.361 1.40028 174.764 3.12691 174.764H65.392C67.1187 174.764 68.519 176.167 68.519 177.897C68.519 179.626 67.1187 181.029 65.392 181.029H40.2569C38.5303 181.029 37.13 182.432 37.13 184.162V188.339C37.13 190.069 38.5303 191.472 40.2569 191.472H90.6771V181.029H83.9271C82.2004 181.029 80.8002 179.626 80.8002 177.897C80.8002 176.167 82.2004 174.764 83.9271 174.764H90.6771V167.012H7.38603V89.0279H139.339V167.012H137.223V174.764H145.393C147.12 174.764 148.52 173.361 148.52 171.631V84.4423C148.52 82.7125 147.12 81.3096 145.393 81.3096Z" fill="#05004D"/>
<path d="M125.393 139.333H102.797C97.8118 139.333 93.7708 143.381 93.7708 148.376V196.522C93.7708 201.517 97.8118 205.565 102.797 205.565H125.393C130.378 205.565 134.419 201.517 134.419 196.522V148.376C134.419 143.381 130.378 139.333 125.393 139.333ZM130.454 195.902C130.454 198.16 128.628 199.99 126.373 199.99H101.235C98.9806 199.99 97.1541 198.16 97.1541 195.902V147.527C97.1541 145.268 98.9806 143.438 101.235 143.438H126.373C128.628 143.438 130.454 145.268 130.454 147.527V195.902Z" fill="#05004D"/>
<path d="M74.2602 96.7314C71.2964 96.7314 68.3992 97.6119 65.9349 99.2616C63.4706 100.911 61.5499 103.256 60.4157 105.999C59.2815 108.742 58.9848 111.761 59.563 114.673C60.1412 117.585 61.5684 120.261 63.6641 122.36C65.7598 124.46 68.4299 125.89 71.3367 126.469C74.2436 127.048 77.2566 126.751 79.9948 125.615C82.733 124.478 85.0733 122.554 86.7199 120.085C88.3665 117.616 89.2454 114.714 89.2454 111.744C89.241 107.764 87.6608 103.948 84.8515 101.133C82.0422 98.3189 78.2332 96.7358 74.2602 96.7314V96.7314ZM74.2602 125.819C72.3693 125.82 70.4979 125.437 68.7587 124.693C67.0195 123.95 65.4485 122.861 64.1405 121.493C64.6371 119.174 65.9125 117.095 67.7541 115.603C69.5957 114.112 71.8921 113.298 74.2602 113.297C73.2383 113.297 72.2393 112.994 71.3895 112.425C70.5398 111.856 69.8774 111.048 69.4862 110.102C69.095 109.156 68.9926 108.115 69.1918 107.111C69.391 106.107 69.8829 105.184 70.6054 104.46C71.3278 103.736 72.2484 103.243 73.2506 103.043C74.2529 102.843 75.2918 102.945 76.2361 103.336C77.1804 103.728 77.9876 104.391 78.5557 105.242C79.1238 106.093 79.4273 107.094 79.4277 108.118C79.428 108.798 79.2946 109.471 79.0351 110.1C78.7755 110.728 78.3949 111.299 77.915 111.78C77.4351 112.261 76.8654 112.643 76.2383 112.903C75.6112 113.163 74.939 113.297 74.2602 113.297C76.6283 113.298 78.9247 114.112 80.7663 115.603C82.6079 117.095 83.8833 119.174 84.3799 121.493C83.0719 122.861 81.5009 123.95 79.7617 124.693C78.0225 125.437 76.1511 125.82 74.2602 125.819Z" fill="#05004D"/>
<path d="M114.221 151.779C112.904 151.779 111.616 152.17 110.521 152.903C109.425 153.636 108.572 154.679 108.068 155.898C107.564 157.117 107.432 158.459 107.689 159.753C107.946 161.047 108.58 162.236 109.511 163.169C110.443 164.102 111.63 164.738 112.922 164.995C114.214 165.253 115.553 165.121 116.77 164.616C117.987 164.111 119.027 163.255 119.759 162.158C120.49 161.061 120.881 159.771 120.881 158.451C120.879 156.682 120.177 154.986 118.928 153.735C117.68 152.484 115.987 151.781 114.221 151.779V151.779ZM114.221 164.707C113.38 164.707 112.549 164.537 111.776 164.206C111.003 163.876 110.305 163.392 109.723 162.784C109.944 161.753 110.511 160.829 111.329 160.166C112.148 159.503 113.168 159.142 114.221 159.141C113.767 159.141 113.323 159.006 112.945 158.754C112.567 158.501 112.273 158.142 112.099 157.721C111.925 157.301 111.88 156.838 111.968 156.392C112.057 155.946 112.275 155.536 112.597 155.214C112.918 154.892 113.327 154.673 113.772 154.584C114.218 154.495 114.679 154.54 115.099 154.714C115.519 154.888 115.878 155.183 116.13 155.561C116.383 155.94 116.517 156.384 116.518 156.839C116.518 157.142 116.458 157.441 116.343 157.72C116.228 158 116.059 158.253 115.845 158.467C115.632 158.681 115.379 158.85 115.1 158.966C114.821 159.082 114.523 159.141 114.221 159.141C115.273 159.142 116.294 159.503 117.112 160.166C117.931 160.829 118.498 161.753 118.719 162.784C118.137 163.392 117.439 163.876 116.666 164.206C115.893 164.537 115.061 164.707 114.221 164.707Z" fill="#05004D"/>
<rect x="54.2798" y="130.094" width="38.2954" height="6.67261" rx="3.3363" fill="#05004D"/>
<rect x="104.231" y="168.46" width="19.9802" height="3.33618" rx="1.66809" fill="#05004D"/>
<rect x="104.231" y="173.465" width="19.9802" height="3.33594" rx="1.66797" fill="#05004D"/>
<rect x="54.2798" y="140.103" width="38.2954" height="6.67261" rx="3.3363" fill="#05004D"/>
</svg>
