<svg width="237" height="223" viewBox="0 0 237 223" fill="none" xmlns="http://www.w3.org/2000/svg">
<ellipse opacity="0.3" rx="75.5429" ry="75.7811" transform="matrix(0.0258398 0.999666 -0.99967 0.0256775 139.708 120.464)" fill="#C7BA9A"/>
<ellipse opacity="0.2" rx="50.2019" ry="50.3602" transform="matrix(0.0258398 0.999666 -0.99967 0.0256775 64.6408 171.478)" fill="#05004D"/>
<path d="M110 187H198V144" stroke="#05004D" stroke-width="6" stroke-linecap="round" stroke-linejoin="round" stroke-dasharray="16 16"/>
<path d="M126 61H38V104" stroke="#05004D" stroke-width="6" stroke-linecap="round" stroke-linejoin="round" stroke-dasharray="16 16"/>
<path d="M222.277 99.4335C222.277 102.084 218.293 102.084 218.293 99.4335V86.5844H216.12H195.233C194.526 86.5844 193.905 86.2103 193.551 85.6478C190.47 81.4054 187.39 77.1631 184.309 72.9197H158.836V116.105H187.865C190.486 116.105 190.486 120.137 187.865 120.137H158.836V123.051H195.234C197.855 123.051 197.855 127.082 195.234 127.082H156.844C155.744 127.082 154.853 126.18 154.853 125.067V70.9037C154.853 69.7905 155.744 68.8887 156.844 68.8887H185.311C185.946 68.8887 186.539 69.1972 186.914 69.7151L189.696 73.5448H216.12C217.22 73.5448 218.112 74.4476 218.112 75.5608V82.5523H220.285C221.384 82.5523 222.277 83.4552 222.277 84.5684V99.4335ZM163.722 112.982C161.101 112.982 161.101 108.951 163.722 108.951H187.865C190.486 108.951 190.486 112.982 187.865 112.982H163.722ZM225.01 117.825C222.874 116.305 225.162 113.013 227.298 114.534L228.166 115.152C226.318 109.692 221.235 106.003 215.508 106.003C208.12 106.003 202.131 112.064 202.131 119.542C202.131 127.019 208.12 133.081 215.508 133.081C219.934 133.081 224.034 130.896 226.544 127.206C228.025 125.034 231.294 127.317 229.811 129.49C226.567 134.26 221.233 137.112 215.508 137.112C205.92 137.112 198.147 129.245 198.147 119.542C198.147 109.838 205.92 101.971 215.508 101.971C223.085 101.971 229.777 106.945 232.059 114.223L232.493 113.581C233.964 111.399 237.248 113.666 235.777 115.849L232.591 120.571C231.973 121.623 230.575 121.878 229.635 121.119L225.01 117.825ZM171.784 83.601C173.309 85.7559 170.072 88.1023 168.547 85.9484L162.784 77.8089C161.259 75.655 164.496 73.3076 166.021 75.4626L171.784 83.601ZM179.785 83.601C181.311 85.7559 178.074 88.1023 176.548 85.9484L170.786 77.8089C169.261 75.655 172.498 73.3076 174.023 75.4626L179.785 83.601ZM187.788 83.601C189.312 85.7559 186.075 88.1023 184.551 85.9484L178.787 77.8089C177.262 75.655 180.499 73.3076 182.025 75.4626L187.788 83.601ZM192.623 77.5768L196.236 82.5523H214.128V77.5768H192.623Z" fill="#05004D"/>
<path d="M207.359 48.1856L197.932 57.5819C197.817 57.696 197.662 57.7601 197.5 57.7601C197.338 57.7601 197.183 57.696 197.068 57.5819L187.641 48.1856C187.599 48.143 187.57 48.0888 187.558 48.0298C187.546 47.9708 187.552 47.9096 187.575 47.8541C187.598 47.7985 187.637 47.751 187.688 47.7176C187.738 47.6841 187.797 47.6663 187.857 47.6663H193.23V34.9083C193.23 34.7469 193.294 34.5922 193.409 34.4781C193.523 34.3641 193.678 34.3 193.84 34.3H201.16C201.322 34.3 201.477 34.3641 201.591 34.4781C201.706 34.5922 201.77 34.7469 201.77 34.9083V47.6663H207.143C207.203 47.6663 207.262 47.6841 207.312 47.7175C207.363 47.751 207.402 47.7985 207.425 47.8541C207.448 47.9096 207.454 47.9708 207.442 48.0298C207.43 48.0888 207.401 48.143 207.359 48.1856ZM213.97 3.04004C207.906 3.04004 202.99 5.58641 202.99 8.72761V10.9851C202.99 14.1262 207.906 16.6726 213.97 16.6726C220.034 16.6726 224.95 14.1262 224.95 10.9851V8.72761C224.95 5.58641 220.034 3.04004 213.97 3.04004ZM213.97 19.1046C209.44 19.1046 205.582 17.8748 203.179 15.9158C203.057 16.2457 202.994 16.5938 202.99 16.9451V19.2025C202.99 22.3437 207.906 24.8901 213.97 24.8901C220.034 24.8901 224.95 22.3437 224.95 19.2025V16.9451C224.946 16.5938 224.883 16.2457 224.761 15.9158C222.358 17.8748 218.5 19.1046 213.97 19.1046ZM213.97 27.3221C209.44 27.3221 205.582 26.0923 203.179 24.1333C203.057 24.4632 202.994 24.8113 202.99 25.1626V27.42C202.99 30.5611 207.906 33.1076 213.97 33.1076C220.034 33.1076 224.95 30.5611 224.95 27.42V25.1626C224.946 24.8113 224.883 24.4632 224.761 24.1333C222.358 26.0923 218.5 27.3221 213.97 27.3221ZM181.03 16.6726C187.094 16.6726 192.01 14.1262 192.01 10.9851V8.72761C192.01 5.58641 187.094 3.04004 181.03 3.04004C174.966 3.04004 170.05 5.58641 170.05 8.72761V10.9851C170.05 14.1262 174.966 16.6726 181.03 16.6726ZM181.03 24.8901C187.094 24.8901 192.01 22.3437 192.01 19.2025V16.9451C192.006 16.5938 191.942 16.2457 191.821 15.9158C189.418 17.8748 185.56 19.1046 181.03 19.1046C176.5 19.1046 172.642 17.8748 170.239 15.9158C170.117 16.2457 170.054 16.5938 170.05 16.9451V19.2025C170.05 22.3437 174.966 24.8901 181.03 24.8901ZM192.01 27.42V25.1626C192.006 24.8113 191.942 24.4632 191.821 24.1333C189.418 26.0923 185.56 27.3221 181.03 27.3221C176.5 27.3221 172.642 26.0923 170.239 24.1333C170.117 24.4632 170.054 24.8113 170.05 25.1626V27.42C170.05 30.5611 174.966 33.1076 181.03 33.1076C187.094 33.1076 192.01 30.5612 192.01 27.42Z" fill="#C7BA9A"/>
<path d="M81.828 198.815L71.0471 175.483C70.9532 175.266 70.8166 175.071 70.6454 174.909C70.4743 174.748 70.2722 174.622 70.0514 174.54C69.8305 174.459 69.5955 174.423 69.3604 174.434C69.1253 174.446 68.895 174.505 68.6833 174.609L57.3966 180.289L44.6793 176.601C44.4754 176.543 44.2626 176.522 44.0513 176.54L34.4566 177.353C34.0393 177.39 33.6492 177.576 33.3576 177.877L23.763 177.423L11.6824 172.311C11.4675 172.22 11.2366 172.173 11.0034 172.174C10.7702 172.174 10.5394 172.221 10.3247 172.313C10.1101 172.404 9.91582 172.537 9.7535 172.705C9.59118 172.873 9.46409 173.071 9.37972 173.289L0.116529 197.329C0.0197139 197.581 -0.0175528 197.852 0.0076501 198.121C0.032853 198.389 0.11984 198.649 0.261793 198.878C0.403746 199.108 0.596806 199.301 0.825838 199.443C1.05487 199.585 1.31365 199.672 1.58189 199.697L18.1545 201.279C20.9369 203.446 35.8871 215.776 38.3817 217.699C39.6096 218.588 41.0978 219.043 42.6121 218.992C44.0175 218.968 45.4101 218.721 46.7378 218.258C47.2282 218.503 47.7685 218.632 48.3165 218.634C48.5926 218.633 48.8677 218.601 49.1364 218.538C50.8809 218.136 52.1369 216.528 52.8871 215.287C53.5821 215.47 54.2969 215.566 55.0153 215.575C55.5733 215.621 56.1344 215.545 56.6604 215.353C57.1864 215.161 57.6649 214.858 58.0632 214.464C58.4615 214.07 58.7702 213.594 58.9682 213.07C59.1663 212.545 59.249 211.984 59.2108 211.425H59.3155C59.9186 211.45 60.5206 211.355 61.0866 211.145C61.6527 210.935 62.1714 210.614 62.6125 210.201C64.1826 208.681 64.1564 206.304 63.9732 204.958L65.9707 203.105L80.4673 201.358C80.7406 201.324 81.0021 201.226 81.2304 201.072C81.4587 200.918 81.6474 200.712 81.781 200.471C81.9145 200.23 81.9892 199.96 81.9989 199.684C82.0086 199.409 81.953 199.135 81.8367 198.885L81.828 198.815ZM55.7306 183.444C55.8546 183.602 56.0051 183.738 56.1754 183.846L63.1533 200.938L62.2113 201.812C59.8999 199.295 54.6664 193.633 50.6629 189.578C48.0461 186.956 45.8219 186.004 43.8856 186.004C40.9461 186.004 38.7219 188.136 37.1344 189.657C34.5177 192.165 33.5408 191.326 33.0174 190.871C32.4941 190.417 32.0841 188.136 32.1452 186.257L35.608 180.726L44.0077 180.018L55.7306 183.444ZM11.9877 176.225L21.3992 180.193L17.5003 197.67L4.20734 196.403L11.9877 176.225ZM60.1877 207.693C59.8737 207.999 59.08 208.017 58.0158 207.746L48.1683 198.29C48.0022 198.132 47.8064 198.007 47.5923 197.924C47.3781 197.841 47.1497 197.8 46.9201 197.806C46.6905 197.811 46.4641 197.862 46.254 197.954C46.0439 198.047 45.8541 198.181 45.6954 198.347C45.5368 198.514 45.4124 198.71 45.3294 198.924C45.2464 199.139 45.2064 199.368 45.2117 199.598C45.2169 199.828 45.2674 200.055 45.3601 200.265C45.4528 200.476 45.5861 200.666 45.7521 200.825L55.5823 210.271C55.7882 210.833 55.8066 211.446 55.6346 212.019C55.6346 212.019 55.0764 212.403 52.9481 211.695L43.807 203.324C43.6352 203.17 43.4348 203.051 43.2171 202.974C42.9994 202.897 42.7687 202.864 42.5383 202.877C42.3079 202.889 42.0822 202.947 41.8741 203.047C41.666 203.147 41.4796 203.287 41.3255 203.459C41.1715 203.631 41.0528 203.832 40.9762 204.05C40.8996 204.269 40.8666 204.5 40.8792 204.73C40.8917 204.961 40.9496 205.187 41.0493 205.396C41.1491 205.604 41.2889 205.791 41.4607 205.945L49.8604 213.601C49.3632 214.387 48.7701 215.077 48.3689 215.165C48.3078 215.165 48.1421 215.051 48.0897 215.016C45.473 212.77 40.6495 208.025 40.6059 208.025C40.4627 207.812 40.2744 207.634 40.0544 207.502C39.8344 207.37 39.5881 207.289 39.3331 207.263C39.0781 207.237 38.8205 207.268 38.5788 207.354C38.3372 207.439 38.1172 207.577 37.9347 207.757C37.7522 207.938 37.6115 208.156 37.5228 208.397C37.434 208.638 37.3993 208.895 37.4212 209.151C37.4431 209.407 37.5209 209.655 37.6492 209.877C37.7776 210.099 37.9532 210.291 38.1637 210.437C38.3119 210.586 40.9199 213.146 43.3971 215.409C42.4154 215.595 41.4001 215.411 40.5449 214.894C38.2247 213.146 24.3823 201.786 20.8235 198.85L24.8271 180.936L31.1508 181.241L28.9092 184.737C28.7401 184.998 28.6438 185.3 28.6301 185.611C28.5865 186.581 28.4731 191.527 30.7322 193.475C32.4766 195.013 35.4772 196.036 39.5592 192.13C42.2806 189.508 44.0774 187.76 48.1683 191.99C52.7824 196.709 59.0364 203.525 60.5017 205.098C60.6151 205.972 60.6238 207.256 60.1877 207.693ZM66.2934 199.505L59.6295 183.077L68.631 178.567L77.6325 198.107L66.2934 199.505Z" fill="#05004D"/>
<g clip-path="url(#clip0)">
<path d="M54.4205 157.302C54.2058 157.537 53.8684 157.621 53.5695 157.507L48.2948 155.523L44.5075 160.007C44.3618 160.182 44.1471 160.281 43.9248 160.281C43.8634 160.281 43.8098 160.273 43.7561 160.266C43.4724 160.205 43.2578 159.992 43.1811 159.718L40.9961 151.64L38.8188 159.718C38.7421 159.992 38.5275 160.205 38.2438 160.266C38.1901 160.273 38.1365 160.281 38.0751 160.281C37.8528 160.281 37.6381 160.182 37.4924 160.007L33.7051 155.523L28.4304 157.507C28.1315 157.621 27.7941 157.537 27.5795 157.302C27.3724 157.058 27.3341 156.716 27.4875 156.435L32.2485 147.794C33.4061 148.767 34.7401 149.557 36.1815 150.104C37.6304 150.652 39.1868 150.956 40.8198 150.978C40.8811 150.978 40.9348 150.986 40.9961 150.986C41.0575 150.986 41.1188 150.978 41.1801 150.978C44.4384 150.933 47.4285 149.747 49.7514 147.794L54.5125 156.435C54.6658 156.716 54.6275 157.058 54.4205 157.302Z" fill="#05004D"/>
<path d="M40.9961 125.32C34.3338 125.32 28.9135 130.739 28.9135 137.389C28.9135 144.047 34.3338 149.466 40.9961 149.466C47.6661 149.466 53.0865 144.047 53.0865 137.389C53.0865 130.739 47.6661 125.32 40.9961 125.32ZM40.9961 146.441C35.9438 146.441 31.8345 142.382 31.8345 137.389C31.8345 132.404 35.9438 128.345 40.9961 128.345C46.0561 128.345 50.1655 132.404 50.1655 137.389C50.1655 142.382 46.0561 146.441 40.9961 146.441Z" fill="#05004D"/>
<path d="M47.2367 136.257C47.2291 136.272 47.2367 136.287 47.2367 136.302C47.2291 136.34 47.2137 136.371 47.1984 136.409C47.1907 136.447 47.1831 136.485 47.16 136.53C47.1294 136.583 47.0911 136.629 47.0528 136.682C47.0374 136.697 47.0297 136.728 47.0068 136.743L44.5611 139.061L45.1438 142.329C45.1898 142.618 45.0747 142.907 44.8371 143.074C44.7068 143.173 44.5457 143.226 44.3847 143.226C44.2621 143.226 44.1471 143.195 44.0321 143.135L40.9961 141.584L37.9677 143.135C37.7071 143.271 37.3927 143.249 37.1627 143.074C36.9251 142.907 36.81 142.618 36.856 142.329L37.4387 139.061L34.9931 136.743C34.9701 136.728 34.9624 136.697 34.9471 136.682C34.9087 136.629 34.8704 136.583 34.8398 136.53C34.8167 136.485 34.8091 136.447 34.8014 136.409C34.7861 136.371 34.7707 136.34 34.7631 136.302C34.7631 136.287 34.7707 136.272 34.7631 136.257C34.7631 136.203 34.7707 136.15 34.7784 136.097C34.7784 136.051 34.7861 136.006 34.8014 135.968C34.8091 135.922 34.8398 135.884 34.8627 135.839C34.8858 135.793 34.9087 135.747 34.9471 135.709C34.9547 135.694 34.9547 135.679 34.9701 135.671C34.9931 135.649 35.0237 135.633 35.0467 135.618C35.085 135.58 35.131 135.55 35.1771 135.527C35.2231 135.504 35.2691 135.489 35.3227 135.474C35.3534 135.466 35.3841 135.451 35.4148 135.443L38.8034 134.965L40.3137 131.978C40.3291 131.955 40.3521 131.94 40.3674 131.909C40.3981 131.871 40.4287 131.826 40.4671 131.788C40.5054 131.757 40.5438 131.727 40.5821 131.697C40.6127 131.681 40.6281 131.659 40.6587 131.643C40.6741 131.636 40.6894 131.636 40.7124 131.628C40.7584 131.605 40.8044 131.598 40.8581 131.59C40.9041 131.583 40.9501 131.567 40.9961 131.567C41.0497 131.567 41.0957 131.583 41.1417 131.59C41.1954 131.598 41.2414 131.605 41.2874 131.628C41.3104 131.636 41.3257 131.636 41.3411 131.643C41.3717 131.659 41.3871 131.681 41.4177 131.697C41.456 131.727 41.4944 131.757 41.5327 131.788C41.5711 131.826 41.6017 131.871 41.6324 131.909C41.6477 131.94 41.6707 131.955 41.6861 131.978L43.1964 134.965L46.585 135.443C46.6157 135.451 46.6464 135.466 46.6771 135.474C46.7307 135.489 46.7767 135.504 46.8227 135.527C46.8688 135.55 46.9148 135.58 46.9531 135.618C46.9761 135.633 47.0068 135.649 47.0297 135.671C47.0451 135.679 47.0451 135.694 47.0528 135.709C47.0911 135.747 47.1141 135.793 47.1371 135.839C47.16 135.884 47.1907 135.922 47.1984 135.968C47.2137 136.006 47.2214 136.051 47.2214 136.097C47.2291 136.15 47.2367 136.203 47.2367 136.257Z" fill="#05004D"/>
</g>
<defs>
<clipPath id="clip0">
<rect width="46" height="57" fill="white" transform="translate(18 120)"/>
</clipPath>
</defs>
</svg>
