<svg width="32" height="32" viewBox="0 0 32 32" fill="none" xmlns="http://www.w3.org/2000/svg">
<circle cx="16" cy="16" r="16" fill="white"/>
<path d="M11.0895 8.12104C11.5741 7.56951 12.0197 7.10284 12.4442 6.70687C5.27792 6.47706 7.36484 11.6565 5.01617 16.9137C2.32793 22.9734 5.33452 25.282 9.81255 26.0032C9.1872 25.2584 8.67692 24.4243 8.29865 23.5284C5.4088 19.8763 6.57959 13.2191 11.0895 8.12104Z" fill="#EDECDD"/>
<path d="M28.3329 14.5768C27.4866 16.7897 26.2622 18.8388 24.7144 20.6329C23.4735 22.1403 21.987 23.4275 20.3177 24.4406C18.3789 25.6685 16.1256 26.3083 13.8305 26.2826C12.4906 26.2946 11.1518 26.2012 9.82648 26.0033C10.5623 26.8818 11.4745 27.5961 12.5041 28.0998C18.9842 31.2322 19.3909 25.4164 26.246 22.4643C30.0944 20.8062 30.1085 17.5677 28.3293 14.5768" fill="#F0F0DE"/>
<path d="M20.3178 8.53116C21.2559 8.69528 22.1598 9.01556 22.9919 9.47865C25.1717 10.7037 27.0083 12.4567 28.333 14.5767C29.5003 11.2888 28.9555 8.70793 26.4052 8.24125C23.5967 7.72862 21.4037 7.56245 19.2956 6.09171C16.6993 4.28864 14.4214 4.87553 12.4476 6.71041L12.8756 6.72809C15.6134 6.89072 18.2309 7.43518 20.3037 8.52409" fill="#F0F0DE"/>
<path d="M11.0896 8.12103C6.57978 13.2191 5.40898 19.8763 8.31298 23.5284C7.6412 21.9431 7.34803 20.2232 7.4567 18.5049C7.56537 16.7867 8.07289 15.1174 8.93906 13.6292C11.3832 9.55641 16.2893 7.7887 20.3181 8.53114C18.2312 7.42808 15.6137 6.89777 12.8901 6.73514L12.4621 6.71393C12.0235 7.11697 11.5778 7.5695 11.0896 8.12103Z" fill="#E0DDCE"/>
<path d="M22.9919 9.47155C22.1594 9.01092 21.2555 8.69304 20.3178 8.53113C23.0626 9.97358 24.8843 12.4201 24.8843 16.2879C24.8684 17.9206 24.4418 19.523 23.6438 20.9477C22.8458 22.3724 21.702 23.5735 20.3178 24.4406C21.988 23.4286 23.4746 22.1412 24.7145 20.6329C26.2624 18.8388 27.4867 16.7896 28.333 14.5767C27.0093 12.4541 25.1725 10.6985 22.9919 9.47155" fill="#EAE8DA"/>
<path d="M20.318 8.53118C16.2892 7.78874 11.3832 9.55645 8.93899 13.6116C8.0692 15.1017 7.55965 16.7742 7.45095 18.4959C7.34226 20.2176 7.63742 21.9409 8.31291 23.5285C8.68984 24.425 9.20024 25.2593 9.82682 26.0033C11.1521 26.2012 12.4909 26.2946 13.8309 26.2826C16.1259 26.3083 18.3793 25.6685 20.318 24.4406C21.7025 23.5738 22.8464 22.3727 23.6444 20.948C24.4425 19.5232 24.8689 17.9207 24.8845 16.2879C24.8845 12.4201 23.0629 9.97363 20.318 8.53118ZM19.8653 22.6022C18.3752 23.5588 16.5668 23.8868 14.8355 23.5145C13.1042 23.1421 11.5908 22.0998 10.6262 20.6153C8.62418 17.5288 9.61459 13.5444 12.6176 11.4232C15.9779 9.03674 20.2862 9.97717 21.8567 13.4101C23.3883 16.7546 22.9674 20.6188 19.8653 22.6022" fill="#D8D4C8"/>
</svg>
