<svg width="32" height="32" viewBox="0 0 32 32" fill="none" xmlns="http://www.w3.org/2000/svg">
<circle cx="16" cy="16" r="16" fill="white"/>
<path d="M13.6822 8.91335C13.406 8.87313 13.3928 8.85972 13.5243 8.84631C13.7742 8.80608 14.353 8.85972 14.7607 8.95358C15.7078 9.18153 16.5627 9.77153 17.4703 10.804L17.707 11.0856L18.049 11.032C19.509 10.7906 21.0085 10.9783 22.258 11.5683C22.6 11.7292 23.1393 12.0511 23.205 12.1315C23.2313 12.1583 23.2708 12.3326 23.2971 12.507C23.3892 13.1372 23.3497 13.6065 23.1524 13.9685C23.0472 14.1697 23.0472 14.2233 23.113 14.3976C23.1656 14.5317 23.3234 14.6256 23.4681 14.6256C23.7838 14.6256 24.1126 14.116 24.2704 13.4054L24.3362 13.1238L24.4546 13.2579C25.1254 14.0222 25.6515 15.0815 25.7304 15.8324L25.7567 16.0335L25.6384 15.8592C25.4411 15.5508 25.2569 15.3497 25.007 15.1753C24.5598 14.8669 24.0863 14.7731 22.8368 14.706C21.7056 14.639 21.0611 14.5451 20.4297 14.3306C19.3512 13.9685 18.7987 13.4992 17.5229 11.7695C16.9573 11.0052 16.6022 10.5895 16.247 10.2408C15.471 9.47653 14.695 9.07426 13.6822 8.91335Z" fill="#C7BA9A"/>
<path d="M23.4812 10.6163C23.5075 10.1068 23.5733 9.77153 23.718 9.46312C23.7706 9.34244 23.8232 9.23517 23.8363 9.23517C23.8495 9.23517 23.8232 9.32903 23.7837 9.4363C23.6785 9.7313 23.6654 10.147 23.7311 10.6163C23.8232 11.2197 23.8627 11.3002 24.494 11.9572C24.7834 12.2656 25.1254 12.6545 25.2569 12.8154L25.4805 13.1104L25.2569 12.8958C24.9807 12.6276 24.3493 12.1181 24.2046 12.0511C24.1126 11.9974 24.0994 11.9974 24.0336 12.0645C23.981 12.1181 23.9679 12.1986 23.9679 12.5874C23.9547 13.1908 23.8758 13.5663 23.6785 13.9551C23.5733 14.1563 23.5601 14.116 23.6522 13.8881C23.718 13.7138 23.7311 13.6333 23.7311 13.0567C23.7311 11.8901 23.5996 11.6086 22.7972 11.1392C22.6 11.0186 22.258 10.8442 22.0607 10.7504C21.8502 10.6565 21.6924 10.5761 21.7055 10.5761C21.7318 10.5492 22.5079 10.7772 22.8104 10.9113C23.2708 11.099 23.3497 11.1124 23.4023 11.099C23.4418 11.0588 23.4681 10.9515 23.4812 10.6163Z" fill="#C7BA9A"/>
<path d="M14.2214 12.6143C13.669 11.8365 13.3139 10.6297 13.3928 9.73133L13.4191 9.44974L13.5506 9.47656C13.7874 9.51678 14.1951 9.67769 14.3924 9.79837C14.9185 10.1202 15.1553 10.5627 15.3789 11.6622C15.4447 11.984 15.5367 12.3595 15.5762 12.4802C15.642 12.6813 15.8919 13.1506 16.1023 13.4456C16.247 13.6602 16.1549 13.7674 15.8261 13.7406C15.3263 13.687 14.6555 13.2177 14.2214 12.6143Z" fill="#C7BA9A"/>
<path d="M22.8103 18.4472C20.206 17.3744 19.2853 16.4492 19.2853 14.8804C19.2853 14.6524 19.2984 14.4647 19.2984 14.4647C19.3116 14.4647 19.4037 14.5451 19.522 14.639C20.0482 15.0681 20.6401 15.2558 22.2842 15.4972C23.2444 15.6447 23.7968 15.752 24.2966 15.9263C25.8882 16.4626 26.8746 17.5622 27.1114 19.0506C27.1772 19.4796 27.1377 20.2976 27.0325 20.7267C26.9404 21.0619 26.6773 21.6787 26.6116 21.6921C26.5984 21.6921 26.5721 21.6251 26.5721 21.5178C26.5458 20.9546 26.2696 20.4183 25.8092 20.0026C25.2568 19.5199 24.5465 19.1578 22.8103 18.4472Z" fill="#C7BA9A"/>
<path d="M20.969 18.8896C20.9427 18.6885 20.877 18.4337 20.8375 18.3265L20.7717 18.1253L20.8901 18.2728C21.0611 18.474 21.1926 18.7153 21.311 19.0506C21.4031 19.3053 21.4031 19.3858 21.4031 19.8015C21.4031 20.2037 21.3899 20.2976 21.311 20.5255C21.1795 20.8876 21.0216 21.1424 20.7586 21.4239C20.2851 21.9201 19.6669 22.1883 18.7856 22.3089C18.6278 22.3223 18.1806 22.3626 17.786 22.3894C16.7995 22.443 16.1418 22.5503 15.5499 22.7648C15.471 22.7917 15.3921 22.8185 15.379 22.8051C15.3527 22.7782 15.7604 22.5369 16.0892 22.376C16.5496 22.148 17.0231 22.0273 18.0622 21.8396C18.5752 21.7592 19.1013 21.6519 19.2328 21.5983C20.535 21.1826 21.1795 20.1501 20.969 18.8896Z" fill="#C7BA9A"/>
<path d="M22.1658 21.0485C21.8238 20.2842 21.7449 19.5601 21.9291 18.8762C21.9554 18.8092 21.9817 18.7421 22.008 18.7421C22.0343 18.7421 22.1132 18.7824 22.1921 18.836C22.35 18.9433 22.6788 19.131 23.5206 19.6003C24.586 20.1903 25.191 20.6462 25.6119 21.1692C25.9802 21.6251 26.2038 22.148 26.3091 22.7916C26.3748 23.1537 26.3354 24.0253 26.2433 24.3873C25.9539 25.5271 25.2963 26.4389 24.3361 26.9618C24.1914 27.0423 24.073 27.0959 24.0599 27.0959C24.0467 27.0959 24.0993 26.9618 24.1783 26.8009C24.4939 26.1171 24.5334 25.46 24.2966 24.7225C24.152 24.2666 23.8494 23.7169 23.2444 22.7916C22.521 21.7189 22.35 21.4373 22.1658 21.0485Z" fill="#C7BA9A"/>
<path d="M12.3669 25.1516C13.3402 24.3203 14.5371 23.7303 15.642 23.5425C16.1155 23.4621 16.9047 23.4889 17.3387 23.6096C18.0359 23.7973 18.6672 24.1996 18.996 24.6957C19.3117 25.1784 19.4564 25.5941 19.6011 26.5193C19.6537 26.8814 19.7195 27.2568 19.7326 27.3373C19.8378 27.82 20.0483 28.1955 20.3113 28.3966C20.7191 28.705 21.4294 28.7184 22.1265 28.4502C22.2449 28.41 22.3501 28.3698 22.3501 28.3832C22.3764 28.41 22.0213 28.6514 21.7845 28.772C21.4557 28.9464 21.1926 29 20.8375 29C20.2061 29 19.6668 28.6648 19.2328 27.9943C19.1407 27.8602 18.9566 27.4714 18.7987 27.1093C18.3384 26.0232 18.1016 25.7014 17.5623 25.3393C17.0888 25.0309 16.4838 24.9639 16.0234 25.1918C15.4184 25.4868 15.2605 26.278 15.6814 26.7607C15.8524 26.9618 16.1681 27.1227 16.4312 27.163C16.9178 27.23 17.3387 26.8412 17.3387 26.345C17.3387 26.0232 17.2204 25.8355 16.9047 25.688C16.4838 25.5003 16.0234 25.7148 16.0366 26.1305C16.0366 26.3048 16.1155 26.4121 16.2865 26.4925C16.3917 26.5462 16.3917 26.5462 16.3128 26.5327C15.9314 26.4523 15.8393 25.9696 16.1418 25.6612C16.5101 25.2857 17.2861 25.4466 17.5492 25.9696C17.6544 26.1841 17.6676 26.6132 17.5755 26.8814C17.3519 27.4714 16.7205 27.7798 16.076 27.6055C15.642 27.4848 15.4578 27.3641 14.9317 26.8143C14.011 25.8489 13.6559 25.6612 12.3405 25.46L12.0906 25.4198L12.3669 25.1516Z" fill="#C7BA9A"/>
<path fill-rule="evenodd" clip-rule="evenodd" d="M5.44779 3.57659C8.51247 7.37133 13.2344 13.2713 13.4712 13.5931C13.6685 13.8613 13.5896 14.116 13.2608 14.3038C13.0766 14.411 12.6952 14.5183 12.511 14.5183C12.3006 14.5183 12.0507 14.411 11.8797 14.2367C11.7613 14.116 11.2483 13.3517 10.0908 11.5147C9.20959 10.1068 8.45986 8.94018 8.44671 8.92677C8.39409 8.89995 8.39409 8.89995 9.99878 11.8231C11.0116 13.6601 11.3404 14.3172 11.3404 14.3976C11.3404 14.5719 11.2878 14.6658 11.0773 14.9072C10.7222 15.3094 10.5644 15.7653 10.446 16.7174C10.3145 17.7767 9.95932 18.5276 8.94653 19.8014C8.35463 20.5523 8.26256 20.6864 8.11788 20.9948C7.93373 21.3703 7.88112 21.5848 7.85482 22.0676C7.82851 22.5771 7.88112 22.8989 8.02581 23.3816C8.15734 23.8107 8.30202 24.0923 8.65716 24.6421C8.95968 25.1248 9.14382 25.4868 9.14382 25.6209C9.14382 25.7282 9.17013 25.7282 9.64364 25.6209C10.7748 25.3528 11.7087 24.8969 12.2217 24.3337C12.5373 23.985 12.6163 23.7973 12.6163 23.3146C12.6163 23.0062 12.6031 22.9391 12.5242 22.7514C12.3926 22.4564 12.1427 22.2151 11.6035 21.8396C10.8932 21.3435 10.5907 20.9412 10.5117 20.4048C10.446 19.9489 10.5249 19.6405 10.9195 18.7958C11.3272 17.9242 11.4325 17.5621 11.4982 16.6772C11.5377 16.114 11.6035 15.886 11.7613 15.7117C11.9323 15.524 12.077 15.4569 12.4847 15.4033C13.1555 15.3094 13.5896 15.1351 13.9316 14.7999C14.2341 14.5183 14.3656 14.2367 14.3788 13.821L14.3919 13.5126L14.2209 13.3249C13.6027 12.6008 5.04004 3 5.00059 3C4.98743 3 5.19788 3.25477 5.44779 3.57659ZM9.4858 22.6441C9.63049 22.3894 9.55157 22.0676 9.31481 21.9067C9.09121 21.7592 8.74923 21.8262 8.74923 22.0273C8.74923 22.081 8.77553 22.1346 8.85445 22.1614C8.97283 22.2285 8.98599 22.2955 8.89391 22.443C8.80184 22.5905 8.80184 22.7246 8.92022 22.8185C9.10436 22.966 9.35427 22.8855 9.4858 22.6441Z" fill="#C7BA9A"/>
<path fill-rule="evenodd" clip-rule="evenodd" d="M14.8133 15.591C14.4976 15.6849 14.1951 16.0335 14.103 16.3821C14.0504 16.5967 14.0767 16.9855 14.1688 17.1062C14.3135 17.2939 14.445 17.3476 14.8133 17.3476C15.5367 17.3476 16.1549 17.0258 16.2207 16.6369C16.2865 16.3151 16.0103 15.8726 15.6288 15.6715C15.4315 15.5642 15.0238 15.524 14.8133 15.591ZM15.6551 16.2615C15.7603 16.1005 15.7209 15.9262 15.5236 15.8055C15.1685 15.5776 14.6292 15.7653 14.6292 16.114C14.6292 16.2883 14.9054 16.476 15.1685 16.476C15.3394 16.476 15.5762 16.3687 15.6551 16.2615Z" fill="#C7BA9A"/>
</svg>
