<svg width="32" height="32" viewBox="0 0 32 32" fill="none" xmlns="http://www.w3.org/2000/svg">
<circle cx="16" cy="16" r="16" fill="white"/>
<path fill-rule="evenodd" clip-rule="evenodd" d="M8.6209 7.09823L4.01892 15.9037C4.00141 15.9365 3.99586 15.9735 4.00308 16.0093C4.01031 16.0451 4.02993 16.0779 4.05907 16.1029L16.4879 26.9519C16.5232 26.9828 16.5702 27 16.6192 27C16.6681 27 16.7151 26.9828 16.7504 26.9519L29.1793 16.1036C29.2084 16.0786 29.228 16.0458 29.2352 16.01C29.2425 15.9742 29.2369 15.9372 29.2194 15.9044L24.6174 7.09891C24.6026 7.06933 24.5787 7.04428 24.5486 7.02674C24.5186 7.00921 24.4836 6.99993 24.4479 7.00001H8.79193C8.75605 6.99961 8.72082 7.00866 8.69048 7.02609C8.66013 7.04352 8.63597 7.06857 8.6209 7.09823V7.09823V7.09823Z" fill="#C7BA9A"/>
<path fill-rule="evenodd" clip-rule="evenodd" d="M18.2155 16.808C18.1262 16.8141 17.6652 16.8392 16.6368 16.8392C15.8189 16.8392 15.2382 16.8168 15.0344 16.808C11.8735 16.6814 9.51415 16.1801 9.51415 15.58C9.51415 14.9799 11.8735 14.4793 15.0344 14.3506V16.3088C15.2412 16.3224 15.833 16.3542 16.651 16.3542C17.6325 16.3542 18.124 16.3169 18.2125 16.3095V14.352C21.3667 14.48 23.7209 14.9812 23.7209 15.58C23.7209 16.1788 21.3675 16.68 18.2125 16.8073L18.2155 16.808ZM18.2155 14.1494V12.3971H22.6174V9.72501H10.6325V12.3971H15.0337V14.1488C11.4564 14.2985 8.76611 14.944 8.76611 15.7175C8.76611 16.491 11.4564 17.1359 15.0337 17.2862V22.9014H18.2147V17.2842C21.7839 17.1345 24.4697 16.4897 24.4697 15.7168C24.4697 14.944 21.7861 14.2991 18.2147 14.1488L18.2155 14.1494Z" fill="white"/>
</svg>
