<svg width="32" height="32" viewBox="0 0 32 32" fill="none" xmlns="http://www.w3.org/2000/svg">
<circle cx="16" cy="16" r="16" fill="white"/>
<path d="M23.7538 8.59448L20.9843 10.032L7.61114 16.9716C7.56592 16.6202 7.54317 16.2662 7.54303 15.9118C7.54486 14.4978 7.90925 13.1088 8.60012 11.8824C9.29099 10.6561 10.2844 9.63483 11.4818 8.91991C12.6793 8.205 14.0393 7.82121 15.4272 7.80655C16.815 7.7919 18.1826 8.14689 19.3943 8.83637L20.9795 8.01353L21.2159 7.8906C19.7638 6.81682 18.0486 6.17299 16.2598 6.03027C14.471 5.88754 12.6782 6.25148 11.0797 7.08185C9.48126 7.91222 8.13924 9.17669 7.20203 10.7355C6.26482 12.2943 5.7689 14.0868 5.76908 15.9148C5.76908 16.1673 5.77849 16.4188 5.7973 16.6693C5.82365 17.024 5.74643 17.3787 5.57536 17.6888C5.40429 17.999 5.147 18.2506 4.83589 18.4121L4 18.8463V20.8717L6.46095 19.5938L7.25791 19.1794L8.0432 18.772L22.1414 11.4536L23.7255 10.6318L27 8.93154V6.90715L23.7538 8.59448Z" fill="#C7BA9A"/>
<path d="M27 10.9588L8.84405 20.3769L7.25986 21.2008L4 22.8931V24.9165L7.23748 23.2361L10.0069 21.7986L23.3937 14.849C23.439 15.2027 23.4617 15.559 23.4618 15.9157C23.461 17.3314 23.0967 18.7222 22.4052 19.9501C21.7136 21.1779 20.7189 22.2002 19.5197 22.9153C18.3205 23.6305 16.9585 24.0136 15.5691 24.0268C14.1796 24.0399 12.8109 23.6826 11.5989 22.9902L11.5016 23.0428L9.78309 23.935C11.2349 25.0088 12.9498 25.6528 14.7383 25.7959C16.5268 25.939 18.3194 25.5755 19.9179 24.7457C21.5164 23.9159 22.8586 22.652 23.7962 21.0938C24.7338 19.5355 25.2303 17.7435 25.2309 15.9157C25.2309 15.6609 25.2212 15.4062 25.2027 15.1543C25.1764 14.7998 25.2535 14.4451 25.4244 14.1351C25.5953 13.825 25.8523 13.5733 26.1631 13.4115L27 12.9773V10.9588Z" fill="#C7BA9A"/>
</svg>
