<svg width="150" height="150" viewBox="0 0 150 150" fill="none" xmlns="http://www.w3.org/2000/svg">
<circle opacity="0.15" cx="75" cy="75" r="75" fill="#C7BA9A"/>
<path d="M57.688 93.512C68.12 93.512 75.096 87.56 75.096 78.6C75.096 70.344 69.464 65.288 61.272 65.416L72.152 56.264V48.2H41.88V56.84H60.248L48.92 66.632L52.76 73.288C54.296 72.264 56.408 71.752 57.88 71.752C62.168 71.752 64.984 74.312 64.984 78.28C64.984 82.184 62.04 84.808 57.752 84.808C53.528 84.808 50.392 82.376 49.752 78.664L40.6 80.2C41.432 88.2 48.28 93.512 57.688 93.512ZM86.4035 93.512C89.5395 93.512 91.9715 91.144 91.9715 88.072C91.9715 84.936 89.5395 82.568 86.4035 82.568C83.2675 82.568 80.8355 84.936 80.8355 88.072C80.8355 91.144 83.2675 93.512 86.4035 93.512Z" fill="#C7BA9A" fill-opacity="0.5"/>
</svg>
