<svg width="150" height="150" viewBox="0 0 150 150" fill="none" xmlns="http://www.w3.org/2000/svg">
<circle opacity="0.15" cx="75" cy="75" r="75" fill="#C7BA9A"/>
<path d="M57.752 93.512C67.8 93.512 74.328 87.304 74.328 77.896C74.328 69.192 68.312 63.24 59.672 63.24C56.664 63.24 53.592 64.392 51.608 66.184L53.144 56.84H70.936V48.2H45.784L41.944 73.544L49.304 75.08C51.288 72.328 53.72 71.048 56.92 71.048C61.4 71.048 64.216 73.736 64.216 77.896C64.216 82.056 61.528 84.808 57.368 84.808C53.592 84.808 50.904 82.696 50.072 79.368L40.984 81.032C42.264 88.584 48.856 93.512 57.752 93.512ZM85.6535 93.512C88.7895 93.512 91.2215 91.144 91.2215 88.072C91.2215 84.936 88.7895 82.568 85.6535 82.568C82.5175 82.568 80.0855 84.936 80.0855 88.072C80.0855 91.144 82.5175 93.512 85.6535 93.512Z" fill="#C7BA9A" fill-opacity="0.5"/>
</svg>
