<svg width="209" height="251" viewBox="0 0 209 251" fill="none" xmlns="http://www.w3.org/2000/svg">
<path opacity="0.3" d="M100.805 15.0251C48.5973 9.59183 0.370399 31.5856 -33.4979 75.3259C-47.7115 93.6801 -84.4373 142.909 -52.9239 210.75C-37.6657 243.643 7.55384 253.699 35.0112 229.488C40.5114 224.639 34.4021 215.395 27.8907 215.807C6.17706 217.173 -8.21842 193.93 -11.8169 176.481C-16.2444 154.881 -8.40812 129.868 4.65443 112.005C17.4163 94.5632 57.102 55.6519 103.293 80.7035C123.152 91.4789 134.741 129.685 120.031 149.131C113.073 158.348 99.3253 164.535 88.762 157.304C82.3595 152.913 79.5783 143.905 84.0333 138.223C103.5 113.386 82.9573 96.7242 67.8093 98.076C53.6493 99.3168 38.5937 109.924 31.7425 121.675C25.8913 131.694 22.923 143.127 23.1641 154.717C23.4053 166.306 26.8466 177.603 33.1094 187.363C41.5964 200.235 53.9759 210.071 68.4512 215.444C82.9265 220.816 98.7441 221.446 113.608 217.24C128.583 213.09 142.291 205.292 153.501 194.549C165.842 182.937 175.706 168.958 182.499 153.451C190.313 135.279 196.317 112.064 192.036 92.5881C181.285 43.7136 142.164 19.3652 100.805 15.0251Z" fill="#C7BA9A"/>
</svg>
