<svg width="473" height="134" viewBox="0 0 473 134" fill="none" xmlns="http://www.w3.org/2000/svg">
<path fill-rule="evenodd" clip-rule="evenodd" d="M449.427 108.168L445.937 111.755L444.953 110.743C444.656 110.437 444.174 110.437 443.877 110.743L440.072 114.654C439.775 114.959 439.775 115.455 440.072 115.76C440.369 116.065 440.851 116.065 441.148 115.76L444.415 112.402L445.399 113.413C445.696 113.719 446.178 113.719 446.475 113.413L450.503 109.274V110.514C450.503 110.946 450.844 111.296 451.264 111.296C451.684 111.296 452.025 110.946 452.025 110.514V107.386C452.025 106.954 451.684 106.603 451.264 106.603H448.22C447.8 106.603 447.459 106.954 447.459 107.386C447.459 107.817 447.8 108.168 448.22 108.168H449.427Z" fill="#C7BA9A"/>
<path fill-rule="evenodd" clip-rule="evenodd" d="M454.53 121.233L455.515 122.246L455.339 122.428C454.982 122.794 454.781 123.292 454.781 123.81C454.781 124.329 454.982 124.826 455.339 125.193C456.862 126.76 461.099 131.114 463.055 133.123C463.601 133.685 464.342 134 465.115 134C465.887 134 466.628 133.685 467.175 133.123C467.721 132.562 468.028 131.8 468.028 131.006C468.028 130.211 467.721 129.45 467.175 128.889C465.22 126.879 460.983 122.525 459.459 120.959C459.102 120.592 458.618 120.385 458.113 120.385C457.609 120.385 457.125 120.592 456.768 120.959L456.591 121.14L455.606 120.127C457.639 117.779 458.875 114.684 458.875 111.296C458.875 103.958 453.078 98 445.937 98C438.797 98 433 103.958 433 111.296C433 114.367 434.015 117.196 435.719 119.448C435.977 119.789 436.456 119.85 436.787 119.586C437.119 119.321 437.179 118.829 436.921 118.488C435.417 116.501 434.522 114.006 434.522 111.296C434.522 104.821 439.637 99.5643 445.937 99.5643C452.238 99.5643 457.352 104.821 457.352 111.296C457.352 117.772 452.238 123.028 445.937 123.028C443.301 123.028 440.873 122.108 438.94 120.563C438.608 120.298 438.129 120.36 437.871 120.701C437.614 121.041 437.673 121.533 438.005 121.798C440.197 123.549 442.95 124.593 445.937 124.593C449.234 124.593 452.245 123.322 454.53 121.233ZM466.098 132.017C465.837 132.286 465.483 132.436 465.115 132.436C464.746 132.436 464.392 132.286 464.131 132.017C462.176 130.007 457.939 125.653 456.415 124.087C456.343 124.014 456.303 123.914 456.303 123.81C456.303 123.706 456.343 123.607 456.415 123.534C456.856 123.08 457.403 122.518 457.844 122.065C457.916 121.991 458.012 121.95 458.113 121.95C458.215 121.95 458.311 121.991 458.383 122.065L466.099 129.995C466.36 130.263 466.506 130.627 466.506 131.006C466.506 131.385 466.36 131.748 466.099 132.017L466.098 132.017Z" fill="#C7BA9A"/>
<rect x="1" y="1" width="471" height="127" rx="9" stroke="#C7BA9A" stroke-width="2"/>
</svg>
