<svg width="72" height="377" viewBox="0 0 72 377" fill="none" xmlns="http://www.w3.org/2000/svg">
<circle opacity="0.5" cx="35.5" cy="35.5" r="34.5" stroke="#05004D" stroke-width="2" stroke-dasharray="4 4"/>
<g clip-path="url(#clip0)">
<path d="M56.7855 27.4972L54.3197 26.2403V18.2181C54.3197 16.9981 53.326 16 52.1115 16H32.2378C31.0233 16 30.0296 16.9981 30.0296 18.2181V26.2403L27.5638 27.4972C26.8278 27.8669 26.3493 28.6432 26.3493 29.4935V44.8354C26.3493 46.0553 27.343 47.0535 28.5575 47.0535H55.7918C57.0063 47.0535 58 46.0553 58 44.8354V29.4935C58 28.6432 57.5584 27.8669 56.7855 27.4972ZM31.5018 18.2181C31.5018 17.8115 31.833 17.4787 32.2378 17.4787H52.1115C52.5163 17.4787 52.8476 17.8115 52.8476 18.2181V32.3031L42.1747 41.2864L31.5018 32.3031V18.2181ZM56.5279 44.8354C56.5279 45.242 56.1967 45.5748 55.7918 45.5748H28.5575C28.1527 45.5748 27.8215 45.242 27.8215 44.8354V29.4935C27.8215 29.1977 27.9687 28.9759 28.2263 28.828L30.0296 27.9038V32.6358C30.0296 32.8576 30.1401 33.0425 30.2873 33.1903L41.6962 42.8021C41.8434 42.913 41.9907 42.987 42.1747 42.987C42.3587 42.987 42.5059 42.913 42.6531 42.8021L54.0621 33.1903C54.2461 33.0425 54.3197 32.8576 54.3197 32.6358V27.8669L56.123 28.7911C56.3807 28.902 56.5279 29.1608 56.5279 29.4565V44.8354ZM42.1747 29.3086C44.8245 29.3086 46.9591 27.1645 46.9591 24.5027C46.9591 23.8373 46.8119 23.2088 46.591 22.6543L47.4743 21.7671C47.7687 21.4713 47.7687 21.0277 47.4743 20.732C47.1799 20.4362 46.7383 20.4362 46.4438 20.732L45.7814 21.3974C44.9349 20.3623 43.61 19.6968 42.1747 19.6968C39.5248 19.6968 37.3903 21.841 37.3903 24.5027C37.3903 27.1645 39.5248 29.3086 42.1747 29.3086ZM42.1747 21.1756C43.2052 21.1756 44.1252 21.6562 44.7509 22.3955L42.6899 24.5027L41.5858 23.3937C41.2914 23.0979 40.8498 23.0979 40.5553 23.3937C40.2609 23.6894 40.2609 24.1331 40.5553 24.4288L42.1747 26.0554C42.3219 26.2033 42.5059 26.2772 42.6899 26.2772C42.8739 26.2772 43.0579 26.2033 43.2052 26.0554L45.4133 23.8373C45.4501 24.0591 45.487 24.2809 45.487 24.5027C45.487 26.3512 44.0148 27.8299 42.1747 27.8299C40.3345 27.8299 38.8624 26.3512 38.8624 24.5027C38.8624 22.6543 40.3345 21.1756 42.1747 21.1756ZM48.0632 33.0055H36.2862C35.8813 33.0055 35.5501 32.6728 35.5501 32.2661C35.5501 31.8595 35.8813 31.5267 36.2862 31.5267H48.0632C48.468 31.5267 48.7992 31.8595 48.7992 32.2661C48.7992 32.6728 48.468 33.0055 48.0632 33.0055ZM44.3829 36.7023H39.9665C39.5617 36.7023 39.2304 36.3696 39.2304 35.963C39.2304 35.5563 39.5617 35.2236 39.9665 35.2236H44.3829C44.7877 35.2236 45.1189 35.5563 45.1189 35.963C45.1189 36.3696 44.7877 36.7023 44.3829 36.7023Z" fill="#05004D"/>
</g>
<path fill-rule="evenodd" clip-rule="evenodd" d="M25.1102 29.5845C23.7037 29.5845 22.5485 30.7526 22.5485 32.1748C22.5485 32.6141 22.6685 33.0232 22.8625 33.3872C19.7226 34.3675 17.4235 37.3402 17.4235 40.8238V45.3932L15.9773 48.3027C15.138 49.9965 16.404 52.0547 18.2751 52.0547H31.952C33.8231 52.0547 35.0891 49.9965 34.2498 48.3027L32.8037 45.3932V40.8238C32.8037 37.3413 30.5019 34.3705 27.363 33.3889C27.5583 33.0245 27.6803 32.6148 27.6803 32.1748C27.6802 30.7526 26.5167 29.5845 25.1102 29.5845ZM20.0169 30.9928C19.853 30.9884 19.6912 31.0318 19.551 31.1177C16.2448 33.0735 14.0001 36.7022 14.0001 40.8238C13.9985 40.9384 14.0194 41.0521 14.0617 41.1585C14.1039 41.2648 14.1666 41.3615 14.2462 41.4431C14.3257 41.5247 14.4205 41.5895 14.5251 41.6337C14.6296 41.6779 14.7418 41.7007 14.8551 41.7007C14.9684 41.7007 15.0806 41.6779 15.1851 41.6337C15.2897 41.5895 15.3844 41.5247 15.464 41.4431C15.5436 41.3615 15.6063 41.2648 15.6485 41.1585C15.6908 41.0521 15.7117 40.9384 15.7101 40.8238C15.7101 37.3378 17.6136 34.2682 20.416 32.6105C20.5791 32.5175 20.7076 32.373 20.7816 32.1991C20.8557 32.0252 20.8712 31.8316 20.8259 31.6479C20.7806 31.4642 20.6769 31.3006 20.5307 31.1823C20.3846 31.0639 20.2041 30.9973 20.0169 30.9928ZM30.1852 30.9961C30.0006 31.0064 29.8242 31.0769 29.6826 31.197C29.5409 31.3171 29.4416 31.4804 29.3994 31.6624C29.3573 31.8445 29.3746 32.0354 29.4489 32.2066C29.5231 32.3778 29.6502 32.5201 29.8111 32.6121C32.6133 34.2699 34.5187 37.3374 34.5187 40.8238C34.5171 40.9384 34.538 41.0521 34.5803 41.1585C34.6225 41.2648 34.6852 41.3615 34.7648 41.4431C34.8443 41.5247 34.9391 41.5895 35.0437 41.6337C35.1482 41.6779 35.2604 41.7007 35.3737 41.7007C35.487 41.7007 35.5992 41.6779 35.7037 41.6337C35.8083 41.5895 35.903 41.5247 35.9826 41.4431C36.0622 41.3615 36.1249 41.2648 36.1671 41.1585C36.2094 41.0521 36.2303 40.9384 36.2287 40.8238C36.2287 36.7012 33.9813 33.0747 30.6761 31.1194C30.5285 31.0292 30.3574 30.9862 30.1852 30.9961ZM25.1102 31.3068C25.5926 31.3068 25.9686 31.6871 25.9686 32.1748C25.9686 32.6625 25.5926 33.036 25.1102 33.036C24.6279 33.036 24.2585 32.6625 24.2586 32.1748C24.2586 31.6871 24.6279 31.3068 25.1102 31.3068ZM21.7169 53.7856C22.4992 54.8301 23.7258 55.5181 25.1136 55.5181C26.5014 55.5181 27.7279 54.8301 28.5102 53.7856H21.7169Z" fill="#C7BA9A"/>
<circle cx="36.5" cy="137.5" r="34.5" stroke="#05004D" stroke-opacity="0.5" stroke-width="2" stroke-dasharray="4 4"/>
<g clip-path="url(#clip1)">
<path d="M32.1436 140.13C32.1436 148.18 38.1928 148.18 44.0427 148.18C49.8925 148.18 55.9418 148.18 55.9418 140.13C55.9418 134.281 52.5586 127.868 47.6181 125.698L47.8421 125.386L53.7058 128.309C53.7655 128.339 53.8297 128.353 53.8931 128.353C54.0057 128.353 54.1167 128.308 54.1988 128.222C54.3277 128.087 54.3569 127.882 54.2722 127.715L53.4239 126.044L54.8895 125.554C55.0688 125.494 55.1885 125.32 55.184 125.128C55.1789 124.934 55.0509 124.767 54.8691 124.717L49.4143 123.199L51.1358 120.804C51.2947 120.579 51.3377 120.298 51.2572 120.011C51.0211 119.171 49.7753 118.389 48.6884 117.938C48.1045 117.696 47.4956 117.517 46.9289 117.414L46.9588 117.231C46.9626 117.207 46.9647 117.183 46.9647 117.159C46.9647 115.964 45.6813 115.027 44.0427 115.027C42.404 115.027 41.1206 115.964 41.1206 117.159C41.1206 117.183 41.1227 117.207 41.1265 117.231L41.1565 117.414C40.5906 117.517 39.9819 117.696 39.3969 117.938C38.31 118.389 37.0642 119.171 36.8281 120.011C36.7476 120.298 36.7906 120.579 36.9516 120.807L38.6712 123.199L33.2163 124.717C33.0344 124.767 32.9064 124.934 32.9014 125.128C32.8968 125.32 33.0165 125.494 33.1958 125.554L34.6614 126.044L33.8131 127.715C33.7284 127.882 33.7576 128.087 33.8865 128.222C33.9687 128.308 34.0796 128.353 34.1922 128.353C34.2556 128.353 34.3198 128.339 34.3795 128.309L40.2433 125.386L40.4673 125.698C35.5268 127.868 32.1436 134.281 32.1436 140.13ZM53.2671 125.177L52.6803 125.373C52.561 125.413 52.465 125.504 52.4175 125.623C52.37 125.742 52.3762 125.876 52.4338 125.989L52.9188 126.945L48.3566 124.671L48.8719 123.954L53.2671 125.177ZM46.7883 118.276C47.2932 118.368 47.8393 118.529 48.3673 118.748C49.8938 119.381 50.4706 120.111 50.4456 120.289L46.7852 125.382C46.4227 125.262 46.0531 125.165 45.6765 125.093L46.7883 118.276ZM44.0427 115.901C45.1458 115.901 46.0809 116.459 46.1097 117.127L44.8303 124.972C44.5702 124.948 44.3082 124.931 44.0427 124.931C43.7779 124.931 43.5168 124.948 43.2574 124.971L41.9756 117.127C42.0044 116.459 42.9395 115.901 44.0427 115.901ZM35.1665 126.945L35.6516 125.989C35.7091 125.876 35.7154 125.742 35.6678 125.623C35.6203 125.504 35.5244 125.413 35.4051 125.373L34.8182 125.177L39.2136 123.954L39.7288 124.671L35.1665 126.945ZM39.7205 123.185C39.72 123.185 39.7196 123.184 39.7191 123.183L37.6423 120.295C37.6147 120.111 38.1915 119.381 39.718 118.748C40.2466 118.529 40.7929 118.367 41.2973 118.276L42.4111 125.092C42.0338 125.165 41.6634 125.262 41.3001 125.382L39.7205 123.185ZM41.2363 126.318C41.2594 126.312 41.2814 126.305 41.3037 126.295C42.1735 125.98 43.0895 125.805 44.0427 125.805C44.9988 125.805 45.9175 125.981 46.7897 126.298C46.8072 126.305 46.8243 126.311 46.8422 126.315C51.7087 128.12 55.0876 134.411 55.0876 140.13C55.0876 146.824 50.9148 147.307 44.0427 147.307C37.1705 147.307 32.9977 146.824 32.9977 140.13C32.9977 134.414 36.3734 128.126 41.2363 126.318Z" fill="#05004D"/>
<path d="M43.3262 138.508V138.008H42.8262H41.5982C40.8491 138.008 40.2367 137.396 40.2367 136.642V134.714C40.2367 133.96 40.8491 133.347 41.5982 133.347H42.8262H43.3262V132.847V132.816C43.3262 132.683 43.4335 132.577 43.5633 132.577C43.6932 132.577 43.8004 132.683 43.8004 132.816V132.847V133.347H44.3004H46.2015C46.3314 133.347 46.4387 133.453 46.4387 133.586C46.4387 133.72 46.3314 133.826 46.2015 133.826H44.3004H43.8004V134.326V137.03V137.53H44.3004H45.5285C46.2776 137.53 46.89 138.142 46.89 138.897V140.825C46.89 141.579 46.2776 142.191 45.5285 142.191H44.3004H43.8004V142.691V142.722C43.8004 142.856 43.6932 142.962 43.5633 142.962C43.4335 142.962 43.3262 142.856 43.3262 142.722V142.691V142.191H42.8262H40.6876C40.5577 142.191 40.4505 142.085 40.4505 141.952C40.4505 141.819 40.5577 141.713 40.6876 141.713H42.8262H43.3262V141.213V138.508ZM44.3004 138.008H43.8004V138.508V141.213V141.713H44.3004H45.5285C46.0164 141.713 46.4158 141.31 46.4158 140.825V138.897C46.4158 138.412 46.0164 138.008 45.5285 138.008H44.3004ZM43.3262 134.326V133.826H42.8262H41.5982C41.1103 133.826 40.7109 134.229 40.7109 134.714V136.642C40.7109 137.127 41.1103 137.53 41.5982 137.53H42.8262H43.3262V137.03V134.326Z" stroke="#05004D"/>
</g>
<g clip-path="url(#clip2)">
<path d="M16.112 139.31C16.5267 139.753 17.1087 140.145 17.8417 140.475C19.2956 141.131 21.2202 141.492 23.2609 141.492C25.3017 141.492 27.2263 141.131 28.6801 140.475C29.4131 140.145 29.9951 139.753 30.4099 139.31C30.9019 138.786 31.1513 138.202 31.1513 137.574C31.1513 136.947 30.9019 136.363 30.4099 135.838C29.9951 135.396 29.4131 135.004 28.6801 134.673C27.2262 134.017 25.3017 133.656 23.2609 133.656C21.2202 133.656 19.2956 134.017 17.8417 134.673C17.1087 135.004 16.5267 135.396 16.112 135.838C15.62 136.363 15.3705 136.947 15.3705 137.574C15.3705 138.202 15.62 138.786 16.112 139.31Z" fill="#C7BA9A"/>
<path d="M23.2609 146.391C20.9611 146.391 18.7922 146.03 17.1537 145.375C16.4212 145.081 15.8226 144.74 15.3705 144.358V146.119C15.5699 146.667 16.3343 147.253 17.4644 147.705C19.0055 148.322 21.0641 148.662 23.2609 148.662C25.4577 148.662 27.5163 148.322 29.0574 147.705C30.1875 147.253 30.9519 146.667 31.1513 146.119V144.358C30.6992 144.74 30.1007 145.081 29.3682 145.375C27.7297 146.03 25.5608 146.391 23.2609 146.391Z" fill="#C7BA9A"/>
<path d="M23.2609 149.76C20.9611 149.76 18.7922 149.399 17.1537 148.743C16.4212 148.45 15.8226 148.109 15.3705 147.727V149.488C15.5699 150.035 16.3343 150.622 17.4644 151.074C19.0055 151.691 21.0641 152.03 23.2609 152.03C25.4577 152.03 27.5163 151.691 29.0574 151.074C30.1875 150.622 30.9519 150.035 31.1513 149.488V147.727C30.6992 148.109 30.1007 148.45 29.3682 148.743C27.7297 149.399 25.5608 149.76 23.2609 149.76Z" fill="#C7BA9A"/>
<path d="M28.9559 141.513C27.4156 142.208 25.3931 142.59 23.261 142.59C21.1288 142.59 19.1063 142.208 17.566 141.513C16.7389 141.14 16.0701 140.685 15.5782 140.16C15.504 140.081 15.435 140.002 15.3706 139.922V142.751C15.57 143.298 16.3344 143.885 17.4645 144.337C19.0056 144.954 21.0642 145.293 23.261 145.293C25.4578 145.293 27.5163 144.954 29.0575 144.337C30.1875 143.885 30.952 143.298 31.1514 142.751V139.922C31.0869 140.002 31.0179 140.081 30.9438 140.16C30.4519 140.685 29.7831 141.14 28.9559 141.513Z" fill="#C7BA9A"/>
<path d="M23.2609 153.129C20.9611 153.129 18.7922 152.768 17.1537 152.112C16.4212 151.819 15.8226 151.478 15.3705 151.096V152.857C15.5699 153.404 16.3343 153.991 17.4644 154.443C19.0055 155.06 21.0641 155.399 23.2609 155.399C25.4577 155.399 27.5163 155.06 29.0574 154.443C30.1875 153.991 30.9519 153.404 31.1513 152.857V151.096C30.6992 151.478 30.1007 151.819 29.3682 152.112C27.7297 152.768 25.5608 153.129 23.2609 153.129Z" fill="#C7BA9A"/>
<path d="M31.9378 148.529C32.3526 148.971 32.9345 149.363 33.6675 149.694C35.1214 150.35 37.046 150.711 39.0867 150.711C41.1275 150.711 43.052 150.35 44.5059 149.694C45.239 149.363 45.8209 148.971 46.2357 148.529C46.7277 148.004 46.9771 147.42 46.9771 146.793C46.9771 146.165 46.7277 145.581 46.2357 145.057C45.8209 144.614 45.239 144.222 44.5059 143.892C43.052 143.236 41.1275 142.875 39.0867 142.875C37.046 142.875 35.1214 143.236 33.6675 143.892C32.9345 144.222 32.3526 144.614 31.9378 145.057C31.4458 145.581 31.1963 146.165 31.1963 146.793C31.1963 147.42 31.4458 148.004 31.9378 148.529Z" fill="#C7BA9A"/>
<path d="M39.0868 155.61C36.7869 155.61 34.618 155.249 32.9795 154.593C32.247 154.3 31.6484 153.959 31.1964 153.577V155.338C31.3957 155.885 32.1602 156.472 33.2902 156.924C34.8314 157.541 36.8899 157.88 39.0868 157.88C41.2836 157.88 43.3421 157.541 44.8833 156.924C46.0133 156.472 46.7778 155.885 46.9772 155.338V153.577C46.5251 153.959 45.9265 154.3 45.194 154.593C43.5555 155.249 41.3866 155.61 39.0868 155.61Z" fill="#C7BA9A"/>
<path d="M44.7817 150.732C43.2414 151.426 41.2189 151.809 39.0868 151.809C36.9546 151.809 34.9321 151.426 33.3918 150.732C32.5646 150.359 31.8959 149.903 31.404 149.379C31.3298 149.3 31.2608 149.22 31.1964 149.141V151.969C31.3957 152.517 32.1602 153.103 33.2902 153.555C34.8314 154.172 36.89 154.512 39.0868 154.512C41.2835 154.512 43.3421 154.172 44.8833 153.555C46.0133 153.103 46.7778 152.517 46.9772 151.969V149.141C46.9127 149.22 46.8437 149.3 46.7696 149.379C46.2777 149.903 45.6089 150.359 44.7817 150.732Z" fill="#C7BA9A"/>
</g>
<circle cx="36.5" cy="239.5" r="34.5" stroke="#05004D" stroke-opacity="0.5" stroke-width="2" stroke-dasharray="4 4"/>
<path d="M32.0293 220C32.0293 220.977 32.0293 221.953 32.0293 222.93C31.0528 222.93 30.0762 222.93 29.0997 222.93C29.0997 230.153 29.0997 237.567 29.0997 243.762C30.0762 243.762 31.0528 243.762 32.0293 243.762C32.0293 244.739 32.0293 245.716 32.0293 246.692C39.3714 246.692 46.4876 246.692 52.8621 246.692C52.8621 245.716 52.8621 244.739 52.8621 243.762C53.8387 243.762 54.8152 243.762 55.7918 243.762C55.7918 236.42 55.7918 229.304 55.7918 222.93C54.8152 222.93 53.8387 222.93 52.8621 222.93C52.8621 221.953 52.8621 220.977 52.8621 220C45.6387 220 38.2246 220 32.0293 220ZM33.3313 221.302H51.5601V222.93H33.3313V221.302ZM30.4017 224.232C38.7129 224.232 47.3418 224.232 54.4897 224.232V242.46C45.8292 242.46 38.0639 242.46 30.4017 242.46V224.232ZM42.4457 226.185C40.4759 226.185 38.8651 227.806 38.8651 229.776C38.8651 231.745 40.4759 233.356 42.4457 233.356C44.4155 233.356 46.0264 231.745 46.0264 229.776C46.0264 227.806 44.4155 226.185 42.4457 226.185ZM42.4457 227.497C43.7119 227.497 44.7243 228.509 44.7243 229.776C44.7243 231.042 43.7119 232.044 42.4457 232.044C41.1795 232.044 40.1671 231.042 40.1671 229.776C40.1671 228.509 41.1795 227.497 42.4457 227.497ZM42.4457 233.906C40.5524 233.906 38.8315 234.512 37.5427 235.543C36.2538 236.574 35.3658 238.094 35.3658 239.856H36.5051C36.5051 238.742 37.0754 237.659 38.1428 236.805C39.2102 235.951 40.7435 235.391 42.4457 235.391C44.1479 235.391 45.6812 235.951 46.7486 236.805C47.816 237.659 48.3863 238.742 48.3863 239.856H49.5256C49.5256 238.094 48.6376 236.574 47.3488 235.543C46.0599 234.512 44.339 233.906 42.4457 233.906ZM33.3313 243.762H51.5601V245.39H33.3313V243.762Z" fill="#05004D"/>
<path d="M40.5567 249.518C40.5567 246.57 38.893 243.964 36.3514 242.404C36.775 243.47 37.0083 244.615 37.0083 245.809C37.0083 251.399 31.9588 255.944 25.7521 255.944C25.218 255.944 24.69 255.911 24.1682 255.847C25.9086 257.283 28.2415 258.165 30.8077 258.165C32.1491 258.165 33.4291 257.923 34.5925 257.49L38.2484 259.023C38.5185 259.135 38.8132 258.914 38.7733 258.626L38.2822 255.069C39.7034 253.566 40.5567 251.633 40.5567 249.518Z" fill="#C7BA9A"/>
<path d="M35.498 245.812C35.498 241.037 31.1331 237.165 25.749 237.165C20.365 237.165 16 241.037 16 245.812C16 247.924 16.8564 249.86 18.2746 251.36L17.7834 254.917C17.7435 255.205 18.0382 255.426 18.3083 255.314L21.9642 253.781C23.1307 254.214 24.4076 254.457 25.749 254.457C31.1331 254.46 35.498 250.588 35.498 245.812ZM29.6198 245.019C30.3135 245.019 30.8752 245.573 30.8752 246.258C30.8752 246.94 30.3135 247.497 29.6198 247.497C28.9291 247.497 28.3643 246.943 28.3643 246.258C28.3674 245.57 28.9291 245.019 29.6198 245.019ZM21.8783 247.494C21.1845 247.494 20.6228 246.94 20.6228 246.255C20.6228 245.57 21.1845 245.016 21.8783 245.016C22.572 245.016 23.1337 245.57 23.1337 246.255C23.1307 246.94 22.572 247.494 21.8783 247.494ZM24.4966 246.255C24.4966 245.57 25.0584 245.016 25.7521 245.016C26.4427 245.016 27.0076 245.57 27.0076 246.255C27.0076 246.937 26.4458 247.494 25.7521 247.494C25.0553 247.494 24.4966 246.94 24.4966 246.255Z" fill="#C7BA9A"/>
<circle cx="36.5" cy="341.5" r="34.5" stroke="#05004D" stroke-opacity="0.5" stroke-width="2" stroke-dasharray="4 4"/>
<g clip-path="url(#clip3)">
<path d="M53.7544 331.728L55.8639 331.637C56.2308 331.546 56.5976 331.183 56.5976 330.728V328.183H33.8521C33.3935 328.183 33.0266 327.819 33.0266 327.456C33.0266 327.001 33.3935 326.637 33.8521 326.637H38.071L41.0059 325.274H32.568C32.0178 325.274 31.5592 325.728 31.5592 326.274V345.546C31.5592 346.092 32.0178 346.546 32.568 346.546H55.5888C56.1391 346.546 56.5976 346.092 56.5976 345.546V341.092C56.5976 340.546 56.1391 340.092 55.5888 340.092C54.5799 340.092 53.571 340.092 52.4704 340.092C51.0947 340.092 49.9941 339.001 49.9941 337.546V334.183C49.9941 331.91 51.9201 331.728 53.7544 331.728ZM41.6479 326.637H51.7367L49.8107 322.819L41.6479 326.637ZM53.4793 326.637H56.5976V326.274C56.5976 325.728 56.1391 325.274 55.5888 325.274H52.7456L53.4793 326.637ZM52.0118 323.728H55.5888C56.9645 323.728 58.0651 324.91 58.0651 326.274C58.0651 327.728 58.0651 329.274 58.0651 330.728C58.0651 331.092 58.0651 331.365 57.8817 331.728H58.432C59.8077 331.728 61 332.819 61 334.183V337.546C61 338.91 59.8077 340.092 58.432 340.092H57.8817C58.0651 340.364 58.0651 340.728 58.0651 341.092V345.546C58.0651 346.91 56.9645 348.001 55.5888 348.001H32.568C31.1923 348.001 30 346.91 30 345.546V326.274C30 324.91 31.1923 323.728 32.568 323.728H44.216L49.9024 321.092C50.2692 320.91 50.7278 321.092 50.9112 321.456L52.0118 323.728ZM58.432 333.274C56.4142 333.274 54.4882 333.274 52.4704 333.274C51.9201 333.274 51.5533 333.637 51.5533 334.183V337.546C51.5533 338.092 51.9201 338.546 52.4704 338.546C54.4882 338.546 56.4142 338.546 58.432 338.546C58.9822 338.546 59.4408 338.092 59.4408 337.546V334.183C59.4408 333.637 58.9822 333.274 58.432 333.274Z" fill="#05004D"/>
<path d="M54.3047 337.091C54.9632 337.091 55.497 336.562 55.497 335.909C55.497 335.256 54.9632 334.727 54.3047 334.727C53.6462 334.727 53.1124 335.256 53.1124 335.909C53.1124 336.562 53.6462 337.091 54.3047 337.091Z" fill="#05004D"/>
</g>
<rect x="12" y="342" width="39" height="18" rx="5" fill="#C7BA9A"/>
<path d="M20.828 346.432V355H22.592V349.264H22.616L26.18 355H28.064V346.432H26.3V352.18H26.276L22.7 346.432H20.828ZM29.7225 346.432V355H31.6065V351.46H35.1945V349.996H31.6065V348.016H35.7465V346.432H29.7225ZM38.7318 348.016V355H40.6158V348.016H43.1838V346.432H36.1638V348.016H38.7318Z" fill="#8C794B"/>
<path d="M36 75V98" stroke="#C7BA9A" stroke-width="2" stroke-dasharray="2 2"/>
<path d="M36 177V200" stroke="#C7BA9A" stroke-width="2" stroke-dasharray="2 2"/>
<path d="M36 279V302" stroke="#C7BA9A" stroke-width="2" stroke-dasharray="2 2"/>
<defs>
<clipPath id="clip0">
<rect width="31.6507" height="31.0535" fill="white" transform="translate(26.3493 16)"/>
</clipPath>
<clipPath id="clip1">
<rect width="23.9167" height="33.2052" fill="white" transform="translate(32.0833 115)"/>
</clipPath>
<clipPath id="clip2">
<rect width="33.0278" height="25.1901" fill="white" transform="translate(15 133.32)"/>
</clipPath>
<clipPath id="clip3">
<rect width="31" height="27" fill="white" transform="translate(30 321)"/>
</clipPath>
</defs>
</svg>
