<svg width="68" height="358" viewBox="0 0 68 358" fill="none" xmlns="http://www.w3.org/2000/svg">
<rect x="1" y="1" width="66" height="356" rx="29" stroke="#C7BA9A" stroke-width="2"/>
<path d="M28.9089 56H34.1649V30.8H29.8809C27.9729 32.42 25.4889 33.824 23.2209 34.364V39.44C25.3809 39.008 27.2169 38.108 28.9089 36.848V56ZM41.6 56.288C43.364 56.288 44.732 54.956 44.732 53.228C44.732 51.464 43.364 50.132 41.6 50.132C39.836 50.132 38.468 51.464 38.468 53.228C38.468 54.956 39.836 56.288 41.6 56.288Z" fill="#C7BA9A"/>
<path d="M19.8635 148H38.0075V143.104H27.8195L31.8515 139.972C36.1355 136.696 38.0435 133.888 38.0435 130.684C38.0435 125.86 34.3715 122.512 28.8635 122.512C23.4995 122.512 19.2875 126.76 19.8275 132.16L25.2275 132.52C24.9755 129.424 26.4155 127.372 28.8635 127.372C30.9515 127.372 32.3555 128.704 32.3555 130.684C32.3555 132.376 31.2035 134.068 28.5755 136.228L19.8635 143.464V148ZM44.9574 148.288C46.7214 148.288 48.0894 146.956 48.0894 145.228C48.0894 143.464 46.7214 142.132 44.9574 142.132C43.1934 142.132 41.8254 143.464 41.8254 145.228C41.8254 146.956 43.1934 148.288 44.9574 148.288Z" fill="#C7BA9A"/>
<path d="M29.0862 240.288C34.9542 240.288 38.8782 236.94 38.8782 231.9C38.8782 227.256 35.7102 224.412 31.1022 224.484L37.2222 219.336V214.8H20.1942V219.66H30.5262L24.1542 225.168L26.3142 228.912C27.1782 228.336 28.3662 228.048 29.1942 228.048C31.6062 228.048 33.1902 229.488 33.1902 231.72C33.1902 233.916 31.5342 235.392 29.1222 235.392C26.7462 235.392 24.9822 234.024 24.6222 231.936L19.4742 232.8C19.9422 237.3 23.7942 240.288 29.0862 240.288ZM45.2387 240.288C47.0027 240.288 48.3707 238.956 48.3707 237.228C48.3707 235.464 47.0027 234.132 45.2387 234.132C43.4747 234.132 42.1067 235.464 42.1067 237.228C42.1067 238.956 43.4747 240.288 45.2387 240.288Z" fill="#C7BA9A"/>
<path d="M31.4188 333H37.1068V328.176H40.1308V323.316H37.1068V307.8H31.0588L18.9988 323.316V328.176H31.4188V333ZM24.8308 323.316L31.4188 314.676V323.316H24.8308ZM45.6781 333.288C47.4421 333.288 48.8101 331.956 48.8101 330.228C48.8101 328.464 47.4421 327.132 45.6781 327.132C43.9141 327.132 42.5461 328.464 42.5461 330.228C42.5461 331.956 43.9141 333.288 45.6781 333.288Z" fill="#C7BA9A"/>
</svg>
