<svg width="73" height="480" viewBox="0 0 73 480" fill="none" xmlns="http://www.w3.org/2000/svg">
<circle cx="37.5" cy="444.5" r="34.5" stroke="#05004D" stroke-opacity="0.5" stroke-width="2" stroke-dasharray="4 4"/>
<path d="M33.1436 448.13C33.1436 456.18 39.1928 456.18 45.0427 456.18C50.8925 456.18 56.9418 456.18 56.9418 448.13C56.9418 442.281 53.5586 435.868 48.6181 433.698L48.8421 433.387L54.7058 436.309C54.7655 436.339 54.8297 436.354 54.8931 436.354C55.0057 436.354 55.1167 436.308 55.1988 436.222C55.3277 436.087 55.3569 435.882 55.2722 435.715L54.4239 434.044L55.8895 433.554C56.0688 433.494 56.1885 433.321 56.184 433.128C56.1789 432.935 56.0509 432.768 55.8691 432.717L50.4143 431.199L52.1358 428.804C52.2947 428.579 52.3377 428.298 52.2572 428.011C52.0211 427.171 50.7753 426.39 49.6884 425.939C49.1045 425.696 48.4956 425.517 47.9289 425.415L47.9588 425.231C47.9626 425.207 47.9647 425.183 47.9647 425.159C47.9647 423.964 46.6813 423.027 45.0427 423.027C43.404 423.027 42.1206 423.964 42.1206 425.159C42.1206 425.183 42.1227 425.207 42.1265 425.231L42.1565 425.414C41.5906 425.517 40.9819 425.696 40.3969 425.939C39.31 426.39 38.0642 427.171 37.8281 428.011C37.7476 428.298 37.7906 428.579 37.9516 428.807L39.6712 431.199L34.2163 432.717C34.0344 432.768 33.9064 432.935 33.9014 433.128C33.8968 433.321 34.0165 433.494 34.1958 433.554L35.6614 434.044L34.8131 435.715C34.7284 435.882 34.7576 436.087 34.8865 436.222C34.9687 436.308 35.0796 436.354 35.1922 436.354C35.2556 436.354 35.3198 436.339 35.3795 436.309L41.2433 433.386L41.4673 433.698C36.5268 435.868 33.1436 442.281 33.1436 448.13ZM54.2671 433.177L53.6803 433.373C53.561 433.413 53.465 433.504 53.4175 433.623C53.37 433.742 53.3762 433.876 53.4338 433.99L53.9188 434.945L49.3566 432.671L49.8719 431.954L54.2671 433.177ZM47.7883 426.276C48.2932 426.368 48.8393 426.529 49.3673 426.748C50.8938 427.382 51.4706 428.111 51.4456 428.289L47.7852 433.382C47.4227 433.262 47.0531 433.165 46.6765 433.093L47.7883 426.276ZM45.0427 423.901C46.1458 423.901 47.0809 424.459 47.1097 425.127L45.8303 432.972C45.5702 432.948 45.3082 432.931 45.0427 432.931C44.7779 432.931 44.5168 432.948 44.2574 432.971L42.9756 425.127C43.0044 424.459 43.9395 423.901 45.0427 423.901ZM36.1665 434.945L36.6516 433.99C36.7091 433.876 36.7154 433.742 36.6678 433.623C36.6203 433.504 36.5244 433.413 36.4051 433.373L35.8182 433.177L40.2136 431.954L40.7288 432.671L36.1665 434.945ZM40.7205 431.185C40.72 431.185 40.7196 431.184 40.7191 431.183L38.6423 428.295C38.6147 428.111 39.1915 427.382 40.718 426.748C41.2466 426.529 41.7929 426.368 42.2973 426.276L43.4111 433.092C43.0338 433.165 42.6634 433.262 42.3001 433.382L40.7205 431.185ZM42.2363 434.318C42.2594 434.312 42.2814 434.305 42.3037 434.295C43.1735 433.98 44.0895 433.805 45.0427 433.805C45.9988 433.805 46.9175 433.981 47.7897 434.298C47.8072 434.305 47.8243 434.311 47.8422 434.316C52.7087 436.121 56.0876 442.411 56.0876 448.13C56.0876 454.824 51.9148 455.307 45.0427 455.307C38.1705 455.307 33.9977 454.824 33.9977 448.13C33.9977 442.414 37.3734 436.126 42.2363 434.318Z" fill="#05004D"/>
<path d="M44.3262 446.509V446.009H43.8262H42.5982C41.8491 446.009 41.2367 445.397 41.2367 444.642V442.714C41.2367 441.96 41.8491 441.348 42.5982 441.348H43.8262H44.3262V440.848V440.816C44.3262 440.683 44.4335 440.577 44.5634 440.577C44.6932 440.577 44.8005 440.683 44.8005 440.816V440.848V441.348H45.3005H47.2016C47.3314 441.348 47.4387 441.453 47.4387 441.587C47.4387 441.72 47.3314 441.826 47.2016 441.826H45.3005H44.8005V442.326V445.031V445.531H45.3005H46.5285C47.2776 445.531 47.89 446.143 47.89 446.897V448.825C47.89 449.579 47.2776 450.191 46.5285 450.191H45.3005H44.8005V450.691V450.723C44.8005 450.856 44.6932 450.962 44.5634 450.962C44.4335 450.962 44.3262 450.856 44.3262 450.723V450.691V450.191H43.8262H41.6876C41.5577 450.191 41.4505 450.086 41.4505 449.952C41.4505 449.819 41.5577 449.713 41.6876 449.713H43.8262H44.3262V449.213V446.509ZM45.3005 446.009H44.8005V446.509V449.213V449.713H45.3005H46.5285C47.0164 449.713 47.4158 449.31 47.4158 448.825V446.897C47.4158 446.412 47.0164 446.009 46.5285 446.009H45.3005ZM44.3262 442.326V441.826H43.8262H42.5982C42.1103 441.826 41.7109 442.229 41.7109 442.714V444.642C41.7109 445.127 42.1103 445.531 42.5982 445.531H43.8262H44.3262V445.031V442.326Z" stroke="#05004D"/>
<path d="M17.112 447.31C17.5267 447.753 18.1087 448.144 18.8417 448.475C20.2956 449.131 22.2202 449.492 24.2609 449.492C26.3016 449.492 28.2262 449.131 29.6801 448.475C30.4131 448.144 30.9951 447.753 31.4098 447.31C31.9018 446.786 32.1513 446.201 32.1513 445.574C32.1513 444.947 31.9018 444.363 31.4098 443.838C30.9951 443.396 30.4131 443.004 29.6801 442.673C28.2262 442.017 26.3016 441.656 24.2609 441.656C22.2202 441.656 20.2956 442.017 18.8417 442.673C18.1087 443.004 17.5267 443.396 17.112 443.838C16.6199 444.363 16.3705 444.947 16.3705 445.574C16.3705 446.201 16.6199 446.786 17.112 447.31Z" fill="#C7BA9A"/>
<path d="M24.2609 454.391C21.9611 454.391 19.7921 454.03 18.1536 453.375C17.4211 453.081 16.8226 452.74 16.3705 452.358V454.119C16.5699 454.667 17.3343 455.253 18.4644 455.705C20.0055 456.322 22.0641 456.662 24.2609 456.662C26.4577 456.662 28.5163 456.322 30.0574 455.705C31.1874 455.253 31.9519 454.667 32.1513 454.119V452.358C31.6992 452.74 31.1006 453.081 30.3681 453.375C28.7297 454.03 26.5607 454.391 24.2609 454.391Z" fill="#C7BA9A"/>
<path d="M24.2609 457.76C21.9611 457.76 19.7921 457.399 18.1536 456.743C17.4211 456.45 16.8226 456.109 16.3705 455.727V457.488C16.5699 458.035 17.3343 458.622 18.4644 459.074C20.0055 459.691 22.0641 460.03 24.2609 460.03C26.4577 460.03 28.5163 459.691 30.0574 459.074C31.1874 458.622 31.9519 458.035 32.1513 457.488V455.727C31.6992 456.109 31.1006 456.45 30.3681 456.743C28.7297 457.399 26.5607 457.76 24.2609 457.76Z" fill="#C7BA9A"/>
<path d="M29.9559 449.513C28.4156 450.208 26.3931 450.59 24.261 450.59C22.1289 450.59 20.1063 450.208 18.5661 449.513C17.7389 449.14 17.0701 448.685 16.5782 448.16C16.5041 448.081 16.4351 448.002 16.3706 447.922V450.75C16.57 451.298 17.3344 451.884 18.4645 452.337C20.0056 452.953 22.0642 453.293 24.261 453.293C26.4578 453.293 28.5164 452.953 30.0575 452.337C31.1876 451.884 31.952 451.298 32.1514 450.75V447.922C32.0869 448.002 32.0179 448.081 31.9438 448.16C31.4519 448.685 30.7831 449.14 29.9559 449.513Z" fill="#C7BA9A"/>
<path d="M24.2609 461.129C21.961 461.129 19.7921 460.768 18.1536 460.112C17.4211 459.819 16.8226 459.478 16.3705 459.096V460.857C16.5699 461.404 17.3343 461.991 18.4644 462.443C20.0055 463.06 22.0641 463.399 24.2609 463.399C26.4577 463.399 28.5162 463.06 30.0574 462.443C31.1874 461.991 31.9519 461.404 32.1513 460.857V459.096C31.6992 459.478 31.1006 459.819 30.3681 460.112C28.7297 460.768 26.5607 461.129 24.2609 461.129Z" fill="#C7BA9A"/>
<path d="M32.9378 456.529C33.3525 456.971 33.9345 457.363 34.6675 457.694C36.1214 458.35 38.046 458.711 40.0867 458.711C42.1274 458.711 44.052 458.35 45.5059 457.694C46.2389 457.363 46.8209 456.971 47.2356 456.529C47.7276 456.004 47.9771 455.42 47.9771 454.793C47.9771 454.165 47.7276 453.581 47.2356 453.057C46.8209 452.614 46.2389 452.222 45.5059 451.892C44.052 451.236 42.1274 450.875 40.0867 450.875C38.046 450.875 36.1214 451.236 34.6675 451.892C33.9345 452.222 33.3525 452.614 32.9378 453.057C32.4458 453.581 32.1963 454.165 32.1963 454.793C32.1963 455.42 32.4458 456.004 32.9378 456.529Z" fill="#C7BA9A"/>
<path d="M40.0867 463.61C37.7869 463.61 35.6179 463.249 33.9794 462.593C33.2469 462.3 32.6484 461.959 32.1963 461.577V463.338C32.3956 463.885 33.1601 464.472 34.2902 464.924C35.8313 465.541 37.8899 465.88 40.0867 465.88C42.2835 465.88 44.3421 465.541 45.8832 464.924C47.0132 464.472 47.7777 463.885 47.9771 463.338V461.577C47.525 461.959 46.9265 462.3 46.1939 462.593C44.5555 463.249 42.3865 463.61 40.0867 463.61Z" fill="#C7BA9A"/>
<path d="M45.7816 458.732C44.2413 459.426 42.2188 459.809 40.0867 459.809C37.9546 459.809 35.9321 459.426 34.3918 458.732C33.5646 458.359 32.8958 457.903 32.4039 457.379C32.3298 457.3 32.2607 457.22 32.1963 457.141V459.969C32.3956 460.517 33.1601 461.103 34.2902 461.555C35.8313 462.172 37.8899 462.512 40.0867 462.512C42.2835 462.512 44.3421 462.172 45.8832 461.555C47.0132 461.103 47.7777 460.517 47.9771 459.969V457.141C47.9126 457.22 47.8436 457.3 47.7695 457.379C47.2776 457.903 46.6088 458.359 45.7816 458.732Z" fill="#C7BA9A"/>
<path d="M37 382V405" stroke="#C7BA9A" stroke-width="2" stroke-dasharray="2 2"/>
<circle cx="36.5" cy="342.5" r="34.5" stroke="#05004D" stroke-opacity="0.5" stroke-width="2" stroke-dasharray="4 4"/>
<path d="M53.7544 332.728L55.8639 332.637C56.2308 332.546 56.5976 332.183 56.5976 331.728V329.183H33.8521C33.3935 329.183 33.0266 328.819 33.0266 328.456C33.0266 328.001 33.3935 327.637 33.8521 327.637H38.071L41.0059 326.274H32.568C32.0178 326.274 31.5592 326.728 31.5592 327.274V346.546C31.5592 347.092 32.0178 347.546 32.568 347.546H55.5888C56.1391 347.546 56.5976 347.092 56.5976 346.546V342.092C56.5976 341.546 56.1391 341.092 55.5888 341.092C54.5799 341.092 53.571 341.092 52.4704 341.092C51.0947 341.092 49.9941 340.001 49.9941 338.546V335.183C49.9941 332.91 51.9201 332.728 53.7544 332.728ZM41.6479 327.637H51.7367L49.8107 323.819L41.6479 327.637ZM53.4793 327.637H56.5976V327.274C56.5976 326.728 56.1391 326.274 55.5888 326.274H52.7456L53.4793 327.637ZM52.0118 324.728H55.5888C56.9645 324.728 58.0651 325.91 58.0651 327.274C58.0651 328.728 58.0651 330.274 58.0651 331.728C58.0651 332.092 58.0651 332.365 57.8817 332.728H58.432C59.8077 332.728 61 333.819 61 335.183V338.546C61 339.91 59.8077 341.092 58.432 341.092H57.8817C58.0651 341.364 58.0651 341.728 58.0651 342.092V346.546C58.0651 347.91 56.9645 349.001 55.5888 349.001H32.568C31.1923 349.001 30 347.91 30 346.546V327.274C30 325.91 31.1923 324.728 32.568 324.728H44.216L49.9024 322.092C50.2692 321.91 50.7278 322.092 50.9112 322.456L52.0118 324.728ZM58.432 334.274C56.4142 334.274 54.4882 334.274 52.4704 334.274C51.9201 334.274 51.5533 334.637 51.5533 335.183V338.546C51.5533 339.092 51.9201 339.546 52.4704 339.546C54.4882 339.546 56.4142 339.546 58.432 339.546C58.9822 339.546 59.4408 339.092 59.4408 338.546V335.183C59.4408 334.637 58.9822 334.274 58.432 334.274Z" fill="#05004D"/>
<path d="M54.3047 338.091C54.9632 338.091 55.497 337.562 55.497 336.909C55.497 336.256 54.9632 335.727 54.3047 335.727C53.6462 335.727 53.1124 336.256 53.1124 336.909C53.1124 337.562 53.6462 338.091 54.3047 338.091Z" fill="#05004D"/>
<rect x="12" y="343" width="39" height="18" rx="5" fill="#C7BA9A"/>
<path d="M20.828 347.432V356H22.592V350.264H22.616L26.18 356H28.064V347.432H26.3V353.18H26.276L22.7 347.432H20.828ZM29.7225 347.432V356H31.6065V352.46H35.1945V350.996H31.6065V349.016H35.7465V347.432H29.7225ZM38.7318 349.016V356H40.6158V349.016H43.1838V347.432H36.1638V349.016H38.7318Z" fill="#8C794B"/>
<path d="M36 280V303" stroke="#C7BA9A" stroke-width="2" stroke-dasharray="2 2"/>
<path d="M31.5237 233.283H40.5719L39.4133 234.497C39.0271 234.883 39.0271 235.434 39.4133 235.821C39.5788 235.986 39.8547 236.097 40.0754 236.097C40.2961 236.097 40.5719 235.986 40.7375 235.821L43.5512 233.007C43.9374 232.621 43.9374 232.069 43.5512 231.683L40.7375 228.869C40.3512 228.483 39.7995 228.483 39.4133 228.869C39.0271 229.255 39.0271 229.807 39.4133 230.193L40.6271 231.407H31.5237C31.0272 231.407 30.5858 231.848 30.5858 232.345C30.641 232.841 31.0272 233.283 31.5237 233.283Z" fill="#05004D"/>
<path d="M28.7063 242.07L28.7029 242.082L28.6998 242.094C28.6302 242.372 28.5773 242.679 28.5559 242.992C27.0749 243.336 25.974 244.661 25.974 246.248V247.462C25.974 248.497 26.4481 249.494 27.243 250.12V251.126H12.3241C12.0409 251.126 11.75 250.875 11.75 250.496V246.8C11.75 243.563 13.7448 240.846 16.5684 239.797C17.9967 240.741 19.6866 241.315 21.5378 241.315C23.3865 241.315 25.0744 240.743 26.5014 239.801C27.4159 240.156 28.2616 240.683 28.9679 241.336C28.8698 241.568 28.7785 241.817 28.7063 242.07Z" stroke="#05004D" stroke-width="1.5"/>
<path d="M27.1327 232.345C27.1327 235.457 24.6038 237.94 21.5379 237.94C18.472 237.94 15.9431 235.457 15.9431 232.345C15.9431 229.232 18.472 226.75 21.5379 226.75C24.6547 226.75 27.1327 229.228 27.1327 232.345Z" stroke="#05004D" stroke-width="1.5"/>
<path d="M45.6584 242.094L45.6553 242.082L45.6519 242.07C45.6483 242.057 45.6447 242.044 45.6411 242.032C45.5818 241.824 45.511 241.575 45.4071 241.32C46.11 240.675 46.9495 240.153 47.8567 239.801C49.2838 240.743 50.9717 241.315 52.8203 241.315C54.6716 241.315 56.3615 240.741 57.7899 239.797C60.6275 240.85 62.6562 243.569 62.6083 246.733L62.6082 246.733V246.745V250.441C62.6082 250.84 62.3524 251.07 62.0341 251.07H47.0601V250.124C47.8458 249.525 48.3842 248.576 48.3842 247.462V246.248C48.3842 244.661 47.2833 243.336 45.8023 242.992C45.7809 242.679 45.7279 242.372 45.6584 242.094Z" stroke="#05004D" stroke-width="1.5"/>
<path d="M58.4704 232.345C58.4704 235.457 55.9415 237.94 52.8757 237.94C49.7589 237.94 47.2809 235.462 47.2809 232.345C47.2809 229.232 49.8098 226.75 52.8757 226.75C55.9415 226.75 58.4704 229.232 58.4704 232.345Z" stroke="#05004D" stroke-width="1.5"/>
<path d="M29.9241 257.228C29.9241 257.614 30.2551 257.945 30.6413 257.945H36.5447V249.559H29.9241V257.228Z" fill="#C7BA9A"/>
<path d="M37.8687 258H43.7721C44.1583 258 44.4893 257.669 44.4893 257.283V249.559H37.8687V258Z" fill="#C7BA9A"/>
<path d="M45.0964 245.531H41.5654C42.0068 245.365 42.393 245.145 42.724 244.758C43.1654 244.207 43.3309 243.434 43.1654 242.772C42.9447 242 42.393 241.393 41.6206 241.117C40.8481 240.896 40.0206 241.062 39.4137 241.559L37.2068 243.434L34.9999 241.559C34.393 241.007 33.5654 240.841 32.793 241.117C32.0206 241.338 31.4137 242 31.2482 242.772C31.0827 243.49 31.1931 244.207 31.6896 244.758C31.9655 245.145 32.4068 245.421 32.8482 245.531H29.3172C28.931 245.531 28.6 245.862 28.6 246.248V247.462C28.6 247.848 28.931 248.179 29.3172 248.179H36.5447V245.641H37.2068H37.8689V248.179H45.0964C45.4826 248.179 45.8136 247.848 45.8136 247.462V246.248C45.8136 245.862 45.4826 245.531 45.0964 245.531ZM33.5103 244.152C33.2344 244.152 33.0137 244.041 32.8482 243.821C32.6827 243.6 32.6275 243.324 32.6827 243.103C32.7379 242.827 32.9586 242.607 33.2344 242.496C33.3448 242.441 33.3999 242.441 33.5103 242.441C33.731 242.441 33.8965 242.496 34.062 242.662L35.8275 244.152H33.5103ZM40.9033 244.152H38.5861L40.3516 242.662C40.5723 242.441 40.9033 242.386 41.1792 242.496C41.455 242.607 41.6757 242.827 41.7309 243.103C41.7861 243.379 41.7309 243.655 41.5654 243.821C41.3999 244.041 41.1792 244.152 40.9033 244.152Z" fill="#C7BA9A"/>
<circle cx="36.5" cy="240.5" r="34.5" stroke="#05004D" stroke-opacity="0.5" stroke-width="2" stroke-dasharray="4 4"/>
<path d="M36 178V201" stroke="#C7BA9A" stroke-width="2" stroke-dasharray="2 2"/>
<circle cx="36.5" cy="138.5" r="34.5" stroke="#05004D" stroke-opacity="0.5" stroke-width="2" stroke-dasharray="4 4"/>
<rect x="25.5" y="121.5" width="35" height="19" rx="4.5" stroke="black"/>
<path d="M32.759 127.146V135H34.376V129.742H34.398L37.665 135H39.392V127.146H37.775V132.415H37.753L34.475 127.146H32.759ZM40.9123 127.146V135H42.6393V131.755H45.9283V130.413H42.6393V128.598H46.4343V127.146H40.9123ZM49.1708 128.598V135H50.8978V128.598H53.2518V127.146H46.8168V128.598H49.1708Z" fill="black"/>
<path d="M16 135C16.206 135.289 16.5036 135.801 16.5036 136.706V154.92C16.5036 154.92 16.5137 155.37 16.7304 155.803C16.9471 156.237 17.2647 156.63 18.2134 156.63C18.2134 156.63 18.6626 156.62 19.0961 156.403C19.5295 156.187 19.9198 155.869 19.9198 154.92C19.9194 154.628 20.141 154.383 20.4323 154.353C20.4519 154.352 20.4717 154.352 20.4912 154.353H30.1674V136.706C30.1674 135.758 29.7771 135.44 29.3437 135.223C28.9102 135.007 28.4576 135 28.4576 135H16ZM18.7259 140.123C18.744 140.122 18.7622 140.122 18.7803 140.123H27.8896C27.9654 140.121 28.0408 140.134 28.1113 140.162C28.1818 140.19 28.2461 140.232 28.3003 140.285C28.3545 140.338 28.3976 140.401 28.427 140.471C28.4564 140.541 28.4715 140.616 28.4715 140.692C28.4715 140.768 28.4564 140.843 28.427 140.913C28.3976 140.983 28.3545 141.046 28.3003 141.099C28.2461 141.152 28.1818 141.194 28.1113 141.221C28.0408 141.249 27.9654 141.263 27.8896 141.261H18.7803C18.7046 141.266 18.6286 141.257 18.5567 141.232C18.4848 141.208 18.4185 141.169 18.3618 141.119C18.305 141.068 18.2589 141.007 18.2261 140.938C18.1934 140.87 18.1746 140.796 18.171 140.72C18.1674 140.644 18.1789 140.568 18.205 140.497C18.2311 140.425 18.2711 140.36 18.3228 140.304C18.3745 140.249 18.4368 140.204 18.506 140.173C18.5752 140.142 18.65 140.125 18.7259 140.123ZM18.7803 142.966H27.8896C28.0407 142.966 28.1856 143.026 28.2924 143.133C28.3993 143.24 28.4593 143.385 28.4593 143.536C28.4593 143.687 28.3993 143.832 28.2924 143.939C28.1856 144.046 28.0407 144.106 27.8896 144.106H18.7803C18.6292 144.106 18.4843 144.046 18.3775 143.939C18.2706 143.832 18.2106 143.687 18.2106 143.536C18.2106 143.385 18.2706 143.24 18.3775 143.133C18.4843 143.026 18.6292 142.966 18.7803 142.966ZM18.7259 145.816C18.744 145.815 18.7622 145.815 18.7803 145.816H27.8896C27.9654 145.814 28.0408 145.827 28.1113 145.855C28.1818 145.883 28.2461 145.925 28.3003 145.978C28.3545 146.031 28.3976 146.094 28.427 146.164C28.4564 146.234 28.4715 146.309 28.4715 146.385C28.4715 146.461 28.4564 146.536 28.427 146.606C28.3976 146.676 28.3545 146.739 28.3003 146.792C28.2461 146.845 28.1818 146.887 28.1113 146.914C28.0408 146.942 27.9654 146.956 27.8896 146.954H18.7803C18.6314 146.958 18.487 146.903 18.3779 146.802C18.2687 146.7 18.2037 146.56 18.1965 146.411C18.1894 146.263 18.2408 146.117 18.3398 146.006C18.4387 145.894 18.5773 145.826 18.7259 145.816Z" fill="#C7BA9A"/>
<path d="M21.0183 155.491L31.1592 155.492C31.1259 155.628 31.1555 155.65 31.0791 155.803C30.8624 156.236 30.5448 156.63 29.5961 156.63H20.5525C20.8302 156.251 20.9613 155.836 21.0183 155.491V155.491Z" fill="#C7BA9A"/>
<path d="M34.1563 135.568C33.8398 135.566 33.5825 135.823 33.5837 136.14V137.846H37V136.14C37.0012 135.825 36.7474 135.57 36.433 135.568H34.1563Z" fill="#C7BA9A"/>
<path d="M33.5826 138.985L33.5792 151.504C33.5796 151.617 33.6132 151.726 33.6759 151.82L34.8143 153.53C35.0394 153.87 35.5386 153.87 35.7637 153.53L36.8987 151.82C36.9615 151.726 36.9951 151.617 36.9955 151.504L36.9988 138.985H33.5826Z" fill="#C7BA9A"/>
<path d="M18.7263 148.66C18.5753 148.667 18.4333 148.734 18.3317 148.846C18.23 148.958 18.177 149.105 18.1842 149.256C18.1915 149.407 18.2584 149.549 18.3703 149.651C18.4822 149.753 18.6299 149.806 18.7809 149.798H27.8901C28.0411 149.798 28.1859 149.738 28.2927 149.632C28.3995 149.525 28.4595 149.38 28.4595 149.229C28.4595 149.078 28.3995 148.933 28.2927 148.826C28.1859 148.72 28.0411 148.66 27.8901 148.66H18.7809C18.7627 148.659 18.7445 148.659 18.7263 148.66Z" fill="#C7BA9A"/>
<path d="M36 76V99" stroke="#C7BA9A" stroke-width="2" stroke-dasharray="2 2"/>
<circle opacity="0.5" cx="35.5" cy="35.5" r="34.5" stroke="#05004D" stroke-width="2" stroke-dasharray="4 4"/>
<path d="M28.0292 16C28.0292 16.9765 28.0292 17.9531 28.0292 18.9296C27.0527 18.9296 26.0761 18.9296 25.0996 18.9296C25.0996 26.1531 25.0996 33.5671 25.0996 39.7625C26.0761 39.7625 27.0527 39.7625 28.0292 39.7625C28.0292 40.739 28.0292 41.7155 28.0292 42.6921C35.3713 42.6921 42.4876 42.6921 48.8621 42.6921C48.8621 41.7155 48.8621 40.739 48.8621 39.7625C49.8386 39.7625 50.8152 39.7625 51.7917 39.7625C51.7917 32.4204 51.7917 25.3041 51.7917 18.9296C50.8152 18.9296 49.8386 18.9296 48.8621 18.9296C48.8621 17.9531 48.8621 16.9765 48.8621 16C41.6386 16 34.2245 16 28.0292 16ZM29.3313 17.3021H47.56V18.9296H29.3313V17.3021ZM26.4017 20.2317C34.7128 20.2317 43.3418 20.2317 50.4896 20.2317V38.4604C41.8291 38.4604 34.0638 38.4604 26.4017 38.4604V20.2317ZM38.4457 22.1848C36.4758 22.1848 34.865 23.8057 34.865 25.7756C34.865 27.7454 36.4758 29.3562 38.4457 29.3562C40.4155 29.3562 42.0263 27.7454 42.0263 25.7756C42.0263 23.8057 40.4155 22.1848 38.4457 22.1848ZM38.4457 23.497C39.7119 23.497 40.7242 24.5094 40.7242 25.7756C40.7242 27.0418 39.7119 28.044 38.4457 28.044C37.1794 28.044 36.1671 27.0418 36.1671 25.7756C36.1671 24.5094 37.1794 23.497 38.4457 23.497ZM38.4457 29.9055C36.5523 29.9055 34.8315 30.5122 33.5426 31.5433C32.2538 32.5744 31.3657 34.0942 31.3657 35.8563H32.505C32.505 34.7419 33.0754 33.6585 34.1428 32.8046C35.2102 31.9507 36.7434 31.3907 38.4457 31.3907C40.1479 31.3907 41.6811 31.9507 42.7485 32.8046C43.8159 33.6585 44.3863 34.7419 44.3863 35.8563H45.5256C45.5256 34.0942 44.6375 32.5744 43.3487 31.5433C42.0598 30.5122 40.339 29.9055 38.4457 29.9055ZM29.3313 39.7625H47.56V41.39H29.3313V39.7625Z" fill="#05004D"/>
<path d="M36.5568 45.5178C36.5568 42.5697 34.893 39.964 32.3514 38.4036C32.775 39.4701 33.0083 40.6154 33.0083 41.8092C33.0083 47.3994 27.9588 51.9442 21.7521 51.9442C21.218 51.9442 20.69 51.9109 20.1682 51.8473C21.9087 53.2835 24.2416 54.1652 26.8077 54.1652C28.1491 54.1652 29.4292 53.9228 30.5925 53.4895L34.2484 55.0226C34.5185 55.1347 34.8132 54.9136 34.7733 54.6257L34.2822 51.0686C35.7034 49.5658 36.5568 47.6327 36.5568 45.5178Z" fill="#C7BA9A"/>
<path d="M31.498 41.8124C31.498 37.0373 27.1331 33.165 21.749 33.165C16.365 33.165 12 37.0373 12 41.8124C12 43.9243 12.8564 45.8604 14.2746 47.3602L13.7834 50.9173C13.7435 51.2051 14.0382 51.4263 14.3083 51.3142L17.9642 49.7811C19.1307 50.2144 20.4076 50.4568 21.749 50.4568C27.1331 50.4598 31.498 46.5876 31.498 41.8124ZM25.6198 41.0186C26.3135 41.0186 26.8752 41.573 26.8752 42.2578C26.8752 42.9395 26.3135 43.497 25.6198 43.497C24.9291 43.497 24.3643 42.9426 24.3643 42.2578C24.3674 41.57 24.9291 41.0186 25.6198 41.0186ZM17.8783 43.494C17.1845 43.494 16.6228 42.9395 16.6228 42.2548C16.6228 41.57 17.1845 41.0155 17.8783 41.0155C18.572 41.0155 19.1337 41.57 19.1337 42.2548C19.1307 42.9395 18.572 43.494 17.8783 43.494ZM20.4966 42.2548C20.4966 41.57 21.0584 41.0155 21.7521 41.0155C22.4427 41.0155 23.0076 41.57 23.0076 42.2548C23.0076 42.9365 22.4458 43.494 21.7521 43.494C21.0553 43.494 20.4966 42.9395 20.4966 42.2548Z" fill="#C7BA9A"/>
</svg>
