<svg width="68" height="468" viewBox="0 0 68 468" fill="none" xmlns="http://www.w3.org/2000/svg">
<rect x="1" y="1" width="66" height="466" rx="29" stroke="#C7BA9A" stroke-width="2"/>
<path d="M28.9089 65H34.1649V39.8H29.8809C27.9729 41.42 25.4889 42.824 23.2209 43.364V48.44C25.3809 48.008 27.2169 47.108 28.9089 45.848V65ZM41.6 65.288C43.364 65.288 44.732 63.956 44.732 62.228C44.732 60.464 43.364 59.132 41.6 59.132C39.836 59.132 38.468 60.464 38.468 62.228C38.468 63.956 39.836 65.288 41.6 65.288Z" fill="#C7BA9A"/>
<path d="M19.8635 157H38.0075V152.104H27.8195L31.8515 148.972C36.1355 145.696 38.0435 142.888 38.0435 139.684C38.0435 134.86 34.3715 131.512 28.8635 131.512C23.4995 131.512 19.2875 135.76 19.8275 141.16L25.2275 141.52C24.9755 138.424 26.4155 136.372 28.8635 136.372C30.9515 136.372 32.3555 137.704 32.3555 139.684C32.3555 141.376 31.2035 143.068 28.5755 145.228L19.8635 152.464V157ZM44.9574 157.288C46.7214 157.288 48.0894 155.956 48.0894 154.228C48.0894 152.464 46.7214 151.132 44.9574 151.132C43.1934 151.132 41.8254 152.464 41.8254 154.228C41.8254 155.956 43.1934 157.288 44.9574 157.288Z" fill="#C7BA9A"/>
<path d="M29.0862 249.288C34.9542 249.288 38.8782 245.94 38.8782 240.9C38.8782 236.256 35.7102 233.412 31.1022 233.484L37.2222 228.336V223.8H20.1942V228.66H30.5262L24.1542 234.168L26.3142 237.912C27.1782 237.336 28.3662 237.048 29.1942 237.048C31.6062 237.048 33.1902 238.488 33.1902 240.72C33.1902 242.916 31.5342 244.392 29.1222 244.392C26.7462 244.392 24.9822 243.024 24.6222 240.936L19.4742 241.8C19.9422 246.3 23.7942 249.288 29.0862 249.288ZM45.2387 249.288C47.0027 249.288 48.3707 247.956 48.3707 246.228C48.3707 244.464 47.0027 243.132 45.2387 243.132C43.4747 243.132 42.1067 244.464 42.1067 246.228C42.1067 247.956 43.4747 249.288 45.2387 249.288Z" fill="#C7BA9A"/>
<path d="M31.4188 342H37.1068V337.176H40.1308V332.316H37.1068V316.8H31.0588L18.9988 332.316V337.176H31.4188V342ZM24.8308 332.316L31.4188 323.676V332.316H24.8308ZM45.6781 342.288C47.4421 342.288 48.8101 340.956 48.8101 339.228C48.8101 337.464 47.4421 336.132 45.6781 336.132C43.9141 336.132 42.5461 337.464 42.5461 339.228C42.5461 340.956 43.9141 342.288 45.6781 342.288Z" fill="#C7BA9A"/>
<path d="M29.3332 431.288C34.9852 431.288 38.6572 427.796 38.6572 422.504C38.6572 417.608 35.2732 414.26 30.4132 414.26C28.7212 414.26 26.9932 414.908 25.8772 415.916L26.7412 410.66H36.7492V405.8H22.6012L20.4412 420.056L24.5812 420.92C25.6972 419.372 27.0652 418.652 28.8652 418.652C31.3852 418.652 32.9692 420.164 32.9692 422.504C32.9692 424.844 31.4572 426.392 29.1172 426.392C26.9932 426.392 25.4812 425.204 25.0132 423.332L19.9012 424.268C20.6212 428.516 24.3292 431.288 29.3332 431.288ZM45.0278 431.288C46.7918 431.288 48.1598 429.956 48.1598 428.228C48.1598 426.464 46.7918 425.132 45.0278 425.132C43.2638 425.132 41.8958 426.464 41.8958 428.228C41.8958 429.956 43.2638 431.288 45.0278 431.288Z" fill="#C7BA9A"/>
</svg>
