<svg width="73" height="380" viewBox="0 0 73 380" fill="none" xmlns="http://www.w3.org/2000/svg">
<circle cx="37.5" cy="344.5" r="34.5" stroke="#05004D" stroke-opacity="0.5" stroke-width="2" stroke-dasharray="4 4"/>
<path d="M33.1436 348.13C33.1436 356.18 39.1928 356.18 45.0427 356.18C50.8925 356.18 56.9418 356.18 56.9418 348.13C56.9418 342.281 53.5586 335.868 48.6181 333.698L48.8421 333.387L54.7058 336.309C54.7655 336.339 54.8297 336.354 54.8931 336.354C55.0057 336.354 55.1167 336.308 55.1988 336.222C55.3277 336.087 55.3569 335.882 55.2722 335.715L54.4239 334.044L55.8895 333.554C56.0688 333.494 56.1885 333.321 56.184 333.128C56.1789 332.935 56.0509 332.768 55.8691 332.717L50.4143 331.199L52.1358 328.804C52.2947 328.579 52.3377 328.298 52.2572 328.011C52.0211 327.171 50.7753 326.39 49.6884 325.939C49.1045 325.696 48.4956 325.517 47.9289 325.415L47.9588 325.231C47.9626 325.207 47.9647 325.183 47.9647 325.159C47.9647 323.964 46.6813 323.027 45.0427 323.027C43.404 323.027 42.1206 323.964 42.1206 325.159C42.1206 325.183 42.1227 325.207 42.1265 325.231L42.1565 325.414C41.5906 325.517 40.9819 325.696 40.3969 325.939C39.31 326.39 38.0642 327.171 37.8281 328.011C37.7476 328.298 37.7906 328.579 37.9516 328.807L39.6712 331.199L34.2163 332.717C34.0344 332.768 33.9064 332.935 33.9014 333.128C33.8968 333.321 34.0165 333.494 34.1958 333.554L35.6614 334.044L34.8131 335.715C34.7284 335.882 34.7576 336.087 34.8865 336.222C34.9687 336.308 35.0796 336.354 35.1922 336.354C35.2556 336.354 35.3198 336.339 35.3795 336.309L41.2433 333.386L41.4673 333.698C36.5268 335.868 33.1436 342.281 33.1436 348.13ZM54.2671 333.177L53.6803 333.373C53.561 333.413 53.465 333.504 53.4175 333.623C53.37 333.742 53.3762 333.876 53.4338 333.99L53.9188 334.945L49.3566 332.671L49.8719 331.954L54.2671 333.177ZM47.7883 326.276C48.2932 326.368 48.8393 326.529 49.3673 326.748C50.8938 327.382 51.4706 328.111 51.4456 328.289L47.7852 333.382C47.4227 333.262 47.0531 333.165 46.6765 333.093L47.7883 326.276ZM45.0427 323.901C46.1458 323.901 47.0809 324.459 47.1097 325.127L45.8303 332.972C45.5702 332.948 45.3082 332.931 45.0427 332.931C44.7779 332.931 44.5168 332.948 44.2574 332.971L42.9756 325.127C43.0044 324.459 43.9395 323.901 45.0427 323.901ZM36.1665 334.945L36.6516 333.99C36.7091 333.876 36.7154 333.742 36.6678 333.623C36.6203 333.504 36.5244 333.413 36.4051 333.373L35.8182 333.177L40.2136 331.954L40.7288 332.671L36.1665 334.945ZM40.7205 331.185C40.72 331.185 40.7196 331.184 40.7191 331.183L38.6423 328.295C38.6147 328.111 39.1915 327.382 40.718 326.748C41.2466 326.529 41.7929 326.368 42.2973 326.276L43.4111 333.092C43.0338 333.165 42.6634 333.262 42.3001 333.382L40.7205 331.185ZM42.2363 334.318C42.2594 334.312 42.2814 334.305 42.3037 334.295C43.1735 333.98 44.0895 333.805 45.0427 333.805C45.9988 333.805 46.9175 333.981 47.7897 334.298C47.8072 334.305 47.8243 334.311 47.8422 334.316C52.7087 336.121 56.0876 342.411 56.0876 348.13C56.0876 354.824 51.9148 355.307 45.0427 355.307C38.1705 355.307 33.9977 354.824 33.9977 348.13C33.9977 342.414 37.3734 336.126 42.2363 334.318Z" fill="#05004D"/>
<path d="M44.3262 346.509V346.009H43.8262H42.5982C41.8491 346.009 41.2367 345.397 41.2367 344.642V342.714C41.2367 341.96 41.8491 341.348 42.5982 341.348H43.8262H44.3262V340.848V340.816C44.3262 340.683 44.4335 340.577 44.5634 340.577C44.6932 340.577 44.8005 340.683 44.8005 340.816V340.848V341.348H45.3005H47.2016C47.3314 341.348 47.4387 341.453 47.4387 341.587C47.4387 341.72 47.3314 341.826 47.2016 341.826H45.3005H44.8005V342.326V345.031V345.531H45.3005H46.5285C47.2776 345.531 47.89 346.143 47.89 346.897V348.825C47.89 349.579 47.2776 350.191 46.5285 350.191H45.3005H44.8005V350.691V350.723C44.8005 350.856 44.6932 350.962 44.5634 350.962C44.4335 350.962 44.3262 350.856 44.3262 350.723V350.691V350.191H43.8262H41.6876C41.5577 350.191 41.4505 350.086 41.4505 349.952C41.4505 349.819 41.5577 349.713 41.6876 349.713H43.8262H44.3262V349.213V346.509ZM45.3005 346.009H44.8005V346.509V349.213V349.713H45.3005H46.5285C47.0164 349.713 47.4158 349.31 47.4158 348.825V346.897C47.4158 346.412 47.0164 346.009 46.5285 346.009H45.3005ZM44.3262 342.326V341.826H43.8262H42.5982C42.1103 341.826 41.7109 342.229 41.7109 342.714V344.642C41.7109 345.127 42.1103 345.531 42.5982 345.531H43.8262H44.3262V345.031V342.326Z" stroke="#05004D"/>
<path d="M17.112 347.31C17.5267 347.753 18.1087 348.144 18.8417 348.475C20.2956 349.131 22.2202 349.492 24.2609 349.492C26.3016 349.492 28.2262 349.131 29.6801 348.475C30.4131 348.144 30.9951 347.753 31.4098 347.31C31.9018 346.786 32.1513 346.201 32.1513 345.574C32.1513 344.947 31.9018 344.363 31.4098 343.838C30.9951 343.396 30.4131 343.004 29.6801 342.673C28.2262 342.017 26.3016 341.656 24.2609 341.656C22.2202 341.656 20.2956 342.017 18.8417 342.673C18.1087 343.004 17.5267 343.396 17.112 343.838C16.6199 344.363 16.3705 344.947 16.3705 345.574C16.3705 346.201 16.6199 346.786 17.112 347.31Z" fill="#C7BA9A"/>
<path d="M24.2609 354.391C21.9611 354.391 19.7921 354.03 18.1536 353.375C17.4211 353.081 16.8226 352.74 16.3705 352.358V354.119C16.5699 354.667 17.3343 355.253 18.4644 355.705C20.0055 356.322 22.0641 356.662 24.2609 356.662C26.4577 356.662 28.5163 356.322 30.0574 355.705C31.1874 355.253 31.9519 354.667 32.1513 354.119V352.358C31.6992 352.74 31.1006 353.081 30.3681 353.375C28.7297 354.03 26.5607 354.391 24.2609 354.391Z" fill="#C7BA9A"/>
<path d="M24.2609 357.76C21.9611 357.76 19.7921 357.399 18.1536 356.743C17.4211 356.45 16.8226 356.109 16.3705 355.727V357.488C16.5699 358.035 17.3343 358.622 18.4644 359.074C20.0055 359.691 22.0641 360.03 24.2609 360.03C26.4577 360.03 28.5163 359.691 30.0574 359.074C31.1874 358.622 31.9519 358.035 32.1513 357.488V355.727C31.6992 356.109 31.1006 356.45 30.3681 356.743C28.7297 357.399 26.5607 357.76 24.2609 357.76Z" fill="#C7BA9A"/>
<path d="M29.9559 349.513C28.4156 350.208 26.3931 350.59 24.261 350.59C22.1289 350.59 20.1063 350.208 18.5661 349.513C17.7389 349.14 17.0701 348.685 16.5782 348.16C16.5041 348.081 16.4351 348.002 16.3706 347.922V350.75C16.57 351.298 17.3344 351.884 18.4645 352.337C20.0056 352.953 22.0642 353.293 24.261 353.293C26.4578 353.293 28.5164 352.953 30.0575 352.337C31.1876 351.884 31.952 351.298 32.1514 350.75V347.922C32.0869 348.002 32.0179 348.081 31.9438 348.16C31.4519 348.685 30.7831 349.14 29.9559 349.513Z" fill="#C7BA9A"/>
<path d="M24.2609 361.129C21.961 361.129 19.7921 360.768 18.1536 360.112C17.4211 359.819 16.8226 359.478 16.3705 359.096V360.857C16.5699 361.404 17.3343 361.991 18.4644 362.443C20.0055 363.06 22.0641 363.399 24.2609 363.399C26.4577 363.399 28.5162 363.06 30.0574 362.443C31.1874 361.991 31.9519 361.404 32.1513 360.857V359.096C31.6992 359.478 31.1006 359.819 30.3681 360.112C28.7297 360.768 26.5607 361.129 24.2609 361.129Z" fill="#C7BA9A"/>
<path d="M32.9378 356.529C33.3525 356.971 33.9345 357.363 34.6675 357.694C36.1214 358.35 38.046 358.711 40.0867 358.711C42.1274 358.711 44.052 358.35 45.5059 357.694C46.2389 357.363 46.8209 356.971 47.2356 356.529C47.7276 356.004 47.9771 355.42 47.9771 354.793C47.9771 354.165 47.7276 353.581 47.2356 353.057C46.8209 352.614 46.2389 352.222 45.5059 351.892C44.052 351.236 42.1274 350.875 40.0867 350.875C38.046 350.875 36.1214 351.236 34.6675 351.892C33.9345 352.222 33.3525 352.614 32.9378 353.057C32.4458 353.581 32.1963 354.165 32.1963 354.793C32.1963 355.42 32.4458 356.004 32.9378 356.529Z" fill="#C7BA9A"/>
<path d="M40.0867 363.61C37.7869 363.61 35.6179 363.249 33.9794 362.593C33.2469 362.3 32.6484 361.959 32.1963 361.577V363.338C32.3956 363.885 33.1601 364.472 34.2902 364.924C35.8313 365.541 37.8899 365.88 40.0867 365.88C42.2835 365.88 44.3421 365.541 45.8832 364.924C47.0132 364.472 47.7777 363.885 47.9771 363.338V361.577C47.525 361.959 46.9265 362.3 46.1939 362.593C44.5555 363.249 42.3865 363.61 40.0867 363.61Z" fill="#C7BA9A"/>
<path d="M45.7816 358.732C44.2413 359.426 42.2188 359.809 40.0867 359.809C37.9546 359.809 35.9321 359.426 34.3918 358.732C33.5646 358.359 32.8958 357.903 32.4039 357.379C32.3298 357.3 32.2607 357.22 32.1963 357.141V359.969C32.3956 360.517 33.1601 361.103 34.2902 361.555C35.8313 362.172 37.8899 362.512 40.0867 362.512C42.2835 362.512 44.3421 362.172 45.8832 361.555C47.0132 361.103 47.7777 360.517 47.9771 359.969V357.141C47.9126 357.22 47.8436 357.3 47.7695 357.379C47.2776 357.903 46.6088 358.359 45.7816 358.732Z" fill="#C7BA9A"/>
<path d="M36 280V303" stroke="#C7BA9A" stroke-width="2" stroke-dasharray="2 2"/>
<path d="M31.5237 234.283H40.5719L39.4133 235.497C39.0271 235.883 39.0271 236.434 39.4133 236.821C39.5788 236.986 39.8547 237.097 40.0754 237.097C40.2961 237.097 40.5719 236.986 40.7375 236.821L43.5512 234.007C43.9374 233.621 43.9374 233.069 43.5512 232.683L40.7375 229.869C40.3512 229.483 39.7995 229.483 39.4133 229.869C39.0271 230.255 39.0271 230.807 39.4133 231.193L40.6271 232.407H31.5237C31.0272 232.407 30.5858 232.848 30.5858 233.345C30.641 233.841 31.0272 234.283 31.5237 234.283Z" fill="#05004D"/>
<path d="M28.7063 243.07L28.7029 243.082L28.6998 243.094C28.6302 243.372 28.5773 243.679 28.5559 243.992C27.0749 244.336 25.974 245.661 25.974 247.248V248.462C25.974 249.497 26.4481 250.494 27.243 251.12V252.126H12.3241C12.0409 252.126 11.75 251.875 11.75 251.496V247.8C11.75 244.563 13.7448 241.846 16.5684 240.797C17.9967 241.741 19.6866 242.315 21.5378 242.315C23.3865 242.315 25.0744 241.743 26.5014 240.801C27.4159 241.156 28.2616 241.683 28.9679 242.336C28.8698 242.568 28.7785 242.817 28.7063 243.07Z" stroke="#05004D" stroke-width="1.5"/>
<path d="M27.1327 233.345C27.1327 236.457 24.6038 238.94 21.5379 238.94C18.472 238.94 15.9431 236.457 15.9431 233.345C15.9431 230.232 18.472 227.75 21.5379 227.75C24.6547 227.75 27.1327 230.228 27.1327 233.345Z" stroke="#05004D" stroke-width="1.5"/>
<path d="M45.6584 243.094L45.6553 243.082L45.6519 243.07C45.6483 243.057 45.6447 243.044 45.6411 243.032C45.5818 242.824 45.511 242.575 45.4071 242.32C46.11 241.675 46.9495 241.153 47.8567 240.801C49.2838 241.743 50.9717 242.315 52.8203 242.315C54.6716 242.315 56.3615 241.741 57.7899 240.797C60.6275 241.85 62.6562 244.569 62.6083 247.733L62.6082 247.733V247.745V251.441C62.6082 251.84 62.3524 252.07 62.0341 252.07H47.0601V251.124C47.8458 250.525 48.3842 249.576 48.3842 248.462V247.248C48.3842 245.661 47.2833 244.336 45.8023 243.992C45.7809 243.679 45.7279 243.372 45.6584 243.094Z" stroke="#05004D" stroke-width="1.5"/>
<path d="M58.4704 233.345C58.4704 236.457 55.9415 238.94 52.8757 238.94C49.7589 238.94 47.2809 236.462 47.2809 233.345C47.2809 230.232 49.8098 227.75 52.8757 227.75C55.9415 227.75 58.4704 230.232 58.4704 233.345Z" stroke="#05004D" stroke-width="1.5"/>
<path d="M29.9241 258.228C29.9241 258.614 30.2551 258.945 30.6413 258.945H36.5447V250.559H29.9241V258.228Z" fill="#C7BA9A"/>
<path d="M37.8687 259H43.7721C44.1583 259 44.4893 258.669 44.4893 258.283V250.559H37.8687V259Z" fill="#C7BA9A"/>
<path d="M45.0964 246.531H41.5654C42.0068 246.365 42.393 246.145 42.724 245.758C43.1654 245.207 43.3309 244.434 43.1654 243.772C42.9447 243 42.393 242.393 41.6206 242.117C40.8481 241.896 40.0206 242.062 39.4137 242.559L37.2068 244.434L34.9999 242.559C34.393 242.007 33.5654 241.841 32.793 242.117C32.0206 242.338 31.4137 243 31.2482 243.772C31.0827 244.49 31.1931 245.207 31.6896 245.758C31.9655 246.145 32.4068 246.421 32.8482 246.531H29.3172C28.931 246.531 28.6 246.862 28.6 247.248V248.462C28.6 248.848 28.931 249.179 29.3172 249.179H36.5447V246.641H37.2068H37.8689V249.179H45.0964C45.4826 249.179 45.8136 248.848 45.8136 248.462V247.248C45.8136 246.862 45.4826 246.531 45.0964 246.531ZM33.5103 245.152C33.2344 245.152 33.0137 245.041 32.8482 244.821C32.6827 244.6 32.6275 244.324 32.6827 244.103C32.7379 243.827 32.9586 243.607 33.2344 243.496C33.3448 243.441 33.3999 243.441 33.5103 243.441C33.731 243.441 33.8965 243.496 34.062 243.662L35.8275 245.152H33.5103ZM40.9033 245.152H38.5861L40.3516 243.662C40.5723 243.441 40.9033 243.386 41.1792 243.496C41.455 243.607 41.6757 243.827 41.7309 244.103C41.7861 244.379 41.7309 244.655 41.5654 244.821C41.3999 245.041 41.1792 245.152 40.9033 245.152Z" fill="#C7BA9A"/>
<circle cx="36.5" cy="241.5" r="34.5" stroke="#05004D" stroke-opacity="0.5" stroke-width="2" stroke-dasharray="4 4"/>
<path d="M36 178V201" stroke="#C7BA9A" stroke-width="2" stroke-dasharray="2 2"/>
<circle cx="36.5" cy="138.5" r="34.5" stroke="#05004D" stroke-opacity="0.5" stroke-width="2" stroke-dasharray="4 4"/>
<rect x="25.5" y="121.5" width="35" height="19" rx="4.5" stroke="black"/>
<path d="M32.759 127.146V135H34.376V129.742H34.398L37.665 135H39.392V127.146H37.775V132.415H37.753L34.475 127.146H32.759ZM40.9123 127.146V135H42.6393V131.755H45.9283V130.413H42.6393V128.598H46.4343V127.146H40.9123ZM49.1708 128.598V135H50.8978V128.598H53.2518V127.146H46.8168V128.598H49.1708Z" fill="black"/>
<path d="M16 135C16.206 135.289 16.5036 135.801 16.5036 136.706V154.92C16.5036 154.92 16.5137 155.37 16.7304 155.803C16.9471 156.237 17.2647 156.63 18.2134 156.63C18.2134 156.63 18.6626 156.62 19.0961 156.403C19.5295 156.187 19.9198 155.869 19.9198 154.92C19.9194 154.628 20.141 154.383 20.4323 154.353C20.4519 154.352 20.4717 154.352 20.4912 154.353H30.1674V136.706C30.1674 135.758 29.7771 135.44 29.3437 135.223C28.9102 135.007 28.4576 135 28.4576 135H16ZM18.7259 140.123C18.744 140.122 18.7622 140.122 18.7803 140.123H27.8896C27.9654 140.121 28.0408 140.134 28.1113 140.162C28.1818 140.19 28.2461 140.232 28.3003 140.285C28.3545 140.338 28.3976 140.401 28.427 140.471C28.4564 140.541 28.4715 140.616 28.4715 140.692C28.4715 140.768 28.4564 140.843 28.427 140.913C28.3976 140.983 28.3545 141.046 28.3003 141.099C28.2461 141.152 28.1818 141.194 28.1113 141.221C28.0408 141.249 27.9654 141.263 27.8896 141.261H18.7803C18.7046 141.266 18.6286 141.257 18.5567 141.232C18.4848 141.208 18.4185 141.169 18.3618 141.119C18.305 141.068 18.2589 141.007 18.2261 140.938C18.1934 140.87 18.1746 140.796 18.171 140.72C18.1674 140.644 18.1789 140.568 18.205 140.497C18.2311 140.425 18.2711 140.36 18.3228 140.304C18.3745 140.249 18.4368 140.204 18.506 140.173C18.5752 140.142 18.65 140.125 18.7259 140.123ZM18.7803 142.966H27.8896C28.0407 142.966 28.1856 143.026 28.2924 143.133C28.3993 143.24 28.4593 143.385 28.4593 143.536C28.4593 143.687 28.3993 143.832 28.2924 143.939C28.1856 144.046 28.0407 144.106 27.8896 144.106H18.7803C18.6292 144.106 18.4843 144.046 18.3775 143.939C18.2706 143.832 18.2106 143.687 18.2106 143.536C18.2106 143.385 18.2706 143.24 18.3775 143.133C18.4843 143.026 18.6292 142.966 18.7803 142.966ZM18.7259 145.816C18.744 145.815 18.7622 145.815 18.7803 145.816H27.8896C27.9654 145.814 28.0408 145.827 28.1113 145.855C28.1818 145.883 28.2461 145.925 28.3003 145.978C28.3545 146.031 28.3976 146.094 28.427 146.164C28.4564 146.234 28.4715 146.309 28.4715 146.385C28.4715 146.461 28.4564 146.536 28.427 146.606C28.3976 146.676 28.3545 146.739 28.3003 146.792C28.2461 146.845 28.1818 146.887 28.1113 146.914C28.0408 146.942 27.9654 146.956 27.8896 146.954H18.7803C18.6314 146.958 18.487 146.903 18.3779 146.802C18.2687 146.7 18.2037 146.56 18.1965 146.411C18.1894 146.263 18.2408 146.117 18.3398 146.006C18.4387 145.894 18.5773 145.826 18.7259 145.816Z" fill="#C7BA9A"/>
<path d="M21.0183 155.491L31.1592 155.492C31.1259 155.628 31.1555 155.65 31.0791 155.803C30.8624 156.237 30.5448 156.63 29.5961 156.63H20.5525C20.8302 156.251 20.9613 155.836 21.0183 155.491V155.491Z" fill="#C7BA9A"/>
<path d="M34.1563 135.568C33.8398 135.566 33.5825 135.823 33.5837 136.14V137.846H37V136.14C37.0012 135.825 36.7474 135.57 36.433 135.568H34.1563Z" fill="#C7BA9A"/>
<path d="M33.5826 138.985L33.5792 151.504C33.5796 151.617 33.6132 151.726 33.6759 151.82L34.8143 153.53C35.0394 153.87 35.5386 153.87 35.7637 153.53L36.8987 151.82C36.9615 151.726 36.9951 151.617 36.9955 151.504L36.9988 138.985H33.5826Z" fill="#C7BA9A"/>
<path d="M18.7263 148.66C18.5753 148.667 18.4333 148.734 18.3317 148.846C18.23 148.958 18.177 149.105 18.1842 149.256C18.1915 149.407 18.2584 149.549 18.3703 149.651C18.4822 149.753 18.6299 149.806 18.7809 149.798H27.8901C28.0411 149.798 28.1859 149.738 28.2927 149.632C28.3995 149.525 28.4595 149.38 28.4595 149.229C28.4595 149.078 28.3995 148.933 28.2927 148.826C28.1859 148.72 28.0411 148.66 27.8901 148.66H18.7809C18.7627 148.659 18.7445 148.659 18.7263 148.66Z" fill="#C7BA9A"/>
<path d="M36 76V99" stroke="#C7BA9A" stroke-width="2" stroke-dasharray="2 2"/>
<circle opacity="0.5" cx="35.5" cy="35.5" r="34.5" stroke="#05004D" stroke-width="2" stroke-dasharray="4 4"/>
<path d="M28.0292 16C28.0292 16.9765 28.0292 17.9531 28.0292 18.9296C27.0527 18.9296 26.0761 18.9296 25.0996 18.9296C25.0996 26.1531 25.0996 33.5671 25.0996 39.7625C26.0761 39.7625 27.0527 39.7625 28.0292 39.7625C28.0292 40.739 28.0292 41.7155 28.0292 42.6921C35.3713 42.6921 42.4876 42.6921 48.8621 42.6921C48.8621 41.7155 48.8621 40.739 48.8621 39.7625C49.8386 39.7625 50.8152 39.7625 51.7917 39.7625C51.7917 32.4204 51.7917 25.3041 51.7917 18.9296C50.8152 18.9296 49.8386 18.9296 48.8621 18.9296C48.8621 17.9531 48.8621 16.9765 48.8621 16C41.6386 16 34.2245 16 28.0292 16ZM29.3313 17.3021H47.56V18.9296H29.3313V17.3021ZM26.4017 20.2317C34.7128 20.2317 43.3418 20.2317 50.4896 20.2317V38.4604C41.8291 38.4604 34.0638 38.4604 26.4017 38.4604V20.2317ZM38.4457 22.1848C36.4758 22.1848 34.865 23.8057 34.865 25.7756C34.865 27.7454 36.4758 29.3562 38.4457 29.3562C40.4155 29.3562 42.0263 27.7454 42.0263 25.7756C42.0263 23.8057 40.4155 22.1848 38.4457 22.1848ZM38.4457 23.497C39.7119 23.497 40.7242 24.5094 40.7242 25.7756C40.7242 27.0418 39.7119 28.044 38.4457 28.044C37.1794 28.044 36.1671 27.0418 36.1671 25.7756C36.1671 24.5094 37.1794 23.497 38.4457 23.497ZM38.4457 29.9055C36.5523 29.9055 34.8315 30.5122 33.5426 31.5433C32.2538 32.5744 31.3657 34.0942 31.3657 35.8563H32.505C32.505 34.7419 33.0754 33.6585 34.1428 32.8046C35.2102 31.9507 36.7434 31.3907 38.4457 31.3907C40.1479 31.3907 41.6811 31.9507 42.7485 32.8046C43.8159 33.6585 44.3863 34.7419 44.3863 35.8563H45.5256C45.5256 34.0942 44.6375 32.5744 43.3487 31.5433C42.0598 30.5122 40.339 29.9055 38.4457 29.9055ZM29.3313 39.7625H47.56V41.39H29.3313V39.7625Z" fill="#05004D"/>
<path d="M36.5568 45.5178C36.5568 42.5697 34.893 39.964 32.3514 38.4036C32.775 39.4701 33.0083 40.6154 33.0083 41.8092C33.0083 47.3994 27.9588 51.9442 21.7521 51.9442C21.218 51.9442 20.69 51.9109 20.1682 51.8473C21.9087 53.2835 24.2416 54.1652 26.8077 54.1652C28.1491 54.1652 29.4292 53.9228 30.5925 53.4895L34.2484 55.0226C34.5185 55.1347 34.8132 54.9136 34.7733 54.6257L34.2822 51.0686C35.7034 49.5658 36.5568 47.6327 36.5568 45.5178Z" fill="#C7BA9A"/>
<path d="M31.498 41.8124C31.498 37.0373 27.1331 33.165 21.749 33.165C16.365 33.165 12 37.0373 12 41.8124C12 43.9243 12.8564 45.8604 14.2746 47.3602L13.7834 50.9173C13.7435 51.2051 14.0382 51.4263 14.3083 51.3142L17.9642 49.7811C19.1307 50.2144 20.4076 50.4568 21.749 50.4568C27.1331 50.4598 31.498 46.5876 31.498 41.8124ZM25.6198 41.0186C26.3135 41.0186 26.8752 41.573 26.8752 42.2578C26.8752 42.9395 26.3135 43.497 25.6198 43.497C24.9291 43.497 24.3643 42.9426 24.3643 42.2578C24.3674 41.57 24.9291 41.0186 25.6198 41.0186ZM17.8783 43.494C17.1845 43.494 16.6228 42.9395 16.6228 42.2548C16.6228 41.57 17.1845 41.0155 17.8783 41.0155C18.572 41.0155 19.1337 41.57 19.1337 42.2548C19.1307 42.9395 18.572 43.494 17.8783 43.494ZM20.4966 42.2548C20.4966 41.57 21.0584 41.0155 21.7521 41.0155C22.4427 41.0155 23.0076 41.57 23.0076 42.2548C23.0076 42.9365 22.4458 43.494 21.7521 43.494C21.0553 43.494 20.4966 42.9395 20.4966 42.2548Z" fill="#C7BA9A"/>
</svg>
