<svg width="42" height="41" viewBox="0 0 42 41" fill="none" xmlns="http://www.w3.org/2000/svg">
  <path
    d="M41.0467 33.7191L37.7153 30.4818C37.0518 29.8444 36.2016 29.4219 35.2813 29.2725C34.361 29.123 33.4157 29.2538 32.5749 29.6469L29.3489 26.395C32.0698 23.2049 33.4215 19.119 33.1232 14.9859C32.8249 10.8527 30.8997 6.99008 27.7473 4.20022C24.5949 1.41036 20.4577 -0.0922879 16.195 0.00439191C11.9323 0.101072 7.87174 1.78965 4.85673 4.71939C1.84173 7.64913 0.104013 11.5949 0.00451972 15.737C-0.0949738 19.8792 1.4514 23.8994 4.32246 26.9626C7.19351 30.0258 11.1686 31.8967 15.422 32.1865C19.6754 32.4763 23.8802 31.1629 27.1632 28.519L30.4494 31.7123C30.1578 32.2971 30.0034 32.9374 29.9971 33.5872C30.0221 34.7434 30.515 35.8433 31.3689 36.6487L34.7004 39.8859C35.5704 40.5438 36.6578 40.8702 37.7581 40.8038C38.8584 40.7374 39.8959 40.2826 40.6754 39.5251C41.455 38.7677 41.9229 37.7595 41.9913 36.6904C42.0597 35.6212 41.7238 34.5645 41.0467 33.7191ZM3.04401 16.1413C3.04401 13.5339 3.8397 10.985 5.33046 8.817C6.82123 6.64901 8.94011 4.95927 11.4192 3.96145C13.8982 2.96363 16.6261 2.70256 19.2578 3.21124C21.8896 3.71992 24.307 4.97552 26.2044 6.81924C28.1017 8.66296 29.3939 11.012 29.9174 13.5693C30.4408 16.1266 30.1722 18.7774 29.1453 21.1863C28.1185 23.5953 26.3795 25.6542 24.1485 27.1028C21.9174 28.5514 19.2943 29.3246 16.611 29.3246C13.0128 29.3246 9.56201 27.9357 7.0177 25.4633C4.47339 22.9909 3.04401 19.6377 3.04401 16.1413ZM38.9062 37.8059C38.6237 38.0787 38.2417 38.2319 37.8434 38.2319C37.4452 38.2319 37.0631 38.0787 36.7807 37.8059L33.5095 34.6273C33.2287 34.3528 33.0711 33.9815 33.0711 33.5946C33.0711 33.2076 33.2287 32.8363 33.5095 32.5619C33.7919 32.289 34.174 32.1359 34.5723 32.1359C34.9705 32.1359 35.3526 32.289 35.635 32.5619L38.9062 35.7405C39.1869 36.015 39.3445 36.3862 39.3445 36.7732C39.3445 37.1602 39.1869 37.5315 38.9062 37.8059Z"
    fill="#05004D" />
</svg>