<svg width="23" height="19" viewBox="0 0 23 19" fill="none" xmlns="http://www.w3.org/2000/svg">
<path d="M13.8851 0.0389709H9.11478C8.64042 0.0389709 8.25586 0.416116 8.25586 0.881335V18.1186C8.25586 18.5839 8.64042 18.961 9.11478 18.961H13.8851C14.3595 18.961 14.7441 18.5839 14.7441 18.1186V0.881335C14.7441 0.416116 14.3595 0.0389709 13.8851 0.0389709ZM13.0262 17.2763H9.97371V1.7237H13.0262V17.2763Z" fill="#C7BA9A"/>
<path d="M22.141 8.63989H17.3706C16.8963 8.63989 16.5117 9.01704 16.5117 9.48226V18.1186C16.5117 18.5839 16.8963 18.961 17.3706 18.961H22.141C22.6153 18.961 22.9999 18.5839 22.9999 18.1186V9.48226C22.9999 9.01704 22.6153 8.63989 22.141 8.63989ZM21.2821 17.2763H18.2296V10.3246H21.2821V17.2763Z" fill="#C7BA9A"/>
<path d="M5.62927 5.68881H0.858921C0.384558 5.68881 0 6.06596 0 6.53118V18.1186C0 18.5839 0.384558 18.961 0.858921 18.961H5.62927C6.10364 18.961 6.48819 18.5839 6.48819 18.1186V6.53118C6.48819 6.06591 6.10364 5.68881 5.62927 5.68881ZM4.77035 17.2763H1.71784V7.37354H4.77035V17.2763Z" fill="#C7BA9A"/>
</svg>
