<svg width="21" height="19" viewBox="0 0 21 19" fill="none" xmlns="http://www.w3.org/2000/svg">
<path d="M20.3596 0H0.618297C0.287066 0 0 0.264984 0 0.618297V14.4196C0 14.7508 0.264984 15.0379 0.618297 15.0379H9.56151V17.0694H6.91167C6.73502 17.0694 6.60252 17.2019 6.60252 17.3785V18.6372C6.60252 18.8139 6.73502 18.9464 6.91167 18.9464H14.0442C14.2208 18.9464 14.3533 18.8139 14.3533 18.6372V17.3785C14.3533 17.2019 14.2208 17.0694 14.0442 17.0694H11.4385V15.0379H20.3817C20.7129 15.0379 21 14.7729 21 14.4196V0.596214C20.9779 0.264984 20.7129 0 20.3596 0ZM19.1009 13.1388H1.87697V1.87697H19.1009V13.1388Z" fill="#C7BA9A"/>
<path d="M4.52685 11.306C4.57102 11.3281 4.61518 11.3502 4.68143 11.3502C4.72559 11.3502 4.76975 11.3722 4.81392 11.3722C5.01266 11.3722 5.21139 11.306 5.36597 11.1735L8.83285 7.99368L10.4007 9.71608C10.6877 10.0252 11.1956 10.0473 11.5048 9.76025L15.1704 6.35961L15.7004 6.93375C15.8108 7.06624 16.0095 7.1104 16.1641 7.06624C16.3186 7.02208 16.4511 6.8675 16.4732 6.71293L16.9149 4.1735C16.9369 4.041 16.8928 3.88643 16.8045 3.77602C16.7161 3.66561 16.5616 3.62144 16.4291 3.62144L13.8675 3.84226C13.6909 3.86435 13.5363 3.97476 13.4922 4.12933C13.4259 4.28391 13.4701 4.48264 13.5805 4.61514L14.1104 5.18927L11.019 8.03785L9.45114 6.31545C9.31865 6.18296 9.14199 6.09463 8.96534 6.07255C8.74452 6.05047 8.5237 6.11671 8.34704 6.27129L4.28395 10.0031C3.9748 10.2902 3.95272 10.7981 4.23979 11.1072C4.32811 11.1956 4.41644 11.2618 4.52685 11.306Z" fill="#C7BA9A"/>
</svg>
