<svg width="75" height="97" viewBox="0 0 75 97" fill="none" xmlns="http://www.w3.org/2000/svg">
<g opacity="0.5">
<path d="M56.0694 17.6786C55.1109 16.995 54.056 16.5061 52.9514 16.2336C51.7859 15.8809 50.6204 15.5168 49.4549 15.2096C47.9857 14.836 46.499 14.5587 45.002 14.379C44.8866 11.5926 44.403 8.84216 43.5676 6.22095C42.7009 3.52437 41.1369 -0.389655 38.0887 0.0313296C37.4768 0.103505 36.8993 0.389594 36.4351 0.850545C36.3578 0.86438 36.2848 0.899621 36.2223 0.953177C36.1597 1.00673 36.1097 1.07698 36.0764 1.15776C36.0764 1.2374 36.0266 1.31704 35.9967 1.38531C35.3117 2.51417 34.8712 3.81279 34.7117 5.17418C34.2335 6.8695 33.845 8.58757 33.5163 10.3284C33.2374 11.762 32.9983 13.207 32.809 14.6634C28.4731 15.2881 24.2187 16.5067 20.1378 18.293C19.4505 18.6002 18.7631 18.9301 18.0857 19.2715C17.6275 19.5104 17.7968 20.1248 18.1654 20.3183C18.0624 20.5016 18.0077 20.7148 18.0077 20.9327C18.0077 21.1505 18.0624 21.3637 18.1654 21.5471C18.4671 22.0334 18.8714 22.4247 19.3409 22.6849C20.0797 23.1429 20.8532 23.5237 21.652 23.8227C23.3176 24.5043 25.0134 25.0854 26.7324 25.5635C28.5078 26.0529 30.3125 26.3914 32.1316 26.5761C32.1921 28.6736 32.4188 30.7605 32.809 32.8113C33.1015 34.3556 33.5494 35.8561 34.1439 37.2828C34.732 38.7858 35.5987 40.1251 36.6841 41.2082C40.9277 45.0085 42.6611 33.8922 43.1691 31.207C43.468 29.5572 43.7668 27.9074 44.0358 26.2462C45.5599 26.0528 47.084 25.8138 48.5982 25.5635C50.9798 25.3546 53.3053 24.6326 55.4518 23.4358C55.9321 23.1545 56.348 22.7487 56.6663 22.2508C56.9846 21.7529 57.1964 21.1768 57.2847 20.5686C57.3394 20.0052 57.2545 19.4356 57.0396 18.9247C56.8248 18.4137 56.4886 17.982 56.0694 17.6786Z" fill="#ECBF67"/>
<path d="M71.6338 66.22C70.2911 65.5571 68.8547 65.1781 67.3941 65.1013C67.3323 62.3774 67.0939 59.6627 66.681 56.9793C66.3391 54.8425 66.1047 52.6721 65.6064 50.5689C65.1082 48.4657 64.3756 46.094 62.6758 44.9753C62.2308 44.6323 61.6958 44.4761 61.1617 44.5332C60.6276 44.5903 60.1271 44.8571 59.7452 45.2885C59.5228 45.5461 59.3263 45.8313 59.1591 46.1387C59.0642 46.1253 58.968 46.1461 58.884 46.1982C58.7999 46.2504 58.7322 46.3313 58.6902 46.4296C56.7401 50.8273 55.496 55.5905 55.0171 60.4921C54.8022 62.2149 54.6361 63.9378 54.5287 65.6718C53.5518 65.8844 52.4968 66.1305 51.5003 66.4438C50.078 66.8139 48.7205 67.4569 47.4854 68.3456C47.1085 68.6023 46.7831 68.9473 46.5306 69.3579C46.2781 69.7686 46.1041 70.2356 46.0201 70.7285C45.8247 72.7086 47.671 74.0847 48.9507 74.8902C50.6958 75.8272 52.558 76.4463 54.47 76.7249C54.47 76.9486 54.47 77.1724 54.5189 77.385C54.7467 82.3516 55.684 87.2419 57.2932 91.8614C57.8501 93.3269 58.6706 95.4413 60.1457 95.9671C60.6666 96.0734 61.2036 95.9876 61.6793 95.7223C62.155 95.4569 62.545 95.0256 62.7931 94.4904C63.6203 93.0637 64.2466 91.497 64.6491 89.8476C65.1571 88.0333 65.5778 86.1883 65.9093 84.3211C66.3902 81.6407 66.7489 78.9334 66.9838 76.2103C68.5995 75.7688 70.1783 75.1661 71.7022 74.4091C73.0112 73.7155 74.7696 72.6191 74.9747 70.7844C75.258 68.6588 73.0991 66.9807 71.6338 66.22Z" fill="#ECBF67"/>
<path d="M33.0613 54.6287C31.5651 54.4367 30.0541 54.4367 28.5579 54.6287C27.853 54.6945 27.1677 54.7604 26.4726 54.8811C25.9704 55.0216 25.4496 55.0588 24.9355 54.9908C24.074 54.7384 23.9565 53.2131 23.8978 52.3791C23.6876 50.0146 23.2778 47.6778 22.674 45.4001C22.4278 44.3516 21.9099 43.4085 21.1859 42.6896C20.8308 42.4203 20.4091 42.2828 19.9804 42.2965C19.5518 42.3103 19.1379 42.4747 18.7971 42.7665C17.6538 43.7312 16.789 45.0516 16.3104 46.5632C15.7262 48.3145 15.2711 50.1165 14.9496 51.9512C14.7244 53.0485 14.5188 54.1459 14.2055 55.2432C13.9146 55.3468 13.6166 55.4238 13.3146 55.4736C12.7834 55.5798 12.2474 55.6531 11.709 55.6931C9.1538 55.9345 6.57898 55.8467 4.02375 56.143C3.11071 56.1967 2.2277 56.5266 1.46852 57.0977C1.05193 57.3653 0.700231 57.7433 0.444214 58.1986C0.188196 58.6539 0.035667 59.1727 0 59.7094C0.0990345 60.743 0.538983 61.6979 1.23357 62.3869C2.04122 63.2953 2.93029 64.108 3.88669 64.812C4.80696 65.5033 5.74683 66.1398 6.6671 66.8311C7.00727 67.0841 7.33415 67.3589 7.64612 67.6541C7.77272 67.7631 7.89065 67.8843 7.99856 68.0162C8.04934 68.0695 8.09525 68.1283 8.13563 68.1918C8.08668 68.115 8.13563 68.1918 8.13563 68.2467C8.13563 68.3015 8.13563 68.521 8.13563 68.4552C8.15544 68.6594 8.15544 68.8654 8.13563 69.0697C8.08011 69.4844 8.00163 69.8949 7.90066 70.2987C7.58737 71.396 7.19577 72.4165 6.83353 73.4809C6.45012 74.4721 6.14863 75.5006 5.93284 76.5535C5.81207 76.9626 5.77487 77.3969 5.82402 77.8242C5.87316 78.2516 6.00738 78.6611 6.21675 79.0225C6.52852 79.3189 6.9051 79.5168 7.30774 79.5958C7.71039 79.6749 8.12456 79.6323 8.50764 79.4724C9.80174 79.058 11.0281 78.4133 12.1398 77.563C14.2447 76.1146 16.9076 73.9638 19.2377 76.0926C20.8263 77.7478 22.5105 79.2838 24.2796 80.6905C25.0402 81.3348 25.9521 81.7162 26.9033 81.7878C27.3568 81.7477 27.7835 81.5319 28.1105 81.1775C28.4374 80.823 28.644 80.3521 28.6949 79.8455C28.8699 78.3813 28.8035 76.8935 28.4991 75.4562C28.2446 73.7882 27.9411 72.1641 27.6866 70.4633C27.4044 69.2128 27.2987 67.9206 27.3733 66.6336C27.3733 66.6336 27.3733 66.4909 27.3733 66.436C27.4205 66.3722 27.4729 66.3134 27.5299 66.2605C27.7687 66.019 28.0241 65.7989 28.2935 65.6021C30.046 64.2523 31.9257 63.1331 33.5998 61.6626C34.8529 60.5653 36.6152 58.7217 35.7732 56.7465C35.5081 56.1737 35.1227 55.6817 34.6503 55.3127C34.1779 54.9438 33.6326 54.7091 33.0613 54.6287Z" fill="#ECBF67"/>
</g>
</svg>
