<svg width="34" height="35" viewBox="0 0 34 35" fill="none" xmlns="http://www.w3.org/2000/svg">
<g clip-path="url(#clip0)">
<path d="M30.8659 18.0491C29.2992 16.4673 27.2376 15.4829 25.0325 15.2636C22.8273 15.0443 20.6151 15.6037 18.7727 16.8464C16.9303 18.0891 15.5717 19.9383 14.9285 22.0788C14.2852 24.2194 14.397 26.5189 15.2449 28.5855C16.0928 30.6522 17.6243 32.3581 19.5784 33.4126C21.5325 34.4671 23.7884 34.805 25.9616 34.3687C28.1349 33.9324 30.091 32.7488 31.4967 31.0197C32.9025 29.2906 33.6709 27.123 33.6709 24.8861C33.6744 23.6158 33.4283 22.3575 32.9468 21.1839C32.4653 20.0104 31.7581 18.9449 30.8659 18.0491ZM24.0935 33.8483C19.1975 33.8483 15.2158 29.8276 15.2158 24.8857C15.2158 19.9439 19.1982 15.9231 24.0935 15.9231C28.9887 15.9231 32.9715 19.9435 32.9715 24.8861C32.9715 29.8286 28.989 33.8483 24.0935 33.8483Z" fill="#C7BA9A"/>
<path d="M16.6136 2.87911C16.4809 2.74519 16.3453 2.61574 16.2068 2.49076L16.1163 2.41027C14.2128 0.73956 11.7411 -0.119758 9.2222 0.0134669C6.70333 0.146692 4.3341 1.26205 2.61397 3.12442C0.893834 4.98678 -0.0428041 7.45065 0.00150323 9.9966C0.0458105 12.5426 1.0676 14.9717 2.85147 16.7719C4.67639 18.6143 7.15153 19.6493 9.73239 19.6493C12.3133 19.6494 14.7884 18.6144 16.6134 16.7721C18.4383 14.9298 19.4636 12.4311 19.4637 9.82563C19.4637 7.22019 18.4385 4.72145 16.6136 2.87911ZM9.73269 18.9424C4.75249 18.9424 0.700766 14.8521 0.700766 9.82445C0.700766 4.79682 4.75249 0.707916 9.73269 0.707916C14.7129 0.707916 18.7643 4.79823 18.7643 9.82551C18.7643 14.8528 14.7125 18.9434 9.73269 18.9434V18.9424Z" fill="#C7BA9A"/>
<path d="M9.73257 1.66968C5.27763 1.66968 1.6543 5.32822 1.6543 9.82488C1.6543 14.3215 5.27868 17.9801 9.73257 17.9801C14.1865 17.9801 17.8108 14.3215 17.8108 9.82488C17.8108 5.32822 14.1872 1.66968 9.73257 1.66968ZM12.2449 13.8425C11.7805 14.2854 11.1476 14.5469 10.3463 14.6269V15.8894H9.31012V14.6333C8.4967 14.5525 7.82467 14.2709 7.29405 13.7885C6.76342 13.306 6.50697 12.5971 6.52469 11.6617L6.53763 11.63H8.39738C8.39738 12.1998 8.53109 12.6079 8.7985 12.8543C9.06591 13.1007 9.40629 13.2239 9.81965 13.2239C10.216 13.2239 10.5191 13.1209 10.7289 12.9147C10.9387 12.7085 11.0442 12.4311 11.0454 12.0826C11.0454 11.7385 10.9442 11.4579 10.7418 11.2409C10.5395 11.0239 10.1926 10.8221 9.70109 10.6355C8.73566 10.2909 8.01911 9.90726 7.55143 9.48455C7.08376 9.06185 6.84992 8.46568 6.84992 7.69606C6.84992 6.98198 7.08376 6.3964 7.55143 5.93933C8.01911 5.48227 8.64859 5.21337 9.43986 5.13264V3.76179H10.4774V5.1457C11.2428 5.25632 11.8442 5.56864 12.2816 6.08267C12.719 6.59669 12.9331 7.26417 12.924 8.08511L12.9044 8.11688H11.0443C11.0443 7.61533 10.9388 7.22852 10.7278 6.95644C10.5168 6.68436 10.2287 6.54833 9.86336 6.54833C9.48917 6.54833 9.2108 6.65353 9.02825 6.86394C8.84571 7.07436 8.75432 7.35384 8.75408 7.70241C8.75408 8.0338 8.85084 8.3027 9.04434 8.50911C9.23785 8.71552 9.5935 8.9184 10.1113 9.11775C11.0725 9.48773 11.7847 9.88372 12.2477 10.3057C12.7107 10.7277 12.9423 11.3161 12.9425 12.0709C12.9428 12.8097 12.7102 13.4002 12.2449 13.8425Z" fill="#C7BA9A"/>
<path d="M24.0935 16.731C19.6389 16.731 16.0153 20.3895 16.0153 24.8862C16.0153 29.3828 19.6396 33.0414 24.0935 33.0414C28.5474 33.0414 32.1718 29.3828 32.1718 24.8862C32.1718 20.3895 28.5485 16.731 24.0935 16.731ZM25.1776 23.2777V23.9838H22.3345C22.3202 24.1928 22.3128 24.4043 22.3128 24.6168C22.3128 24.8293 22.3202 25.0404 22.3345 25.2498H25.179V25.9559H22.4107C22.5254 26.7308 22.7388 27.4429 23.0322 28.0088C23.4168 28.7477 23.8928 29.171 24.3422 29.171C24.8601 29.171 25.4074 28.6143 25.8064 27.6815L27.0905 28.24C26.4537 29.7284 25.4521 30.5817 24.3422 30.5817C23.3403 30.5817 22.4352 29.9004 21.7931 28.6626C21.3966 27.8983 21.1249 26.9656 20.9972 25.9545H19.2532V25.2484H20.9318C20.9195 25.0394 20.9133 24.8284 20.9133 24.6154C20.9133 24.4024 20.9195 24.1914 20.9318 23.9824H19.2532V23.2763H20.9972C21.1249 22.2652 21.3966 21.3325 21.7931 20.5681C22.4352 19.3304 23.3403 18.6487 24.3422 18.6487C25.5238 18.6487 26.5632 19.5948 27.1933 21.2449L25.8865 21.7533C25.4878 20.7097 24.8954 20.0612 24.3404 20.0612C23.891 20.0612 23.4137 20.4848 23.0304 21.2234C22.737 21.7882 22.5237 22.5017 22.409 23.2767L25.1776 23.2777Z" fill="#C7BA9A"/>
<path d="M34 15.1473L31.616 18L29.0362 15.205L29.4297 14.7145L29.4942 14.6341L31.2624 16.5498C31.0435 7.81169 24.8605 0.78168 17.289 0.78168C16.9828 0.78168 16.6746 0.793388 16.3687 0.816022C16.2915 0.822266 16.2146 0.828511 16.138 0.836316C16.1115 0.838267 16.085 0.840999 16.0584 0.84373L16.051 0.747338L16.0292 0.455039L16 0.0647866C16.4258 0.0218589 16.8593 4.60226e-06 17.289 4.60226e-06C21.0968 -0.00324818 24.7558 1.71787 27.4898 4.79819C30.2237 7.8785 31.8175 12.0756 31.933 16.4991L33.5185 14.6048L34 15.1473Z" fill="#C7BA9A"/>
<path d="M17.4057 31.8379V32.5439C13.7216 32.5438 10.162 31.1983 7.3838 28.7559C4.60557 26.3135 2.79628 22.939 2.28985 19.2552L1.0309 21.2163L0.444092 20.8326L2.38253 17.8137L5.11375 20.0414L4.67417 20.5907L3.79989 19.8776L2.99032 19.2174C3.98104 26.3135 9.89356 31.6412 17.0094 31.8322C17.1409 31.8362 17.273 31.8381 17.4057 31.8379Z" fill="#C7BA9A"/>
</g>
<defs>
<clipPath id="clip0">
<rect width="34" height="34.5545" fill="white"/>
</clipPath>
</defs>
</svg>
