<svg width="29" height="40" viewBox="0 0 29 40" fill="none" xmlns="http://www.w3.org/2000/svg">
<g clip-path="url(#clip0)">
<path d="M17.2498 28.144C17.841 28.144 18.4323 28.0205 18.9781 27.8146V39.467C18.9781 39.8376 18.5233 40.0023 18.2049 39.7964L14.6117 37.1612C14.5207 37.0789 14.3388 37.0789 14.2023 37.1612L10.7001 39.7552C10.3817 40.0023 9.92685 39.7964 9.92685 39.4258V27.8558C10.4727 28.0205 11.0185 28.144 11.6098 28.144C12.6104 28.144 13.5201 27.8558 14.3388 27.3617L14.3843 27.3205L14.4752 27.3617C15.2939 27.8558 16.2491 28.144 17.2498 28.144ZM0.648145 14.0624C-0.216048 13.3624 -0.216048 12.1683 0.648145 11.5096L1.19395 11.0566C1.78524 10.5625 2.01266 9.78022 1.69427 9.12143L1.42137 8.50381C0.966532 7.5568 1.55782 6.48626 2.64944 6.19804L3.37718 6.03335C4.1504 5.82747 4.69621 5.20986 4.74169 4.46871L4.78718 3.80992C4.83266 2.78056 5.87879 2.03942 7.01589 2.20412L7.74363 2.32764C8.51685 2.45117 9.33556 2.12177 9.74492 1.46298L10.1088 0.886535C10.6546 -0.0193029 11.9281 -0.26635 12.8833 0.310093L13.4746 0.721838C14.1114 1.13358 15.021 1.13358 15.6578 0.721838L16.2491 0.351267C17.1588 -0.225175 18.4778 0.0218715 18.9781 0.92771L19.342 1.50415C19.7059 2.16294 20.5246 2.49234 21.2978 2.36882L22.0256 2.24529C23.1627 2.0806 24.1633 2.82174 24.2088 3.8511L24.2543 4.50989C24.2998 5.25103 24.8456 5.86865 25.6188 6.07452L26.3465 6.23922C27.4381 6.52744 27.9839 7.59797 27.5746 8.54499L27.3017 9.1626C26.9833 9.8214 27.1652 10.6037 27.802 11.0978L28.3478 11.5507C29.212 12.2507 29.212 13.4447 28.3478 14.1035L27.802 14.5565C27.2107 15.0506 26.9833 15.8329 27.3017 16.4917L27.5746 17.1093C28.0294 18.0563 27.4381 19.1268 26.3465 19.415L25.6188 19.5797C24.8456 19.7856 24.2998 20.4032 24.2543 21.1444L24.2088 21.8032C24.1633 22.8325 23.1172 23.5737 21.9801 23.409L21.2523 23.2854C20.4791 23.1619 19.6604 23.4913 19.251 24.1501L18.8872 24.7266C18.3414 25.6324 17.0678 25.8794 16.1127 25.303L15.5214 24.8913C14.8846 24.4795 13.9749 24.4795 13.3381 24.8913L12.7469 25.303C11.8372 25.8794 10.5181 25.6324 10.0178 24.7266L9.65395 24.1501C9.29008 23.4913 8.47137 23.1619 7.69814 23.2854L6.9704 23.409C5.83331 23.5737 4.83266 22.8325 4.78718 21.8032L4.74169 21.1444C4.69621 20.4032 4.1504 19.7856 3.37718 19.5797L2.64944 19.415C1.55782 19.1268 1.01202 18.0563 1.42137 17.1093L1.69427 16.4917C2.01266 15.8329 1.83073 15.0506 1.19395 14.5565L0.648145 14.0624ZM5.24202 12.786C5.24202 17.3975 9.38105 21.1444 14.4752 21.1444C19.5694 21.1444 23.7085 17.3975 23.7085 12.786C23.7085 8.17442 19.5694 4.42754 14.4752 4.42754C9.38105 4.46872 5.24202 8.17442 5.24202 12.786ZM9.69943 17.3563H11.2004C11.3823 17.3563 11.6098 17.3151 11.7462 17.1916C11.7917 17.1505 11.9736 16.9858 11.9736 16.4917V14.2271C11.9736 14.2271 11.9736 16.9858 13.702 17.1916C14.2933 17.2328 15.0665 17.274 15.8398 17.2328C16.522 17.274 17.2498 17.274 17.841 17.1916C19.8423 16.8211 19.342 15.5446 19.342 15.5446C20.4336 14.8035 19.7969 13.8977 19.7969 13.8977C20.752 12.9918 19.7969 12.2507 19.7969 12.2507C19.7969 12.2507 20.2972 11.5096 19.6604 10.9743C18.8417 10.2743 16.5675 10.7272 16.5675 10.7272C16.431 10.7684 16.2491 10.7684 16.0672 10.8096C16.0672 10.8096 15.294 11.139 16.0672 8.99791C16.8404 6.85683 15.5669 6.52744 15.021 6.52744C14.4752 6.52744 14.6572 7.59798 14.6572 7.59798C14.6572 7.59798 13.4746 10.5214 12.383 11.2625C12.0646 11.5507 11.9281 11.8801 11.8372 12.086C11.6552 11.9625 11.4278 11.8801 11.2004 11.8801H9.69943C9.15363 11.8801 8.69879 12.2919 8.69879 12.786V16.4093C8.69879 16.9446 9.15363 17.3563 9.69943 17.3563Z" fill="#C7BA9A"/>
</g>
<defs>
<clipPath id="clip0">
<rect width="28.996" height="39.8861" fill="white"/>
</clipPath>
</defs>
</svg>
