<svg width="34" height="32" viewBox="0 0 34 32" fill="none" xmlns="http://www.w3.org/2000/svg">
<g clip-path="url(#clip0)">
<path d="M32.3385 22.0504C31.6925 22.016 30.3665 22.7384 29.9925 22.9104C28.7005 23.564 26.8985 24.596 25.7085 25.4216C25.6405 25.4904 25.5045 25.5592 25.4365 25.5936C24.8925 25.9376 24.3485 26.1784 23.7365 26.316C20.3025 27.0728 15.3045 27.1416 15.3045 27.1416H14.9985C14.7605 27.1416 14.5905 27.004 14.5565 26.7976C14.5225 26.5568 14.6925 26.3504 14.9305 26.316L22.3765 25.5936C23.1925 25.4904 23.8385 24.7336 23.7705 23.8392C23.6685 22.9792 22.8865 22.3256 22.0705 22.4288L15.4405 22.36C14.9985 22.36 14.2845 22.2568 13.8425 22.1192C9.59248 20.8464 7.17848 22.0504 5.88648 22.6008C5.61448 22.1192 5.07048 21.8096 4.45848 21.844L1.60248 22.0504C0.650481 22.1192 -0.0635195 22.9104 0.00448054 23.8392L0.480481 30.2376C0.548481 31.1664 1.36448 31.8544 2.31648 31.7856L5.17248 31.5792C5.78448 31.5448 6.26048 31.1664 6.46448 30.6504L19.0105 31.2008C20.4045 31.3384 21.7305 31.1664 22.9545 30.5128L23.3285 30.3064L32.7805 24.768C33.2565 24.4928 33.5625 24.0112 33.5965 23.4952C33.5965 22.8416 33.2565 22.1192 32.3385 22.0504ZM3.33648 30.272C2.79248 30.272 2.35048 29.8592 2.35048 29.3088C2.35048 28.7928 2.79248 28.3456 3.33648 28.3456C3.88048 28.3456 4.32248 28.7584 4.32248 29.3088C4.32248 29.8592 3.88048 30.272 3.33648 30.272ZM25.1645 23.048C26.1505 22.4976 28.1225 21.5344 29.1765 21.1216C29.7205 20.9152 30.2305 20.9152 30.7405 21.2592C30.3665 21.3968 29.9925 21.5688 29.6525 21.7408C28.5305 22.3256 26.5585 23.392 25.5725 24.08C25.4705 24.1488 25.3685 24.2176 25.2665 24.2864C25.2665 24.1144 25.2665 23.9424 25.2665 23.736C25.2325 23.4952 25.1985 23.2888 25.1305 23.0824C25.1645 23.048 25.1645 23.048 25.1645 23.048ZM28.1565 20.468C27.3745 20.812 25.9125 21.328 25.1985 21.7408L24.7225 22.016C24.6885 22.0504 24.6205 22.0848 24.5865 22.1192C24.3825 21.8784 24.1105 21.6376 23.8385 21.4656C24.4845 21.1216 25.9465 20.64 26.6265 20.3648C27.1365 20.124 27.6805 20.124 28.1565 20.468ZM10.1365 4.5064L11.1905 5.5728C10.6125 6.4328 10.2045 7.4304 10.0005 8.4968H8.50448C8.13048 8.4968 7.85848 8.8064 7.85848 9.1504V10.9736C7.85848 11.352 8.16448 11.6272 8.50448 11.6272H10.0005C10.2045 12.6936 10.6125 13.6568 11.1905 14.5512L10.1365 15.6176C9.86448 15.8928 9.86448 16.3056 10.1365 16.5464L11.3945 17.8192C11.6665 18.0944 12.0745 18.0944 12.3125 17.8192L13.3665 16.7528C14.2165 17.3376 15.2025 17.7504 16.2565 17.9568V19.4704C16.2565 19.8488 16.5625 20.124 16.9025 20.124H18.7045C19.0785 20.124 19.3505 19.8144 19.3505 19.4704V17.9568C20.4045 17.7504 21.3565 17.3376 22.2405 16.7528L23.2945 17.8192C23.5665 18.0944 23.9745 18.0944 24.2125 17.8192L25.4705 16.5464C25.7425 16.2712 25.7425 15.8584 25.4705 15.6176L24.4165 14.5512C24.9945 13.6912 25.4025 12.6936 25.6065 11.6272H27.1025C27.4765 11.6272 27.7485 11.3176 27.7485 10.9736V9.1504C27.7485 8.772 27.4425 8.4968 27.1025 8.4968H25.6405C25.4365 7.4304 25.0285 6.4672 24.4505 5.5728L25.5045 4.5064C25.7765 4.2312 25.7765 3.8184 25.5045 3.5776L24.2465 2.3048C23.9745 2.0296 23.5665 2.0296 23.3285 2.3048L22.2405 3.3712C21.3905 2.7864 20.4045 2.3736 19.3505 2.1672V0.6536C19.3505 0.2752 19.0445 0 18.7045 0H16.9025C16.5285 0 16.2565 0.3096 16.2565 0.6536V2.1328C15.2025 2.3392 14.2505 2.752 13.3665 3.3368L12.3125 2.2704C12.0405 1.9952 11.6325 1.9952 11.3945 2.2704L10.1365 3.5432C9.89848 3.8184 9.89848 4.2656 10.1365 4.5064ZM17.8205 4.7816C20.7105 4.7816 23.0565 7.1552 23.0565 10.0792C23.0565 13.0032 20.7105 15.3768 17.8205 15.3768C14.9305 15.3768 12.5845 13.0032 12.5845 10.0792C12.6185 7.1208 14.9305 4.7816 17.8205 4.7816ZM15.6785 11.524L14.4545 10.2512L15.7465 8.944L16.9705 10.2168L19.9285 7.2584L21.2205 8.5656L18.2625 11.524L16.9705 12.8312L15.6785 11.524Z" fill="#C7BA9A"/>
</g>
<defs>
<clipPath id="clip0">
<rect width="33.5965" height="31.7903" fill="white"/>
</clipPath>
</defs>
</svg>
