<svg width="30" height="30" viewBox="0 0 30 30" fill="none" xmlns="http://www.w3.org/2000/svg">
<g clip-path="url(#clip0)">
<path d="M27.8243 14.0945C27.0183 13.9697 26.2743 14.5625 26.1503 15.3425C25.8403 17.7137 24.7553 19.8665 23.0813 21.5513C19.6713 24.9833 14.5563 25.6385 10.4953 23.5481L8.48035 25.8257C10.6193 27.0737 13.0373 27.6977 15.4243 27.6977C18.9583 27.6977 22.4923 26.3561 25.1583 23.6417C27.2973 21.4889 28.6303 18.7745 29.0643 15.7481C29.1883 14.9681 28.6303 14.2193 27.8243 14.0945Z" fill="#C7BA9A"/>
<path d="M27.8244 1.6458C27.0184 1.6458 26.3674 2.301 26.3674 3.1434V5.2338L25.1894 4.0482C19.8264 -1.3494 11.0844 -1.3494 5.69039 4.0482C4.01639 5.733 2.86939 7.761 2.24939 9.8826C2.80739 9.477 3.48939 9.2586 4.20239 9.2586H5.62839C6.15539 8.1354 6.86839 7.0746 7.79839 6.1386C12.0144 1.8954 18.8964 1.8954 23.1124 6.1386L24.2594 7.3242H22.1824C21.3764 7.3242 20.6944 7.9794 20.6944 8.7906C20.6944 9.6018 21.3454 10.2882 22.1824 10.2882H27.8244C28.6304 10.2882 29.3124 9.633 29.3124 8.7906V3.1122C29.3124 2.301 28.6304 1.6458 27.8244 1.6458Z" fill="#C7BA9A"/>
<path d="M15.3935 6.13867C14.5875 6.13867 13.9055 6.79387 13.9055 7.63627V13.8451C13.9055 14.5003 14.3395 15.0931 14.9905 15.2803L19.5165 16.5595C19.6405 16.5907 19.7955 16.6219 19.9195 16.6219C20.5705 16.6219 21.1595 16.1851 21.3455 15.5299C21.5625 14.7499 21.0975 13.9387 20.3225 13.6891L16.8505 12.7219V7.63627C16.8505 6.82507 16.1995 6.13867 15.3935 6.13867Z" fill="#C7BA9A"/>
<path d="M9.47238 18.681H6.99238L10.0924 13.1274C10.4024 12.597 9.99938 11.9106 9.37938 11.9106H4.20238C3.86138 11.9106 3.55138 12.129 3.45838 12.441L0.0483841 21.6138C-0.137616 22.1442 0.234384 22.7058 0.792384 22.7058H2.59038L0.668384 28.7274C0.451384 29.445 1.31938 29.9442 1.81538 29.3826L10.0614 20.0226C10.5264 19.5234 10.1544 18.681 9.47238 18.681Z" fill="#C7BA9A"/>
</g>
<defs>
<clipPath id="clip0">
<rect width="29.3124" height="29.6244" fill="white"/>
</clipPath>
</defs>
</svg>
