<svg width="36" height="37" viewBox="0 0 36 37" fill="none" xmlns="http://www.w3.org/2000/svg">
<g clip-path="url(#clip0)">
<path d="M17.7102 7.3313C17.8398 7.2905 17.9443 7.24195 18.0083 7.19095C18.0599 7.14852 18.094 7.10812 18.1218 7.05672C18.1587 6.98817 18.1891 6.89311 18.1899 6.73113C18.1879 6.53284 18.1481 6.439 18.1005 6.36393C18.0513 6.28968 17.9726 6.21909 17.8336 6.14525C17.7988 6.12607 17.7516 6.10975 17.7102 6.0918V7.3313Z" fill="#C7BA9A"/>
<path d="M17.1583 0C14.1017 0 11.6233 2.46636 11.6233 5.508C11.6233 8.54964 14.1017 11.016 17.1583 11.016C20.2153 11.016 22.6933 8.54964 22.6933 5.508C22.6933 2.46636 20.2153 0 17.1583 0ZM18.6946 5.24117C18.8873 5.38234 19.0673 5.56961 19.1964 5.80462C19.3456 6.07267 19.4207 6.39173 19.4199 6.73118C19.4207 7.0584 19.3502 7.37011 19.2046 7.63817C19.0595 7.90663 18.8434 8.12042 18.6031 8.26894C18.3252 8.43907 18.0234 8.5325 17.7102 8.58636V8.64307C17.7102 8.9809 17.4346 9.25507 17.0952 9.25507C16.7557 9.25507 16.4802 8.9809 16.4802 8.64307V8.60105C16.0734 8.52965 15.7073 8.37542 15.4154 8.13022C15.0033 7.78831 14.7659 7.26893 14.7705 6.73118C14.7705 6.39336 15.046 6.11918 15.3855 6.11918C15.7249 6.11918 16.0005 6.39336 16.0005 6.73118C16.0046 6.93886 16.0693 7.07186 16.2104 7.1963C16.2756 7.25179 16.367 7.30238 16.4802 7.34278V5.73893C16.164 5.65243 15.8356 5.54758 15.5228 5.34602C15.3309 5.22036 15.1452 5.05022 15.0078 4.82746C14.8496 4.57327 14.7688 4.26115 14.7705 3.93638C14.7709 3.61814 14.8541 3.27338 15.0558 2.95229C15.2563 2.63201 15.5847 2.34722 16.0156 2.18566C16.1599 2.13098 16.3149 2.08978 16.4802 2.06203V2.04C16.4802 1.70218 16.7557 1.428 17.0952 1.428C17.4346 1.428 17.7102 1.70218 17.7102 2.04V2.08651C17.9467 2.13221 18.1665 2.20198 18.367 2.29908C18.7552 2.48554 19.0709 2.78501 19.2464 3.15466C19.3649 3.39986 19.4203 3.66874 19.4203 3.93679C19.4203 4.27462 19.1447 4.54879 18.8053 4.54879C18.4658 4.54879 18.1903 4.27462 18.1903 3.93679C18.1899 3.83234 18.1702 3.75197 18.137 3.68261C18.1033 3.61366 18.0558 3.55164 17.9754 3.48922C17.9143 3.44107 17.8217 3.39578 17.7106 3.35498V4.79359C18.0369 4.88947 18.378 5.01106 18.6946 5.24117Z" fill="#C7BA9A"/>
<path d="M16.1771 3.50358C16.0525 3.62802 15.9996 3.79979 16 3.93729C16.0008 4.05846 16.0217 4.12089 16.0439 4.16699C16.0677 4.21187 16.098 4.25022 16.1615 4.29837C16.228 4.351 16.3399 4.40485 16.4793 4.45749V3.32202C16.4707 3.32529 16.46 3.32773 16.4522 3.33059C16.3247 3.37955 16.2411 3.43953 16.1771 3.50358Z" fill="#C7BA9A"/>
<path d="M32.3669 18.7989C31.8281 17.2113 30.9294 15.7466 29.7466 14.4712L31.3562 9.74903C29.4579 8.95221 27.1923 9.71558 25.656 11.3945C24.5691 10.8302 23.3879 10.3806 22.1415 10.0501C21.5056 10.7392 20.7294 11.2986 19.8557 11.6781C20.6934 11.7792 21.5334 11.9282 22.3719 12.1277C22.7024 12.206 22.9061 12.5365 22.8266 12.8653C22.7483 13.1942 22.4162 13.397 22.0857 13.3182C20.4711 12.9343 18.8504 12.7438 17.2658 12.7438C15.5766 12.7438 13.9271 12.96 12.3675 13.3892C12.0399 13.4798 11.7012 13.2884 11.6106 12.9628C11.52 12.6369 11.7123 12.2998 12.0399 12.2097C12.848 11.9873 13.6774 11.8213 14.5204 11.7066C13.6639 11.3443 12.9001 10.8082 12.2666 10.1476C8.63649 11.1934 5.61848 13.3166 3.78004 16.0547C3.72961 16.0412 3.67754 16.0318 3.62301 16.0318C2.93093 16.0326 2.31552 15.7972 1.88953 15.4431C1.46231 15.0853 1.23107 14.634 1.23025 14.1501C1.23025 13.8123 0.954725 13.5381 0.615245 13.5381C0.275765 13.5381 0.000245281 13.8123 0.000245281 14.1501C-0.000574719 15.0424 0.440995 15.838 1.10233 16.3831C1.64066 16.8291 2.32905 17.1224 3.08837 17.2187C2.28518 18.7666 1.8391 20.4709 1.8391 22.2612C1.8391 25.8642 3.64187 29.1184 6.54098 31.4485L5.54673 35.4498L10.7107 36.7199L11.3642 34.0911C13.2178 34.7345 15.2539 35.0907 17.3912 35.0907C19.529 35.0907 21.5642 34.7325 23.4178 34.0887L24.0722 36.7199L29.2361 35.4489L28.2415 31.4465C30.2919 29.7973 31.7941 27.6863 32.4964 25.3159H35.8133V18.7989H32.3669ZM27.3907 18.6683C26.8926 18.6683 26.4899 18.2677 26.4899 17.7728C26.4899 17.2779 26.8926 16.8772 27.3907 16.8772C27.8872 16.8772 28.2907 17.2779 28.2907 17.7728C28.2907 18.2677 27.8872 18.6683 27.3907 18.6683Z" fill="#C7BA9A"/>
</g>
<defs>
<clipPath id="clip0">
<rect width="35.8131" height="36.7199" fill="white" transform="translate(0.000244141)"/>
</clipPath>
</defs>
</svg>
