<svg width="35" height="33" viewBox="0 0 35 33" fill="none" xmlns="http://www.w3.org/2000/svg">
<g clip-path="url(#clip0)">
<path d="M28.35 19.5921C28.385 19.5921 28.455 19.5921 28.49 19.5921C28.98 18.1489 29.26 16.5649 29.26 14.9457C29.225 7.0961 22.855 0.689697 15.05 0.689697C7.245 0.689697 0.875 7.0961 0.875 14.9457C0.875 22.7953 7.245 29.2017 15.05 29.2017C17.325 29.2017 19.46 28.6737 21.35 27.7233C21.315 27.4065 21.28 27.0545 21.28 26.7025C21.28 22.7601 24.43 19.5921 28.35 19.5921ZM16.275 22.0209V23.8161C16.275 23.9921 16.135 24.1681 15.925 24.1681H14.175C14 24.1681 13.825 24.0273 13.825 23.8161V22.0561C12.04 21.9505 10.605 20.5777 10.43 18.8177C10.43 18.6065 10.57 18.4305 10.78 18.4305H12.53C12.67 18.4305 12.845 18.5361 12.845 18.6769C12.95 19.2401 13.44 19.6273 14.035 19.6273H15.575C16.485 19.6273 17.325 18.9585 17.395 18.0433C17.5 17.0225 16.695 16.1425 15.68 16.1425H14.56C12.39 16.1425 10.465 14.5585 10.22 12.3761C10.01 10.0881 11.655 8.1169 13.825 7.8353V6.0753C13.825 5.8993 13.965 5.7233 14.175 5.7233H15.925C16.1 5.7233 16.275 5.8641 16.275 6.0753V7.8353C18.025 7.9409 19.46 9.3137 19.635 11.0737C19.67 11.2849 19.495 11.4609 19.285 11.4609H17.535C17.395 11.4609 17.255 11.3553 17.22 11.2145C17.115 10.6513 16.625 10.2641 16.065 10.2641H14.525C13.615 10.2641 12.81 10.9329 12.705 11.8481C12.6 12.8689 13.405 13.7841 14.42 13.7841H15.75C18.2 13.7841 20.125 15.8961 19.88 18.3953C19.67 20.2609 18.13 21.7041 16.275 22.0209Z" fill="#C7BA9A"/>
<path d="M28.3501 20.8594C25.1651 20.8594 22.5751 23.4642 22.5751 26.6674C22.5751 29.8706 25.1301 32.5106 28.3501 32.5106C31.5351 32.5106 34.1251 29.9058 34.1251 26.7026C34.1251 23.4994 31.5351 20.8594 28.3501 20.8594ZM30.5901 28.1458C30.8001 28.357 30.8001 28.7442 30.5901 28.9554C30.4851 29.061 30.3451 29.1314 30.1701 29.1314C30.0301 29.1314 29.8901 29.061 29.7501 28.9554L28.3501 27.5122L26.9151 28.9554C26.8101 29.061 26.6701 29.1314 26.4951 29.1314C26.3551 29.1314 26.2151 29.061 26.0751 28.9554C25.8651 28.7442 25.8651 28.357 26.0751 28.1458L27.5101 26.7026L26.0751 25.2594C25.8651 25.0482 25.8651 24.661 26.0751 24.4498C26.2851 24.2386 26.6701 24.2386 26.8801 24.4498L28.3151 25.893L29.7501 24.4498C29.9601 24.2386 30.3451 24.2386 30.5551 24.4498C30.7651 24.661 30.7651 25.0482 30.5551 25.2594L29.1201 26.7026L30.5901 28.1458Z" fill="#C7BA9A"/>
</g>
<defs>
<clipPath id="clip0">
<rect width="33.25" height="31.8208" fill="white" transform="translate(0.875 0.689697)"/>
</clipPath>
</defs>
</svg>
