<svg xmlns="http://www.w3.org/2000/svg" xmlns:xlink="http://www.w3.org/1999/xlink" width="228" height="74" viewBox="0 0 228 74">
  <defs>
    <linearGradient id="linear-gradient" x1="0.5" y1="-1.003" x2="0.5" y2="1.269" gradientUnits="objectBoundingBox">
      <stop offset="0" stop-color="#3bdcc6"/>
      <stop offset="1" stop-color="#7965e6"/>
    </linearGradient>
    <filter id="Rectangle" x="0" y="0" width="228" height="74" filterUnits="userSpaceOnUse">
      <feOffset dy="3" input="SourceAlpha"/>
      <feGaussianBlur stdDeviation="6" result="blur"/>
      <feFlood flood-color="#522aa4" flood-opacity="0.2"/>
      <feComposite operator="in" in2="blur"/>
      <feComposite in="SourceGraphic"/>
    </filter>
  </defs>
  <g id="编组_3" data-name="编组 3" transform="translate(18 15)">
    <g transform="matrix(1, 0, 0, 1, -18, -15)" filter="url(#Rectangle)">
      <rect id="Rectangle-2" data-name="Rectangle" width="192" height="38" rx="17.5" transform="translate(18 15)" fill="url(#linear-gradient)"/>
    </g>
    <text id="Download_on_the_App" data-name="Download on the App" transform="translate(72 -0.5)" fill="#fff" font-size="10" font-family="SegoeUI, Segoe UI"><tspan x="0" y="15">Download on the</tspan><tspan y="15" font-size="14"></tspan><tspan font-size="14"><tspan x="0" y="29">App Store</tspan></tspan></text>
    <g id="iphone" transform="translate(35 6.5)">
      <g id="编组">
        <rect id="矩形" width="24.978" height="24.978" opacity="0"/>
        <path id="形状" d="M5.109,24.377C3.645,23.4-.257,18.251.014,12.722c.325-5.53,4.553-6.83,6.017-6.83,1.788,0,3.253,1.138,4.879,1.138,1.3,0,2.276-.977,4.228-1.138a6.94,6.94,0,0,1,5.2,2.439v.163c-.488.325-2.928,1.951-2.765,4.553.163,4.391,3.416,5.2,3.794,5.15-2.927,6.505-5.529,6.993-7.318,6.342a5.823,5.823,0,0,0-4.879-.325,5.446,5.446,0,0,1-2.343.765A3.046,3.046,0,0,1,5.109,24.377ZM10.15,6.053a5.27,5.27,0,0,1,1.139-3.9C12.752.2,14.867-.126,15.029.037a4.6,4.6,0,0,1-.976,3.9A5.135,5.135,0,0,1,10.4,6.1.427.427,0,0,1,10.15,6.053Z" transform="translate(1.796 0)" fill="#fff"/>
      </g>
    </g>
  </g>
</svg>
