<svg id="编组_3" data-name="编组 3" xmlns="http://www.w3.org/2000/svg" xmlns:xlink="http://www.w3.org/1999/xlink" width="192" height="38" viewBox="0 0 192 38">
  <defs>
    <linearGradient id="linear-gradient" x1="0.5" y1="-1.116" x2="0.5" y2="1.664" gradientUnits="objectBoundingBox">
      <stop offset="0" stop-color="#2ef5bf"/>
      <stop offset="1" stop-color="#864dec"/>
    </linearGradient>
  </defs>
  <g id="Rectangle" fill="none" stroke="#707070" stroke-miterlimit="10" stroke-width="2">
    <rect width="192" height="38" rx="17.5" stroke="none"/>
    <rect x="1" y="1" width="190" height="36" rx="16.5" fill="none"/>
  </g>
  <text id="Download_for_Android" data-name="Download for Android" transform="translate(72 2.5)" fill="#666" font-size="10" font-family="SegoeUI, Segoe UI"><tspan x="0" y="11">Download for</tspan><tspan font-size="14"><tspan x="0" y="27">Android</tspan></tspan></text>
  <path id="形状复制" d="M13.165,25a1.551,1.551,0,0,1-1.549-1.549V20.04H9.546v3.411a1.542,1.542,0,1,1-3.083,0L6.449,20.04H5.336a1.65,1.65,0,0,1-1.652-1.654V8.376h13.8v10.01a1.648,1.648,0,0,1-1.636,1.654H14.713v3.411A1.55,1.55,0,0,1,13.165,25ZM1.548,17.635A1.549,1.549,0,0,1,0,16.087V9.624A1.548,1.548,0,0,1,1.543,8.091h.005A1.534,1.534,0,0,1,3.081,9.624v6.464A1.542,1.542,0,0,1,1.548,17.635Zm18.075-.007a1.541,1.541,0,0,1-1.541-1.54V9.624a1.544,1.544,0,0,1,.448-1.085,1.519,1.519,0,0,1,1.081-.448h.017a1.535,1.535,0,0,1,1.535,1.533v6.464a1.54,1.54,0,0,1-1.54,1.54Zm-2.1-9.792H3.623A6.28,6.28,0,0,1,7.171,2.291L6.1.323A.22.22,0,0,1,6.078.157a.216.216,0,0,1,.1-.135A.252.252,0,0,1,6.278,0a.225.225,0,0,1,.2.112L7.56,2.1a7.542,7.542,0,0,1,6.043,0L14.684.111a.228.228,0,0,1,.2-.111.256.256,0,0,1,.1.02.222.222,0,0,1,.1.135.224.224,0,0,1-.025.166L13.991,2.289a6.294,6.294,0,0,1,3.533,5.546ZM13.752,4.154a.586.586,0,1,0,.571.587A.587.587,0,0,0,13.752,4.154Zm-6.34,0a.586.586,0,1,0,.413,1,.586.586,0,0,0-.413-1Z" transform="translate(37.919 5.5)" fill="url(#linear-gradient)"/>
</svg>
