<svg xmlns="http://www.w3.org/2000/svg" xmlns:xlink="http://www.w3.org/1999/xlink" width="1429.634" height="176.416" viewBox="0 0 1429.634 176.416">
  <defs>
    <clipPath id="clip-path">
      <path id="Clip_2" data-name="Clip 2" d="M0,0H21.746V29.994H0Z" transform="translate(0 0)" fill="none"/>
    </clipPath>
    <clipPath id="clip-path-2">
      <path id="Clip_2-2" data-name="Clip 2" d="M0,0H12.886V17.774H0Z" transform="translate(0 0)" fill="none"/>
    </clipPath>
    <clipPath id="clip-path-3">
      <path id="Clip_2-3" data-name="Clip 2" d="M0,0H10.47V14.442H0Z" transform="translate(0 0)" fill="none"/>
    </clipPath>
    <clipPath id="clip-path-4">
      <path id="Clip_2-4" data-name="Clip 2" d="M0,0H17.719V24.44H0Z" transform="translate(0 0)" fill="none"/>
    </clipPath>
    <clipPath id="clip-path-5">
      <path id="Clip_2-5" data-name="Clip 2" d="M0,0H15.3V21.107H0Z" transform="translate(0 0)" fill="none"/>
    </clipPath>
    <clipPath id="clip-path-7">
      <path id="Clip_2-7" data-name="Clip 2" d="M0,0H16.079V14.752H0Z" transform="translate(0 0)" fill="none"/>
    </clipPath>
    <clipPath id="clip-path-9">
      <path id="Clip_2-9" data-name="Clip 2" d="M0,0H13.679V12.55H0Z" transform="translate(0 0)" fill="none"/>
    </clipPath>
  </defs>
  <g id="bg2" transform="translate(0.635 0.153)" opacity="0.3">
    <g id="编组_15" data-name="编组 15" transform="translate(1100 110.142)">
      <path id="Stroke_13" data-name="Stroke 13" d="M22.553,29.936a15.741,15.741,0,1,1,7.383-21A15.74,15.74,0,0,1,22.553,29.936Z" transform="translate(0 0)" fill="none" stroke="#7965e6" stroke-miterlimit="10" stroke-width="1.156"/>
      <g id="编组" transform="translate(18.573 4.431) rotate(45)">
        <path id="Fill_1" data-name="Fill 1" d="M0,10.012l5.867-1.84V0Z" transform="translate(0.024 0)" fill="#7965e6"/>
        <path id="Fill_2" data-name="Fill 2" d="M0,8.172l5.867,1.84L0,0Z" transform="translate(5.891 0)" fill="#7965e6"/>
        <path id="Fill_3" data-name="Fill 3" d="M5.891,8.917V3.236L0,0Z" transform="translate(0 10.85)" fill="#7965e6"/>
        <path id="Fill_4" data-name="Fill 4" d="M0,3.236V8.917L5.867,0Z" transform="translate(5.891 10.85)" fill="#7965e6"/>
        <path id="Fill_5" data-name="Fill 5" d="M0,2.748,5.867,5.611V0Z" transform="translate(0 7.265)" fill="#7965e6"/>
        <path id="Fill_6" data-name="Fill 6" d="M0,5.611,5.867,2.748,0,0Z" transform="translate(5.891 7.265)" fill="#7965e6"/>
      </g>
    </g>
    <g id="编组_15备份_2" data-name="编组 15备份 2" transform="translate(0 85.068)">
      <path id="Stroke_13-2" data-name="Stroke 13" d="M28.191,37.42A19.676,19.676,0,1,1,37.42,11.17,19.675,19.675,0,0,1,28.191,37.42Z" transform="translate(0 0)" fill="none" stroke="#7965e6" stroke-miterlimit="10" stroke-width="1.156"/>
      <g id="编组-2" data-name="编组" transform="translate(23.216 5.538) rotate(45)">
        <path id="Fill_1-2" data-name="Fill 1" d="M0,12.515l7.334-2.3V0Z" transform="translate(0.03 0)" fill="#7965e6"/>
        <path id="Fill_2-2" data-name="Fill 2" d="M0,10.216l7.334,2.3L0,0Z" transform="translate(7.363 0)" fill="#7965e6"/>
        <path id="Fill_3-2" data-name="Fill 3" d="M7.363,11.147v-7.1L0,0Z" transform="translate(0 13.563)" fill="#7965e6"/>
        <path id="Fill_4-2" data-name="Fill 4" d="M0,4.045v7.1L7.334,0Z" transform="translate(7.363 13.563)" fill="#7965e6"/>
        <path id="Fill_5-2" data-name="Fill 5" d="M0,3.434,7.334,7.013V0Z" transform="translate(0 9.081)" fill="#7965e6"/>
        <path id="Fill_6-2" data-name="Fill 6" d="M0,7.013,7.334,3.434,0,0Z" transform="translate(7.363 9.081)" fill="#7965e6"/>
      </g>
    </g>
    <g id="编组_15备份" data-name="编组 15备份" transform="translate(1319.892 137.737) rotate(-49)">
      <path id="Stroke_13-3" data-name="Stroke 13" d="M13.743,18.242a9.592,9.592,0,1,1,4.5-12.8A9.592,9.592,0,0,1,13.743,18.242Z" transform="translate(0 0)" fill="none" stroke="#7965e6" stroke-miterlimit="10" stroke-width="1.156"/>
      <g id="编组-3" data-name="编组" transform="translate(11.318 2.7) rotate(45)">
        <path id="Fill_1-3" data-name="Fill 1" d="M0,6.1,3.575,4.98V0Z" transform="translate(0.014 0)" fill="#7965e6"/>
        <path id="Fill_2-3" data-name="Fill 2" d="M0,4.98,3.575,6.1,0,0Z" transform="translate(3.59 0)" fill="#7965e6"/>
        <path id="Fill_3-3" data-name="Fill 3" d="M3.59,5.434V1.972L0,0Z" transform="translate(0 6.612)" fill="#7965e6"/>
        <path id="Fill_4-3" data-name="Fill 4" d="M0,1.972V5.434L3.575,0Z" transform="translate(3.59 6.612)" fill="#7965e6"/>
        <path id="Fill_5-3" data-name="Fill 5" d="M0,1.674,3.575,3.419V0Z" transform="translate(0 4.427)" fill="#7965e6"/>
        <path id="Fill_6-3" data-name="Fill 6" d="M0,3.419,3.575,1.674,0,0Z" transform="translate(3.59 4.427)" fill="#7965e6"/>
      </g>
    </g>
    <g id="编组_16" data-name="编组 16" transform="translate(1100 50.5)">
      <path id="Fill_45" data-name="Fill 45" d="M17.873,31.5A15.816,15.816,0,1,1,31.5,13.76,15.817,15.817,0,0,1,17.873,31.5" transform="translate(0)" fill="#7965e6"/>
      <path id="Fill_47" data-name="Fill 47" d="M0,11.013,2,9.658A6.969,6.969,0,0,1,.82,6.035l1.65-.424A6.375,6.375,0,0,0,3.55,9.042c.953,1.408,2.41,1.808,3.54,1.043,1.091-.738,1.24-1.967.842-3.837C7.355,3.689,7.422,1.824,9.146.656a3.925,3.925,0,0,1,5.217.833l2-1.357L17.2,1.361l-1.922,1.3A6.412,6.412,0,0,1,16.327,5.71l-1.644.39a5.786,5.786,0,0,0-1.018-2.954c-1.033-1.527-2.334-1.483-3.127-.947-1.03.7-1.05,1.781-.6,3.987.549,2.607.217,4.335-1.548,5.53a4.164,4.164,0,0,1-5.489-.849l-2.062,1.4Z" transform="translate(7.215 9.603)" fill="#fff"/>
    </g>
    <g id="编组_16备份" data-name="编组 16备份" transform="translate(279 117)">
      <path id="Fill_45-2" data-name="Fill 45" d="M17.873,31.5A15.816,15.816,0,1,1,31.5,13.76,15.817,15.817,0,0,1,17.873,31.5" transform="translate(0)" fill="#7965e6"/>
      <path id="Fill_47-2" data-name="Fill 47" d="M0,11.013,2,9.658A6.969,6.969,0,0,1,.82,6.035l1.65-.424A6.375,6.375,0,0,0,3.55,9.042c.953,1.408,2.41,1.808,3.54,1.043,1.091-.738,1.24-1.967.842-3.837C7.355,3.689,7.422,1.824,9.146.656a3.925,3.925,0,0,1,5.217.833l2-1.357L17.2,1.361l-1.922,1.3A6.412,6.412,0,0,1,16.327,5.71l-1.644.39a5.786,5.786,0,0,0-1.018-2.954c-1.033-1.527-2.334-1.483-3.127-.947-1.03.7-1.05,1.781-.6,3.987.549,2.607.217,4.335-1.548,5.53a4.164,4.164,0,0,1-5.489-.849l-2.062,1.4Z" transform="translate(7.215 9.603)" fill="#fff"/>
    </g>
    <g id="编组_17" data-name="编组 17" transform="translate(1192 36.5)">
      <path id="Stroke_25" data-name="Stroke 25" d="M47.232,9.916A26.543,26.543,0,1,1,9.915,5.855,26.541,26.541,0,0,1,47.232,9.916Z" transform="translate(0 0)" fill="none" stroke="#7965e6" stroke-miterlimit="10" stroke-width="1.114"/>
      <g id="编组-4" data-name="编组" transform="matrix(0.454, -0.891, 0.891, 0.454, 8.123, 29.972)">
        <path id="Clip_2-10" data-name="Clip 2" d="M0,0H21.746V29.994H0Z" transform="translate(0 0)" fill="none"/>
        <g id="编组-5" data-name="编组" clip-path="url(#clip-path)">
          <path id="Fill_1-4" data-name="Fill 1" d="M8.6,30H5.73V25.329H.167l.168-3H2.361c.029,0,.058,0,.087,0A1.115,1.115,0,0,0,3.541,21V8.5c0-.71-.391-1-1.35-1H0v-3H5.732V0H8.6V4.5h1.854V0h2.866V4.5c1.951.227,6.532,1.122,6.912,4.5a4.53,4.53,0,0,1-2.36,4.833,6.131,6.131,0,0,1,2,1.02,4.6,4.6,0,0,1,1.878,3.813c0,4.486-2.536,6.666-7.753,6.666h-.675v4.663H10.451V25.33H8.6v4.664Zm0-13.83v6h3.2c2.937,0,4.555-1.242,4.555-3.5,0-2.051-2.923-2.5-4.049-2.5Zm0-8.5v5.5h3.71a2.814,2.814,0,0,0,2.529-3c0-1.658-1.418-2.5-4.214-2.5Z" transform="translate(0 0)" fill="#7965e6"/>
        </g>
      </g>
    </g>
    <g id="编组_17备份_2" data-name="编组 17备份 2" transform="matrix(0.259, 0.966, -0.966, 0.259, 255.536, 37.876)">
      <path id="Stroke_25-2" data-name="Stroke 25" d="M27.989,5.876A15.729,15.729,0,1,1,5.875,3.47,15.728,15.728,0,0,1,27.989,5.876Z" transform="translate(0 0)" fill="none" stroke="#7965e6" stroke-miterlimit="10" stroke-width="1.114"/>
      <g id="编组-6" data-name="编组" transform="matrix(0.454, -0.891, 0.891, 0.454, 4.813, 17.761)">
        <path id="Clip_2-11" data-name="Clip 2" d="M0,0H12.886V17.774H0Z" transform="translate(0 0)" fill="none"/>
        <g id="编组-7" data-name="编组" clip-path="url(#clip-path-2)">
          <path id="Fill_1-5" data-name="Fill 1" d="M5.094,17.775H3.4V15.009H.1l.1-1.777H1.4l.055,0a.629.629,0,0,0,.128-.013.66.66,0,0,0,.516-.778V5.036c0-.421-.232-.592-.8-.592H0V2.666H3.4V0h1.7V2.666h1.1V0h1.7V2.666c1.156.135,3.871.667,4.1,2.667a2.683,2.683,0,0,1-1.4,2.864h0a3.1,3.1,0,0,1,2.292,2.864c0,2.658-1.5,3.95-4.595,3.95h-.4v2.763h-1.7V15.01h-1.1v2.764Zm0-8.2v3.555h1.9c1.741,0,2.7-.736,2.7-2.073,0-1.216-1.732-1.482-2.4-1.482Zm0-5.036V7.8h2.2a1.667,1.667,0,0,0,1.5-1.777c0-.984-.84-1.482-2.5-1.482Z" transform="translate(0 0)" fill="#7965e6"/>
        </g>
      </g>
    </g>
    <g id="编组_17备份_5" data-name="编组 17备份 5" transform="matrix(0.259, 0.966, -0.966, 0.259, 513.854, 77.808)">
      <path id="Stroke_25-3" data-name="Stroke 25" d="M22.741,4.774A12.78,12.78,0,1,1,4.774,2.819,12.779,12.779,0,0,1,22.741,4.774Z" transform="translate(0 0)" fill="none" stroke="#7965e6" stroke-miterlimit="10" stroke-width="1.114"/>
      <g id="编组-8" data-name="编组" transform="matrix(0.454, -0.891, 0.891, 0.454, 3.911, 14.431)">
        <path id="Clip_2-12" data-name="Clip 2" d="M0,0H10.47V14.442H0Z" transform="translate(0 0)" fill="none"/>
        <g id="编组-9" data-name="编组" clip-path="url(#clip-path-3)">
          <path id="Fill_1-6" data-name="Fill 1" d="M4.139,14.442H2.759V12.2H.08l.082-1.444h.975l.042,0a.537.537,0,0,0,.526-.644V4.091c0-.341-.188-.481-.65-.481H0V2.166H2.759V0H4.14V2.166h.892V0H6.412V2.166c.939.109,3.145.541,3.328,2.166A2.183,2.183,0,0,1,8.6,6.66a2.5,2.5,0,0,1,1.866,2.327c0,2.16-1.221,3.209-3.733,3.209H6.412V14.44H5.032V12.2H4.139v2.246Zm0-6.659v2.888H5.682c1.414,0,2.193-.6,2.193-1.685,0-.987-1.407-1.2-1.949-1.2Zm0-4.092V6.339H5.926A1.354,1.354,0,0,0,7.143,4.894c0-.8-.683-1.2-2.029-1.2Z" transform="translate(0 0)" fill="#7965e6"/>
        </g>
      </g>
    </g>
    <g id="编组_17备份_3" data-name="编组 17备份 3" transform="matrix(0.259, 0.966, -0.966, 0.259, 60.021, 8.771)">
      <path id="Stroke_25-4" data-name="Stroke 25" d="M38.485,8.08A21.627,21.627,0,1,1,8.079,4.771,21.626,21.626,0,0,1,38.485,8.08Z" transform="translate(0 0)" fill="none" stroke="#7965e6" stroke-miterlimit="10" stroke-width="1.114"/>
      <g id="编组-10" data-name="编组" transform="matrix(0.454, -0.891, 0.891, 0.454, 6.618, 24.421)">
        <path id="Clip_2-13" data-name="Clip 2" d="M0,0H17.719V24.44H0Z" transform="translate(0 0)" fill="none"/>
        <g id="编组-11" data-name="编组" clip-path="url(#clip-path-4)">
          <path id="Fill_1-7" data-name="Fill 1" d="M7,24.441H4.669v-3.8H.136l.138-2.444h1.65l.069,0a.955.955,0,0,0,.183-.018.911.911,0,0,0,.71-1.071V6.925c0-.579-.319-.815-1.1-.815H0V3.666H4.67V0H7.006V3.666h1.51V0h2.335V3.666c1.59.185,5.323.915,5.632,3.667a3.689,3.689,0,0,1-1.922,3.938,4.2,4.2,0,0,1,3.158,3.937c0,3.655-2.067,5.432-6.318,5.432h-.55v3.8H8.516v-3.8H7v3.8Zm0-11.269v4.888h2.61c2.393,0,3.712-1.013,3.712-2.851,0-1.671-2.382-2.037-3.3-2.037Zm0-6.925v4.481h3.022a2.292,2.292,0,0,0,2.061-2.443c0-1.352-1.155-2.038-3.434-2.038Z" transform="translate(0 0)" fill="#7965e6"/>
        </g>
      </g>
    </g>
    <g id="编组_17备份" data-name="编组 17备份" transform="translate(999.615 93.275) rotate(73)">
      <path id="Stroke_25-5" data-name="Stroke 25" d="M33.237,6.978A18.678,18.678,0,1,1,6.977,4.12,18.677,18.677,0,0,1,33.237,6.978Z" transform="translate(0 0)" fill="#7965e6"/>
      <g id="编组-12" data-name="编组" transform="matrix(0.454, -0.891, 0.891, 0.454, 5.716, 21.091)">
        <path id="Clip_2-14" data-name="Clip 2" d="M0,0H15.3V21.107H0Z" transform="translate(0 0)" fill="none"/>
        <g id="编组-13" data-name="编组" clip-path="url(#clip-path-5)">
          <path id="Fill_1-8" data-name="Fill 1" d="M6.049,21.108H4.033V17.824H.118l.119-2.111H1.661l.059,0a.8.8,0,0,0,.158-.016.784.784,0,0,0,.613-.924V5.981c0-.5-.275-.7-.949-.7H0V3.166H4.034V0H6.051V3.166h1.3V0H9.372V3.166c1.373.159,4.6.789,4.864,3.166a3.187,3.187,0,0,1-1.661,3.4,3.637,3.637,0,0,1,2.727,3.4c0,3.156-1.785,4.691-5.457,4.691H9.372v3.281H7.354V17.824H6.049v3.282Zm0-9.733V15.6H8.3c2.067,0,3.2-.874,3.2-2.462,0-1.443-2.057-1.759-2.849-1.759Zm0-5.981v3.87h2.61a1.981,1.981,0,0,0,1.78-2.11c0-1.168-1-1.76-2.965-1.76Z" transform="translate(0 0)" fill="#fff"/>
        </g>
      </g>
    </g>
    <g id="编组_17备份_4" data-name="编组 17备份 4" transform="translate(1303 129.615) rotate(73)">
      <path id="Stroke_25-6" data-name="Stroke 25" d="M33.237,6.978A18.678,18.678,0,1,1,6.977,4.12,18.677,18.677,0,0,1,33.237,6.978Z" transform="translate(0 0)" fill="#7965e6"/>
      <g id="编组-14" data-name="编组" transform="matrix(0.454, -0.891, 0.891, 0.454, 5.716, 21.091)">
        <path id="Clip_2-15" data-name="Clip 2" d="M0,0H15.3V21.107H0Z" transform="translate(0 0)" fill="none"/>
        <g id="编组-15" data-name="编组" clip-path="url(#clip-path-5)">
          <path id="Fill_1-9" data-name="Fill 1" d="M6.049,21.108H4.033V17.824H.118l.119-2.111H1.661l.059,0a.8.8,0,0,0,.158-.016.784.784,0,0,0,.613-.924V5.981c0-.5-.275-.7-.949-.7H0V3.166H4.034V0H6.051V3.166h1.3V0H9.372V3.166c1.373.159,4.6.789,4.864,3.166a3.187,3.187,0,0,1-1.661,3.4,3.637,3.637,0,0,1,2.727,3.4c0,3.156-1.785,4.691-5.457,4.691H9.372v3.281H7.354V17.824H6.049v3.282Zm0-9.733V15.6H8.3c2.067,0,3.2-.874,3.2-2.462,0-1.443-2.057-1.759-2.849-1.759Zm0-5.981v3.87h2.61a1.981,1.981,0,0,0,1.78-2.11c0-1.168-1-1.76-2.965-1.76Z" transform="translate(0 0)" fill="#fff"/>
        </g>
      </g>
    </g>
    <g id="编组_16-2" data-name="编组 16" transform="translate(145 61.068)">
      <path id="Fill_45-3" data-name="Fill 45" d="M17.873,31.5A15.816,15.816,0,1,1,31.5,13.76,15.817,15.817,0,0,1,17.873,31.5" transform="translate(0)" fill="#7965e6"/>
      <path id="Fill_47-3" data-name="Fill 47" d="M0,11.013,2,9.658A6.969,6.969,0,0,1,.82,6.035l1.65-.424A6.375,6.375,0,0,0,3.55,9.042c.953,1.408,2.41,1.808,3.54,1.043,1.091-.738,1.24-1.967.842-3.837C7.355,3.689,7.422,1.824,9.146.656a3.925,3.925,0,0,1,5.217.833l2-1.357L17.2,1.361l-1.922,1.3A6.412,6.412,0,0,1,16.327,5.71l-1.644.39a5.786,5.786,0,0,0-1.018-2.954c-1.033-1.527-2.334-1.483-3.127-.947-1.03.7-1.05,1.781-.6,3.987.549,2.607.217,4.335-1.548,5.53a4.164,4.164,0,0,1-5.489-.849l-2.062,1.4Z" transform="translate(7.215 9.603)" fill="#fff"/>
    </g>
    <g id="编组_16备份_4" data-name="编组 16备份 4" transform="translate(608.39 107.5)">
      <path id="Fill_45-4" data-name="Fill 45" d="M17.873,31.5A15.816,15.816,0,1,1,31.5,13.76,15.817,15.817,0,0,1,17.873,31.5" transform="translate(0)" fill="#7965e6"/>
      <path id="Fill_47-4" data-name="Fill 47" d="M0,11.013,2,9.658A6.969,6.969,0,0,1,.82,6.035l1.65-.424A6.375,6.375,0,0,0,3.55,9.042c.953,1.408,2.41,1.808,3.54,1.043,1.091-.738,1.24-1.967.842-3.837C7.355,3.689,7.422,1.824,9.146.656a3.925,3.925,0,0,1,5.217.833l2-1.357L17.2,1.361l-1.922,1.3A6.412,6.412,0,0,1,16.327,5.71l-1.644.39a5.786,5.786,0,0,0-1.018-2.954c-1.033-1.527-2.334-1.483-3.127-.947-1.03.7-1.05,1.781-.6,3.987.549,2.607.217,4.335-1.548,5.53a4.164,4.164,0,0,1-5.489-.849l-2.062,1.4Z" transform="translate(7.215 9.603)" fill="#fff"/>
    </g>
    <g id="编组_16备份_2" data-name="编组 16备份 2" transform="translate(557.463 134.328) rotate(-49)">
      <path id="Fill_45-5" data-name="Fill 45" d="M17.873,31.5A15.816,15.816,0,1,1,31.5,13.76,15.817,15.817,0,0,1,17.873,31.5" transform="translate(0)" fill="none" stroke="#7965e6" stroke-miterlimit="10" stroke-width="1.114"/>
      <path id="Fill_47-5" data-name="Fill 47" d="M0,11.013,2,9.658A6.969,6.969,0,0,1,.82,6.035l1.65-.424A6.375,6.375,0,0,0,3.55,9.042c.953,1.408,2.41,1.808,3.54,1.043,1.091-.738,1.24-1.967.842-3.837C7.355,3.689,7.422,1.824,9.146.656a3.925,3.925,0,0,1,5.217.833l2-1.357L17.2,1.361l-1.922,1.3A6.412,6.412,0,0,1,16.327,5.71l-1.644.39a5.786,5.786,0,0,0-1.018-2.954c-1.033-1.527-2.334-1.483-3.127-.947-1.03.7-1.05,1.781-.6,3.987.549,2.607.217,4.335-1.548,5.53a4.164,4.164,0,0,1-5.489-.849l-2.062,1.4Z" transform="translate(7.215 9.603)" fill="#7965e6"/>
    </g>
    <g id="编组_16备份_3" data-name="编组 16备份 3" transform="translate(1153.444 110.061) rotate(-49)">
      <path id="Fill_45-6" data-name="Fill 45" d="M17.873,31.5A15.816,15.816,0,1,1,31.5,13.76,15.817,15.817,0,0,1,17.873,31.5" transform="translate(0)" fill="none" stroke="#7965e6" stroke-miterlimit="10" stroke-width="1.114"/>
      <path id="Fill_47-6" data-name="Fill 47" d="M0,11.013,2,9.658A6.969,6.969,0,0,1,.82,6.035l1.65-.424A6.375,6.375,0,0,0,3.55,9.042c.953,1.408,2.41,1.808,3.54,1.043,1.091-.738,1.24-1.967.842-3.837C7.355,3.689,7.422,1.824,9.146.656a3.925,3.925,0,0,1,5.217.833l2-1.357L17.2,1.361l-1.922,1.3A6.412,6.412,0,0,1,16.327,5.71l-1.644.39a5.786,5.786,0,0,0-1.018-2.954c-1.033-1.527-2.334-1.483-3.127-.947-1.03.7-1.05,1.781-.6,3.987.549,2.607.217,4.335-1.548,5.53a4.164,4.164,0,0,1-5.489-.849l-2.062,1.4Z" transform="translate(7.215 9.603)" fill="#7965e6"/>
    </g>
    <g id="编组_18" data-name="编组 18" transform="translate(80.5 93.068)">
      <path id="Fill_41" data-name="Fill 41" d="M3.362,25.565a15.816,15.816,0,1,1,22.2,2.705,15.818,15.818,0,0,1-22.2-2.705" transform="translate(0 0)" fill="#7965e6"/>
      <g id="编组-16" data-name="编组" transform="matrix(0.438, -0.899, 0.899, 0.438, 3.234, 16.899)">
        <path id="Fill_1-10" data-name="Fill 1" d="M0,10.946,6.414,8.935V0Z" transform="translate(0.026 0)" fill="#fff"/>
        <path id="Fill_2-4" data-name="Fill 2" d="M0,8.935l6.415,2.011L0,0Z" transform="translate(6.44 0)" fill="#fff"/>
        <path id="Fill_3-4" data-name="Fill 3" d="M6.44,9.749V3.538L0,0Z" transform="translate(0 11.862)" fill="#fff"/>
        <path id="Fill_4-4" data-name="Fill 4" d="M0,3.538V9.749L6.415,0Z" transform="translate(6.44 11.862)" fill="#fff"/>
        <path id="Fill_5-4" data-name="Fill 5" d="M0,3l6.415,3.13V0Z" transform="translate(0 7.942)" fill="#fff"/>
        <path id="Fill_6-4" data-name="Fill 6" d="M0,6.134,6.415,3,0,0Z" transform="translate(6.44 7.942)" fill="#fff"/>
      </g>
    </g>
    <g id="编组_18备份" data-name="编组 18备份" transform="translate(225.556 89.068)">
      <path id="Fill_41-2" data-name="Fill 41" d="M3.362,25.565a15.816,15.816,0,1,1,22.2,2.705,15.818,15.818,0,0,1-22.2-2.705" transform="translate(0 0)" fill="#7965e6"/>
      <g id="编组-17" data-name="编组" transform="matrix(0.438, -0.899, 0.899, 0.438, 3.234, 16.899)">
        <path id="Fill_1-11" data-name="Fill 1" d="M0,10.946,6.414,8.935V0Z" transform="translate(0.026 0)" fill="#fff"/>
        <path id="Fill_2-5" data-name="Fill 2" d="M0,8.935l6.415,2.011L0,0Z" transform="translate(6.44 0)" fill="#fff"/>
        <path id="Fill_3-5" data-name="Fill 3" d="M6.44,9.749V3.538L0,0Z" transform="translate(0 11.862)" fill="#fff"/>
        <path id="Fill_4-5" data-name="Fill 4" d="M0,3.538V9.749L6.415,0Z" transform="translate(6.44 11.862)" fill="#fff"/>
        <path id="Fill_5-5" data-name="Fill 5" d="M0,3l6.415,3.13V0Z" transform="translate(0 7.942)" fill="#fff"/>
        <path id="Fill_6-5" data-name="Fill 6" d="M0,6.134,6.415,3,0,0Z" transform="translate(6.44 7.942)" fill="#fff"/>
      </g>
    </g>
    <g id="编组_18备份_2" data-name="编组 18备份 2" transform="matrix(-0.174, 0.985, -0.985, -0.174, 478.535, 123.771)">
      <path id="Fill_41-3" data-name="Fill 41" d="M3.362,25.565a15.816,15.816,0,1,1,22.2,2.705,15.818,15.818,0,0,1-22.2-2.705" transform="translate(0 0)" fill="#7965e6"/>
      <g id="编组-18" data-name="编组" transform="matrix(0.438, -0.899, 0.899, 0.438, 3.234, 16.899)">
        <path id="Fill_1-12" data-name="Fill 1" d="M0,10.946,6.414,8.935V0Z" transform="translate(0.026 0)" fill="#fff"/>
        <path id="Fill_2-6" data-name="Fill 2" d="M0,8.935l6.415,2.011L0,0Z" transform="translate(6.44 0)" fill="#fff"/>
        <path id="Fill_3-6" data-name="Fill 3" d="M6.44,9.749V3.538L0,0Z" transform="translate(0 11.862)" fill="#fff"/>
        <path id="Fill_4-6" data-name="Fill 4" d="M0,3.538V9.749L6.415,0Z" transform="translate(6.44 11.862)" fill="#fff"/>
        <path id="Fill_5-6" data-name="Fill 5" d="M0,3l6.415,3.13V0Z" transform="translate(0 7.942)" fill="#fff"/>
        <path id="Fill_6-6" data-name="Fill 6" d="M0,6.134,6.415,3,0,0Z" transform="translate(6.44 7.942)" fill="#fff"/>
      </g>
    </g>
    <g id="编组_18备份_3" data-name="编组 18备份 3" transform="translate(839.787 96.706) rotate(25)">
      <path id="Fill_41-4" data-name="Fill 41" d="M2.049,15.579a9.638,9.638,0,1,1,13.53,1.649,9.639,9.639,0,0,1-13.53-1.649" transform="translate(0 0)" fill="#7965e6"/>
      <g id="编组-19" data-name="编组" transform="matrix(0.438, -0.899, 0.899, 0.438, 1.971, 10.298)">
        <path id="Fill_1-13" data-name="Fill 1" d="M0,6.67,3.909,5.445V0Z" transform="translate(0.016 0)" fill="#fff"/>
        <path id="Fill_2-7" data-name="Fill 2" d="M0,5.445,3.909,6.67,0,0Z" transform="translate(3.924 0)" fill="#fff"/>
        <path id="Fill_3-7" data-name="Fill 3" d="M3.924,5.941V2.156L0,0Z" transform="translate(0 7.228)" fill="#fff"/>
        <path id="Fill_4-7" data-name="Fill 4" d="M0,2.156V5.941L3.909,0Z" transform="translate(3.924 7.228)" fill="#fff"/>
        <path id="Fill_5-7" data-name="Fill 5" d="M0,1.83,3.909,3.738V0Z" transform="translate(0 4.84)" fill="#fff"/>
        <path id="Fill_6-7" data-name="Fill 6" d="M0,3.738,3.909,1.83,0,0Z" transform="translate(3.924 4.84)" fill="#fff"/>
      </g>
    </g>
    <path id="Stroke_61" data-name="Stroke 61" d="M0,14H10.37V0H0Z" transform="translate(67.074 65)" fill="none" stroke="#7965e6" stroke-miterlimit="10" stroke-width="1.351"/>
    <path id="Stroke_61备份_3" data-name="Stroke 61备份 3" d="M0,12.5H9.259V0H0Z" transform="translate(314.5 72.5)" fill="none" stroke="#7965e6" stroke-miterlimit="10" stroke-width="1.351"/>
    <path id="Fill_37" data-name="Fill 37" d="M1.488,11.314a7,7,0,1,1,9.826,1.2,7,7,0,0,1-9.826-1.2" transform="translate(198 70.068)" fill="#7965e6"/>
    <path id="Fill_37备份_6" data-name="Fill 37备份 6" d="M1.488,11.314a7,7,0,1,1,9.826,1.2,7,7,0,0,1-9.826-1.2" transform="translate(499.98 121.068)" fill="#7965e6"/>
    <path id="Fill_37备份_8" data-name="Fill 37备份 8" d="M1.382,10.506a6.5,6.5,0,1,1,9.124,1.113,6.5,6.5,0,0,1-9.124-1.113" transform="translate(711.318 139.75)" fill="#7965e6"/>
    <path id="Fill_37备份_4" data-name="Fill 37备份 4" d="M1.116,8.485a5.25,5.25,0,1,1,7.37.9,5.249,5.249,0,0,1-7.37-.9" transform="translate(336.5 129.5)" fill="#7965e6"/>
    <path id="Fill_37备份_3" data-name="Fill 37备份 3" d="M1.488,11.314a7,7,0,1,1,9.826,1.2,7,7,0,0,1-9.826-1.2" transform="translate(33 129.75)" fill="#7965e6"/>
    <path id="Fill_37备份_5" data-name="Fill 37备份 5" d="M1.913,14.546a9,9,0,1,1,12.633,1.541A9,9,0,0,1,1.913,14.546" transform="translate(1411 122.5)" fill="#7965e6"/>
    <path id="Fill_37备份_7" data-name="Fill 37备份 7" d="M1.222,9.293a5.75,5.75,0,1,1,8.071.985,5.748,5.748,0,0,1-8.071-.985" transform="translate(1399.5 48.5)" fill="#7965e6"/>
    <g id="编组_19" data-name="编组 19" transform="translate(1303 9)">
      <path id="Stroke_19" data-name="Stroke 19" d="M26.6,4.363a15.726,15.726,0,1,1-22.233.49A15.724,15.724,0,0,1,26.6,4.363Z" transform="translate(0 0)" fill="none" stroke="#7965e6" stroke-miterlimit="10" stroke-width="0.743"/>
      <g id="编组-20" data-name="编组" transform="matrix(0.309, -0.951, 0.951, 0.309, 5.931, 21.422)">
        <path id="Clip_2-16" data-name="Clip 2" d="M0,0H16.079V14.752H0Z" transform="translate(0 0)" fill="none"/>
        <g id="编组-21" data-name="编组" clip-path="url(#clip-path-7)">
          <path id="Fill_1-14" data-name="Fill 1" d="M9.664,14.752H6.444V8.471C2.71,8.3,0,7.562,0,6.711s2.71-1.59,6.444-1.759V3H1.922V0H14.185V3H9.664V4.955c3.717.17,6.415.909,6.415,1.757S13.381,8.3,9.664,8.469v6.282ZM6.44,5.347c-2.979.137-5.059.625-5.059,1.187S3.462,7.586,6.44,7.721l.191.008c.209.01.414.015.588.019h.017l.167,0h.048l.14,0h.895l.141,0h.051l.18,0h.006c.151,0,.277-.007.4-.012H9.28l.176-.007h.022l.186-.008c2.962-.137,5.03-.624,5.03-1.185s-2.07-1.049-5.033-1.183v1.81c-.533.029-1.08.043-1.625.043-.529,0-1.066-.014-1.6-.041Z" transform="translate(0 0)" fill="#7965e6"/>
        </g>
      </g>
    </g>
    <g id="编组_19备份" data-name="编组 19备份" transform="translate(182 120.75)">
      <path id="Stroke_19-2" data-name="Stroke 19" d="M26.6,4.363a15.726,15.726,0,1,1-22.233.49A15.724,15.724,0,0,1,26.6,4.363Z" transform="translate(0 0)" fill="none" stroke="#7965e6" stroke-miterlimit="10" stroke-width="0.743"/>
      <g id="编组-22" data-name="编组" transform="matrix(0.309, -0.951, 0.951, 0.309, 5.931, 21.422)">
        <path id="Clip_2-17" data-name="Clip 2" d="M0,0H16.079V14.752H0Z" transform="translate(0 0)" fill="none"/>
        <g id="编组-23" data-name="编组" clip-path="url(#clip-path-7)">
          <path id="Fill_1-15" data-name="Fill 1" d="M9.664,14.752H6.444V8.471C2.71,8.3,0,7.562,0,6.711s2.71-1.59,6.444-1.759V3H1.922V0H14.185V3H9.664V4.955c3.717.17,6.415.909,6.415,1.757S13.381,8.3,9.664,8.469v6.282ZM6.44,5.347c-2.979.137-5.059.625-5.059,1.187S3.462,7.586,6.44,7.721l.191.008c.209.01.414.015.588.019h.017l.167,0h.048l.14,0h.895l.141,0h.051l.18,0h.006c.151,0,.277-.007.4-.012H9.28l.176-.007h.022l.186-.008c2.962-.137,5.03-.624,5.03-1.185s-2.07-1.049-5.033-1.183v1.81c-.533.029-1.08.043-1.625.043-.529,0-1.066-.014-1.6-.041Z" transform="translate(0 0)" fill="#7965e6"/>
        </g>
      </g>
    </g>
    <path id="Fill_37-2" data-name="Fill 37" d="M1.488,11.314a7,7,0,1,1,9.826,1.2,7,7,0,0,1-9.826-1.2" transform="translate(1146.722 46)" fill="#7965e6"/>
    <path id="Fill_37备份_2" data-name="Fill 37备份 2" d="M.957,7.273a4.5,4.5,0,1,1,6.317.771A4.5,4.5,0,0,1,.957,7.273" transform="translate(1040.5 88.775)" fill="#7965e6"/>
    <path id="Fill_37备份" data-name="Fill 37备份" d="M.957,7.273a4.5,4.5,0,1,1,6.317.771A4.5,4.5,0,0,1,.957,7.273" transform="translate(1388.5 85.91)" fill="#7965e6"/>
    <g id="编组_18-2" data-name="编组 18" transform="translate(1271 55)">
      <path id="Fill_41-5" data-name="Fill 41" d="M3.362,25.565a15.816,15.816,0,1,1,22.2,2.705,15.818,15.818,0,0,1-22.2-2.705" transform="translate(0 0)" fill="#7965e6"/>
      <g id="编组-24" data-name="编组" transform="matrix(0.438, -0.899, 0.899, 0.438, 3.234, 16.899)">
        <path id="Fill_1-16" data-name="Fill 1" d="M0,10.946,6.414,8.935V0Z" transform="translate(0.026 0)" fill="#fff"/>
        <path id="Fill_2-8" data-name="Fill 2" d="M0,8.935l6.415,2.011L0,0Z" transform="translate(6.44 0)" fill="#fff"/>
        <path id="Fill_3-8" data-name="Fill 3" d="M6.44,9.749V3.538L0,0Z" transform="translate(0 11.862)" fill="#fff"/>
        <path id="Fill_4-8" data-name="Fill 4" d="M0,3.538V9.749L6.415,0Z" transform="translate(6.44 11.862)" fill="#fff"/>
        <path id="Fill_5-8" data-name="Fill 5" d="M0,3l6.415,3.13V0Z" transform="translate(0 7.942)" fill="#fff"/>
        <path id="Fill_6-8" data-name="Fill 6" d="M0,6.134,6.415,3,0,0Z" transform="translate(6.44 7.942)" fill="#fff"/>
      </g>
    </g>
    <path id="Stroke_61-2" data-name="Stroke 61" d="M0,13.5H14.444V0H0Z" transform="translate(1074 47)" fill="none" stroke="#7965e6" stroke-miterlimit="10" stroke-width="1.351"/>
    <path id="Stroke_61备份_4" data-name="Stroke 61备份 4" d="M0,13.5H14.444V0H0Z" transform="translate(878 126)" fill="none" stroke="#7965e6" stroke-miterlimit="10" stroke-width="1.351"/>
    <path id="Stroke_61备份" data-name="Stroke 61备份" d="M0,19.5H14.444V0H0Z" transform="translate(1211.778 117)" fill="#7965e6"/>
    <path id="Stroke_61备份_5" data-name="Stroke 61备份 5" d="M0,13.5H10V0H0Z" transform="translate(776 125.865)" fill="#7965e6"/>
    <path id="Stroke_61备份_2" data-name="Stroke 61备份 2" d="M0,19.5H14.444V0H0Z" transform="translate(383 110.142)" fill="#7965e6"/>
    <g id="编组-25" data-name="编组" transform="translate(1179.5)">
      <path id="Fill_34" data-name="Fill 34" d="M23.834,11.917A11.917,11.917,0,1,1,11.917,0,11.916,11.916,0,0,1,23.834,11.917" transform="translate(0.787 0.217)" fill="#7965e6"/>
      <path id="Stroke_36" data-name="Stroke 36" d="M23.834,11.917A11.917,11.917,0,1,1,11.917,0,11.916,11.916,0,0,1,23.834,11.917Z" transform="translate(0.787 0.217)" fill="none" stroke="#fff" stroke-miterlimit="10" stroke-width="0.74"/>
      <g id="编组-26" data-name="编组" transform="matrix(0.899, -0.438, 0.438, 0.899, 3.942, 10.084)">
        <path id="Clip_2-18" data-name="Clip 2" d="M0,0H13.679V12.55H0Z" transform="translate(0 0)" fill="none"/>
        <g id="编组-27" data-name="编组" clip-path="url(#clip-path-9)">
          <path id="Fill_1-17" data-name="Fill 1" d="M8.222,12.55H5.482V7.206C2.306,7.063,0,6.433,0,5.71s2.305-1.353,5.482-1.5V2.548H1.634V0H12.067V2.548H8.222V4.215c3.162.144,5.458.773,5.458,1.495S11.384,7.06,8.222,7.2v5.344Zm-2.743-8c-2.533.116-4.3.532-4.3,1.01s1.769.9,4.3,1.01l.163.007c.171.007.345.012.5.016h.016l.142,0h.04l.12,0h.76l.121,0h.044l.152,0h.006c.114,0,.227-.005.337-.01h.016l.149-.006h.019l.158-.007C10.741,6.452,12.5,6.038,12.5,5.56S10.74,4.668,8.219,4.553v1.54c-.462.025-.927.037-1.381.037-.439,0-.9-.012-1.359-.035Z" transform="translate(0 0)" fill="#fff"/>
        </g>
      </g>
    </g>
  </g>
</svg>
