<svg width="412" height="252" viewBox="0 0 412 252" fill="none" xmlns="http://www.w3.org/2000/svg">
<mask id="mask0" mask-type="alpha" maskUnits="userSpaceOnUse" x="-2" y="0" width="414" height="252">
<path d="M-2 0C-2 0 108.112 107.174 215.925 100.8C323.737 94.4261 412 0 412 0V252H-2V0Z" fill="white"/>
</mask>
<g mask="url(#mask0)">
<g opacity="0.75">
<g opacity="0.5">
<ellipse rx="1.40959" ry="1.41114" transform="matrix(1 0 0 -1 47.8339 240.909)" fill="#9285C1"/>
<ellipse rx="1.40959" ry="1.41114" transform="matrix(1 0 0 -1 68.3739 240.909)" fill="#9285C1"/>
<ellipse rx="1.40959" ry="1.41114" transform="matrix(1 0 0 -1 54.6801 240.909)" fill="#9285C1"/>
<ellipse rx="1.40959" ry="1.41114" transform="matrix(1 0 0 -1 75.2201 240.909)" fill="#9285C1"/>
<ellipse rx="1.40959" ry="1.41114" transform="matrix(1 0 0 -1 61.5273 240.909)" fill="#9285C1"/>
<ellipse rx="1.40959" ry="1.41114" transform="matrix(1 0 0 -1 82.0663 240.909)" fill="#9285C1"/>
<ellipse rx="1.40959" ry="1.41114" transform="matrix(1 0 0 -1 47.8339 234.054)" fill="#9285C1"/>
<ellipse rx="1.40959" ry="1.41114" transform="matrix(1 0 0 -1 68.3739 234.055)" fill="#9285C1"/>
<ellipse rx="1.40959" ry="1.41114" transform="matrix(1 0 0 -1 54.6801 234.055)" fill="#9285C1"/>
<ellipse rx="1.40959" ry="1.41114" transform="matrix(1 0 0 -1 75.2201 234.055)" fill="#9285C1"/>
<ellipse rx="1.40959" ry="1.41114" transform="matrix(1 0 0 -1 61.5273 234.055)" fill="#9285C1"/>
<ellipse rx="1.40959" ry="1.41114" transform="matrix(1 0 0 -1 82.0663 234.055)" fill="#9285C1"/>
<ellipse rx="1.40959" ry="1.41114" transform="matrix(1 0 0 -1 47.8339 227.201)" fill="#9285C1"/>
<ellipse rx="1.40959" ry="1.41114" transform="matrix(1 0 0 -1 68.3739 227.201)" fill="#9285C1"/>
<ellipse rx="1.40959" ry="1.41114" transform="matrix(1 0 0 -1 54.6801 227.201)" fill="#9285C1"/>
<ellipse rx="1.40959" ry="1.41114" transform="matrix(1 0 0 -1 75.2201 227.201)" fill="#9285C1"/>
<ellipse rx="1.40959" ry="1.41114" transform="matrix(1 0 0 -1 61.5273 227.201)" fill="#9285C1"/>
<ellipse rx="1.40959" ry="1.41114" transform="matrix(1 0 0 -1 82.0663 227.201)" fill="#9285C1"/>
<ellipse rx="1.40959" ry="1.41114" transform="matrix(1 0 0 -1 47.8339 220.346)" fill="#9285C1"/>
<ellipse rx="1.40959" ry="1.41114" transform="matrix(1 0 0 -1 68.3739 220.347)" fill="#9285C1"/>
<ellipse rx="1.40959" ry="1.41114" transform="matrix(1 0 0 -1 54.6801 220.347)" fill="#9285C1"/>
<ellipse rx="1.40959" ry="1.41114" transform="matrix(1 0 0 -1 75.2201 220.347)" fill="#9285C1"/>
<ellipse rx="1.40959" ry="1.41114" transform="matrix(1 0 0 -1 61.5273 220.347)" fill="#9285C1"/>
<ellipse rx="1.40959" ry="1.41114" transform="matrix(1 0 0 -1 82.0663 220.347)" fill="#9285C1"/>
<ellipse rx="1.40959" ry="1.41114" transform="matrix(1 0 0 -1 47.8339 213.493)" fill="#9285C1"/>
<ellipse rx="1.40959" ry="1.41114" transform="matrix(1 0 0 -1 68.3739 213.493)" fill="#9285C1"/>
<ellipse rx="1.40959" ry="1.41114" transform="matrix(1 0 0 -1 54.6801 213.493)" fill="#9285C1"/>
<ellipse rx="1.40959" ry="1.41114" transform="matrix(1 0 0 -1 75.2201 213.493)" fill="#9285C1"/>
<ellipse rx="1.40959" ry="1.41114" transform="matrix(1 0 0 -1 61.5273 213.493)" fill="#9285C1"/>
<ellipse rx="1.40959" ry="1.41114" transform="matrix(1 0 0 -1 82.0663 213.493)" fill="#9285C1"/>
<ellipse rx="1.40959" ry="1.41114" transform="matrix(1 0 0 -1 75.4101 133.323)" fill="#9285C1"/>
<ellipse rx="1.40959" ry="1.41114" transform="matrix(1 0 0 -1 95.9496 133.323)" fill="#9285C1"/>
<ellipse rx="1.40959" ry="1.41114" transform="matrix(1 0 0 -1 82.2558 133.323)" fill="#9285C1"/>
<ellipse rx="1.40959" ry="1.41114" transform="matrix(1 0 0 -1 102.796 133.323)" fill="#9285C1"/>
<ellipse rx="1.40959" ry="1.41114" transform="matrix(1 0 0 -1 89.1029 133.323)" fill="#9285C1"/>
<ellipse rx="1.40959" ry="1.41114" transform="matrix(1 0 0 -1 109.642 133.323)" fill="#9285C1"/>
<ellipse rx="1.40959" ry="1.41114" transform="matrix(1 0 0 -1 75.4096 126.468)" fill="#9285C1"/>
<ellipse rx="1.40959" ry="1.41114" transform="matrix(1 0 0 -1 95.9491 126.469)" fill="#9285C1"/>
<ellipse rx="1.40959" ry="1.41114" transform="matrix(1 0 0 -1 82.2553 126.469)" fill="#9285C1"/>
<ellipse rx="1.40959" ry="1.41114" transform="matrix(1 0 0 -1 102.795 126.469)" fill="#9285C1"/>
<ellipse rx="1.40959" ry="1.41114" transform="matrix(1 0 0 -1 89.1025 126.469)" fill="#9285C1"/>
<ellipse rx="1.40959" ry="1.41114" transform="matrix(1 0 0 -1 109.642 126.469)" fill="#9285C1"/>
<ellipse rx="1.40959" ry="1.41114" transform="matrix(1 0 0 -1 75.4096 119.614)" fill="#9285C1"/>
<ellipse rx="1.40959" ry="1.41114" transform="matrix(1 0 0 -1 95.9491 119.614)" fill="#9285C1"/>
<ellipse rx="1.40959" ry="1.41114" transform="matrix(1 0 0 -1 82.2553 119.614)" fill="#9285C1"/>
<ellipse rx="1.40959" ry="1.41114" transform="matrix(1 0 0 -1 102.795 119.614)" fill="#9285C1"/>
<ellipse rx="1.40959" ry="1.41114" transform="matrix(1 0 0 -1 89.1025 119.614)" fill="#9285C1"/>
<ellipse rx="1.40959" ry="1.41114" transform="matrix(1 0 0 -1 109.642 119.614)" fill="#9285C1"/>
<ellipse rx="1.40959" ry="1.41114" transform="matrix(1 0 0 -1 75.4096 112.76)" fill="#9285C1"/>
<ellipse rx="1.40959" ry="1.41114" transform="matrix(1 0 0 -1 95.9491 112.76)" fill="#9285C1"/>
<ellipse rx="1.40959" ry="1.41114" transform="matrix(1 0 0 -1 82.2553 112.76)" fill="#9285C1"/>
<ellipse rx="1.40959" ry="1.41114" transform="matrix(1 0 0 -1 102.795 112.76)" fill="#9285C1"/>
<ellipse rx="1.40959" ry="1.41114" transform="matrix(1 0 0 -1 89.1025 112.76)" fill="#9285C1"/>
<ellipse rx="1.40959" ry="1.41114" transform="matrix(1 0 0 -1 109.642 112.76)" fill="#9285C1"/>
<ellipse rx="1.40959" ry="1.41114" transform="matrix(1 0 0 -1 75.4096 105.906)" fill="#9285C1"/>
<ellipse rx="1.40959" ry="1.41114" transform="matrix(1 0 0 -1 95.9491 105.906)" fill="#9285C1"/>
<ellipse rx="1.40959" ry="1.41114" transform="matrix(1 0 0 -1 82.2553 105.906)" fill="#9285C1"/>
<ellipse rx="1.40959" ry="1.41114" transform="matrix(1 0 0 -1 102.795 105.906)" fill="#9285C1"/>
<ellipse rx="1.40959" ry="1.41114" transform="matrix(1 0 0 -1 89.1025 105.906)" fill="#9285C1"/>
<ellipse rx="1.40959" ry="1.41114" transform="matrix(1 0 0 -1 109.642 105.906)" fill="#9285C1"/>
<ellipse rx="0.991277" ry="0.992369" transform="matrix(1 0 0 -1 4.43561 180.768)" fill="#9285C1"/>
<ellipse rx="0.991277" ry="0.992369" transform="matrix(1 0 0 -1 9.25007 180.768)" fill="#9285C1"/>
<ellipse rx="0.991277" ry="0.992369" transform="matrix(1 0 0 -1 -0.379329 180.768)" fill="#9285C1"/>
<ellipse rx="0.991277" ry="0.992369" transform="matrix(1 0 0 -1 14.065 180.768)" fill="#9285C1"/>
<ellipse rx="0.991277" ry="0.992369" transform="matrix(1 0 0 -1 4.43561 175.948)" fill="#9285C1"/>
<ellipse rx="0.991277" ry="0.992369" transform="matrix(1 0 0 -1 9.25007 175.948)" fill="#9285C1"/>
<ellipse rx="0.991277" ry="0.992369" transform="matrix(1 0 0 -1 -0.379329 175.948)" fill="#9285C1"/>
<ellipse rx="0.991277" ry="0.992369" transform="matrix(1 0 0 -1 14.065 175.948)" fill="#9285C1"/>
<ellipse rx="0.991277" ry="0.992369" transform="matrix(1 0 0 -1 4.43561 171.128)" fill="#9285C1"/>
<ellipse rx="0.991277" ry="0.992369" transform="matrix(1 0 0 -1 9.25007 171.128)" fill="#9285C1"/>
<ellipse rx="0.991277" ry="0.992369" transform="matrix(1 0 0 -1 -0.379329 171.128)" fill="#9285C1"/>
<ellipse rx="0.991277" ry="0.992369" transform="matrix(1 0 0 -1 14.065 171.128)" fill="#9285C1"/>
<ellipse rx="0.991277" ry="0.992369" transform="matrix(1 0 0 -1 4.43561 166.307)" fill="#9285C1"/>
<ellipse rx="0.991277" ry="0.992369" transform="matrix(1 0 0 -1 9.25007 166.307)" fill="#9285C1"/>
<ellipse rx="0.991277" ry="0.992369" transform="matrix(1 0 0 -1 -0.379329 166.307)" fill="#9285C1"/>
<ellipse rx="0.991277" ry="0.992369" transform="matrix(1 0 0 -1 14.065 166.307)" fill="#9285C1"/>
<ellipse rx="0.991277" ry="0.992369" transform="matrix(1 0 0 -1 4.43561 161.487)" fill="#9285C1"/>
<ellipse rx="0.991277" ry="0.992369" transform="matrix(1 0 0 -1 9.25007 161.487)" fill="#9285C1"/>
<ellipse rx="0.991277" ry="0.992369" transform="matrix(1 0 0 -1 -0.379329 161.487)" fill="#9285C1"/>
<ellipse rx="0.991277" ry="0.992369" transform="matrix(1 0 0 -1 14.065 161.487)" fill="#9285C1"/>
<ellipse rx="1.13367" ry="1.13492" transform="matrix(1 0 0 -1 -0.649533 97.9696)" fill="#9285C1"/>
<ellipse rx="1.13367" ry="1.13492" transform="matrix(1 0 0 -1 4.8573 97.9696)" fill="#9285C1"/>
<ellipse rx="1.13367" ry="1.13492" transform="matrix(1 0 0 -1 10.3632 97.9696)" fill="#9285C1"/>
<ellipse rx="1.13367" ry="1.13492" transform="matrix(1 0 0 -1 -0.649533 92.4569)" fill="#9285C1"/>
<ellipse rx="1.13367" ry="1.13492" transform="matrix(1 0 0 -1 4.8573 92.4569)" fill="#9285C1"/>
<ellipse rx="1.13367" ry="1.13492" transform="matrix(1 0 0 -1 10.3632 92.4569)" fill="#9285C1"/>
<ellipse rx="1.13367" ry="1.13492" transform="matrix(1 0 0 -1 -0.649533 86.9444)" fill="#9285C1"/>
<ellipse rx="1.13367" ry="1.13492" transform="matrix(1 0 0 -1 4.8573 86.9444)" fill="#9285C1"/>
<ellipse rx="1.13367" ry="1.13492" transform="matrix(1 0 0 -1 10.3632 86.9444)" fill="#9285C1"/>
<ellipse rx="1.13367" ry="1.13492" transform="matrix(1 0 0 -1 -0.649533 81.4322)" fill="#9285C1"/>
<ellipse rx="1.13367" ry="1.13492" transform="matrix(1 0 0 -1 4.8573 81.4322)" fill="#9285C1"/>
<ellipse rx="1.13367" ry="1.13492" transform="matrix(1 0 0 -1 10.3632 81.4322)" fill="#9285C1"/>
<ellipse rx="1.13367" ry="1.13492" transform="matrix(1 0 0 -1 -0.649533 75.92)" fill="#9285C1"/>
<ellipse rx="1.13367" ry="1.13492" transform="matrix(1 0 0 -1 4.8573 75.92)" fill="#9285C1"/>
<ellipse rx="1.13367" ry="1.13492" transform="matrix(1 0 0 -1 10.3632 75.92)" fill="#9285C1"/>
<path d="M112.193 184.673L108.957 195.78C108.799 196.321 108.228 196.625 107.692 196.453L96.0865 192.735" stroke="#5E4F94" stroke-width="2" stroke-linecap="round"/>
<path d="M108.167 177.619L104.93 188.726C104.773 189.266 104.201 189.571 103.665 189.399L92.0601 185.681" stroke="#5E4F94" stroke-width="2" stroke-linecap="round"/>
<path d="M104.14 169.557L100.904 180.664C100.746 181.204 100.174 181.508 99.6384 181.337L88.0332 177.619" stroke="#5E4F94" stroke-width="2" stroke-linecap="round"/>
<path d="M99.1064 161.495L95.8704 172.602C95.713 173.142 95.1411 173.446 94.6052 173.275L83 169.557" stroke="#5E4F94" stroke-width="2" stroke-linecap="round"/>
<path d="M-5.86896 112.956L0.455981 117.22C0.905091 117.523 1.03185 118.128 0.741925 118.585L-3.9705 126.018" stroke="#5E4F94" stroke-width="2" stroke-linecap="round"/>
<path d="M110.12 74.0565L118.328 82.2021C118.727 82.5983 118.722 83.2458 118.316 83.6348L109.515 92.0737" stroke="#5E4F94" stroke-width="2" stroke-linecap="round"/>
<path d="M102.006 74.2345L110.214 82.3801C110.613 82.7763 110.607 83.4237 110.202 83.8128L101.401 92.2517" stroke="#5E4F94" stroke-width="2" stroke-linecap="round"/>
<path d="M93.0075 73.9317L101.216 82.0774C101.615 82.4736 101.609 83.121 101.204 83.5101L92.4027 91.9489" stroke="#5E4F94" stroke-width="2" stroke-linecap="round"/>
<path d="M83.5281 74.5145L91.736 82.6601C92.1353 83.0563 92.1299 83.7038 91.7241 84.0928L82.9232 92.5317" stroke="#5E4F94" stroke-width="2" stroke-linecap="round"/>
<path d="M127.075 228.614C127.075 224.173 130.672 220.573 135.107 220.573C139.542 220.573 143.138 224.173 143.138 228.614C143.138 233.055 139.542 236.655 135.107 236.655C130.672 236.655 127.075 233.055 127.075 228.614Z" stroke="#5E4F94" stroke-linecap="round"/>
<path d="M129.865 228.668C129.865 225.68 132.285 223.259 135.268 223.259C138.251 223.259 140.67 225.68 140.67 228.668C140.67 231.656 138.251 234.077 135.268 234.077C132.285 234.077 129.865 231.656 129.865 228.668Z" stroke="#5E4F94" stroke-linecap="round"/>
<path d="M124.5 228.721C124.5 222.797 129.297 217.995 135.214 217.995C141.131 217.995 145.928 222.797 145.928 228.721C145.928 234.646 141.131 239.448 135.214 239.448C129.297 239.448 124.5 234.646 124.5 228.721Z" stroke="#5E4F94" stroke-linecap="round"/>
<path d="M45.3135 172.958C45.3135 166.249 50.7454 160.812 57.4448 160.812C64.1443 160.812 69.5762 166.249 69.5762 172.958C69.5762 179.666 64.1443 185.103 57.4448 185.103C50.7454 185.103 45.3135 179.666 45.3135 172.958Z" stroke="#5E4F94" stroke-linecap="round"/>
<path d="M49.444 173.037C49.444 168.481 53.1331 164.789 57.6827 164.789C62.2323 164.789 65.9214 168.481 65.9214 173.037C65.9214 177.593 62.2323 181.286 57.6827 181.286C53.1331 181.286 49.444 177.593 49.444 173.037Z" stroke="#5E4F94" stroke-linecap="round"/>
<path d="M41.5001 173.117C41.5001 164.212 48.7104 156.995 57.6036 156.995C66.4967 156.995 73.707 164.212 73.707 173.117C73.707 182.021 66.4967 189.239 57.6036 189.239C48.7104 189.239 41.5001 182.021 41.5001 173.117Z" stroke="#5E4F94" stroke-linecap="round"/>
<path d="M20.4956 125.997C20.4956 120.596 24.8691 116.218 30.2629 116.218C35.6568 116.218 40.0303 120.596 40.0303 125.997C40.0303 131.398 35.6568 135.776 30.2629 135.776C24.8691 135.776 20.4956 131.398 20.4956 125.997Z" stroke="#5E4F94" stroke-linecap="round"/>
<path d="M23.8532 126.062C23.8532 122.41 26.8101 119.451 30.4564 119.451C34.1027 119.451 37.0596 122.41 37.0596 126.062C37.0596 129.714 34.1027 132.673 30.4564 132.673C26.8101 132.673 23.8532 129.714 23.8532 126.062Z" stroke="#5E4F94" stroke-linecap="round"/>
<path d="M17.3956 126.126C17.3956 118.94 23.2146 113.115 30.3916 113.115C37.5686 113.115 43.3877 118.94 43.3877 126.126C43.3877 133.313 37.5686 139.137 30.3916 139.137C23.2146 139.137 17.3956 133.313 17.3956 126.126Z" stroke="#5E4F94" stroke-linecap="round"/>
<ellipse rx="0.910079" ry="0.910177" transform="matrix(-0.740333 -0.67224 0.671429 -0.741069 179.244 197.027)" fill="#9285C1"/>
<ellipse rx="0.910079" ry="0.910177" transform="matrix(-0.740333 -0.67224 0.671429 -0.741069 169.427 188.113)" fill="#9285C1"/>
<ellipse rx="0.910079" ry="0.910177" transform="matrix(-0.740333 -0.67224 0.671429 -0.741069 175.972 194.056)" fill="#9285C1"/>
<ellipse rx="0.910079" ry="0.910177" transform="matrix(-0.740333 -0.67224 0.671429 -0.741069 166.154 185.141)" fill="#9285C1"/>
<ellipse rx="0.910079" ry="0.910177" transform="matrix(-0.740333 -0.67224 0.671429 -0.741069 172.699 191.085)" fill="#9285C1"/>
<ellipse rx="0.910079" ry="0.910177" transform="matrix(-0.740333 -0.67224 0.671429 -0.741069 162.882 182.17)" fill="#9285C1"/>
<ellipse rx="0.910079" ry="0.910177" transform="matrix(-0.740333 -0.67224 0.671429 -0.741069 182.213 193.751)" fill="#9285C1"/>
<ellipse rx="0.910079" ry="0.910177" transform="matrix(-0.740333 -0.67224 0.671429 -0.741069 172.395 184.837)" fill="#9285C1"/>
<ellipse rx="0.910079" ry="0.910177" transform="matrix(-0.740333 -0.67224 0.671429 -0.741069 178.94 190.78)" fill="#9285C1"/>
<ellipse rx="0.910079" ry="0.910177" transform="matrix(-0.740333 -0.67224 0.671429 -0.741069 169.122 181.865)" fill="#9285C1"/>
<ellipse rx="0.910079" ry="0.910177" transform="matrix(-0.740333 -0.67224 0.671429 -0.741069 175.667 187.808)" fill="#9285C1"/>
<ellipse rx="0.910079" ry="0.910177" transform="matrix(-0.740333 -0.67224 0.671429 -0.741069 165.849 178.894)" fill="#9285C1"/>
<ellipse rx="0.910079" ry="0.910177" transform="matrix(-0.740333 -0.67224 0.671429 -0.741069 185.181 190.475)" fill="#9285C1"/>
<ellipse rx="0.910079" ry="0.910177" transform="matrix(-0.740333 -0.67224 0.671429 -0.741069 175.363 181.561)" fill="#9285C1"/>
<ellipse rx="0.910079" ry="0.910177" transform="matrix(-0.740333 -0.67224 0.671429 -0.741069 181.909 187.504)" fill="#9285C1"/>
<ellipse rx="0.910079" ry="0.910177" transform="matrix(-0.740333 -0.67224 0.671429 -0.741069 172.091 178.589)" fill="#9285C1"/>
<ellipse rx="0.910079" ry="0.910177" transform="matrix(-0.740333 -0.67224 0.671429 -0.741069 178.636 184.533)" fill="#9285C1"/>
<ellipse rx="0.910079" ry="0.910177" transform="matrix(-0.740333 -0.67224 0.671429 -0.741069 168.818 175.618)" fill="#9285C1"/>
<ellipse rx="0.910079" ry="0.910177" transform="matrix(-0.740333 -0.67224 0.671429 -0.741069 188.15 187.199)" fill="#9285C1"/>
<ellipse rx="0.910079" ry="0.910177" transform="matrix(-0.740333 -0.67224 0.671429 -0.741069 178.332 178.285)" fill="#9285C1"/>
<ellipse rx="0.910079" ry="0.910177" transform="matrix(-0.740333 -0.67224 0.671429 -0.741069 184.877 184.228)" fill="#9285C1"/>
<ellipse rx="0.910079" ry="0.910177" transform="matrix(-0.740333 -0.67224 0.671429 -0.741069 175.059 175.313)" fill="#9285C1"/>
<ellipse rx="0.910079" ry="0.910177" transform="matrix(-0.740333 -0.67224 0.671429 -0.741069 181.604 181.256)" fill="#9285C1"/>
<ellipse rx="0.910079" ry="0.910177" transform="matrix(-0.740333 -0.67224 0.671429 -0.741069 171.786 172.342)" fill="#9285C1"/>
<ellipse rx="0.910079" ry="0.910177" transform="matrix(-0.740333 -0.67224 0.671429 -0.741069 191.118 183.923)" fill="#9285C1"/>
<ellipse rx="0.910079" ry="0.910177" transform="matrix(-0.740333 -0.67224 0.671429 -0.741069 181.3 175.008)" fill="#9285C1"/>
<ellipse rx="0.910079" ry="0.910177" transform="matrix(-0.740333 -0.67224 0.671429 -0.741069 187.846 180.951)" fill="#9285C1"/>
<ellipse rx="0.910079" ry="0.910177" transform="matrix(-0.740333 -0.67224 0.671429 -0.741069 178.028 172.037)" fill="#9285C1"/>
<ellipse rx="0.910079" ry="0.910177" transform="matrix(-0.740333 -0.67224 0.671429 -0.741069 184.573 177.98)" fill="#9285C1"/>
<ellipse rx="0.910079" ry="0.910177" transform="matrix(-0.740333 -0.67224 0.671429 -0.741069 174.755 169.065)" fill="#9285C1"/>
<ellipse cx="238.571" cy="137.754" rx="1.40959" ry="1.41114" transform="rotate(-180 238.571 137.754)" fill="#9285C1"/>
<ellipse cx="218.032" cy="137.754" rx="1.40959" ry="1.41114" transform="rotate(-180 218.032 137.754)" fill="#9285C1"/>
<ellipse cx="231.725" cy="137.754" rx="1.40959" ry="1.41114" transform="rotate(-180 231.725 137.754)" fill="#9285C1"/>
<ellipse cx="211.185" cy="137.754" rx="1.40959" ry="1.41114" transform="rotate(-180 211.185 137.754)" fill="#9285C1"/>
<ellipse cx="224.878" cy="137.754" rx="1.40959" ry="1.41114" transform="rotate(-180 224.878 137.754)" fill="#9285C1"/>
<ellipse cx="204.339" cy="137.754" rx="1.40959" ry="1.41114" transform="rotate(-180 204.339 137.754)" fill="#9285C1"/>
<ellipse cx="238.572" cy="130.899" rx="1.40959" ry="1.41114" transform="rotate(-180 238.572 130.899)" fill="#9285C1"/>
<ellipse cx="218.032" cy="130.9" rx="1.40959" ry="1.41114" transform="rotate(-180 218.032 130.9)" fill="#9285C1"/>
<ellipse cx="231.726" cy="130.9" rx="1.40959" ry="1.41114" transform="rotate(-180 231.726 130.9)" fill="#9285C1"/>
<ellipse cx="211.186" cy="130.9" rx="1.40959" ry="1.41114" transform="rotate(-180 211.186 130.9)" fill="#9285C1"/>
<ellipse cx="224.878" cy="130.9" rx="1.40959" ry="1.41114" transform="rotate(-180 224.878 130.9)" fill="#9285C1"/>
<ellipse cx="204.339" cy="130.9" rx="1.40959" ry="1.41114" transform="rotate(-180 204.339 130.9)" fill="#9285C1"/>
<ellipse cx="238.572" cy="124.046" rx="1.40959" ry="1.41114" transform="rotate(-180 238.572 124.046)" fill="#9285C1"/>
<ellipse cx="218.032" cy="124.046" rx="1.40959" ry="1.41114" transform="rotate(-180 218.032 124.046)" fill="#9285C1"/>
<ellipse cx="231.726" cy="124.046" rx="1.40959" ry="1.41114" transform="rotate(-180 231.726 124.046)" fill="#9285C1"/>
<ellipse cx="211.186" cy="124.046" rx="1.40959" ry="1.41114" transform="rotate(-180 211.186 124.046)" fill="#9285C1"/>
<ellipse cx="224.878" cy="124.046" rx="1.40959" ry="1.41114" transform="rotate(-180 224.878 124.046)" fill="#9285C1"/>
<ellipse cx="204.339" cy="124.046" rx="1.40959" ry="1.41114" transform="rotate(-180 204.339 124.046)" fill="#9285C1"/>
<ellipse cx="238.572" cy="117.191" rx="1.40959" ry="1.41114" transform="rotate(-180 238.572 117.191)" fill="#9285C1"/>
<ellipse cx="218.032" cy="117.191" rx="1.40959" ry="1.41114" transform="rotate(-180 218.032 117.191)" fill="#9285C1"/>
<ellipse cx="231.726" cy="117.191" rx="1.40959" ry="1.41114" transform="rotate(-180 231.726 117.191)" fill="#9285C1"/>
<ellipse cx="211.186" cy="117.191" rx="1.40959" ry="1.41114" transform="rotate(-180 211.186 117.191)" fill="#9285C1"/>
<ellipse cx="224.878" cy="117.191" rx="1.40959" ry="1.41114" transform="rotate(-180 224.878 117.191)" fill="#9285C1"/>
<ellipse cx="204.339" cy="117.191" rx="1.40959" ry="1.41114" transform="rotate(-180 204.339 117.191)" fill="#9285C1"/>
<ellipse cx="238.572" cy="110.337" rx="1.40959" ry="1.41114" transform="rotate(-180 238.572 110.337)" fill="#9285C1"/>
<ellipse cx="218.032" cy="110.337" rx="1.40959" ry="1.41114" transform="rotate(-180 218.032 110.337)" fill="#9285C1"/>
<ellipse cx="231.726" cy="110.337" rx="1.40959" ry="1.41114" transform="rotate(-180 231.726 110.337)" fill="#9285C1"/>
<ellipse cx="211.186" cy="110.337" rx="1.40959" ry="1.41114" transform="rotate(-180 211.186 110.337)" fill="#9285C1"/>
<ellipse cx="224.878" cy="110.337" rx="1.40959" ry="1.41114" transform="rotate(-180 224.878 110.337)" fill="#9285C1"/>
<ellipse cx="204.339" cy="110.337" rx="1.40959" ry="1.41114" transform="rotate(-180 204.339 110.337)" fill="#9285C1"/>
<ellipse cx="321.11" cy="185.422" rx="1.07215" ry="1.07333" transform="rotate(-180 321.11 185.422)" fill="#9285C1"/>
<ellipse cx="305.487" cy="185.422" rx="1.07215" ry="1.07333" transform="rotate(-180 305.487 185.422)" fill="#9285C1"/>
<ellipse cx="315.903" cy="185.422" rx="1.07215" ry="1.07333" transform="rotate(-180 315.903 185.422)" fill="#9285C1"/>
<ellipse cx="300.28" cy="185.422" rx="1.07215" ry="1.07333" transform="rotate(-180 300.28 185.422)" fill="#9285C1"/>
<ellipse cx="310.695" cy="185.422" rx="1.07215" ry="1.07333" transform="rotate(-180 310.695 185.422)" fill="#9285C1"/>
<ellipse cx="295.072" cy="185.422" rx="1.07215" ry="1.07333" transform="rotate(-180 295.072 185.422)" fill="#9285C1"/>
<ellipse cx="321.11" cy="180.207" rx="1.07215" ry="1.07333" transform="rotate(-180 321.11 180.207)" fill="#9285C1"/>
<ellipse cx="305.487" cy="180.208" rx="1.07215" ry="1.07333" transform="rotate(-180 305.487 180.208)" fill="#9285C1"/>
<ellipse cx="315.903" cy="180.208" rx="1.07215" ry="1.07333" transform="rotate(-180 315.903 180.208)" fill="#9285C1"/>
<ellipse cx="300.28" cy="180.208" rx="1.07215" ry="1.07333" transform="rotate(-180 300.28 180.208)" fill="#9285C1"/>
<ellipse cx="310.695" cy="180.208" rx="1.07215" ry="1.07333" transform="rotate(-180 310.695 180.208)" fill="#9285C1"/>
<ellipse cx="295.072" cy="180.208" rx="1.07215" ry="1.07333" transform="rotate(-180 295.072 180.208)" fill="#9285C1"/>
<ellipse cx="321.11" cy="174.995" rx="1.07215" ry="1.07333" transform="rotate(-180 321.11 174.995)" fill="#9285C1"/>
<ellipse cx="305.487" cy="174.995" rx="1.07215" ry="1.07333" transform="rotate(-180 305.487 174.995)" fill="#9285C1"/>
<ellipse cx="315.903" cy="174.995" rx="1.07215" ry="1.07333" transform="rotate(-180 315.903 174.995)" fill="#9285C1"/>
<ellipse cx="300.28" cy="174.995" rx="1.07215" ry="1.07333" transform="rotate(-180 300.28 174.995)" fill="#9285C1"/>
<ellipse cx="310.695" cy="174.995" rx="1.07215" ry="1.07333" transform="rotate(-180 310.695 174.995)" fill="#9285C1"/>
<ellipse cx="295.072" cy="174.995" rx="1.07215" ry="1.07333" transform="rotate(-180 295.072 174.995)" fill="#9285C1"/>
<ellipse cx="321.11" cy="169.781" rx="1.07215" ry="1.07333" transform="rotate(-180 321.11 169.781)" fill="#9285C1"/>
<ellipse cx="305.487" cy="169.781" rx="1.07215" ry="1.07333" transform="rotate(-180 305.487 169.781)" fill="#9285C1"/>
<ellipse cx="315.903" cy="169.781" rx="1.07215" ry="1.07333" transform="rotate(-180 315.903 169.781)" fill="#9285C1"/>
<ellipse cx="300.28" cy="169.781" rx="1.07215" ry="1.07333" transform="rotate(-180 300.28 169.781)" fill="#9285C1"/>
<ellipse cx="310.695" cy="169.781" rx="1.07215" ry="1.07333" transform="rotate(-180 310.695 169.781)" fill="#9285C1"/>
<ellipse cx="295.072" cy="169.781" rx="1.07215" ry="1.07333" transform="rotate(-180 295.072 169.781)" fill="#9285C1"/>
<ellipse cx="321.11" cy="164.568" rx="1.07215" ry="1.07333" transform="rotate(-180 321.11 164.568)" fill="#9285C1"/>
<ellipse cx="305.487" cy="164.568" rx="1.07215" ry="1.07333" transform="rotate(-180 305.487 164.568)" fill="#9285C1"/>
<ellipse cx="315.903" cy="164.568" rx="1.07215" ry="1.07333" transform="rotate(-180 315.903 164.568)" fill="#9285C1"/>
<ellipse cx="300.28" cy="164.568" rx="1.07215" ry="1.07333" transform="rotate(-180 300.28 164.568)" fill="#9285C1"/>
<ellipse cx="310.695" cy="164.568" rx="1.07215" ry="1.07333" transform="rotate(-180 310.695 164.568)" fill="#9285C1"/>
<ellipse cx="295.072" cy="164.568" rx="1.07215" ry="1.07333" transform="rotate(-180 295.072 164.568)" fill="#9285C1"/>
<ellipse cx="401.321" cy="146.137" rx="1.13367" ry="1.13492" transform="rotate(-180 401.321 146.137)" fill="#9285C1"/>
<ellipse cx="412.334" cy="146.137" rx="1.13367" ry="1.13492" transform="rotate(-180 412.334 146.137)" fill="#9285C1"/>
<ellipse cx="395.815" cy="146.137" rx="1.13367" ry="1.13492" transform="rotate(-180 395.815 146.137)" fill="#9285C1"/>
<ellipse cx="406.827" cy="146.137" rx="1.13367" ry="1.13492" transform="rotate(-180 406.827 146.137)" fill="#9285C1"/>
<ellipse cx="390.309" cy="146.137" rx="1.13367" ry="1.13492" transform="rotate(-180 390.309 146.137)" fill="#9285C1"/>
<ellipse cx="401.321" cy="140.624" rx="1.13367" ry="1.13492" transform="rotate(-180 401.321 140.624)" fill="#9285C1"/>
<ellipse cx="412.334" cy="140.624" rx="1.13367" ry="1.13492" transform="rotate(-180 412.334 140.624)" fill="#9285C1"/>
<ellipse cx="395.815" cy="140.624" rx="1.13367" ry="1.13492" transform="rotate(-180 395.815 140.624)" fill="#9285C1"/>
<ellipse cx="406.827" cy="140.624" rx="1.13367" ry="1.13492" transform="rotate(-180 406.827 140.624)" fill="#9285C1"/>
<ellipse cx="390.309" cy="140.624" rx="1.13367" ry="1.13492" transform="rotate(-180 390.309 140.624)" fill="#9285C1"/>
<ellipse cx="401.321" cy="135.112" rx="1.13367" ry="1.13492" transform="rotate(-180 401.321 135.112)" fill="#9285C1"/>
<ellipse cx="412.334" cy="135.112" rx="1.13367" ry="1.13492" transform="rotate(-180 412.334 135.112)" fill="#9285C1"/>
<ellipse cx="395.815" cy="135.112" rx="1.13367" ry="1.13492" transform="rotate(-180 395.815 135.112)" fill="#9285C1"/>
<ellipse cx="406.827" cy="135.112" rx="1.13367" ry="1.13492" transform="rotate(-180 406.827 135.112)" fill="#9285C1"/>
<ellipse cx="390.309" cy="135.112" rx="1.13367" ry="1.13492" transform="rotate(-180 390.309 135.112)" fill="#9285C1"/>
<ellipse cx="401.321" cy="129.599" rx="1.13367" ry="1.13492" transform="rotate(-180 401.321 129.599)" fill="#9285C1"/>
<ellipse cx="412.334" cy="129.599" rx="1.13367" ry="1.13492" transform="rotate(-180 412.334 129.599)" fill="#9285C1"/>
<ellipse cx="395.815" cy="129.599" rx="1.13367" ry="1.13492" transform="rotate(-180 395.815 129.599)" fill="#9285C1"/>
<ellipse cx="406.827" cy="129.599" rx="1.13367" ry="1.13492" transform="rotate(-180 406.827 129.599)" fill="#9285C1"/>
<ellipse cx="390.309" cy="129.599" rx="1.13367" ry="1.13492" transform="rotate(-180 390.309 129.599)" fill="#9285C1"/>
<ellipse cx="401.321" cy="124.087" rx="1.13367" ry="1.13492" transform="rotate(-180 401.321 124.087)" fill="#9285C1"/>
<ellipse cx="412.334" cy="124.087" rx="1.13367" ry="1.13492" transform="rotate(-180 412.334 124.087)" fill="#9285C1"/>
<ellipse cx="395.815" cy="124.087" rx="1.13367" ry="1.13492" transform="rotate(-180 395.815 124.087)" fill="#9285C1"/>
<ellipse cx="406.827" cy="124.087" rx="1.13367" ry="1.13492" transform="rotate(-180 406.827 124.087)" fill="#9285C1"/>
<ellipse cx="390.309" cy="124.087" rx="1.13367" ry="1.13492" transform="rotate(-180 390.309 124.087)" fill="#9285C1"/>
<ellipse cx="306.272" cy="102.001" rx="1.13367" ry="1.13492" transform="rotate(-180 306.272 102.001)" fill="#9285C1"/>
<ellipse cx="289.754" cy="102.001" rx="1.13367" ry="1.13492" transform="rotate(-180 289.754 102.001)" fill="#9285C1"/>
<ellipse cx="300.767" cy="102.001" rx="1.13367" ry="1.13492" transform="rotate(-180 300.767 102.001)" fill="#9285C1"/>
<ellipse cx="284.247" cy="102.001" rx="1.13367" ry="1.13492" transform="rotate(-180 284.247 102.001)" fill="#9285C1"/>
<ellipse cx="295.26" cy="102.001" rx="1.13367" ry="1.13492" transform="rotate(-180 295.26 102.001)" fill="#9285C1"/>
<ellipse cx="278.741" cy="102.001" rx="1.13367" ry="1.13492" transform="rotate(-180 278.741 102.001)" fill="#9285C1"/>
<ellipse cx="306.273" cy="96.4874" rx="1.13367" ry="1.13492" transform="rotate(-180 306.273 96.4874)" fill="#9285C1"/>
<ellipse cx="289.754" cy="96.4884" rx="1.13367" ry="1.13492" transform="rotate(-180 289.754 96.4884)" fill="#9285C1"/>
<ellipse cx="300.767" cy="96.4884" rx="1.13367" ry="1.13492" transform="rotate(-180 300.767 96.4884)" fill="#9285C1"/>
<ellipse cx="284.247" cy="96.4884" rx="1.13367" ry="1.13492" transform="rotate(-180 284.247 96.4884)" fill="#9285C1"/>
<ellipse cx="295.26" cy="96.4884" rx="1.13367" ry="1.13492" transform="rotate(-180 295.26 96.4884)" fill="#9285C1"/>
<ellipse cx="278.741" cy="96.4884" rx="1.13367" ry="1.13492" transform="rotate(-180 278.741 96.4884)" fill="#9285C1"/>
<ellipse cx="306.273" cy="90.9759" rx="1.13367" ry="1.13492" transform="rotate(-180 306.273 90.9759)" fill="#9285C1"/>
<ellipse cx="289.754" cy="90.9762" rx="1.13367" ry="1.13492" transform="rotate(-180 289.754 90.9762)" fill="#9285C1"/>
<ellipse cx="300.767" cy="90.9762" rx="1.13367" ry="1.13492" transform="rotate(-180 300.767 90.9762)" fill="#9285C1"/>
<ellipse cx="284.247" cy="90.9762" rx="1.13367" ry="1.13492" transform="rotate(-180 284.247 90.9762)" fill="#9285C1"/>
<ellipse cx="295.26" cy="90.9762" rx="1.13367" ry="1.13492" transform="rotate(-180 295.26 90.9762)" fill="#9285C1"/>
<ellipse cx="278.741" cy="90.9762" rx="1.13367" ry="1.13492" transform="rotate(-180 278.741 90.9762)" fill="#9285C1"/>
<ellipse cx="306.273" cy="85.4635" rx="1.13367" ry="1.13492" transform="rotate(-180 306.273 85.4635)" fill="#9285C1"/>
<ellipse cx="289.754" cy="85.4637" rx="1.13367" ry="1.13492" transform="rotate(-180 289.754 85.4637)" fill="#9285C1"/>
<ellipse cx="300.767" cy="85.4637" rx="1.13367" ry="1.13492" transform="rotate(-180 300.767 85.4637)" fill="#9285C1"/>
<ellipse cx="284.247" cy="85.4637" rx="1.13367" ry="1.13492" transform="rotate(-180 284.247 85.4637)" fill="#9285C1"/>
<ellipse cx="295.26" cy="85.4637" rx="1.13367" ry="1.13492" transform="rotate(-180 295.26 85.4637)" fill="#9285C1"/>
<ellipse cx="278.741" cy="85.4637" rx="1.13367" ry="1.13492" transform="rotate(-180 278.741 85.4637)" fill="#9285C1"/>
<ellipse cx="306.273" cy="79.9515" rx="1.13367" ry="1.13492" transform="rotate(-180 306.273 79.9515)" fill="#9285C1"/>
<ellipse cx="289.754" cy="79.9515" rx="1.13367" ry="1.13492" transform="rotate(-180 289.754 79.9515)" fill="#9285C1"/>
<ellipse cx="300.767" cy="79.9515" rx="1.13367" ry="1.13492" transform="rotate(-180 300.767 79.9515)" fill="#9285C1"/>
<ellipse cx="284.247" cy="79.9515" rx="1.13367" ry="1.13492" transform="rotate(-180 284.247 79.9515)" fill="#9285C1"/>
<ellipse cx="295.26" cy="79.9515" rx="1.13367" ry="1.13492" transform="rotate(-180 295.26 79.9515)" fill="#9285C1"/>
<ellipse cx="278.741" cy="79.9515" rx="1.13367" ry="1.13492" transform="rotate(-180 278.741 79.9515)" fill="#9285C1"/>
<ellipse rx="1.41013" ry="1.4106" transform="matrix(-0.805509 0.592583 -0.591737 -0.806131 367.519 234.834)" fill="#9285C1"/>
<ellipse rx="1.41013" ry="1.4106" transform="matrix(-0.805509 0.592583 -0.591737 -0.806131 350.969 247.011)" fill="#9285C1"/>
<ellipse rx="1.41013" ry="1.4106" transform="matrix(-0.805509 0.592583 -0.591737 -0.806131 362.003 238.894)" fill="#9285C1"/>
<ellipse rx="1.41013" ry="1.4106" transform="matrix(-0.805509 0.592583 -0.591737 -0.806131 345.451 251.07)" fill="#9285C1"/>
<ellipse rx="1.41013" ry="1.4106" transform="matrix(-0.805509 0.592583 -0.591737 -0.806131 356.486 242.952)" fill="#9285C1"/>
<ellipse rx="1.41013" ry="1.4106" transform="matrix(-0.805509 0.592583 -0.591737 -0.806131 363.466 229.311)" fill="#9285C1"/>
<ellipse rx="1.41013" ry="1.4106" transform="matrix(-0.805509 0.592583 -0.591737 -0.806131 346.915 241.487)" fill="#9285C1"/>
<ellipse rx="1.41013" ry="1.4106" transform="matrix(-0.805509 0.592583 -0.591737 -0.806131 357.95 233.37)" fill="#9285C1"/>
<ellipse rx="1.41013" ry="1.4106" transform="matrix(-0.805509 0.592583 -0.591737 -0.806131 341.398 245.546)" fill="#9285C1"/>
<ellipse rx="1.41013" ry="1.4106" transform="matrix(-0.805509 0.592583 -0.591737 -0.806131 352.432 237.429)" fill="#9285C1"/>
<ellipse rx="1.41013" ry="1.4106" transform="matrix(-0.805509 0.592583 -0.591737 -0.806131 335.881 249.605)" fill="#9285C1"/>
<ellipse rx="1.41013" ry="1.4106" transform="matrix(-0.805509 0.592583 -0.591737 -0.806131 359.411 223.788)" fill="#9285C1"/>
<ellipse rx="1.41013" ry="1.4106" transform="matrix(-0.805509 0.592583 -0.591737 -0.806131 342.86 235.964)" fill="#9285C1"/>
<ellipse rx="1.41013" ry="1.4106" transform="matrix(-0.805509 0.592583 -0.591737 -0.806131 353.895 227.847)" fill="#9285C1"/>
<ellipse rx="1.41013" ry="1.4106" transform="matrix(-0.805509 0.592583 -0.591737 -0.806131 337.343 240.023)" fill="#9285C1"/>
<ellipse rx="1.41013" ry="1.4106" transform="matrix(-0.805509 0.592583 -0.591737 -0.806131 348.378 231.906)" fill="#9285C1"/>
<ellipse rx="1.41013" ry="1.4106" transform="matrix(-0.805509 0.592583 -0.591737 -0.806131 331.826 244.082)" fill="#9285C1"/>
<ellipse rx="1.41013" ry="1.4106" transform="matrix(-0.805509 0.592583 -0.591737 -0.806131 355.357 218.264)" fill="#9285C1"/>
<ellipse rx="1.41013" ry="1.4106" transform="matrix(-0.805509 0.592583 -0.591737 -0.806131 338.806 230.441)" fill="#9285C1"/>
<ellipse rx="1.41013" ry="1.4106" transform="matrix(-0.805509 0.592583 -0.591737 -0.806131 349.84 222.323)" fill="#9285C1"/>
<ellipse rx="1.41013" ry="1.4106" transform="matrix(-0.805509 0.592583 -0.591737 -0.806131 333.289 234.5)" fill="#9285C1"/>
<ellipse rx="1.41013" ry="1.4106" transform="matrix(-0.805509 0.592583 -0.591737 -0.806131 344.323 226.382)" fill="#9285C1"/>
<ellipse rx="1.41013" ry="1.4106" transform="matrix(-0.805509 0.592583 -0.591737 -0.806131 327.772 238.558)" fill="#9285C1"/>
<ellipse rx="1.41013" ry="1.4106" transform="matrix(-0.805509 0.592583 -0.591737 -0.806131 351.303 212.741)" fill="#9285C1"/>
<ellipse rx="1.41013" ry="1.4106" transform="matrix(-0.805509 0.592583 -0.591737 -0.806131 334.751 224.917)" fill="#9285C1"/>
<ellipse rx="1.41013" ry="1.4106" transform="matrix(-0.805509 0.592583 -0.591737 -0.806131 345.786 216.8)" fill="#9285C1"/>
<ellipse rx="1.41013" ry="1.4106" transform="matrix(-0.805509 0.592583 -0.591737 -0.806131 329.234 228.976)" fill="#9285C1"/>
<ellipse rx="1.41013" ry="1.4106" transform="matrix(-0.805509 0.592583 -0.591737 -0.806131 340.268 220.859)" fill="#9285C1"/>
<ellipse rx="1.41013" ry="1.4106" transform="matrix(-0.805509 0.592583 -0.591737 -0.806131 323.717 233.035)" fill="#9285C1"/>
<path d="M276 225.656L277.865 232.058C278.023 232.599 278.595 232.903 279.13 232.731L285.84 230.581" stroke="#5E4F94" stroke-width="2" stroke-linecap="round"/>
<path d="M278.46 221.346L280.325 227.748C280.483 228.289 281.055 228.593 281.59 228.421L288.3 226.272" stroke="#5E4F94" stroke-width="2" stroke-linecap="round"/>
<path d="M280.92 216.421L282.785 222.823C282.943 223.363 283.515 223.667 284.05 223.496L290.76 221.346" stroke="#5E4F94" stroke-width="2" stroke-linecap="round"/>
<path d="M283.995 211.495L285.86 217.897C286.018 218.438 286.59 218.742 287.126 218.57L293.835 216.421" stroke="#5E4F94" stroke-width="2" stroke-linecap="round"/>
<path d="M202.471 222.326L196.667 231.152C196.357 231.622 196.497 232.255 196.975 232.551L206.435 238.419" stroke="#5E4F94" stroke-width="2" stroke-linecap="round"/>
<path d="M209.815 220.937L204.01 229.763C203.701 230.233 203.841 230.866 204.319 231.162L213.778 237.03" stroke="#5E4F94" stroke-width="2" stroke-linecap="round"/>
<path d="M217.866 218.947L212.061 227.773C211.752 228.243 211.891 228.876 212.37 229.172L221.829 235.04" stroke="#5E4F94" stroke-width="2" stroke-linecap="round"/>
<path d="M226.516 217.662L220.712 226.488C220.402 226.958 220.542 227.591 221.02 227.887L230.48 233.755" stroke="#5E4F94" stroke-width="2" stroke-linecap="round"/>
<path d="M381.775 181.189L377.483 191.932C377.274 192.454 377.537 193.046 378.064 193.242L389.491 197.477" stroke="#5E4F94" stroke-width="2" stroke-linecap="round"/>
<path d="M389.289 178.12L384.997 188.863C384.788 189.385 385.051 189.978 385.578 190.173L397.006 194.409" stroke="#5E4F94" stroke-width="2" stroke-linecap="round"/>
<path d="M397.424 174.258L393.132 185C392.923 185.523 393.186 186.115 393.713 186.31L405.141 190.546" stroke="#5E4F94" stroke-width="2" stroke-linecap="round"/>
<path d="M406.352 171.017L402.06 181.759C401.851 182.282 402.114 182.874 402.641 183.069L414.069 187.305" stroke="#5E4F94" stroke-width="2" stroke-linecap="round"/>
<path d="M298.711 115.902L288.957 122.108C288.483 122.41 288.35 123.043 288.663 123.51L295.464 133.634" stroke="#5E4F94" stroke-width="2" stroke-linecap="round"/>
<path d="M306.601 117.808L296.847 124.014C296.372 124.316 296.239 124.949 296.553 125.416L303.354 135.54" stroke="#5E4F94" stroke-width="2" stroke-linecap="round"/>
<path d="M315.457 119.434L305.703 125.64C305.228 125.941 305.095 126.575 305.409 127.042L312.21 137.166" stroke="#5E4F94" stroke-width="2" stroke-linecap="round"/>
<path d="M324.594 122.027L314.839 128.233C314.365 128.534 314.232 129.168 314.546 129.635L321.346 139.759" stroke="#5E4F94" stroke-width="2" stroke-linecap="round"/>
<path d="M178.985 78.0877L170.777 86.2334C170.377 86.6296 170.383 87.277 170.789 87.6661L179.589 96.1049" stroke="#5E4F94" stroke-width="2" stroke-linecap="round"/>
<path d="M187.099 78.2657L178.891 86.4114C178.492 86.8076 178.497 87.455 178.903 87.844L187.704 96.2829" stroke="#5E4F94" stroke-width="2" stroke-linecap="round"/>
<path d="M196.097 77.9627L187.889 86.1084C187.49 86.5046 187.495 87.152 187.901 87.5411L196.702 95.9799" stroke="#5E4F94" stroke-width="2" stroke-linecap="round"/>
<path d="M205.576 78.5457L197.368 86.6914C196.969 87.0876 196.975 87.735 197.38 88.1241L206.181 96.5629" stroke="#5E4F94" stroke-width="2" stroke-linecap="round"/>
<path d="M407.237 79.9137L395.808 81.6404C395.253 81.7244 394.875 82.25 394.974 82.8036L397.104 94.8162" stroke="#5E4F94" stroke-width="2" stroke-linecap="round"/>
<path d="M413.682 84.8512L402.254 86.5779C401.698 86.6619 401.321 87.1875 401.419 87.7411L403.549 99.7537" stroke="#5E4F94" stroke-width="2" stroke-linecap="round"/>
<path d="M421.125 89.9229L409.697 91.6497C409.141 91.7337 408.764 92.2593 408.862 92.8129L410.993 104.826" stroke="#5E4F94" stroke-width="2" stroke-linecap="round"/>
<path d="M257.162 183.557C257.162 175.317 250.49 168.639 242.261 168.639C234.032 168.639 227.36 175.317 227.36 183.557C227.36 191.796 234.032 198.475 242.261 198.475C250.49 198.475 257.162 191.796 257.162 183.557Z" stroke="#5E4F94" stroke-linecap="round"/>
<path d="M252.125 183.654C252.125 178.039 247.578 173.488 241.97 173.488C236.362 173.488 231.815 178.039 231.815 183.654C231.815 189.269 236.362 193.821 241.97 193.821C247.578 193.821 252.125 189.269 252.125 183.654Z" stroke="#5E4F94" stroke-linecap="round"/>
<path d="M261.811 183.751C261.811 172.834 252.971 163.985 242.067 163.985C231.163 163.985 222.323 172.834 222.323 183.751C222.323 194.668 231.163 203.517 242.067 203.517C252.971 203.517 261.811 194.668 261.811 183.751Z" stroke="#5E4F94" stroke-linecap="round"/>
<path d="M356.875 164.346C356.875 160.019 353.371 156.511 349.049 156.511C344.727 156.511 341.223 160.019 341.223 164.346C341.223 168.674 344.727 172.182 349.049 172.182C353.371 172.182 356.875 168.674 356.875 164.346Z" stroke="#5E4F94" stroke-linecap="round"/>
<path d="M354.152 164.399C354.152 161.49 351.797 159.132 348.892 159.132C345.987 159.132 343.632 161.49 343.632 164.399C343.632 167.308 345.987 169.665 348.892 169.665C351.797 169.665 354.152 167.308 354.152 164.399Z" stroke="#5E4F94" stroke-linecap="round"/>
<path d="M359.389 164.451C359.389 158.676 354.712 153.995 348.944 153.995C343.177 153.995 338.5 158.676 338.5 164.451C338.5 170.227 343.177 174.907 348.944 174.907C354.712 174.907 359.389 170.227 359.389 164.451Z" stroke="#5E4F94" stroke-linecap="round"/>
<path d="M268.609 130.028C268.609 124.627 264.235 120.25 258.842 120.25C253.448 120.25 249.074 124.627 249.074 130.028C249.074 135.43 253.448 139.807 258.842 139.807C264.235 139.807 268.609 135.43 268.609 130.028Z" stroke="#5E4F94" stroke-linecap="round"/>
<path d="M265.251 130.093C265.251 126.442 262.294 123.482 258.648 123.482C255.002 123.482 252.045 126.442 252.045 130.093C252.045 133.745 255.002 136.704 258.648 136.704C262.294 136.704 265.251 133.745 265.251 130.093Z" stroke="#5E4F94" stroke-linecap="round"/>
<path d="M271.709 130.158C271.709 122.972 265.89 117.147 258.713 117.147C251.536 117.147 245.717 122.972 245.717 130.158C245.717 137.344 251.536 143.169 258.713 143.169C265.89 143.169 271.709 137.344 271.709 130.158Z" stroke="#5E4F94" stroke-linecap="round"/>
<path d="M178.635 136.333C178.635 130.932 174.262 126.555 168.868 126.555C163.474 126.555 159.101 130.932 159.101 136.333C159.101 141.735 163.474 146.112 168.868 146.112C174.262 146.112 178.635 141.735 178.635 136.333Z" stroke="#5E4F94" stroke-linecap="round"/>
<path d="M175.278 136.398C175.278 132.747 172.321 129.787 168.674 129.787C165.028 129.787 162.071 132.747 162.071 136.398C162.071 140.05 165.028 143.009 168.674 143.009C172.321 143.009 175.278 140.05 175.278 136.398Z" stroke="#5E4F94" stroke-linecap="round"/>
<path d="M181.735 136.463C181.735 129.277 175.916 123.452 168.739 123.452C161.562 123.452 155.743 129.277 155.743 136.463C155.743 143.649 161.562 149.474 168.739 149.474C175.916 149.474 181.735 143.649 181.735 136.463Z" stroke="#5E4F94" stroke-linecap="round"/>
<path d="M368.73 97.9883C368.73 89.7488 362.058 83.0703 353.829 83.0703C345.6 83.0703 338.928 89.7488 338.928 97.9883C338.928 106.228 345.6 112.906 353.829 112.906C362.058 112.906 368.73 106.228 368.73 97.9883Z" stroke="#5E4F94" stroke-linecap="round"/>
<path d="M363.693 98.0852C363.693 92.4699 359.146 87.9187 353.538 87.9187C347.93 87.9187 343.383 92.4699 343.383 98.0852C343.383 103.701 347.93 108.252 353.538 108.252C359.146 108.252 363.693 103.701 363.693 98.0852Z" stroke="#5E4F94" stroke-linecap="round"/>
<path d="M373.379 98.1821C373.379 87.2649 364.539 78.4157 353.635 78.4157C342.731 78.4157 333.891 87.2649 333.891 98.1821C333.891 109.099 342.731 117.948 353.635 117.948C364.539 117.948 373.379 109.099 373.379 98.1821Z" stroke="#5E4F94" stroke-linecap="round"/>
<path d="M414.129 234.015C414.129 226.533 408.07 220.468 400.597 220.468C393.124 220.468 387.065 226.533 387.065 234.015C387.065 241.498 393.124 247.563 400.597 247.563C408.07 247.563 414.129 241.498 414.129 234.015Z" stroke="#5E4F94" stroke-linecap="round"/>
<path d="M409.54 234.104C409.54 229.012 405.417 224.885 400.333 224.885C395.248 224.885 391.125 229.012 391.125 234.104C391.125 239.195 395.248 243.322 400.333 243.322C405.417 243.322 409.54 239.195 409.54 234.104Z" stroke="#5E4F94" stroke-linecap="round"/>
<path d="M418.366 234.192C418.366 224.27 410.331 216.227 400.421 216.227C390.511 216.227 382.477 224.27 382.477 234.192C382.477 244.114 390.511 252.157 400.421 252.157C410.331 252.157 418.366 244.114 418.366 234.192Z" stroke="#5E4F94" stroke-linecap="round"/>
</g>
<g opacity="0.5">
<ellipse rx="1.40959" ry="1.41114" transform="matrix(1 0 0 -1 46.8339 47.9167)" fill="#9285C1"/>
<ellipse rx="1.40959" ry="1.41114" transform="matrix(1 0 0 -1 67.3739 47.9167)" fill="#9285C1"/>
<ellipse rx="1.40959" ry="1.41114" transform="matrix(1 0 0 -1 53.6801 47.9167)" fill="#9285C1"/>
<ellipse rx="1.40959" ry="1.41114" transform="matrix(1 0 0 -1 74.2201 47.9167)" fill="#9285C1"/>
<ellipse rx="1.40959" ry="1.41114" transform="matrix(1 0 0 -1 60.5273 47.9167)" fill="#9285C1"/>
<ellipse rx="1.40959" ry="1.41114" transform="matrix(1 0 0 -1 81.0663 47.9167)" fill="#9285C1"/>
<ellipse rx="1.40959" ry="1.41114" transform="matrix(1 0 0 -1 46.8339 41.0615)" fill="#9285C1"/>
<ellipse rx="1.40959" ry="1.41114" transform="matrix(1 0 0 -1 67.3739 41.0627)" fill="#9285C1"/>
<ellipse rx="1.40959" ry="1.41114" transform="matrix(1 0 0 -1 53.6801 41.0627)" fill="#9285C1"/>
<ellipse rx="1.40959" ry="1.41114" transform="matrix(1 0 0 -1 74.2201 41.0627)" fill="#9285C1"/>
<ellipse rx="1.40959" ry="1.41114" transform="matrix(1 0 0 -1 60.5273 41.0627)" fill="#9285C1"/>
<ellipse rx="1.40959" ry="1.41114" transform="matrix(1 0 0 -1 81.0663 41.0627)" fill="#9285C1"/>
<ellipse rx="1.40959" ry="1.41114" transform="matrix(1 0 0 -1 46.8339 34.2085)" fill="#9285C1"/>
<ellipse rx="1.40959" ry="1.41114" transform="matrix(1 0 0 -1 67.3739 34.2085)" fill="#9285C1"/>
<ellipse rx="1.40959" ry="1.41114" transform="matrix(1 0 0 -1 53.6801 34.2085)" fill="#9285C1"/>
<ellipse rx="1.40959" ry="1.41114" transform="matrix(1 0 0 -1 74.2201 34.2085)" fill="#9285C1"/>
<ellipse rx="1.40959" ry="1.41114" transform="matrix(1 0 0 -1 60.5273 34.2085)" fill="#9285C1"/>
<ellipse rx="1.40959" ry="1.41114" transform="matrix(1 0 0 -1 81.0663 34.2085)" fill="#9285C1"/>
<ellipse rx="1.40959" ry="1.41114" transform="matrix(1 0 0 -1 46.8339 27.354)" fill="#9285C1"/>
<ellipse rx="1.40959" ry="1.41114" transform="matrix(1 0 0 -1 67.3739 27.3545)" fill="#9285C1"/>
<ellipse rx="1.40959" ry="1.41114" transform="matrix(1 0 0 -1 53.6801 27.3545)" fill="#9285C1"/>
<ellipse rx="1.40959" ry="1.41114" transform="matrix(1 0 0 -1 74.2201 27.3545)" fill="#9285C1"/>
<ellipse rx="1.40959" ry="1.41114" transform="matrix(1 0 0 -1 60.5273 27.3545)" fill="#9285C1"/>
<ellipse rx="1.40959" ry="1.41114" transform="matrix(1 0 0 -1 81.0663 27.3545)" fill="#9285C1"/>
<ellipse rx="1.40959" ry="1.41114" transform="matrix(1 0 0 -1 46.8339 20.5002)" fill="#9285C1"/>
<ellipse rx="1.40959" ry="1.41114" transform="matrix(1 0 0 -1 67.3739 20.5)" fill="#9285C1"/>
<ellipse rx="1.40959" ry="1.41114" transform="matrix(1 0 0 -1 53.6801 20.5)" fill="#9285C1"/>
<ellipse rx="1.40959" ry="1.41114" transform="matrix(1 0 0 -1 74.2201 20.5)" fill="#9285C1"/>
<ellipse rx="1.40959" ry="1.41114" transform="matrix(1 0 0 -1 60.5273 20.5)" fill="#9285C1"/>
<ellipse rx="1.40959" ry="1.41114" transform="matrix(1 0 0 -1 81.0663 20.5)" fill="#9285C1"/>
<ellipse rx="1.41029" ry="1.41044" transform="matrix(0.740333 -0.67224 -0.671429 -0.741069 99.1601 8.13537)" fill="#9285C1"/>
<ellipse rx="1.41029" ry="1.41044" transform="matrix(0.740333 -0.67224 -0.671429 -0.741069 104.232 3.53088)" fill="#9285C1"/>
<ellipse rx="1.41029" ry="1.41044" transform="matrix(0.740333 -0.67224 -0.671429 -0.741069 109.303 -1.07361)" fill="#9285C1"/>
<ellipse rx="1.41029" ry="1.41044" transform="matrix(0.740333 -0.67224 -0.671429 -0.741069 94.56 3.05823)" fill="#9285C1"/>
<ellipse rx="1.41029" ry="1.41044" transform="matrix(0.740333 -0.67224 -0.671429 -0.741069 99.6322 -1.54578)" fill="#9285C1"/>
<path d="M17.4619 37.9062L14.2259 49.0134C14.0685 49.5536 13.4966 49.8576 12.9607 49.686L1.3555 45.9682" stroke="#5E4F94" stroke-width="2" stroke-linecap="round"/>
<path d="M13.4355 30.8517L10.1995 41.9589C10.0421 42.4991 9.47019 42.8032 8.93434 42.6315L-2.67087 38.9138" stroke="#5E4F94" stroke-width="2" stroke-linecap="round"/>
<path d="M9.40869 22.7899L6.17265 33.8972C6.01526 34.4374 5.44333 34.7414 4.90749 34.5698L-6.69773 30.852" stroke="#5E4F94" stroke-width="2" stroke-linecap="round"/>
<path d="M4.37549 14.7277L1.13945 25.8349C0.982057 26.3751 0.41013 26.6792 -0.125718 26.5075L-11.7309 22.7898" stroke="#5E4F94" stroke-width="2" stroke-linecap="round"/>
<path d="M104.514 34.2807C104.514 26.4197 110.88 20.048 118.731 20.048C126.582 20.048 132.947 26.4197 132.947 34.2807C132.947 42.1417 126.582 48.5134 118.731 48.5134C110.88 48.5134 104.514 42.1417 104.514 34.2807Z" stroke="#5E4F94" stroke-linecap="round"/>
<path d="M109.327 34.3737C109.327 29.0202 113.662 24.6813 119.008 24.6813C124.354 24.6813 128.689 29.0202 128.689 34.3737C128.689 39.7272 124.354 44.0662 119.008 44.0662C113.662 44.0662 109.327 39.7272 109.327 34.3737Z" stroke="#5E4F94" stroke-linecap="round"/>
<path d="M100.072 34.4659C100.072 24.0461 108.509 15.6002 118.916 15.6002C129.323 15.6002 137.76 24.0461 137.76 34.4659C137.76 44.8856 129.323 53.3315 118.916 53.3315C108.509 53.3315 100.072 44.8856 100.072 34.4659Z" stroke="#5E4F94" stroke-linecap="round"/>
<path d="M30.9426 -13.4668C30.9426 -21.7063 37.6145 -28.3848 45.8436 -28.3848C54.0727 -28.3848 60.7446 -21.7063 60.7446 -13.4668C60.7446 -5.22731 54.0727 1.45117 45.8436 1.45117C37.6145 1.45117 30.9426 -5.22731 30.9426 -13.4668Z" stroke="#5E4F94" stroke-linecap="round"/>
<path d="M26.2931 -13.2727C26.2931 -24.1899 35.1333 -33.0391 46.0372 -33.0391C56.941 -33.0391 65.7812 -24.1899 65.7812 -13.2727C65.7812 -2.35555 56.941 6.49365 46.0372 6.49365C35.1333 6.49365 26.2931 -2.35555 26.2931 -13.2727Z" stroke="#5E4F94" stroke-linecap="round"/>
<ellipse cx="240.271" cy="51.9482" rx="1.40959" ry="1.41114" transform="rotate(-180 240.271 51.9482)" fill="#9285C1"/>
<ellipse cx="219.731" cy="51.9482" rx="1.40959" ry="1.41114" transform="rotate(-180 219.731 51.9482)" fill="#9285C1"/>
<ellipse cx="233.424" cy="51.9482" rx="1.40959" ry="1.41114" transform="rotate(-180 233.424 51.9482)" fill="#9285C1"/>
<ellipse cx="212.884" cy="51.9482" rx="1.40959" ry="1.41114" transform="rotate(-180 212.884 51.9482)" fill="#9285C1"/>
<ellipse cx="226.577" cy="51.9482" rx="1.40959" ry="1.41114" transform="rotate(-180 226.577 51.9482)" fill="#9285C1"/>
<ellipse cx="206.038" cy="51.9482" rx="1.40959" ry="1.41114" transform="rotate(-180 206.038 51.9482)" fill="#9285C1"/>
<ellipse cx="240.271" cy="45.0933" rx="1.40959" ry="1.41114" transform="rotate(-180 240.271 45.0933)" fill="#9285C1"/>
<ellipse cx="219.731" cy="45.0945" rx="1.40959" ry="1.41114" transform="rotate(-180 219.731 45.0945)" fill="#9285C1"/>
<ellipse cx="233.424" cy="45.0945" rx="1.40959" ry="1.41114" transform="rotate(-180 233.424 45.0945)" fill="#9285C1"/>
<ellipse cx="212.884" cy="45.0945" rx="1.40959" ry="1.41114" transform="rotate(-180 212.884 45.0945)" fill="#9285C1"/>
<ellipse cx="226.577" cy="45.0945" rx="1.40959" ry="1.41114" transform="rotate(-180 226.577 45.0945)" fill="#9285C1"/>
<ellipse cx="206.038" cy="45.0945" rx="1.40959" ry="1.41114" transform="rotate(-180 206.038 45.0945)" fill="#9285C1"/>
<ellipse cx="240.271" cy="38.24" rx="1.40959" ry="1.41114" transform="rotate(-180 240.271 38.24)" fill="#9285C1"/>
<ellipse cx="219.731" cy="38.2397" rx="1.40959" ry="1.41114" transform="rotate(-180 219.731 38.2397)" fill="#9285C1"/>
<ellipse cx="233.424" cy="38.2397" rx="1.40959" ry="1.41114" transform="rotate(-180 233.424 38.2397)" fill="#9285C1"/>
<ellipse cx="212.884" cy="38.2397" rx="1.40959" ry="1.41114" transform="rotate(-180 212.884 38.2397)" fill="#9285C1"/>
<ellipse cx="226.577" cy="38.2397" rx="1.40959" ry="1.41114" transform="rotate(-180 226.577 38.2397)" fill="#9285C1"/>
<ellipse cx="206.038" cy="38.2397" rx="1.40959" ry="1.41114" transform="rotate(-180 206.038 38.2397)" fill="#9285C1"/>
<ellipse cx="240.271" cy="31.3852" rx="1.40959" ry="1.41114" transform="rotate(-180 240.271 31.3852)" fill="#9285C1"/>
<ellipse cx="219.731" cy="31.3857" rx="1.40959" ry="1.41114" transform="rotate(-180 219.731 31.3857)" fill="#9285C1"/>
<ellipse cx="233.424" cy="31.3857" rx="1.40959" ry="1.41114" transform="rotate(-180 233.424 31.3857)" fill="#9285C1"/>
<ellipse cx="212.884" cy="31.3857" rx="1.40959" ry="1.41114" transform="rotate(-180 212.884 31.3857)" fill="#9285C1"/>
<ellipse cx="226.577" cy="31.3857" rx="1.40959" ry="1.41114" transform="rotate(-180 226.577 31.3857)" fill="#9285C1"/>
<ellipse cx="206.038" cy="31.3857" rx="1.40959" ry="1.41114" transform="rotate(-180 206.038 31.3857)" fill="#9285C1"/>
<ellipse cx="240.271" cy="24.5317" rx="1.40959" ry="1.41114" transform="rotate(-180 240.271 24.5317)" fill="#9285C1"/>
<ellipse cx="219.731" cy="24.5315" rx="1.40959" ry="1.41114" transform="rotate(-180 219.731 24.5315)" fill="#9285C1"/>
<ellipse cx="233.424" cy="24.5315" rx="1.40959" ry="1.41114" transform="rotate(-180 233.424 24.5315)" fill="#9285C1"/>
<ellipse cx="212.884" cy="24.5315" rx="1.40959" ry="1.41114" transform="rotate(-180 212.884 24.5315)" fill="#9285C1"/>
<ellipse cx="226.577" cy="24.5315" rx="1.40959" ry="1.41114" transform="rotate(-180 226.577 24.5315)" fill="#9285C1"/>
<ellipse cx="206.038" cy="24.5315" rx="1.40959" ry="1.41114" transform="rotate(-180 206.038 24.5315)" fill="#9285C1"/>
<ellipse rx="1.41029" ry="1.41044" transform="matrix(-0.740333 -0.67224 0.671429 -0.741069 187.944 12.1669)" fill="#9285C1"/>
<ellipse rx="1.41029" ry="1.41044" transform="matrix(-0.740333 -0.67224 0.671429 -0.741069 172.731 -1.64734)" fill="#9285C1"/>
<ellipse rx="1.41029" ry="1.41044" transform="matrix(-0.740333 -0.67224 0.671429 -0.741069 182.873 7.56238)" fill="#9285C1"/>
<ellipse rx="1.41029" ry="1.41044" transform="matrix(-0.740333 -0.67224 0.671429 -0.741069 177.801 2.95764)" fill="#9285C1"/>
<ellipse rx="1.41029" ry="1.41044" transform="matrix(-0.740333 -0.67224 0.671429 -0.741069 192.545 7.08948)" fill="#9285C1"/>
<ellipse rx="1.41029" ry="1.41044" transform="matrix(-0.740333 -0.67224 0.671429 -0.741069 187.472 2.48547)" fill="#9285C1"/>
<ellipse rx="1.41029" ry="1.41044" transform="matrix(-0.740333 -0.67224 0.671429 -0.741069 197.144 2.01282)" fill="#9285C1"/>
<ellipse rx="1.41013" ry="1.4106" transform="matrix(-0.805509 0.592583 -0.591737 -0.806131 366.519 41.8413)" fill="#9285C1"/>
<ellipse rx="1.41013" ry="1.4106" transform="matrix(-0.805509 0.592583 -0.591737 -0.806131 349.968 54.0178)" fill="#9285C1"/>
<ellipse rx="1.41013" ry="1.4106" transform="matrix(-0.805509 0.592583 -0.591737 -0.806131 361.003 45.9004)" fill="#9285C1"/>
<ellipse rx="1.41013" ry="1.4106" transform="matrix(-0.805509 0.592583 -0.591737 -0.806131 344.451 58.0764)" fill="#9285C1"/>
<ellipse rx="1.41013" ry="1.4106" transform="matrix(-0.805509 0.592583 -0.591737 -0.806131 355.486 49.959)" fill="#9285C1"/>
<ellipse rx="1.41013" ry="1.4106" transform="matrix(-0.805509 0.592583 -0.591737 -0.806131 338.934 62.1353)" fill="#9285C1"/>
<ellipse rx="1.41013" ry="1.4106" transform="matrix(-0.805509 0.592583 -0.591737 -0.806131 362.465 36.3176)" fill="#9285C1"/>
<ellipse rx="1.41013" ry="1.4106" transform="matrix(-0.805509 0.592583 -0.591737 -0.806131 345.915 48.4949)" fill="#9285C1"/>
<ellipse rx="1.41013" ry="1.4106" transform="matrix(-0.805509 0.592583 -0.591737 -0.806131 356.949 40.3772)" fill="#9285C1"/>
<ellipse rx="1.41013" ry="1.4106" transform="matrix(-0.805509 0.592583 -0.591737 -0.806131 340.398 52.5535)" fill="#9285C1"/>
<ellipse rx="1.41013" ry="1.4106" transform="matrix(-0.805509 0.592583 -0.591737 -0.806131 351.432 44.4363)" fill="#9285C1"/>
<ellipse rx="1.41013" ry="1.4106" transform="matrix(-0.805509 0.592583 -0.591737 -0.806131 334.88 56.6121)" fill="#9285C1"/>
<ellipse rx="1.41013" ry="1.4106" transform="matrix(-0.805509 0.592583 -0.591737 -0.806131 358.411 30.7952)" fill="#9285C1"/>
<ellipse rx="1.41013" ry="1.4106" transform="matrix(-0.805509 0.592583 -0.591737 -0.806131 341.86 42.9717)" fill="#9285C1"/>
<ellipse rx="1.41013" ry="1.4106" transform="matrix(-0.805509 0.592583 -0.591737 -0.806131 352.894 34.8543)" fill="#9285C1"/>
<ellipse rx="1.41013" ry="1.4106" transform="matrix(-0.805509 0.592583 -0.591737 -0.806131 336.343 47.0303)" fill="#9285C1"/>
<ellipse rx="1.41013" ry="1.4106" transform="matrix(-0.805509 0.592583 -0.591737 -0.806131 347.377 38.9129)" fill="#9285C1"/>
<ellipse rx="1.41013" ry="1.4106" transform="matrix(-0.805509 0.592583 -0.591737 -0.806131 330.826 51.0891)" fill="#9285C1"/>
<ellipse rx="1.41013" ry="1.4106" transform="matrix(-0.805509 0.592583 -0.591737 -0.806131 354.357 25.2715)" fill="#9285C1"/>
<ellipse rx="1.41013" ry="1.4106" transform="matrix(-0.805509 0.592583 -0.591737 -0.806131 337.806 37.4485)" fill="#9285C1"/>
<ellipse rx="1.41013" ry="1.4106" transform="matrix(-0.805509 0.592583 -0.591737 -0.806131 348.84 29.3311)" fill="#9285C1"/>
<ellipse rx="1.41013" ry="1.4106" transform="matrix(-0.805509 0.592583 -0.591737 -0.806131 332.288 41.5071)" fill="#9285C1"/>
<ellipse rx="1.41013" ry="1.4106" transform="matrix(-0.805509 0.592583 -0.591737 -0.806131 343.322 33.3897)" fill="#9285C1"/>
<ellipse rx="1.41013" ry="1.4106" transform="matrix(-0.805509 0.592583 -0.591737 -0.806131 326.771 45.5657)" fill="#9285C1"/>
<ellipse rx="1.41013" ry="1.4106" transform="matrix(-0.805509 0.592583 -0.591737 -0.806131 350.302 19.749)" fill="#9285C1"/>
<ellipse rx="1.41013" ry="1.4106" transform="matrix(-0.805509 0.592583 -0.591737 -0.806131 333.751 31.9253)" fill="#9285C1"/>
<ellipse rx="1.41013" ry="1.4106" transform="matrix(-0.805509 0.592583 -0.591737 -0.806131 344.785 23.8076)" fill="#9285C1"/>
<ellipse rx="1.41013" ry="1.4106" transform="matrix(-0.805509 0.592583 -0.591737 -0.806131 328.234 35.9839)" fill="#9285C1"/>
<ellipse rx="1.41013" ry="1.4106" transform="matrix(-0.805509 0.592583 -0.591737 -0.806131 339.268 27.8662)" fill="#9285C1"/>
<ellipse rx="1.41013" ry="1.4106" transform="matrix(-0.805509 0.592583 -0.591737 -0.806131 322.716 40.0427)" fill="#9285C1"/>
<path d="M269.643 41.9374L272.879 53.0446C273.036 53.5848 273.608 53.8889 274.144 53.7172L285.749 49.9995" stroke="#5E4F94" stroke-width="2" stroke-linecap="round"/>
<path d="M273.669 34.8832L276.905 45.9904C277.062 46.5306 277.634 46.8347 278.17 46.663L289.775 42.9453" stroke="#5E4F94" stroke-width="2" stroke-linecap="round"/>
<path d="M277.696 26.8209L280.932 37.9282C281.089 38.4684 281.661 38.7724 282.197 38.6008L293.802 34.883" stroke="#5E4F94" stroke-width="2" stroke-linecap="round"/>
<path d="M282.729 18.7587L285.965 29.8659C286.122 30.4061 286.694 30.7102 287.23 30.5385L298.835 26.8208" stroke="#5E4F94" stroke-width="2" stroke-linecap="round"/>
<path d="M380.775 -11.8033L376.483 -1.06064C376.274 -0.538149 376.537 0.0539547 377.064 0.249384L388.491 4.48505" stroke="#5E4F94" stroke-width="2" stroke-linecap="round"/>
<path d="M388.289 -14.8721L383.997 -4.12948C383.788 -3.607 384.051 -3.01489 384.578 -2.81946L396.006 1.4162" stroke="#5E4F94" stroke-width="2" stroke-linecap="round"/>
<path d="M396.424 -18.7347L392.132 -7.99203C391.923 -7.46955 392.186 -6.87744 392.713 -6.68201L404.141 -2.44635" stroke="#5E4F94" stroke-width="2" stroke-linecap="round"/>
<path d="M182.59 38.3119C182.59 30.4509 176.225 24.0792 168.374 24.0792C160.523 24.0792 154.157 30.4509 154.157 38.3119C154.157 46.173 160.523 52.5447 168.374 52.5447C176.225 52.5447 182.59 46.173 182.59 38.3119Z" stroke="#5E4F94" stroke-linecap="round"/>
<path d="M177.778 38.4047C177.778 33.0512 173.443 28.7123 168.096 28.7123C162.75 28.7123 158.415 33.0512 158.415 38.4047C158.415 43.7582 162.75 48.0972 168.096 48.0972C173.443 48.0972 177.778 43.7582 177.778 38.4047Z" stroke="#5E4F94" stroke-linecap="round"/>
<path d="M187.033 38.4971C187.033 28.0774 178.596 19.6315 168.189 19.6315C157.782 19.6315 149.344 28.0774 149.344 38.4971C149.344 48.9169 157.782 57.3628 168.189 57.3628C178.596 57.3628 187.033 48.9169 187.033 38.4971Z" stroke="#5E4F94" stroke-linecap="round"/>
<path d="M256.162 -9.43531C256.162 -17.6748 249.49 -24.3533 241.261 -24.3533C233.032 -24.3533 226.36 -17.6748 226.36 -9.43531C226.36 -1.19582 233.032 5.48267 241.261 5.48267C249.49 5.48267 256.162 -1.19582 256.162 -9.43531Z" stroke="#5E4F94" stroke-linecap="round"/>
<path d="M251.125 -9.33864C251.125 -14.954 246.578 -19.5052 240.97 -19.5052C235.362 -19.5052 230.815 -14.954 230.815 -9.33864C230.815 -3.72331 235.362 0.827881 240.97 0.827881C246.578 0.827881 251.125 -3.72331 251.125 -9.33864Z" stroke="#5E4F94" stroke-linecap="round"/>
<path d="M260.811 -9.24149C260.811 -20.1587 251.971 -29.0079 241.067 -29.0079C230.163 -29.0079 221.323 -20.1587 221.323 -9.24149C221.323 1.6757 230.163 10.5249 241.067 10.5249C251.971 10.5249 260.811 1.6757 260.811 -9.24149Z" stroke="#5E4F94" stroke-linecap="round"/>
<path d="M413.129 41.0226C413.129 33.54 407.07 27.4751 399.597 27.4751C392.124 27.4751 386.065 33.54 386.065 41.0226C386.065 48.5052 392.124 54.5701 399.597 54.5701C407.07 54.5701 413.129 48.5052 413.129 41.0226Z" stroke="#5E4F94" stroke-linecap="round"/>
<path d="M408.54 41.111C408.54 36.0193 404.417 31.8926 399.333 31.8926C394.248 31.8926 390.125 36.0193 390.125 41.111C390.125 46.2027 394.248 50.3293 399.333 50.3293C404.417 50.3293 408.54 46.2027 408.54 41.111Z" stroke="#5E4F94" stroke-linecap="round"/>
<path d="M417.366 41.1994C417.366 31.2771 409.331 23.2344 399.421 23.2344C389.511 23.2344 381.477 31.2771 381.477 41.1994C381.477 51.1216 389.511 59.1643 399.421 59.1643C409.331 59.1643 417.366 51.1216 417.366 41.1994Z" stroke="#5E4F94" stroke-linecap="round"/>
</g>
</g>
</g>
</svg>
