<?xml version="1.0" encoding="UTF-8"?>
<svg width="10px" height="9px" viewBox="0 0 10 9" version="1.1" xmlns="http://www.w3.org/2000/svg" xmlns:xlink="http://www.w3.org/1999/xlink">
    <!-- Generator: Sketch 60.1 (88133) - https://sketch.com -->
    <title>icon-coin-cad-white@2x</title>
    <desc>Created with Sketch.</desc>
    <defs>
        <polygon id="path-1" points="0.00132417415 0.00880634874 9.03973964 0.00880634874 9.03973964 9.02655149 0.00132417415 9.02655149"></polygon>
    </defs>
    <g id="Symbols" stroke="none" stroke-width="1" fill="none" fill-rule="evenodd">
        <g id="底部" transform="translate(-435.000000, -441.000000)">
            <g id="编组-29备份">
                <g transform="translate(145.000000, 433.000000)">
                    <g id="编组-22" transform="translate(290.000000, 0.000000)">
                        <g id="icon-coin-cad-color" transform="translate(0.000000, 7.975738)">
                            <g id="canada" transform="translate(0.000000, 0.000000)">
                                <g id="Group-5">
                                    <mask id="mask-2" fill="white">
                                        <use xlink:href="#path-1"></use>
                                    </mask>
                                    <g id="Clip-2"></g>
                                    <path d="M9.03973964,4.51767892 C9.03973964,7.0077841 7.01604843,9.02655149 4.51986982,9.02655149 C2.02358086,9.02655149 0,7.0077841 0,4.51767892 C0,2.02746365 2.02358086,0.00880634874 4.51986982,0.00880634874 C7.01604843,0.00880634874 9.03973964,2.02746365 9.03973964,4.51767892 Z" id="Fill-1" fill="#F5F5F5" mask="url(#mask-2)"></path>
                                    <path d="M9.03973964,4.51767892 C9.03973964,2.73007819 7.99686422,1.18553268 6.48501046,0.456168865 L6.48501046,8.57907889 C7.99686422,7.84980314 9.03973964,6.30525763 9.03973964,4.51767892 Z" id="Fill-3" fill="#D80027" mask="url(#mask-2)"></path>
                                    <path d="M0,4.51767892 C0,6.30525763 1.04287542,7.84980314 2.55472918,8.57907889 L2.55472918,0.456168865 C1.04287542,1.18553268 0,2.73007819 0,4.51767892 Z" id="Fill-4" fill="#D80027" mask="url(#mask-2)"></path>
                                </g>
                                <polygon id="Fill-6" fill="#D80027" points="5.30592166 5.10574487 6.09197351 4.71366421 5.69895862 4.51767892 5.69895862 4.12559826 4.91288471 4.51767892 5.30592166 3.73353961 4.91288471 3.73353961 4.51986982 3.1453856 4.12683286 3.73353961 3.73381798 3.73353961 4.12683286 4.51767892 3.34078102 4.12559826 3.34078102 4.51767892 2.94774407 4.71366421 3.73381798 5.10574487 3.53724433 5.49780352 4.32331824 5.49780352 4.32331824 6.08595753 4.71633312 6.08595753 4.71633312 5.49780352 5.50238497 5.49780352"></polygon>
                            </g>
                        </g>
                    </g>
                </g>
            </g>
        </g>
    </g>
</svg>