<?xml version="1.0" encoding="UTF-8"?>
<svg width="35px" height="35px" viewBox="0 0 35 35" version="1.1" xmlns="http://www.w3.org/2000/svg" xmlns:xlink="http://www.w3.org/1999/xlink">
    <!-- Generator: Sketch 60.1 (88133) - https://sketch.com -->
    <title>编组 3@2x</title>
    <desc>Created with Sketch.</desc>
    <defs>
        <linearGradient x1="-61.8830381%" y1="-89.112345%" x2="95.5937867%" y2="100%" id="linearGradient-1">
            <stop stop-color="#F8D68F" offset="0%"></stop>
            <stop stop-color="#8C754B" offset="100%"></stop>
        </linearGradient>
        <polygon id="path-2" points="9.79249763e-08 1.15494954e-05 14.9866811 1.15494954e-05 14.9866811 14.986093 9.79249763e-08 14.986093"></polygon>
    </defs>
    <g id="3.0" stroke="none" stroke-width="1" fill="none" fill-rule="evenodd">
        <g id="编组-3">
            <rect id="Rectangle-Copy" fill="url(#linearGradient-1)" x="0" y="0" width="35" height="35" rx="17.5"></rect>
            <g id="Group-3" transform="translate(10.000000, 10.000000)">
                <mask id="mask-3" fill="white">
                    <use xlink:href="#path-2"></use>
                </mask>
                <g id="Clip-2"></g>
                <path d="M14.5273342,0.459316583 C14.0753367,0.00724371859 13.4269447,-0.122479899 12.8353492,0.12091206 L0.964846734,5.00548492 C0.35889196,5.25592462 -0.0195,5.83907789 0.00077638191,6.48942965 C0.0142688442,7.14155276 0.424809045,7.70137688 1.04708291,7.91567337 L5.10409296,9.30204271 C5.34149246,9.38533417 5.60037437,9.33694221 5.7975603,9.1719799 L10.9258266,4.82156533 C11.2256759,4.5689397 11.2632513,4.11822362 11.0095704,3.81671608 C10.756794,3.51675377 10.3060402,3.47917839 10.0043065,3.73338693 L5.18433166,7.82280905 L1.5091809,6.56642714 C1.48577638,6.55847487 1.42362814,6.53740704 1.41914322,6.44435427 C1.41488442,6.35729397 1.47823869,6.33219347 1.50115327,6.32307286 L13.3713543,1.43574874 C13.391593,1.4274196 13.4530251,1.40224372 13.5156256,1.46499497 C13.5784899,1.52789698 13.5533518,1.58910302 13.545098,1.60915327 L8.66071357,13.4792789 C8.64416834,13.5192663 8.61631658,13.5601206 8.53509799,13.561402 C8.45640452,13.5564648 8.43205779,13.5156859 8.41720854,13.4711759 L7.31075126,10.2301206 C7.18472111,9.85971859 6.77870352,9.66053518 6.4050603,9.7866407 C6.03477136,9.91263317 5.83570101,10.3186508 5.96150503,10.6924447 L7.06815075,13.934103 C7.28135427,14.5528342 7.84046231,14.9657111 8.49258543,14.9861005 L8.54320101,14.9861005 C9.17444472,14.9861005 9.73890452,14.6076709 9.98142965,14.021691 L14.8657387,2.1513392 C15.1091683,1.55985678 14.9795201,0.911502513 14.5273342,0.459316583" id="Fill-1" fill="#FFFFFF" mask="url(#mask-3)"></path>
            </g>
        </g>
    </g>
</svg>