<svg xmlns="http://www.w3.org/2000/svg" xmlns:xlink="http://www.w3.org/1999/xlink" width="19.702" height="19.657" viewBox="0 0 19.702 19.657">
  <defs>
    <clipPath id="clip-path">
      <path id="Clip_2" data-name="Clip 2" d="M0,0H19.7V19.657H0Z" transform="translate(0.003 0.019)" fill="none"/>
    </clipPath>
  </defs>
  <g id="icon-coin-cad" transform="translate(-0.003 -0.019)">
    <g id="canada" transform="translate(0 0)">
      <g id="Group_5" data-name="Group 5">
        <path id="Clip_2-2" data-name="Clip 2" d="M0,0H19.7V19.657H0Z" transform="translate(0.003 0.019)" fill="none"/>
        <g id="Group_5-2" data-name="Group 5" clip-path="url(#clip-path)">
          <path id="Fill_1" data-name="Fill 1" d="M19.7,9.828A9.852,9.852,0,1,1,9.852,0,9.841,9.841,0,0,1,19.7,9.828Z" transform="translate(0 0.019)" fill="#fff"/>
          <path id="Fill_3" data-name="Fill 3" d="M5.569,8.853A9.827,9.827,0,0,0,0,0V17.706A9.827,9.827,0,0,0,5.569,8.853Z" transform="translate(14.136 0.994)" fill="#d80027"/>
          <path id="Fill_4" data-name="Fill 4" d="M0,8.853a9.827,9.827,0,0,0,5.569,8.853V0A9.827,9.827,0,0,0,0,8.853Z" transform="translate(0 0.994)" fill="#d80027"/>
        </g>
      </g>
      <path id="Fill_6" data-name="Fill 6" d="M5.14,4.273l1.713-.855L6,2.991V2.137l-1.713.855L5.14,1.282H4.284L3.427,0,2.57,1.282H1.713L2.57,2.991.857,2.137v.855L0,3.419l1.713.855-.428.855H3V6.41h.857V5.128H5.569Z" transform="translate(6.426 6.856)" fill="#d80027"/>
    </g>
  </g>
</svg>
