<?xml version="1.0" encoding="UTF-8"?>
<svg width="74px" height="74px" viewBox="0 0 74 74" version="1.1" xmlns="http://www.w3.org/2000/svg" xmlns:xlink="http://www.w3.org/1999/xlink">
    <!-- Generator: Sketch 60.1 (88133) - https://sketch.com -->
    <title>jiantou1@2x</title>
    <desc>Created with Sketch.</desc>
    <defs>
        <linearGradient x1="50%" y1="-100.331915%" x2="50%" y2="126.854922%" id="linearGradient-1">
            <stop stop-color="#3BDCC6" offset="0%"></stop>
            <stop stop-color="#7965E6" offset="100%"></stop>
        </linearGradient>
        <circle id="path-2" cx="25.1386719" cy="25.1386719" r="25.1386719"></circle>
        <filter x="-38.8%" y="-32.8%" width="177.6%" height="177.6%" filterUnits="objectBoundingBox" id="filter-3">
            <feOffset dx="0" dy="3" in="SourceAlpha" result="shadowOffsetOuter1"></feOffset>
            <feGaussianBlur stdDeviation="6" in="shadowOffsetOuter1" result="shadowBlurOuter1"></feGaussianBlur>
            <feColorMatrix values="0 0 0 0 0.321568627   0 0 0 0 0.164705882   0 0 0 0 0.643137255  0 0 0 0.2 0" type="matrix" in="shadowBlurOuter1"></feColorMatrix>
        </filter>
    </defs>
    <g id="3.0" stroke="none" stroke-width="1" fill="none" fill-rule="evenodd">
        <g id="jiantou1" transform="translate(36.500000, 34.500000) scale(-1, 1) translate(-36.500000, -34.500000) translate(11.000000, 9.000000)">
            <g id="椭圆形备份">
                <use fill="black" fill-opacity="1" filter="url(#filter-3)" xlink:href="#path-2"></use>
                <use fill="url(#linearGradient-1)" fill-rule="evenodd" xlink:href="#path-2"></use>
            </g>
            <g id="箭头" transform="translate(25.138672, 25.138672) scale(-1, 1) translate(-25.138672, -25.138672) translate(14.638672, 14.638672)">
                <rect id="矩形" fill="#000000" fill-rule="nonzero" opacity="0" x="0" y="0" width="20.8" height="20.8"></rect>
                <path d="M11.1228,16.307616 C11.547328,16.732144 11.547328,17.420832 11.1228,17.84536 C10.698272,18.270096 10.009792,18.270096 9.585056,17.84536 L2.908256,11.168768 C2.696096,10.9564 2.590016,10.678304 2.590016,10.4 C2.590016,10.121696 2.696304,9.843392 2.908256,9.631232 L9.585056,2.95464 C10.009792,2.529904 10.698272,2.529904 11.1228,2.95464 C11.547328,3.379168 11.547328,4.067648 11.1228,4.492384 L5.215184,10.4 L11.1228,16.307616 Z M11.983712,10.4 L17.891328,4.492384 C18.315856,4.067648 18.315856,3.379168 17.891328,2.95464 C17.4668,2.529904 16.77832,2.529904 16.353584,2.95464 L9.676784,9.631232 C9.464624,9.8436 9.358544,10.121696 9.358544,10.4 C9.358544,10.678304 9.464832,10.956608 9.676784,11.168768 L16.353584,17.84536 C16.77832,18.270096 17.4668,18.270096 17.891328,17.84536 C18.315856,17.420832 18.315856,16.732144 17.891328,16.307616 L11.983712,10.4 Z" id="形状" fill="#FFFFFF"></path>
            </g>
        </g>
    </g>
</svg>