<svg xmlns="http://www.w3.org/2000/svg" xmlns:xlink="http://www.w3.org/1999/xlink" width="40" height="40" viewBox="0 0 40 40">
  <defs>
    <clipPath id="clip-path">
      <path id="Clip_2" data-name="Clip 2" d="M0,0H40V40H0Z" transform="translate(0)" fill="none"/>
    </clipPath>
  </defs>
  <g id="LTC" transform="translate(0)">
    <path id="Clip_2-2" data-name="Clip 2" d="M0,0H40V40H0Z" transform="translate(0)" fill="none"/>
    <g id="LTC-2" data-name="LTC" clip-path="url(#clip-path)">
      <path id="Fill_1" data-name="Fill 1" d="M20,40A20,20,0,0,1,5.858,5.858,20,20,0,0,1,34.142,34.142,19.869,19.869,0,0,1,20,40ZM20,2.353A17.647,17.647,0,1,0,37.647,20,17.667,17.667,0,0,0,20,2.353Zm0,32.942A15.295,15.295,0,0,1,9.185,9.186a15.294,15.294,0,0,1,21.63,21.629A15.2,15.2,0,0,1,20,35.294Zm-4.6-13.2v0l-1.293,6.142H25.84l.653-2.882H18.43l1.059-5.117,2.1-1.031L22,17.133l-2.075,1.049,1.36-6.418H17.59l-1.759,8.359L13.352,21.27l-.411,2.041L15.4,22.092Z" transform="translate(0 0)" fill="#7f7f7f"/>
    </g>
  </g>
</svg>
