<?xml version="1.0" encoding="UTF-8"?>
<svg width="1440px" height="219px" viewBox="0 0 1440 219" version="1.1" xmlns="http://www.w3.org/2000/svg" xmlns:xlink="http://www.w3.org/1999/xlink">
    <title>编组 + 编组备份 6 蒙版</title>
    <defs>
        <rect id="path-1" x="0" y="0.5" width="1440" height="217"></rect>
        <polygon id="path-3" points="5.55555556e-05 1.11111111e-05 16.3454444 1.11111111e-05 16.3454444 14.9965556 5.55555556e-05 14.9965556"></polygon>
        <polygon id="path-5" points="4.4e-05 2.2e-05 15.95 2.2e-05 15.95 22 4.4e-05 22"></polygon>
        <polygon id="path-7" points="2.51575586e-05 5.03151171e-06 7.40180657 5.03151171e-06 7.40180657 6.79098104 2.51575586e-05 6.79098104"></polygon>
    </defs>
    <g id="页面-1" stroke="none" stroke-width="1" fill="none" fill-rule="evenodd">
        <g id="01-Home" transform="translate(0.000000, -3951.000000)">
            <g id="编组-21" transform="translate(0.000000, 3653.000000)">
                <g id="编组-+-编组备份-6-蒙版" transform="translate(0.000000, 298.500000)">
                    <mask id="mask-2" fill="white">
                        <use xlink:href="#path-1"></use>
                    </mask>
                    <use id="蒙版" fill="#7965E6" xlink:href="#path-1"></use>
                    <g id="编组" opacity="0.5" mask="url(#mask-2)">
                        <g transform="translate(1091.000000, -214.500000)">
                            <line x1="4.32422346" y1="62.637445" x2="215.990526" y2="474.445451" id="Stroke-3" stroke="#FFFFFF" stroke-dasharray="11.955,11.955"></line>
                            <line x1="99.5713359" y1="10.489784" x2="311.237639" y2="422.297291" id="Stroke-6" stroke="#FFFFFF" stroke-dasharray="11.955,11.955"></line>
                            <line x1="312.603049" y1="424.954495" x2="313.973906" y2="427.621246" id="Stroke-7" stroke="#FFFFFF"></line>
                            <line x1="263.076209" y1="96.5334596" x2="474.742512" y2="508.340966" id="Stroke-9" stroke="#FFFFFF" stroke-dasharray="11.955,11.955"></line>
                            <g id="编组" stroke="none" fill-rule="evenodd" transform="translate(19.000000, 0.019991)">
                                <path d="M115.314304,301.088945 C115.314304,304.984619 112.156284,308.143139 108.26011,308.143139 C104.363936,308.143139 101.205916,304.984619 101.205916,301.088945 C101.205916,297.192771 104.363936,294.034751 108.26011,294.034751 C112.156284,294.034751 115.314304,297.192771 115.314304,301.088945" id="Fill-12" fill="#FFFFFF"></path>
                                <path d="M254.08252,334.573252 C254.08252,338.468927 250.9245,341.627446 247.028326,341.627446 C243.132652,341.627446 239.974632,338.468927 239.974632,334.573252 C239.974632,330.677078 243.132652,327.519058 247.028326,327.519058 C250.9245,327.519058 254.08252,330.677078 254.08252,334.573252" id="Fill-14" fill="#FFFFFF"></path>
                                <path d="M76.4692584,204.884031 C76.4692584,215.479566 67.8797838,224.06904 57.2842494,224.06904 C46.6882153,224.06904 38.0987407,215.479566 38.0987407,204.884031 C38.0987407,194.287997 46.6882153,185.698522 57.2842494,185.698522 C67.8797838,185.698522 76.4692584,194.287997 76.4692584,204.884031" id="Fill-22" fill="#7965E6"></path>
                                <path d="M76.4692584,204.884031 C76.4692584,215.479566 67.8797838,224.06904 57.2842494,224.06904 C46.6882153,224.06904 38.0987407,215.479566 38.0987407,204.884031 C38.0987407,194.287997 46.6882153,185.698522 57.2842494,185.698522 C67.8797838,185.698522 76.4692584,194.287997 76.4692584,204.884031 Z" id="Stroke-24" stroke="#FFFFFF" stroke-width="2"></path>
                                <g transform="translate(57.612280, 205.084662) rotate(-25.000000) translate(-57.612280, -205.084662) translate(50.612280, 193.584662)" fill="#FFFFFF">
                                    <polygon id="Fill-3" points="6.6308045 22.2515048 6.6308045 15.856302 2.32900062e-05 12.2135121"></polygon>
                                    <polygon id="Fill-4" points="6.6308045 15.856302 6.6308045 22.2515048 13.2355009 12.2135121"></polygon>
                                </g>
                                <path d="M333.470865,232.699146 C333.470865,243.29468 324.88139,251.884155 314.285856,251.884155 C303.690321,251.884155 295.100347,243.29468 295.100347,232.699146 C295.100347,222.103611 303.690321,213.514137 314.285856,213.514137 C324.88139,213.514137 333.470865,222.103611 333.470865,232.699146" id="Fill-28" fill="#7965E6"></path>
                                <path d="M333.470865,232.699146 C333.470865,243.29468 324.88139,251.884155 314.285856,251.884155 C303.690321,251.884155 295.100347,243.29468 295.100347,232.699146 C295.100347,222.103611 303.690321,213.514137 314.285856,213.514137 C324.88139,213.514137 333.470865,222.103611 333.470865,232.699146 Z" id="Stroke-30" stroke="#FFFFFF" stroke-width="2"></path>
                                <path d="M318.701636,243.802592 L317.386753,241.181321 C315.868464,241.910479 314.076804,242.224332 312.842882,242.031422 L312.592999,239.979884 C313.839915,240.134311 315.437166,239.950397 316.890485,239.221239 C318.733621,238.296672 319.445288,236.607464 318.703136,235.128157 C317.986971,233.700826 316.532153,233.326002 314.221236,233.510915 C311.052721,233.800779 308.818768,233.426955 307.685799,231.169013 C306.605305,229.015022 307.316472,226.611649 309.508944,225.024392 L308.194061,222.403121 L309.802807,221.595499 L311.065715,224.113319 C312.649473,223.384161 313.921876,223.265217 314.89592,223.329187 L315.106321,225.367732 C314.40465,225.329749 313.054283,225.292267 311.393061,226.125376 C309.394498,227.127907 309.24107,228.69967 309.761826,229.737684 C310.439009,231.087551 311.7374,231.280461 314.464122,231.082054 C317.684613,230.831171 319.711663,231.503856 320.87012,233.813773 C321.898638,235.863813 321.434855,238.501077 318.982505,240.283241 L320.33687,242.982476 L318.701636,243.802592 Z" id="Fill-32" fill="#FFFFFF"></path>
                                <g transform="translate(287.856192, 271.372821)">
                                    <path d="M14.2148382,7.15909489 C14.2148382,11.0787579 11.0373274,14.2562688 7.11766431,14.2562688 C3.19800126,14.2562688 0.0204903972,11.0787579 0.0204903972,7.15909489 C0.0204903972,3.23943184 3.19800126,0.0619209808 7.11766431,0.0619209808 C11.0373274,0.0619209808 14.2148382,3.23943184 14.2148382,7.15909489" id="Fill-40" fill="#7965E6"></path>
                                    <path d="M14.2148382,7.15909489 C14.2148382,11.0787579 11.0373274,14.2562688 7.11766431,14.2562688 C3.19800126,14.2562688 0.0204903972,11.0787579 0.0204903972,7.15909489 C0.0204903972,3.23943184 3.19800126,0.0619209808 7.11766431,0.0619209808 C11.0373274,0.0619209808 14.2148382,3.23943184 14.2148382,7.15909489 Z" id="Stroke-42" stroke="#FFFFFF" stroke-width="0.74"></path>
                                    <path d="M8.75134869,11.2667698 L8.26457681,10.2972242 C7.70284007,10.566598 7.04015064,10.6830434 6.58386448,10.6110771 L6.49140781,9.85243266 C6.95269162,9.90940596 7.54341478,9.84143782 8.08116277,9.57156429 C8.7628433,9.22972449 9.02621987,8.60501726 8.75184845,8.05777373 C8.48697258,7.52952129 7.94872483,7.39108617 7.09362558,7.45905432 C5.92167481,7.56650396 5.0950622,7.42856861 4.67625847,6.59296021 C4.27644585,5.79633355 4.53932265,4.90675045 5.35044252,4.32002542 L4.86417041,3.34998003 L5.45939146,3.05161986 L5.92667247,3.98268352 C6.51239797,3.71280999 6.98267757,3.6688306 7.34350847,3.69281936 L7.42097217,4.44696593 C7.16159372,4.43297249 6.66182794,4.41897905 6.04761579,4.72733454 C5.30796243,5.09816075 5.25148889,5.67938836 5.44389872,6.06370825 C5.69428138,6.56297427 6.17505606,6.63394101 7.18358342,6.5609752 C8.37502505,6.46801877 9.12467373,6.71690213 9.55347277,7.57150162 C9.93379453,8.33014608 9.76237487,9.30518913 8.85529997,9.96487996 L9.35606529,10.963412 L8.75134869,11.2667698 Z" id="Fill-44" fill="#FFFFFF"></path>
                                </g>
                                <path d="M207.958386,230.858458 C207.958386,238.830722 201.495415,245.293693 193.523151,245.293693 C185.550887,245.293693 179.087916,238.830722 179.087916,230.858458 C179.087916,222.886195 185.550887,216.423223 193.523151,216.423223 C201.495415,216.423223 207.958386,222.886195 207.958386,230.858458" id="Fill-50" fill="#FFFFFF"></path>
                                <g transform="translate(193.523322, 230.858458) rotate(-27.000000) translate(-193.523322, -230.858458) translate(185.023322, 223.358458)">
                                    <mask id="mask-4" fill="white">
                                        <use xlink:href="#path-3"></use>
                                    </mask>
                                    <g id="Clip-2"></g>
                                    <path d="M14.9375,6.64412222 C14.9375,7.22567778 12.7621667,7.71356667 9.82461111,7.84901111 L9.63538889,7.85767778 L9.61283333,7.85767778 L9.43405556,7.86456667 L9.41494444,7.86456667 C9.28294444,7.86978889 9.14927778,7.87334444 9.01216667,7.87678889 L9.00516667,7.87678889 L8.82294444,7.88023333 L8.77083333,7.88023333 L8.62672222,7.88201111 L7.71705556,7.88201111 L7.57461111,7.88023333 L7.52605556,7.88023333 L7.35594444,7.87678889 L7.3385,7.87678889 C7.13716667,7.87156667 6.93927778,7.86634444 6.74305556,7.85767778 L6.74127778,7.85767778 L6.54683333,7.84901111 C3.59372222,7.71534444 1.4045,7.22567778 1.4045,6.64234444 C1.4045,6.05901111 3.59372222,5.57123333 6.54683333,5.43578889 L6.54683333,7.28301111 C7.05905556,7.30901111 7.60416667,7.32467778 8.17016667,7.32467778 C8.74483333,7.32467778 9.30038889,7.30901111 9.82116667,7.28123333 L9.82116667,5.44101111 C12.7621667,5.57467778 14.9375,6.06256667 14.9375,6.64412222 L14.9375,6.64412222 Z M14.4201667,3.04512222 L14.4201667,1.11111111e-05 L1.95316667,1.11111111e-05 L1.95316667,3.04512222 L6.55038889,3.04512222 L6.55038889,5.03478889 C2.81427778,5.20312222 5.55555556e-05,5.93923333 5.55555556e-05,6.8229 C5.55555556e-05,7.70667778 2.81427778,8.44267778 6.55038889,8.61112222 L6.55038889,14.9965667 L9.82461111,14.9965667 L9.82461111,8.60934444 C13.5468333,8.43923333 16.3455,7.70312222 16.3455,6.8229 C16.3455,5.94101111 13.5468333,5.20656667 9.82461111,5.03645556 L9.82461111,3.04512222 L14.4201667,3.04512222 Z" id="Fill-1" fill="#7965E6" mask="url(#mask-4)"></path>
                                </g>
                                <polygon id="Fill-54" fill="#FFFFFF" points="157.450806 404.753812 162.448464 404.753812 162.448464 398.006974 157.450806 398.006974"></polygon>
                                <polygon id="Stroke-57" stroke="#FFFFFF" stroke-width="1.328" points="158.014042 239.824107 168.569596 239.824107 168.569596 225.574285 158.014042 225.574285"></polygon>
                                <polygon id="Stroke-58" stroke="#FFFFFF" stroke-width="0.868" points="309.008279 389.236584 315.908046 389.236584 315.908046 379.92195 309.008279 379.92195"></polygon>
                                <polygon id="Stroke-59" stroke="#FFFFFF" stroke-width="0.834" points="203.837068 411.878973 210.469459 411.878973 210.469459 402.925669 203.837068 402.925669"></polygon>
                                <polygon id="Fill-60" fill="#FFFFFF" points="148.985274 297.384631 153.982932 297.384631 153.982932 290.637793 148.985274 290.637793"></polygon>
                            </g>
                        </g>
                    </g>
                    <g id="编组备份-6" opacity="0.5" mask="url(#mask-2)">
                        <g transform="translate(565.680630, -156.000000)">
                            <line x1="4.32422346" y1="62.637445" x2="215.990526" y2="474.445451" id="Stroke-3" stroke="#FFFFFF" stroke-dasharray="11.955,11.955"></line>
                            <line x1="99.5713359" y1="10.489784" x2="311.237639" y2="422.297291" id="Stroke-6" stroke="#FFFFFF" stroke-dasharray="11.955,11.955"></line>
                            <line x1="263.076209" y1="96.5334596" x2="474.742512" y2="508.340966" id="Stroke-9" stroke="#FFFFFF" stroke-dasharray="11.955,11.955"></line>
                            <g id="编组" stroke="none" fill-rule="evenodd" transform="translate(19.000000, 0.019991)">
                                <path d="M115.314304,301.088945 C115.314304,304.984619 112.156284,308.143139 108.26011,308.143139 C104.363936,308.143139 101.205916,304.984619 101.205916,301.088945 C101.205916,297.192771 104.363936,294.034751 108.26011,294.034751 C112.156284,294.034751 115.314304,297.192771 115.314304,301.088945" id="Fill-12" fill="#FFFFFF"></path>
                                <path d="M254.08252,334.573252 C254.08252,338.468927 250.9245,341.627446 247.028326,341.627446 C243.132652,341.627446 239.974632,338.468927 239.974632,334.573252 C239.974632,330.677078 243.132652,327.519058 247.028326,327.519058 C250.9245,327.519058 254.08252,330.677078 254.08252,334.573252" id="Fill-14" fill="#FFFFFF"></path>
                                <path d="M76.4692584,204.884031 C76.4692584,215.479566 67.8797838,224.06904 57.2842494,224.06904 C46.6882153,224.06904 38.0987407,215.479566 38.0987407,204.884031 C38.0987407,194.287997 46.6882153,185.698522 57.2842494,185.698522 C67.8797838,185.698522 76.4692584,194.287997 76.4692584,204.884031" id="Fill-22" fill="#7965E6"></path>
                                <path d="M76.4692584,204.884031 C76.4692584,215.479566 67.8797838,224.06904 57.2842494,224.06904 C46.6882153,224.06904 38.0987407,215.479566 38.0987407,204.884031 C38.0987407,194.287997 46.6882153,185.698522 57.2842494,185.698522 C67.8797838,185.698522 76.4692584,194.287997 76.4692584,204.884031 Z" id="Stroke-24" stroke="#FFFFFF" stroke-width="2"></path>
                                <g transform="translate(57.284025, 204.883931) rotate(-24.000000) translate(-57.284025, -204.883931) translate(49.284025, 193.883931)">
                                    <mask id="mask-6" fill="white">
                                        <use xlink:href="#path-5"></use>
                                    </mask>
                                    <g id="Clip-2"></g>
                                    <path d="M8.655944,16.256372 L6.306344,16.256372 L6.306344,11.856372 L9.026534,11.856372 C9.645284,11.856372 11.996534,12.100572 11.996534,13.690072 C11.996534,15.279572 10.883994,16.256372 8.657594,16.256372 L8.655944,16.256372 Z M6.306344,5.622672 L7.791344,5.622672 C8.781344,5.622672 10.882234,5.744772 10.882234,7.456372 C10.957474,8.569682 10.137204,9.542412 9.027194,9.656372 L6.306344,9.656372 L6.306344,5.622672 Z M13.107094,10.145322 C14.396184,9.468162 15.096994,8.032992 14.838384,6.600022 C14.590884,4.400022 11.868384,3.544222 9.768484,3.300022 L9.768484,2.2e-05 L7.665944,2.2e-05 L7.665944,3.300022 L6.306344,3.300022 L6.306344,2.2e-05 L4.204244,2.2e-05 L4.204244,3.300022 L4.4e-05,3.300022 L4.4e-05,5.500022 L1.607034,5.500022 C2.349094,5.500022 2.597034,5.744222 2.597034,6.233172 L2.597034,15.400022 C2.686904,15.842662 2.400794,16.274302 1.958154,16.364062 C1.883574,16.379242 1.807234,16.383862 1.731444,16.377812 L0.246444,16.377812 L0.122694,18.577812 L4.203144,18.577812 L4.203144,22.000022 L6.305134,22.000022 L6.305134,18.579022 L7.665394,18.579022 L7.665394,22.000022 L9.767934,22.000022 L9.767934,18.579022 L10.262934,18.579022 C14.590884,18.579022 15.950044,16.500022 15.950044,13.689522 C15.950044,10.879022 13.105884,10.144772 13.105884,10.144772 L13.107094,10.145322 Z" id="Fill-1" fill="#FFFFFF" mask="url(#mask-6)"></path>
                                </g>
                                <path d="M333.470865,232.699146 C333.470865,243.29468 324.88139,251.884155 314.285856,251.884155 C303.690321,251.884155 295.100347,243.29468 295.100347,232.699146 C295.100347,222.103611 303.690321,213.514137 314.285856,213.514137 C324.88139,213.514137 333.470865,222.103611 333.470865,232.699146" id="Fill-28" fill="#7965E6"></path>
                                <path d="M333.470865,232.699146 C333.470865,243.29468 324.88139,251.884155 314.285856,251.884155 C303.690321,251.884155 295.100347,243.29468 295.100347,232.699146 C295.100347,222.103611 303.690321,213.514137 314.285856,213.514137 C324.88139,213.514137 333.470865,222.103611 333.470865,232.699146 Z" id="Stroke-30" stroke="#FFFFFF" stroke-width="2"></path>
                                <path d="M318.701636,243.802592 L317.386753,241.181321 C315.868464,241.910479 314.076804,242.224332 312.842882,242.031422 L312.592999,239.979884 C313.839915,240.134311 315.437166,239.950397 316.890485,239.221239 C318.733621,238.296672 319.445288,236.607464 318.703136,235.128157 C317.986971,233.700826 316.532153,233.326002 314.221236,233.510915 C311.052721,233.800779 308.818768,233.426955 307.685799,231.169013 C306.605305,229.015022 307.316472,226.611649 309.508944,225.024392 L308.194061,222.403121 L309.802807,221.595499 L311.065715,224.113319 C312.649473,223.384161 313.921876,223.265217 314.89592,223.329187 L315.106321,225.367732 C314.40465,225.329749 313.054283,225.292267 311.393061,226.125376 C309.394498,227.127907 309.24107,228.69967 309.761826,229.737684 C310.439009,231.087551 311.7374,231.280461 314.464122,231.082054 C317.684613,230.831171 319.711663,231.503856 320.87012,233.813773 C321.898638,235.863813 321.434855,238.501077 318.982505,240.283241 L320.33687,242.982476 L318.701636,243.802592 Z" id="Fill-32" fill="#FFFFFF"></path>
                                <g transform="translate(287.856192, 271.372821)">
                                    <path d="M14.2148382,7.15909489 C14.2148382,11.0787579 11.0373274,14.2562688 7.11766431,14.2562688 C3.19800126,14.2562688 0.0204903972,11.0787579 0.0204903972,7.15909489 C0.0204903972,3.23943184 3.19800126,0.0619209808 7.11766431,0.0619209808 C11.0373274,0.0619209808 14.2148382,3.23943184 14.2148382,7.15909489" id="Fill-40" fill="#7965E6"></path>
                                    <path d="M14.2148382,7.15909489 C14.2148382,11.0787579 11.0373274,14.2562688 7.11766431,14.2562688 C3.19800126,14.2562688 0.0204903972,11.0787579 0.0204903972,7.15909489 C0.0204903972,3.23943184 3.19800126,0.0619209808 7.11766431,0.0619209808 C11.0373274,0.0619209808 14.2148382,3.23943184 14.2148382,7.15909489 Z" id="Stroke-42" stroke="#FFFFFF" stroke-width="0.74"></path>
                                    <g transform="translate(7.117664, 7.159195) rotate(-19.000000) translate(-7.117664, -7.159195) translate(3.117664, 3.659195)">
                                        <mask id="mask-8" fill="white">
                                            <use xlink:href="#path-7"></use>
                                        </mask>
                                        <g id="Clip-2"></g>
                                        <path d="M6.76423856,3.00869809 C6.76423856,3.27204741 5.7791692,3.49298109 4.44893813,3.55431522 L4.36325149,3.5582398 L4.35303752,3.5582398 L4.27208049,3.56135934 L4.26342629,3.56135934 C4.20365193,3.56372415 4.14312285,3.56533423 4.08103399,3.566894 L4.07786414,3.566894 L3.99534735,3.56845377 L3.97174956,3.56845377 L3.90649085,3.56925881 L3.49456099,3.56925881 L3.43005701,3.56845377 L3.4080693,3.56845377 L3.33103686,3.566894 L3.32313738,3.566894 C3.23196639,3.56452919 3.14235517,3.56216438 3.05349867,3.5582398 L3.05269363,3.5582398 L2.96464217,3.55431522 C1.62736699,3.49378614 0.636008238,3.27204741 0.636008238,3.00789305 C0.636008238,2.74373868 1.62736699,2.52285532 2.96464217,2.46152119 L2.96464217,3.29801001 C3.19659486,3.30978375 3.44344083,3.31687818 3.69974604,3.31687818 C3.95997582,3.31687818 4.21155141,3.30978375 4.44737836,3.29720497 L4.44737836,2.463886 C5.7791692,2.52441509 6.76423856,2.74534877 6.76423856,3.00869809 L6.76423856,3.00869809 Z M6.52997137,1.37894113 L6.52997137,5.03151171e-06 L0.884464287,5.03151171e-06 L0.884464287,1.37894113 L2.96625226,1.37894113 L2.96625226,2.27993393 C1.27440644,2.35616134 2.51575586e-05,2.68949899 2.51575586e-05,3.08965511 C2.51575586e-05,3.48986156 1.27440644,3.82314889 2.96625226,3.89942661 L2.96625226,6.79098608 L4.44893813,6.79098608 L4.44893813,3.89862157 C6.13449455,3.82158912 7.40183172,3.48825147 7.40183172,3.08965511 C7.40183172,2.69030403 6.13449455,2.35772111 4.44893813,2.28068866 L4.44893813,1.37894113 L6.52997137,1.37894113 Z" id="Fill-1" fill="#FFFFFF" mask="url(#mask-8)"></path>
                                    </g>
                                </g>
                                <path d="M207.958386,230.858458 C207.958386,238.830722 201.495415,245.293693 193.523151,245.293693 C185.550887,245.293693 179.087916,238.830722 179.087916,230.858458 C179.087916,222.886195 185.550887,216.423223 193.523151,216.423223 C201.495415,216.423223 207.958386,222.886195 207.958386,230.858458" id="Fill-50" fill="#FFFFFF"></path>
                                <g transform="translate(193.523151, 230.858458) rotate(-25.000000) translate(-193.523151, -230.858458) translate(188.023151, 221.858458)" fill="#7965E6">
                                    <polygon id="Fill-1" points="0.0207812453 8.76360053 5.15605785 7.15343886 5.15605785 7.24400706e-05"></polygon>
                                    <polygon id="Fill-2" points="5.15603069 7.15342075 10.29176 8.76358242 5.15603069 5.4330053e-05"></polygon>
                                    <polygon id="Fill-3" points="5.15603069 17.302492 5.15603069 12.3296622 1.81100177e-05 9.49707436"></polygon>
                                    <polygon id="Fill-4" points="5.15603069 12.3296622 5.15603069 17.302492 10.29176 9.49707436"></polygon>
                                    <polygon id="Fill-5" points="0 8.76360053 5.13572936 11.2697553 5.13572936 6.35868074"></polygon>
                                    <polygon id="Fill-6" points="5.15603069 11.2697372 10.29176 8.76358242 5.15603069 6.35866263"></polygon>
                                </g>
                                <polygon id="Stroke-57" stroke="#FFFFFF" stroke-width="1.328" points="158.014042 239.824107 168.569596 239.824107 168.569596 225.574285 158.014042 225.574285"></polygon>
                                <polygon id="Fill-60" fill="#FFFFFF" points="148.985274 297.384631 153.982932 297.384631 153.982932 290.637793 148.985274 290.637793"></polygon>
                                <polygon id="Fill-61" fill="#FFFFFF" points="247.028326 204.883981 252.025984 204.883981 252.025984 198.137143 247.028326 198.137143"></polygon>
                            </g>
                        </g>
                    </g>
                </g>
            </g>
        </g>
    </g>
</svg>