<svg width="70" height="70" viewBox="0 0 70 70" fill="none" xmlns="http://www.w3.org/2000/svg">
<g id="&#229;&#143;&#145;&#233;&#128;&#129;">
<g id="Group 3">
<circle id="Ellipse 62" cx="35" cy="35" r="35" fill="#C7BA9A"/>
<path id="Fill 1" fill-rule="evenodd" clip-rule="evenodd" d="M49.0805 20.9195C48.1757 20.0145 46.8778 19.7548 45.6935 20.242L21.9314 30.0202C20.7184 30.5216 19.961 31.689 20.0016 32.9909C20.0286 34.2963 20.8504 35.417 22.096 35.846L30.2173 38.6213C30.6925 38.7881 31.2107 38.6912 31.6054 38.361L41.8711 29.6521C42.4713 29.1463 42.5465 28.2441 42.0387 27.6405C41.5327 27.04 40.6304 26.9648 40.0264 27.4737L30.3779 35.6601L23.021 33.145C22.9742 33.1291 22.8498 33.0869 22.8408 32.9006C22.8323 32.7264 22.9591 32.6761 23.005 32.6579L46.7665 22.8741C46.807 22.8575 46.93 22.8071 47.0553 22.9327C47.1811 23.0586 47.1308 23.1811 47.1143 23.2213L37.3368 46.9836C37.3037 47.0636 37.2479 47.1454 37.0854 47.148C36.9278 47.1381 36.8791 47.0564 36.8494 46.9673L34.6345 40.4792C34.3822 39.7377 33.5695 39.339 32.8215 39.5914C32.0803 39.8436 31.6818 40.6564 31.9336 41.4047L34.1489 47.8941C34.5757 49.1327 35.6949 49.9592 37.0003 49.9998L37.1016 50C38.3652 50 39.4951 49.2424 39.9806 48.0694L49.7579 24.3066C50.2452 23.1226 49.9857 21.8247 49.0805 20.9195" fill="white"/>
</g>
</g>
</svg>
