<svg xmlns="http://www.w3.org/2000/svg" xmlns:xlink="http://www.w3.org/1999/xlink" width="71" height="71" viewBox="0 0 71 71">
  <defs>
    <linearGradient id="linear-gradient" x1="0.5" y1="-1.003" x2="0.5" y2="1.269" gradientUnits="objectBoundingBox">
      <stop offset="0" stop-color="#3bdcc6"/>
      <stop offset="1" stop-color="#7965e6"/>
    </linearGradient>
    <filter id="Rectangle_Copy" x="0" y="0" width="71" height="71" filterUnits="userSpaceOnUse">
      <feOffset dy="3" input="SourceAlpha"/>
      <feGaussianBlur stdDeviation="6" result="blur"/>
      <feFlood flood-color="#522aa4" flood-opacity="0.2"/>
      <feComposite operator="in" in2="blur"/>
      <feComposite in="SourceGraphic"/>
    </filter>
    <clipPath id="clip-path">
      <path id="Clip_2" data-name="Clip 2" d="M0,0H14.987V14.986H0Z" transform="translate(0 0)" fill="none"/>
    </clipPath>
  </defs>
  <g id="编组_3" data-name="编组 3" transform="translate(18 15)">
    <g transform="matrix(1, 0, 0, 1, -18, -15)" filter="url(#Rectangle_Copy)">
      <rect id="Rectangle_Copy-2" data-name="Rectangle Copy" width="35" height="35" rx="17.5" transform="translate(18 15)" fill="url(#linear-gradient)"/>
    </g>
    <g id="Group_3" data-name="Group 3" transform="translate(10 10)">
      <path id="Clip_2-2" data-name="Clip 2" d="M0,0H14.987V14.986H0Z" transform="translate(0 0)" fill="none"/>
      <g id="Group_3-2" data-name="Group 3" clip-path="url(#clip-path)">
        <path id="Fill_1" data-name="Fill 1" d="M14.527.459A1.532,1.532,0,0,0,12.835.121L.965,5.005a1.556,1.556,0,0,0,.082,2.91L5.1,9.3a.707.707,0,0,0,.693-.13l5.128-4.35A.713.713,0,1,0,10,3.733L5.184,7.823,1.509,6.566a.122.122,0,0,1-.09-.122A.115.115,0,0,1,1.5,6.323l11.87-4.887a.133.133,0,0,1,.174.173L8.661,13.479a.121.121,0,0,1-.126.082.116.116,0,0,1-.118-.09L7.311,10.23a.713.713,0,0,0-1.349.462l1.107,3.242a1.548,1.548,0,0,0,1.424,1.052h.051a1.553,1.553,0,0,0,1.438-.964l4.884-11.87A1.532,1.532,0,0,0,14.527.459" transform="translate(0 0)" fill="#fff"/>
      </g>
    </g>
  </g>
</svg>
