<svg id="USDT" xmlns="http://www.w3.org/2000/svg" width="40" height="40" viewBox="0 0 40 40">
  <path id="Fill_1" data-name="Fill 1" d="M0,20A20,20,0,1,0,20,0,20,20,0,0,0,0,20" fill="#1ba27a"/>
  <path id="Fill_3" data-name="Fill 3" d="M18.94,0H0V4.58H7.2V11.3h4.56V4.58h7.18Z" transform="translate(10.44 10.08)" fill="#fff"/>
  <path id="Fill_5" data-name="Fill 5" d="M14.32,15H9.76V5.36C4.1,5.116,0,4,0,2.7,0,1.211,5.419,0,12.08,0a41.2,41.2,0,0,1,8.545.787C22.9,1.3,24.16,1.975,24.16,2.7c0,1.3-4.138,2.416-9.84,2.66V15ZM12.08.26C6.147.26,1.32,1.2,1.32,2.36s4.827,2.1,10.76,2.1,10.76-.942,10.76-2.1S18.013.26,12.08.26Z" transform="translate(7.88 17.64)" fill="#fff"/>
</svg>
